<?xml version='1.0' encoding='utf-8'?>
<svg xmlns="http://www.w3.org/2000/svg" width="90.143265mm" height="71.634842mm" viewBox="0 0 90.143264 71.634843" version="1.1" id="svg5"> <defs id="defs2"> </defs> <g id="layer1" transform="translate(-64.079442,-107.0844)"> <path style="fill:#a05a2c;stroke:none;stroke-width:0.264583px;stroke-linecap:butt;stroke-linejoin:miter;stroke-opacity:1" d="m 65.877332,139.39935 1.047962,3.71153 2.599142,0.64979 -5.444994,15.29667 3.81,1.74428 1.98684,-1.83531 0.927709,-0.22018 4.043317,-9.78667 1.883818,-2.89465 14.840809,4.22711 19.803065,5.51361 -1.28651,4.50279 -5.30084,16.66483 3.09539,1.34631 4.319,-2.2514 2.1595,-7.765 3.35411,-8.08664 1.4703,-2.0676 1.15172,0.75185 6.62782,-2.85906 10.46154,-2.66412 4.61348,4.48353 2.85906,2.27424 5.65313,2.7291 1.68945,0.51983 1.527,-0.48734 -3.3464,-3.34639 -6.92022,-7.99237 -0.0975,-3.9312 -1.03966,-1.68944 -1.72193,-0.58481 0.18341,0.80407 -22.37608,6.75418 -1.88382,0.45946 -10.88938,-2.25139 -8.454213,-2.57302 -31.346058,-9.14659" id="path17566"/> <path style="fill:#a05a2c;stroke:none;stroke-width:0.264583px;stroke-linecap:butt;stroke-linejoin:miter;stroke-opacity:1" d="m 133.59032,120.98791 1.99795,-0.41464 4.77024,1.07843 v 4.19844 l -3.92552,0.31129 -1.94936,-0.25992 z" id="path17221"/> <path style="fill:#a05a2c;stroke:none;stroke-width:0.264583px;stroke-linecap:butt;stroke-linejoin:miter;stroke-opacity:1" d="m 89.73489,117.60311 1.864514,-1.07475 4.165068,0.72686 0.210055,4.65115 -6.021517,-1.28072 -0.21812,-3.02254" id="path17106"/> <path style="fill:#a05a2c;stroke:none;stroke-width:0.264583px;stroke-linecap:butt;stroke-linejoin:miter;stroke-opacity:1" d="m 90.969611,131.18504 h 2.11667 l 2.82222,0.25692 -0.03526,5.52845 -1.591974,-0.0975 -1.39704,-0.55232 -2.306738,-0.48734 v -3.47635 l -0.313437,-1.17184" id="path18380"/> <g id="g20602"> <path style="fill:#c87137;fill-opacity:1;stroke:none;stroke-width:0.264583px;stroke-linecap:butt;stroke-linejoin:miter;stroke-opacity:1" d="m 84.619612,107.46812 53.937408,1.1574 6.53748,0.53406 0.17076,12.7905 -9.64884,-1.10272 -3.85953,-0.55136 -10.75154,-0.82704 -7.1677,-1.01083 -6.15687,-0.73515 -7.994738,-0.55136 -8.08663,-0.64326 -4.50279,0.73515 -3.18257,0.91628 z" id="path15026"/> <path style="fill:#c87137;stroke:none;stroke-width:0.264583px;stroke-linecap:butt;stroke-linejoin:miter;stroke-opacity:1" d="m 65.877332,139.39935 17.154779,-4.32008 12.008385,1.72693 31.535114,7.21438 8.51534,0.21726 7.07952,1.60214 -10.65649,3.37889 -7.73604,1.76713 -6.6892,2.39149 -15.46489,-3.37888 -6.237946,-2.07932 -6.627812,-2.07931 -11.956057,-3.11897 z" id="path17451"/> <path style="fill:#c87137;stroke:none;stroke-width:0.264583px;stroke-linecap:butt;stroke-linejoin:miter;stroke-opacity:1" d="m 84.657062,120.72945 -0.97069,10.45561 7.28324,-2e-5 8.70487,0.48961 18.908758,3.24893 25.92645,5.32824 0.4341,-13.26152 -12.52012,-1.29367 -40.156748,-4.35357 z" id="path17336"/> <path style="fill:#a05a2c;stroke:none;stroke-width:0.264583px;stroke-linecap:butt;stroke-linejoin:miter;stroke-opacity:1" d="m 134.92536,138.26998 5.23077,0.94219 0.48734,6.14047 -2.50167,-0.48734 -2.40421,-0.065 c 0,0 -0.77974,-3.83373 -0.77974,-4.28858 0,-0.45485 -0.0325,-2.24176 -0.0325,-2.24176 z" id="path18894"/> </g> <path style="fill:#784421;stroke:none;stroke-width:0.264583px;stroke-linecap:butt;stroke-linejoin:miter;stroke-opacity:1" d="m 145.0945,109.15958 3.601,-0.0592 -0.44954,11.36549 -0.90246,0.41809 -1.18679,1.21963 -0.57433,-1.53922 -0.75812,-4.06629 z" id="path19174"/> <path style="fill:#784421;stroke:none;stroke-width:0.264583px;stroke-linecap:butt;stroke-linejoin:miter;stroke-opacity:1" d="m 144.94379,126.9903 1.67771,-0.25401 2.06307,0.2924 -0.66603,8.43097 -0.43861,3.83373 -0.9097,0.27616 -1.60822,0.68228 -0.21118,-3.41138 0.065,-3.08648 -0.0975,-5.00335 0.12545,-1.76032 v 0" id="path19420"/> <path style="fill:#2c2c2c;stroke-width:0.352778" d="m 106.13905,178.2515 c -0.48507,-0.26915 -1.3185,-0.49171 -1.85208,-0.49458 -0.53358,-0.003 -0.97014,-0.16395 -0.97014,-0.35797 0,-0.19403 0.15237,-0.35278 0.3386,-0.35278 0.18623,0 0.64524,-0.99277 1.02002,-2.20616 0.37477,-1.21339 1.65044,-4.71149 2.8348,-7.77357 1.85528,-4.79666 3.75218,-10.80849 3.47791,-11.02251 -0.23038,-0.17976 -11.101528,-3.1632 -17.364308,-4.7654 -3.87593,-0.99157 -9.17877,-2.5043 -11.7841,-3.36162 -3.55255,-1.16902 -4.854,-1.46162 -5.20511,-1.17023 -0.78252,0.64943 -4.69097,8.83406 -5.14582,10.77578 -0.3907,1.66787 -0.55827,1.88011 -2.01278,2.54925 l -1.5866,0.72991 -1.905,-0.87214 -1.905,-0.87214 0.24703,-1.32433 c 0.39865,-2.13717 2.28542,-7.78003 3.60449,-10.78015 0.67172,-1.52776 1.16927,-2.82874 1.10567,-2.89106 -0.0636,-0.0623 -0.65706,-0.25307 -1.31881,-0.42387 -0.70077,-0.18087 -1.23958,-0.55849 -1.29034,-0.90433 -0.0479,-0.32658 -0.19132,-1.21039 -0.31865,-1.96402 l -0.2315,-1.37023 4.16767,-1.12976 c 2.29222,-0.62136 6.16446,-1.75145 8.60499,-2.51129 l 4.43732,-1.38154 3.46944,0.52082 c 1.90819,0.28644 3.52296,0.52081 3.58837,0.52081 0.0654,0 0.11893,-0.9525 0.11893,-2.11666 v -2.11667 h -3.28884 -3.28884 l 0.12893,-5.55625 c 0.1471,-6.33929 -0.34304,-5.68318 3.91198,-5.2367 l 2.22573,0.23354 -0.10906,-1.51127 -0.10906,-1.51127 -2.11667,7.1e-4 c -1.16417,3.5e-4 -2.47385,0.13016 -2.91042,0.28835 l -0.79375,0.28762 -0.0529,-5.13905 c -0.0291,-2.82644 -0.0688,-5.33745 -0.0882,-5.57999 -0.0464,-0.57958 6.73836,-0.49554 23.600838,0.29233 8.68984,0.40601 15.6425,0.529 22.01879,0.38948 7.26178,-0.15889 9.90941,-0.0932 11.99444,0.29744 1.47161,0.27574 3.71804,0.53713 4.99207,0.58086 l 2.31641,0.0795 -0.13549,5.83887 c -0.14232,6.13281 -0.23051,6.89217 -0.76224,6.56354 -0.17975,-0.11109 -0.60006,0.0712 -0.93402,0.4052 -0.74056,0.74056 -1.32966,0.84616 -2.56246,0.45934 -0.51929,-0.16293 -1.61886,-0.39061 -2.44348,-0.50593 l -1.4993,-0.20968 v 2.09922 2.09922 l 1.67569,0.26156 c 0.92163,0.14386 2.46945,0.28268 3.43959,0.3085 3.02789,0.0806 3.75115,0.17007 3.58236,0.44332 -0.0899,0.14552 -0.34325,2.7252 -0.56301,5.73263 -0.49885,6.82693 -0.62731,7.52181 -1.33998,7.24833 -0.30068,-0.11538 -0.84631,0.0614 -1.21252,0.39279 -0.61717,0.55853 -0.83262,0.56267 -2.9476,0.0566 l -2.28175,-0.54595 v 2.61607 c 0,2.56157 0.021,2.62339 1.0097,2.96805 1.29493,0.45141 1.88994,1.73204 2.016,4.33901 0.096,1.98605 0.18809,2.17278 1.99978,4.05695 1.0445,1.08629 2.8025,3.10498 3.90665,4.48597 1.10415,1.381 2.63897,2.94847 3.4107,3.48328 1.55631,1.07852 1.55759,1.42579 0.007,1.76647 -0.73506,0.16144 -1.76123,-0.054 -3.43555,-0.72119 -4.43038,-1.76554 -5.90438,-2.71204 -9.11211,-5.85118 -1.75831,-1.7207 -3.42518,-3.12747 -3.70417,-3.12614 -0.27898,0.001 -2.84342,0.63255 -5.69875,1.40271 -6.20041,1.67243 -10.62216,3.43065 -10.35813,4.1187 0.22897,0.59669 -0.5659,0.61889 -1.1605,0.0324 -0.58809,-0.58005 -1.16557,0.16514 -2.71037,3.49755 -1.1966,2.58127 -3.81602,10.38804 -4.23514,12.62213 -0.20713,1.10409 -0.47868,1.35563 -2.48867,2.30531 -2.49852,1.18049 -2.74835,1.21204 -4.01818,0.50743 z m 2.22912,-2.0598 c 0.2922,-0.85757 0.43072,-1.65976 0.30782,-1.78267 -0.12289,-0.12289 -0.0656,-0.33388 0.12741,-0.46885 0.19297,-0.13497 1.20507,-2.30915 2.24911,-4.83151 1.04405,-2.52236 2.66502,-6.12609 3.60216,-8.00828 0.93715,-1.8822 1.58732,-3.49268 1.44483,-3.57884 -0.14248,-0.0862 -1.12258,-0.41187 -2.178,-0.7238 -1.96332,-0.58026 -2.47104,-0.4242 -2.48538,0.76397 -0.003,0.24612 -0.5722,2.20077 -1.26495,4.34366 -1.06892,3.30649 -1.18905,3.98626 -0.79375,4.4914 0.41107,0.52529 0.3981,0.54235 -0.11037,0.14525 -0.47864,-0.37382 -0.61401,-0.35133 -0.79983,0.1329 -0.12302,0.32059 -0.0397,0.80453 0.18509,1.07542 0.32442,0.39091 0.29651,0.44945 -0.13529,0.28375 -0.41682,-0.15994 -0.79158,0.4363 -1.60252,2.54957 -0.58216,1.51708 -1.29885,3.57534 -1.59266,4.57391 l -0.53419,1.81557 1.29306,0.5102 c 0.71119,0.28061 1.39727,0.4556 1.52463,0.38887 0.12735,-0.0667 0.47063,-0.82296 0.76283,-1.68052 z m 4.82644,-17.84275 c 0,-0.19403 0.39687,-0.35278 0.88194,-0.35278 0.48507,0 0.88195,0.15875 0.88195,0.35278 0,0.19403 -0.39688,0.35278 -0.88195,0.35278 -0.48507,0 -0.88194,-0.15875 -0.88194,-0.35278 z m 0.26458,-0.93919 c 0.24254,-0.0979 0.63941,-0.0979 0.88194,0 0.24254,0.0979 0.0441,0.17793 -0.44097,0.17793 -0.48507,0 -0.6835,-0.0801 -0.44097,-0.17793 z m -3.19552,19.29591 c 1.32192,-0.63869 1.8726,-1.28246 1.8726,-2.18916 0,-0.1954 -0.48843,0.0557 -1.0854,0.55802 -0.59696,0.50232 -1.22638,0.91331 -1.39869,0.91331 -0.17232,0 -0.48323,0.3175 -0.69091,0.70555 -0.46326,0.86562 -0.46381,0.86562 1.3024,0.0123 z m 0.85025,-2.23183 c 1.19529,-1.06467 2.40264,-3.57331 1.94162,-4.03433 -0.11516,-0.11516 -0.50067,0.0542 -0.85669,0.37641 -0.35601,0.32219 -0.81625,0.5858 -1.02275,0.5858 -0.39661,0 -0.92906,1.05059 -0.66584,1.3138 0.085,0.085 0.49917,-0.03 0.92046,-0.25546 0.42129,-0.22547 0.83271,-0.34322 0.91426,-0.26166 0.0816,0.0815 -0.39631,0.44157 -1.06194,0.80004 -0.99833,0.53763 -1.96899,1.75865 -1.96899,2.47683 0,0.39287 0.62479,0.0452 1.79987,-1.00143 z m 3.60958,-8.18739 c 0.659,-1.74625 1.31595,-3.45282 1.45989,-3.79237 0.42897,-1.01192 -1.0421,-0.76999 -1.50577,0.24765 -0.33851,0.74297 -0.31345,0.83406 0.17764,0.64561 0.38138,-0.14635 0.48682,-0.082 0.31668,0.19332 -0.1403,0.227 -0.45836,0.41273 -0.7068,0.41273 -0.24845,0 -0.64473,0.42359 -0.88061,0.94131 -0.38161,0.83754 -0.36841,0.89112 0.11976,0.48597 0.38663,-0.32087 0.54865,-0.33513 0.54865,-0.0483 0,0.22387 -0.24399,0.50067 -0.54222,0.61511 -0.50062,0.19211 -1.57445,1.86963 -1.57445,2.4596 0,0.14047 0.39688,-0.11744 0.88195,-0.57314 0.48507,-0.4557 0.88194,-0.63474 0.88194,-0.39787 0,0.23688 -0.46802,0.69929 -1.04004,1.02759 -0.86526,0.49659 -1.78218,1.72557 -1.78218,2.38873 0,0.0897 0.55066,-0.19561 1.22369,-0.63396 1.00361,-0.65366 1.43917,-1.368 2.42187,-3.97199 z m 37.98223,-3.70417 c 0,-0.19403 -0.14938,-0.35278 -0.33196,-0.35278 -0.18257,0 -0.43007,0.15875 -0.54998,0.35278 -0.11992,0.19403 0.0295,0.35278 0.33195,0.35278 0.30249,0 0.54999,-0.15875 0.54999,-0.35278 z m -0.90665,-0.66558 c 0.30104,-0.4871 -0.77994,-1.20346 -1.43607,-0.95168 -0.53273,0.20443 -0.52488,0.2732 0.0837,0.7338 0.78843,0.59673 1.08836,0.64505 1.35237,0.21788 z m -4.25058,-2.19404 c -1.1411,-1.18475 -3.28533,-3.23025 -4.76497,-4.54556 -2.21559,-1.96955 -2.85358,-2.36027 -3.61597,-2.21453 -0.50915,0.0973 -0.92573,0.28529 -0.92573,0.41768 0,0.1324 1.26206,1.51813 2.80459,3.07941 2.06181,2.08688 3.48662,3.17652 5.37986,4.11429 1.4164,0.70159 2.71515,1.28173 2.88611,1.2892 0.17096,0.007 -0.62279,-0.95575 -1.76389,-2.14049 z m -31.0025,1.53131 c 0.19402,-0.14256 0.71041,-0.7693 1.14751,-1.39277 0.77056,-1.09909 0.77434,-1.1445 0.12426,-1.49242 -0.54602,-0.29222 -0.78097,-0.19022 -1.26565,0.5495 -0.58654,0.89517 -0.58323,0.90466 0.22853,0.65484 0.94636,-0.29124 0.67377,0.10754 -0.46513,0.68046 -0.42468,0.21363 -0.83759,0.58686 -0.91759,0.8294 -0.15801,0.47903 0.57931,0.58884 1.14807,0.17099 z m 33.10821,-1.87999 c -0.62625,-0.62625 -0.76117,-0.65243 -0.94143,-0.18267 -0.28495,0.74257 0.77931,1.80682 1.29307,1.29306 0.27065,-0.27064 0.16987,-0.58887 -0.35164,-1.11039 z m -81.270078,-2.52434 c 0.79948,-3.0018 3.26903,-8.63464 4.6132,-10.52236 0.41973,-0.58945 0.70613,-1.11334 0.63646,-1.16419 -0.22031,-0.1608 -3.01508,-0.92525 -3.38263,-0.92525 -0.65891,0 -4.14755,8.56909 -3.82784,9.40225 0.10037,0.26154 0.0476,0.47553 -0.11735,0.47553 -0.1649,0 -0.4846,0.75406 -0.71043,1.67569 -0.22584,0.92163 -0.48416,1.92406 -0.57405,2.22763 -0.10651,0.35966 0.23701,0.75121 0.98609,1.12396 0.63224,0.31462 1.2512,0.58219 1.37547,0.5946 0.12426,0.0124 0.57475,-1.28713 1.00108,-2.88786 z m 1.49215,2.11667 c 0.30854,-0.24253 0.67135,-0.81163 0.80626,-1.26466 0.2429,-0.81568 0.23626,-0.81777 -0.68426,-0.21462 -1.15015,0.75361 -1.85316,1.92025 -1.15712,1.92025 0.26078,0 0.72659,-0.19843 1.03512,-0.44097 z m 78.740838,-0.13291 c 0.12112,-0.31563 0.031,-0.80191 -0.20034,-1.08062 -0.3649,-0.43968 -0.45916,-0.43778 -0.71221,0.0144 -0.31354,0.56026 -0.0403,1.64011 0.41504,1.64011 0.15251,0 0.37639,-0.25825 0.49751,-0.57388 z m -26.95585,-1.43554 c 0,0.11913 0.6089,-0.0547 1.35311,-0.38629 2.08744,-0.93009 6.61188,-6.33745 5.89908,-7.05025 -0.40168,-0.40168 -2.15965,1.23575 -4.57963,4.26561 -1.34349,1.68209 -2.51685,2.9842 -2.60747,2.89359 -0.19668,-0.19668 1.95306,-2.9383 3.94674,-5.03338 0.78471,-0.82461 1.27517,-1.4993 1.08992,-1.4993 -0.18526,0 -1.52801,0.4062 -2.98388,0.90268 -3.23353,1.10268 -5.11283,3.0523 -4.23067,4.38898 0.28549,0.4326 0.76768,0.10164 2.64213,-1.81341 2.94214,-3.0059 2.99608,-2.48228 0.068,0.66028 -1.44956,1.55573 -2.17638,2.61227 -2.08568,3.03185 0.13222,0.61157 0.17317,0.61326 0.81378,0.0335 0.37101,-0.33576 0.67457,-0.513 0.67457,-0.39387 z m 25.55626,-1.19816 c -0.34137,-0.55235 -0.77151,-0.35082 -0.98379,0.46093 -0.26933,1.02993 0.55428,1.55531 0.91395,0.58302 0.14725,-0.39806 0.17868,-0.86784 0.0698,-1.04395 z m -75.741738,-1.01291 c 0.13054,-0.49213 0.19747,-1.09322 0.14873,-1.33576 -0.0487,-0.24253 0.0477,-0.44097 0.21429,-0.44097 0.16659,0 0.57,-0.56012 0.89646,-1.24471 l 0.59357,-1.24472 -1.38978,0.79985 c -0.92827,0.53425 -1.56283,1.24044 -1.91095,2.12666 -0.57682,1.46845 -0.4432,1.59063 0.84287,0.77073 0.47973,-0.30585 0.27692,-0.0281 -0.45069,0.61736 -0.72761,0.64539 -1.32293,1.45601 -1.32292,1.80136 2e-5,0.56612 0.10539,0.55002 1.07054,-0.16355 0.58879,-0.43531 1.17734,-1.19412 1.30788,-1.68625 z m 47.649658,1.6588 c 0.071,-0.36846 -0.0991,-0.61331 -0.42585,-0.61331 -0.3253,0 -0.46659,-0.20163 -0.35148,-0.5016 0.10587,-0.27588 0.0288,-0.80745 -0.17126,-1.18126 -0.37796,-0.70622 -1.7602,-1.06075 -10.05142,-2.57808 -2.12873,-0.38956 -7.30743,-1.86148 -11.641668,-3.30886 -4.29397,-1.43393 -9.15659,-2.94796 -10.80583,-3.36451 -2.31723,-0.58528 -14.4298,-3.97497 -18.43042,-5.15774 -0.40001,-0.11826 -0.56453,-0.0196 -0.47043,0.28218 0.0796,0.25522 0.23633,0.88452 0.34831,1.39845 0.172,0.78935 0.49149,1.00067 2.05794,1.36115 1.01988,0.2347 5.66433,1.66971 10.32099,3.18891 4.65667,1.51919 13.07042,3.96997 18.69722,5.44616 5.626808,1.4762 11.897428,3.17418 13.934718,3.77329 2.0373,0.59911 4.02167,1.1077 4.40973,1.13019 0.38805,0.0225 0.83761,0.24846 0.99903,0.50216 0.39867,0.62663 1.43473,0.3794 1.58042,-0.37713 z m 26.96806,-0.92154 c 0.25872,-0.98935 -0.28814,-1.75197 -0.85199,-1.18812 -0.70143,0.70143 -1.17216,0.50469 -0.51908,-0.21696 0.52605,-0.58127 0.53286,-0.70467 0.0605,-1.09667 -0.44631,-0.3704 -0.59213,-0.28413 -0.90335,0.53443 -0.32317,0.85 -0.24857,1.10405 0.57731,1.96607 1.01717,1.0617 1.3592,1.06196 1.63658,0.001 z M 127.67996,154.292 c 1.29764,-1.50509 3.21704,-3.96777 3.61748,-4.6414 0.16382,-0.27557 0.005,-0.34584 -0.49033,-0.21641 -0.4031,0.10541 -1.1502,0.84467 -1.66021,1.64279 -0.51001,0.79813 -1.62072,2.28373 -2.46825,3.30135 -0.96694,1.161 -1.29405,1.75235 -0.87813,1.5875 0.36455,-0.14449 1.21031,-0.89771 1.87944,-1.67383 z m 3.68271,-2.21727 c 2.06813,-3.15488 2.11591,-3.25078 1.61957,-3.25078 -0.34103,0 -4.98294,5.62473 -5.26189,6.37598 -0.063,0.16966 0.33388,0.14131 0.88195,-0.063 0.65514,-0.24421 1.60069,-1.29316 2.76037,-3.0622 z m 1.20784,1.12527 c 1.11938,-1.89722 3.60133,-5.15252 3.78693,-4.96692 0.0932,0.0932 -0.56966,1.17363 -1.4731,2.40087 -2.23621,3.03767 -2.44528,3.45701 -1.61534,3.23998 0.36265,-0.0948 1.66763,-1.508 2.89996,-3.14037 1.23232,-1.63237 2.35891,-2.96794 2.50353,-2.96794 0.14462,0 -0.68494,1.23031 -1.84347,2.73402 -1.15853,1.50372 -1.9357,2.79158 -1.72704,2.86191 0.20865,0.0703 0.55598,-0.0487 0.77183,-0.26458 0.21586,-0.21586 0.72931,-0.39247 1.14101,-0.39247 2.36491,0 6.12323,-2.30242 6.15641,-3.77154 0.0229,-1.01367 -0.66753,-0.65106 -1.89767,0.99667 -0.72927,0.97682 -1.40598,1.69599 -1.50382,1.59816 -0.0978,-0.0978 0.47087,-0.99861 1.26377,-2.00171 1.43427,-1.81448 1.85587,-3.17158 0.9853,-3.17158 -0.38164,0 -1.65363,1.74166 -4.02081,5.50546 -0.23113,0.36749 -0.42957,0.49571 -0.44098,0.28493 -0.0114,-0.21077 0.68346,-1.47771 1.54416,-2.81542 0.86069,-1.33771 1.53134,-2.46576 1.49033,-2.50677 -0.11585,-0.11585 -5.69626,1.49485 -6.14946,1.77494 -0.34812,0.21515 -4.31411,5.75521 -4.31411,6.02635 0,0.0546 0.39151,0.0245 0.87002,-0.067 0.50782,-0.0971 1.16249,-0.66202 1.57255,-1.35702 z m -12.64832,0.16371 c 0.34673,-0.64787 0.31485,-0.67701 -0.35088,-0.32072 -0.40274,0.21554 -0.73226,0.6338 -0.73226,0.92947 0,0.66581 0.57352,0.34348 1.08314,-0.60875 z m 23.71209,0.0519 c 0.10227,-0.39108 0.0615,-0.71105 -0.0906,-0.71105 -0.48731,0 -1.13735,1.01432 -0.89811,1.40141 0.30871,0.49949 0.75996,0.18441 0.98872,-0.69036 z m -0.80634,-0.92519 c 0,-0.64025 -0.92672,-0.63768 -1.17267,0.003 -0.1044,0.27208 -0.10587,0.57864 -0.003,0.68125 0.32403,0.32404 1.17592,-0.17185 1.17592,-0.6845 z m -19.05,-1.50442 c 2.81341,-0.97441 7.57591,-2.43658 10.58334,-3.24926 3.00743,-0.81267 5.68977,-1.59452 5.96075,-1.73744 0.55291,-0.29161 -3.3122,-1.05586 -5.33992,-1.05586 -4.66789,0 -17.36943,-2.33883 -28.95012,-5.3308 -5.2013,-1.3438 -12.012108,-2.74764 -12.341788,-2.54389 -0.18152,0.11219 -0.43135,0.045 -0.55517,-0.14941 -0.12383,-0.19436 -0.93952,-0.44901 -1.81264,-0.56588 -0.87313,-0.11687 -3.09563,-0.45137 -4.93889,-0.74334 l -3.35139,-0.53085 -3.175,1.04457 c -1.74625,0.57451 -5.1525,1.58221 -7.56944,2.23934 -2.83503,0.77079 -4.14949,1.26915 -3.70416,1.40437 3.42947,1.04138 14.81897,4.24472 17.6236,4.95671 1.94028,0.49257 6.75878,2.01497 10.70778,3.38313 4.397088,1.52339 8.704208,2.76357 11.112498,3.1997 2.16287,0.39169 4.80562,0.93467 5.87277,1.20662 2.72316,0.69397 4.06033,0.48716 9.87778,-1.52771 z m -51.112108,-0.0923 c 0.50744,-0.24982 1.36376,-1.239 1.90294,-2.19819 l 0.98033,-1.74396 -1.15938,0.23188 c -1.0597,0.21194 -2.07828,1.05402 -2.10611,1.74115 -0.006,0.15235 0.31508,0.10237 0.71389,-0.11107 0.39881,-0.21344 0.89493,-0.33146 1.10247,-0.26228 0.20755,0.0692 -0.25926,0.41286 -1.03734,0.76373 -0.77809,0.35087 -1.59696,1.03793 -1.81971,1.52682 -0.43763,0.9605 -0.4236,0.96101 1.42291,0.0519 z m 70.514888,-0.30583 c 0,-0.19403 -0.07,-0.35278 -0.15557,-0.35278 -0.0856,0 -0.25368,0.15875 -0.3736,0.35278 -0.11991,0.19403 -0.0499,0.35278 0.15557,0.35278 0.20548,0 0.3736,-0.15875 0.3736,-0.35278 z m -67.447928,-4.22852 c 0.25399,-0.003 0.36368,-0.16357 0.24376,-0.35759 -0.33905,-0.54861 -1.44947,-0.41573 -1.98527,0.23756 -0.43472,0.53005 -0.3941,0.56658 0.39777,0.3576 0.48507,-0.12802 1.08976,-0.23492 1.34374,-0.23757 z m 64.272928,-2.11392 c 0,-0.62329 -0.098,-0.65336 -0.91537,-0.28092 -0.8214,0.37426 -0.84856,0.44336 -0.26458,0.6732 1.02535,0.40354 1.17995,0.35214 1.17995,-0.39228 z m -2.82222,-2.43586 c 0,-2.57109 -0.0588,-2.79645 -0.77835,-2.98462 -0.42808,-0.11195 -0.81544,-0.16644 -0.86078,-0.1211 -0.0453,0.0454 0.01,1.30171 0.12247,2.79193 0.15702,2.0761 0.33763,2.74497 0.77259,2.86126 0.31223,0.0835 0.60737,0.17018 0.65587,0.19268 0.0485,0.0225 0.0882,-1.21056 0.0882,-2.74015 z m -2.30723,-0.30573 c -0.11829,-1.50372 -0.32225,-2.82826 -0.45323,-2.94343 -0.13099,-0.11517 -2.14315,-0.56283 -4.47149,-0.99479 -9.14898,-1.69738 -10.53519,-1.96782 -20.10833,-3.92291 -2.71639,-0.55476 -6.20889,-1.17 -7.76111,-1.3672 -1.55222,-0.1972 -3.576288,-0.46542 -4.497918,-0.59605 l -1.67569,-0.2375 0.005,2.25282 c 0.003,1.23904 0.12203,2.42519 0.26458,2.63588 0.14255,0.21069 2.79918,0.97455 5.903628,1.69746 3.10444,0.72292 7.23194,1.68963 9.17222,2.14823 11.12829,2.63031 17.8417,3.81874 22.67823,4.01459 l 1.15879,0.0469 z m 4.23091,1.97184 c 0.65578,-0.29879 0.89854,-0.68002 0.89854,-1.41111 0,-0.55093 -0.16918,-1.0017 -0.37597,-1.0017 -0.71247,0 -1.7407,0.73152 -1.7407,1.2384 0,0.39612 0.19426,0.43417 0.88195,0.17271 0.48507,-0.18442 0.88194,-0.19771 0.88194,-0.0295 0,0.16819 -0.39687,0.40541 -0.88194,0.52715 -0.48507,0.12175 -0.88195,0.37708 -0.88195,0.56742 0,0.44137 0.12462,0.43489 1.21813,-0.0634 z m 0.62265,-3.25411 c 0.13931,-0.21638 0.10842,-0.44341 -0.0686,-0.5045 -0.46416,-0.16015 -1.77214,0.59948 -1.77214,1.0292 0,0.45094 1.48524,0.0276 1.84078,-0.5247 z m 4.78177,-6.65523 -0.0962,-6.4382 -1.5875,-0.24749 c -0.87312,-0.13612 -5.23875,-0.49314 -9.70139,-0.79338 -9.81802,-0.66055 -14.2065,-1.11816 -32.45555,-3.38433 -7.761108,-0.96378 -14.539238,-1.80209 -15.062508,-1.8629 l -0.95139,-0.11059 -0.10694,4.61046 c -0.0588,2.53575 -0.0275,4.71582 0.0695,4.84461 0.097,0.12878 2.71639,0.30592 5.82083,0.39364 3.10445,0.0877 7.47007,0.42685 9.701388,0.75361 4.18818,0.61332 13.79922,2.31313 14.11111,2.49569 0.097,0.0568 4.14514,0.84348 8.99583,1.7482 4.8507,0.90473 10.28512,1.95384 12.07649,2.33136 1.79137,0.37752 3.7096,0.6864 4.26273,0.6864 0.55313,0 1.12257,0.11907 1.26542,0.26459 0.22308,0.22726 2.67031,1.00877 3.4818,1.11189 0.1499,0.019 0.22927,-2.86255 0.17639,-6.40356 z m -9.44477,-2.5165 c 0,-0.0744 0.31772,-0.21832 0.70604,-0.31987 0.38833,-0.10155 0.61708,-0.0407 0.50835,0.13524 -0.18988,0.30724 -1.21439,0.463 -1.21439,0.18463 z m 0.70556,-1.45225 c -0.25314,-0.30501 -0.28742,-0.52917 -0.0809,-0.52917 0.19703,0 0.4496,0.23813 0.56129,0.52917 0.11168,0.29104 0.1481,0.52917 0.0809,0.52917 -0.0672,0 -0.31975,-0.23813 -0.56129,-0.52917 z m -45.684728,-3.35144 c -0.31719,-0.51323 0.12438,-1.06476 0.81458,-1.01741 0.53781,0.0369 0.53576,0.0568 -0.0208,0.20226 -0.33955,0.0887 -0.61737,0.32695 -0.61737,0.52939 0,0.20242 0.3175,0.28502 0.70556,0.18354 0.38806,-0.10148 0.70556,-0.0406 0.70556,0.13525 0,0.43455 -1.31544,0.40719 -1.5875,-0.033 z m 56.597808,12.90414 c 0.34145,-0.41142 0.28589,-0.46735 -0.30959,-0.31163 -0.39914,0.10438 -0.72572,0.33002 -0.72572,0.50141 0,0.47584 0.56954,0.37144 1.03531,-0.18978 z m 0.72858,-2.0653 c 0,-0.53246 -0.11697,-0.5705 -0.73577,-0.23933 -0.40467,0.21657 -0.82206,0.30747 -0.92753,0.202 -0.10547,-0.10547 0.22563,-0.38194 0.73577,-0.61437 0.51014,-0.23244 0.92753,-0.63526 0.92753,-0.89516 0,-0.61819 -0.37107,-0.59685 -1.33261,0.0766 -0.94394,0.66117 -1.12807,2.48055 -0.21561,2.13041 0.40498,-0.15541 0.51018,-0.0663 0.36583,0.30987 -0.16981,0.44253 -0.0905,0.45799 0.48989,0.0955 0.38088,-0.23786 0.6925,-0.71737 0.6925,-1.06558 z m -52.211108,-0.96106 c 0,-0.19403 -0.16812,-0.35278 -0.3736,-0.35278 -0.20548,0 -0.27548,0.15875 -0.15556,0.35278 0.11991,0.19403 0.28803,0.35278 0.37359,0.35278 0.0856,0 0.15557,-0.15875 0.15557,-0.35278 z m -2.11666,-2.46945 v -2.46944 h -1.05834 -1.05833 v 2.26852 c 0,2.39378 -0.0873,2.27018 1.85208,2.62233 0.14552,0.0264 0.26459,-1.06321 0.26459,-2.42141 z m 2.11666,0.86954 c 0,-0.28422 -0.127,-0.51676 -0.28222,-0.51676 -0.44423,0 -1.12889,0.79917 -1.12889,1.31769 0,0.36171 0.16375,0.38339 0.70556,0.0934 0.38805,-0.20768 0.70555,-0.61014 0.70555,-0.89435 z m 50.976388,0.54157 c 0.11992,-0.19402 0.52616,-0.35277 0.90277,-0.35277 0.57598,0 0.68473,-0.25122 0.68473,-1.5818 v -1.58179 l -1.23472,0.5888 c -0.74124,0.35347 -1.23472,0.84468 -1.23472,1.22901 0,0.74288 0.12607,0.77186 1.16972,0.2688 0.59792,-0.28822 0.55321,-0.18645 -0.19958,0.45422 -0.53358,0.45411 -0.97014,0.93875 -0.97014,1.07698 0,0.37576 0.63194,0.30307 0.88194,-0.10145 z M 95.202942,132.4485 c 0,-0.5317 -0.25269,-0.89447 -0.70555,-1.0129 -0.45293,-0.11844 -0.70556,-0.0108 -0.70556,0.30056 0,0.30074 0.23461,0.4113 0.61736,0.29095 0.58797,-0.18487 0.58797,-0.16989 0,0.31455 -0.33955,0.27976 -0.61736,0.77456 -0.61736,1.09954 0,0.48157 0.13054,0.52103 0.70556,0.21328 0.39804,-0.21302 0.70555,-0.73865 0.70555,-1.20598 z m 52.540968,-2.07568 c 0.1614,-0.4264 0.25696,-0.81705 0.21236,-0.86811 -0.0446,-0.0511 -0.66111,0.14952 -1.37,0.44571 -0.99839,0.41716 -1.28888,0.73828 -1.28888,1.4248 0,0.87451 0.0143,0.87888 1.07653,0.32957 0.5921,-0.30618 1.20859,-0.90557 1.36999,-1.33197 z m -0.66512,-1.13712 c 1.33521,-0.69046 1.38306,-1.38804 0.0726,-1.05915 -1.0712,0.26885 -1.85405,0.81261 -1.85405,1.28779 0,0.45638 0.60751,0.37841 1.7814,-0.22864 z m -0.21982,-1.36565 1.38519,-0.48215 -1.112,-0.24424 c -1.24511,-0.27347 -1.83477,-0.045 -1.83477,0.71081 0,0.60812 -0.13685,0.60675 1.56158,0.0156 z m -13.02241,-4.76054 -0.24624,-2.1216 -1.4666,-0.1963 c -0.80664,-0.10797 -4.00661,-0.43488 -7.11106,-0.72647 -3.10444,-0.29159 -8.10507,-0.84004 -11.1125,-1.21876 -6.6762,-0.84073 -12.01413,-1.35331 -15.506038,-1.48899 l -2.62965,-0.10217 0.10237,1.93783 c 0.0563,1.0658 0.15956,1.99545 0.22947,2.06588 0.57513,0.57947 37.048538,4.47016 37.861148,4.03873 0.0689,-0.0366 0.0145,-1.02127 -0.1209,-2.18815 z m 2.71137,0.40261 c -0.16801,-2.07244 -0.46184,-2.54271 -1.59468,-2.55224 -0.57613,-0.005 -0.61726,0.20484 -0.39692,2.02308 0.29887,2.46619 0.34728,2.55763 1.3541,2.55763 0.76017,0 0.79338,-0.10568 0.6375,-2.02847 z m 3.10476,0 c 1.4e-4,-1.01864 -0.11881,-1.85129 -0.26433,-1.85033 -0.14552,0.001 -0.74083,0.41057 -1.32292,0.91024 -0.58338,0.50078 -0.78128,0.81663 -0.44097,0.7038 0.33955,-0.11257 0.89517,-0.29888 1.23472,-0.414 0.33955,-0.11513 0.10143,0.13859 -0.52916,0.56381 -0.63059,0.42522 -1.14653,0.91629 -1.14653,1.09126 0,0.43178 0.96316,0.40475 1.23472,-0.0346 0.11992,-0.19402 0.4071,-0.34924 0.63818,-0.34493 0.23109,0.004 0.0309,0.30702 -0.44492,0.67268 l -0.86507,0.66483 0.95302,-0.0553 c 0.90743,-0.0527 0.95303,-0.14391 0.95326,-1.9074 z m -1.41086,-1.67569 c 0.36692,-0.4421 0.31598,-0.52917 -0.30958,-0.52917 -0.43037,0 -0.74875,0.22501 -0.74875,0.52917 0,0.29104 0.13931,0.52916 0.30958,0.52916 0.17027,0 0.50721,-0.23812 0.74875,-0.52916 z m 6.57665,-2.34481 c -0.12466,-1.19263 -0.22665,-3.87072 -0.22665,-5.95132 v -3.78291 l -2.20486,-0.44476 c -1.53396,-0.30943 -6.928,-0.46852 -17.72709,-0.52284 -8.53722,-0.043 -18.30034,-0.25041 -21.69583,-0.46101 -3.395478,-0.21061 -8.912048,-0.49042 -12.259018,-0.6218 l -6.08542,-0.23886 v 4.73722 4.73722 l 2.20486,-0.13488 c 1.21267,-0.0742 2.44299,-0.22354 2.73403,-0.33189 1.31083,-0.48799 13.116158,0.2795 22.930548,1.49078 13.14373,1.62219 20.94113,2.29254 21.24335,1.82633 0.20747,-0.32004 0.34207,-0.32435 0.54149,-0.0173 0.27658,0.42581 1.4013,0.67133 4.6735,1.02016 1.06715,0.11377 2.65465,0.33491 3.52777,0.49142 2.74264,0.49163 2.59425,0.60533 2.34332,-1.79554 z m -10.4572,-4.90796 c 0,-0.20548 0.15875,-0.27548 0.35277,-0.15557 0.19403,0.11992 0.35278,0.28804 0.35278,0.3736 0,0.0856 -0.15875,0.15557 -0.35278,0.15557 -0.19402,0 -0.35277,-0.16812 -0.35277,-0.3736 z m 1.27332,-0.47685 c 0.21467,-0.56348 0.1312,-0.64123 -0.50875,-0.47388 -0.42105,0.11011 -0.67658,0.0562 -0.56785,-0.11968 0.27218,-0.4404 1.12197,-0.40204 1.40977,0.0636 0.13037,0.21094 0.051,0.56812 -0.17647,0.79375 -0.31544,0.31296 -0.3526,0.2504 -0.1567,-0.26383 z m -46.208388,-1.54766 c -0.0957,-0.15478 -0.0107,-0.51197 0.18885,-0.79375 0.29576,-0.41768 0.32609,-0.39828 0.16418,0.10504 -0.13035,0.40521 -0.0134,0.61736 0.34032,0.61736 0.31752,0 0.4355,-0.16731 0.2872,-0.40728 -0.15596,-0.25234 -0.0968,-0.31153 0.15556,-0.15557 0.22401,0.13844 0.40729,0.40109 0.40729,0.58367 0,0.40298 -1.29929,0.44552 -1.5434,0.0505 z m 5.77673,7.99936 c 0,-0.63084 -0.0847,-0.67848 -0.53769,-0.30251 -0.29573,0.24544 -0.62869,0.35525 -0.73991,0.24403 -0.11122,-0.11122 0.13074,-0.41016 0.53769,-0.6643 0.68178,-0.42578 1.05536,-1.70347 0.49807,-1.70347 -0.37917,0 -1.87482,1.49554 -1.87482,1.87468 0,0.4321 1.09479,1.27432 1.67569,1.2891 0.24253,0.006 0.44097,-0.32572 0.44097,-0.73753 z m 52.140558,0.32541 c 0.23283,-0.23283 0.42333,-1.25645 0.42333,-2.2747 v -1.85137 l -1.05898,0.36916 c -1.05015,0.36608 -1.63147,0.90183 -1.31832,1.21498 0.0895,0.0895 0.58167,0.004 1.09365,-0.19113 0.51198,-0.19466 0.93087,-0.21631 0.93087,-0.0481 0,0.16819 -0.39687,0.40541 -0.88194,0.52716 -0.48507,0.12174 -0.88195,0.46582 -0.88195,0.76462 0,0.2996 0.17111,0.43751 0.38149,0.30749 0.22772,-0.14074 0.35354,0.0286 0.31215,0.42015 -0.13674,1.29367 0.20635,1.5551 0.9997,0.76176 z M 92.310962,119.1024 c -0.0983,-1.70781 -0.17479,-1.85208 -0.98166,-1.85208 -0.81884,0 -0.86766,0.10191 -0.76042,1.58727 0.11234,1.55584 0.47083,2.10069 1.3893,2.11149 0.33306,0.004 0.43009,-0.50397 0.35278,-1.84668 z m 1.9569,-1.00367 c 0.91287,-1.06617 0.50495,-1.18706 -0.47733,-0.14147 -0.45499,0.48431 -0.6761,0.88056 -0.49137,0.88056 0.18473,0 0.62064,-0.3326 0.9687,-0.73909 z m -0.65242,-0.67202 c 0.11992,-0.19403 0.0499,-0.35278 -0.15557,-0.35278 -0.20547,0 -0.37359,0.15875 -0.37359,0.35278 0,0.19402 0.07,0.35277 0.15556,0.35277 0.0856,0 0.25369,-0.15875 0.3736,-0.35277 z m 53.015218,-0.73129 1.08579,-0.37851 0.11338,-3.06107 c 0.0656,-1.77121 -0.0353,-3.17029 -0.23939,-3.32026 -0.6094,-0.44772 -2.29305,-0.30228 -2.29305,0.19808 0,0.3155 0.37372,0.43215 1.14652,0.35788 l 1.14653,-0.1102 -1.14653,0.35777 c -0.63059,0.19677 -1.14652,0.50801 -1.14652,0.69164 0,0.18363 0.51593,0.2451 1.14652,0.1366 0.87324,-0.15025 1.0204,-0.10739 0.61737,0.17981 -0.29105,0.20739 -0.80698,0.37951 -1.14653,0.38248 -0.38831,0.003 -0.61736,0.27757 -0.61736,0.73899 0,0.63809 0.14351,0.70206 1.10247,0.49144 0.76648,-0.16835 1.02891,-0.12314 0.86112,0.14836 -0.13274,0.21477 -0.62885,0.3905 -1.10247,0.3905 -0.64282,0 -0.86112,0.19004 -0.86112,0.74965 0,0.6448 0.14803,0.72005 1.05833,0.53799 0.58208,-0.11642 1.05833,-0.0674 1.05833,0.10886 0,0.17629 -0.4352,0.37076 -0.96712,0.43215 -0.5833,0.0673 -1.01359,0.35664 -1.0842,0.72899 -0.13781,0.7267 -0.13371,0.72747 1.26793,0.23885 z" id="path5552-5"/> <g id="g20596"> <path style="opacity:0.51;fill:#000000;fill-opacity:1;stroke:none;stroke-width:0.352778;stroke-opacity:1" d="m 111.17063,148.05496 c -2.11077,-0.96875 -3.17699,-1.15572 -4.84212,-2.05581 -0.84282,-0.29907 -3.59615,-0.8607 -6.11851,-1.24806 -4.554527,-0.69944 -8.493407,-1.64246 -8.177967,-1.95791 0.0906,-0.0905 1.01514,0.0745 2.05463,0.36668 1.03951,0.29222 3.63626,0.78275 5.77056,1.09006 4.333967,0.62404 6.632097,1.15192 7.683277,1.82317 6.1379,2.90379 12.28755,3.63624 12.49777,4.42175 -0.053,0.61428 -3.97097,-1.04618 -5.16135,-1.41626 z m -17.947697,-9.06538 c -8.03722,-2.0558 -10.03138,-2.66931 -8.67632,-2.66931 0.27807,0 3.42782,0.79121 6.99945,1.75824 3.57163,0.96703 7.4187,1.94018 8.549047,2.16256 1.13034,0.22239 2.05517,0.54243 2.05517,0.71122 0,0.16878 -0.0397,0.29985 -0.0882,0.29126 -0.0485,-0.009 -4.026127,-1.02287 -8.839157,-2.25397 z m 12.984287,-8.6882 c -5.93574,-1.40056 -7.669577,-1.74217 -8.842497,-1.74217 -0.66642,0 -1.21166,-0.15875 -1.21166,-0.35278 0,-0.5692 1.09386,-0.42421 6.653967,0.88195 2.8908,0.6791 5.55282,1.23715 5.9156,1.24012 0.36278,0.003 0.89772,0.15929 1.18876,0.34738 0.81538,0.52694 -0.40791,0.40326 -3.70417,-0.3745 z m 15.95457,-1.39219 c -3.29386,-0.74839 -10.2702,-1.40628 -14.99109,-1.41371 -1.88811,-0.003 -3.67105,-0.17412 -3.96209,-0.38032 -0.64317,-0.45568 9.85421,-0.14811 14.46389,0.42379 2.83801,0.3521 7.76111,1.5682 7.76111,1.91715 0,0.1999 0.0569,0.20942 -3.27182,-0.54691 z m -10.48651,-12.57158 c -2.42535,-0.27584 -4.72722,-0.65892 -5.11528,-0.85127 -0.55237,-0.27382 -0.41084,-0.31324 0.65186,-0.18158 0.74657,0.0925 3.24688,0.36291 5.55625,0.60091 2.30936,0.238 4.19883,0.56297 4.19883,0.72214 0,0.15917 -0.19843,0.27183 -0.44097,0.25036 -0.24253,-0.0215 -2.42535,-0.26472 -4.85069,-0.54056 z m 5.99722,-2.44341 c -7.84946,-0.42755 -13.33792,-1.19611 -16.01212,-2.2422 -1.6178,-0.63285 -0.88636,-0.75851 1.03553,-0.1779 3.37023,1.01817 7.51138,1.5279 15.58695,1.91861 4.48062,0.21678 8.59721,0.52928 9.14797,0.69444 0.99005,0.2969 0.9874,0.30007 -0.23334,0.27946 -0.67909,-0.0115 -4.96534,-0.22405 -9.52499,-0.47241 z" id="path5656-2"/> <path d="m 85.587433,141.67373 c 0.29105,-0.1881 0.68792,-0.34198 0.88195,-0.34198 0.19404,0 0.11466,0.15388 -0.17639,0.34198 -0.29104,0.18808 -0.68792,0.34197 -0.88193,0.34197 -0.19403,0 -0.11466,-0.15389 0.17637,-0.34197 z m -0.79375,-1.29198 c 0.24255,-0.0979 0.63942,-0.0979 0.88195,0 0.24253,0.0979 0.0441,0.17794 -0.44096,0.17794 -0.48508,0 -0.68352,-0.0801 -0.44099,-0.17794 z m -4.4979,-0.82469 c -0.72658,-0.2327 -0.75765,-0.28769 -0.1764,-0.31221 0.38805,-0.0164 0.94369,0.12412 1.23472,0.31221 0.61812,0.39946 0.18899,0.39946 -1.05832,0 z m -2.18282,-0.59377 c 0.25467,-0.1019 0.55894,-0.0894 0.67615,0.0278 0.11724,0.11724 -0.0911,0.20061 -0.46301,0.1853 -0.41098,-0.0169 -0.49457,-0.10053 -0.21314,-0.21313 z" style="opacity:0.51;fill:#000000;fill-opacity:1;stroke-width:0.0933392" id="path11703-5"/> <path d="m 124.65072,147.12108 c -0.47037,-0.30397 -0.47037,-0.34197 0,-0.34197 0.29104,0 0.76729,0.15389 1.05834,0.34197 0.47036,0.30398 0.47036,0.34198 0,0.34198 -0.29105,0 -0.7673,-0.15389 -1.05834,-0.34198 z m -2.82222,-0.70555 c -0.82101,-0.26293 -0.82854,-0.28488 -0.10902,-0.31761 0.42512,-0.0193 0.87105,0.12358 0.99096,0.31761 0.11992,0.19403 0.16898,0.33695 0.10902,0.31761 -0.06,-0.0193 -0.50589,-0.16227 -0.99096,-0.31761 z m -1.83003,-0.59377 c 0.25466,-0.1019 0.55893,-0.0894 0.67615,0.0278 0.11723,0.11723 -0.0911,0.20061 -0.46302,0.18529 -0.41097,-0.0169 -0.49456,-0.10052 -0.21313,-0.21313 z" style="opacity:0.51;fill:#000000;fill-opacity:1;stroke-width:0.0933392" id="path12362-9"/> </g> </g> </svg>