<?xml version='1.0' encoding='utf-8'?>
<svg xmlns="http://www.w3.org/2000/svg" width="100%" height="100%" viewBox="0 0 1605 1022" version="1.1" style="fill-rule:evenodd;clip-rule:evenodd;stroke-linecap:round;stroke-linejoin:round;stroke-miterlimit:1.5;"> <g transform="matrix(1.33333,0,0,1.33333,-1537.4,-1511.32)"> <g transform="matrix(1.4665,-0.0621299,0.0621299,1.4665,-899.979,-418.166)"> <path d="M1932,1484C1929.33,1489 1938.83,1509.67 1943,1519C1946.43,1526.68 1952.5,1533.17 1957,1540C1961.37,1546.64 1965.33,1553.83 1970,1560C1974.56,1566.03 1980.33,1572.33 1985,1577C1989.01,1581.01 1994.64,1583.42 1998,1588C2001.67,1593 2004.67,1600.67 2007,1607C2009.26,1613.14 2011.67,1622 2012,1626C2012.16,1627.94 2010.9,1630.59 2009,1631C2006.67,1631.5 2001.7,1629.43 1998,1629C1993.67,1628.5 1987,1627.33 1983,1628C1979.62,1628.56 1976.5,1630.65 1974,1633C1971.33,1635.5 1968.17,1639.67 1967,1643C1965.9,1646.15 1965.17,1650.67 1967,1653C1968.83,1655.33 1974.28,1655.81 1978,1657C1982.17,1658.33 1987.26,1659.96 1992,1661C1997.33,1662.17 2004.5,1663.5 2010,1664C2014.98,1664.45 2020,1664 2025,1664C2031.17,1664 2040.83,1664.83 2047,1664C2052.22,1663.29 2057.17,1660.33 2062,1659C2066.6,1657.73 2072.17,1658 2076,1656C2079.76,1654.04 2083.4,1650.93 2085,1647C2086.83,1642.5 2087.5,1633.5 2087,1629C2086.62,1625.59 2083.17,1623 2082,1620C2080.89,1617.14 2080.88,1613.95 2080,1611C2078.17,1604.83 2075.33,1591.33 2071,1583C2066.72,1574.78 2062.61,1564.42 2054,1561C2041,1555.83 2008.83,1564 1993,1552C1977.17,1540 1969.17,1500.33 1959,1489C1952.89,1482.19 1934.67,1479 1932,1484Z" style="fill:rgb(66,50,38);"/> <g transform="matrix(1,0,0,1,12,3)"> <path d="M1659,1432.02C1655.27,1435.02 1643.97,1442.5 1639.64,1448C1635.87,1452.78 1635.11,1459.41 1633,1465C1630.93,1470.49 1629.74,1476.37 1627,1481.56C1622.17,1490.73 1611.5,1508.76 1604,1520C1597.27,1530.09 1590.66,1540.5 1582,1549C1573,1557.83 1558,1566.63 1550,1572.97C1544.44,1577.37 1538.83,1581.83 1534,1587C1529.17,1592.17 1525,1599.17 1521,1604C1517.54,1608.18 1514.85,1613.57 1510,1616C1504.67,1618.67 1495.27,1619.17 1489,1620C1483.5,1620.73 1477.93,1621 1472.38,1621C1465.64,1621 1456.46,1620.79 1448.54,1620C1440.2,1619.17 1427.41,1618.33 1422.32,1616C1419.02,1614.49 1417.64,1609.61 1418,1606C1418.4,1602 1420.44,1594.93 1424.7,1592C1429.79,1588.5 1442.33,1586.33 1448.54,1585C1452.94,1584.06 1457.94,1585.94 1462,1584C1467.58,1581.33 1476.17,1574.33 1482,1569C1487.58,1563.9 1494.69,1559.19 1497,1552C1500,1542.67 1499.13,1526.01 1500,1513C1501,1498 1502.17,1475 1503,1462C1503.58,1452.99 1504.5,1444 1505,1435C1505.5,1426.01 1506,1415.5 1506,1408C1506,1401.99 1502.9,1395.63 1505,1390C1508.67,1380.17 1513.07,1353.76 1528,1349C1547.33,1342.83 1598.67,1339.5 1621,1353C1643.33,1366.5 1655.67,1416.83 1662,1430C1662.52,1431.09 1659.94,1431.27 1659,1432.02Z" style="fill:rgb(66,50,38);"/> </g> <path d="M1422,1240.16C1420,1238.16 1413.5,1234.03 1410,1231C1406.79,1228.23 1405.04,1223.29 1401,1222C1396.83,1220.67 1388,1221.33 1385,1223C1382.31,1224.49 1383,1228.93 1383,1232C1383,1235.83 1384.05,1241.38 1385,1246C1386,1250.83 1386.17,1257 1389,1261C1391.83,1265 1397.67,1267.67 1402,1270C1406.09,1272.2 1412,1276.67 1415,1275C1418,1273.33 1418.87,1265.15 1420,1260C1421.17,1254.67 1421.67,1246.31 1422,1243C1422.1,1242.06 1422.67,1240.83 1422,1240.16Z" style="fill:rgb(66,50,38);"/> <path d="M1364,1441C1360.83,1438.83 1356.17,1430.33 1353,1427C1350.7,1424.58 1346,1423.67 1345,1421C1344,1418.33 1345.48,1414.04 1347,1411C1349.83,1405.33 1357.29,1395.17 1362,1387C1367,1378.33 1373.83,1365.83 1377,1359C1378.91,1354.89 1380.57,1350.51 1381,1346C1381.67,1339 1379.67,1325.5 1381,1317C1382.21,1309.29 1385.57,1302.01 1389,1295C1393.17,1286.5 1401.83,1275.14 1406,1266C1409.74,1257.8 1410.67,1245.99 1414,1240.16C1416.5,1235.79 1421.61,1233.46 1426,1231C1432,1227.64 1441.75,1223.06 1450,1220C1461.67,1215.67 1481.17,1209.83 1496,1205C1510.33,1200.33 1526.33,1196.5 1539,1191C1550.64,1185.94 1561.15,1178.6 1572,1172C1584.33,1164.5 1598.11,1152.33 1613,1146C1629.33,1139.06 1650.31,1129.75 1670,1130.38C1690.67,1131.05 1718.67,1147.4 1737,1150C1751.25,1152.02 1765.64,1147.08 1780,1146C1804.33,1144.17 1856.5,1139.5 1883,1139C1901.71,1138.65 1920.93,1138.14 1939,1143C1961.33,1149 1991.93,1162.3 2017,1175C2042.67,1188 2075.33,1208.17 2093,1221C2104.63,1229.45 2115.62,1239.66 2123,1252C2134.17,1270.67 2155.83,1308.54 2160,1333C2163.74,1354.96 2153.83,1378.74 2148,1398.74C2142.5,1417.6 2130.83,1437.12 2125,1453C2120.09,1466.37 2111.83,1481.33 2113,1494C2114.17,1506.67 2126.19,1517.07 2132,1529C2138.33,1542 2147.83,1559.83 2151,1572C2153.52,1581.68 2154,1593.83 2151,1602C2148,1610.17 2138.57,1614.29 2133,1621C2126.5,1628.83 2118.67,1642.17 2112,1649C2106.64,1654.49 2096.67,1658.67 2093,1662C2091.12,1663.71 2092.53,1668.86 2090,1669C2087,1669.17 2077.67,1667 2075,1663C2072.33,1659 2072.83,1650.67 2074,1645C2075.17,1639.33 2080.33,1634 2082,1629C2083.49,1624.53 2086.5,1618.5 2084,1615C2081.5,1611.5 2072.59,1610.51 2067,1608C2055.5,1602.83 2029.83,1593 2015,1584C2001.42,1575.76 1989.37,1565.08 1978,1554C1965,1541.33 1947.5,1517.83 1937,1508C1930.78,1502.18 1923.12,1497.58 1915,1495C1904.5,1491.67 1884.33,1490.67 1874,1488C1866.63,1486.1 1857,1478 1853,1479C1849,1480 1850.38,1488.91 1850,1494C1849.5,1500.78 1850.16,1511.1 1850,1519.65C1849.83,1528.48 1851,1538.1 1849,1547C1846.67,1557.39 1840.17,1571.5 1836,1582C1832.26,1591.44 1828.48,1600.88 1824,1610C1819.5,1619.17 1813,1630.5 1809,1637C1806.38,1641.26 1804.6,1647.05 1800,1649C1794.5,1651.33 1784.02,1651.44 1776,1651C1766.83,1650.5 1753.5,1648.33 1745,1646C1737.95,1644.07 1728.5,1639.67 1725,1637C1723.12,1635.57 1724.83,1631.33 1724,1630C1723.27,1628.84 1720.83,1629.67 1720,1629C1719.18,1628.34 1718.89,1627.05 1719,1626C1719.17,1624.33 1719.52,1620.92 1721,1619C1722.67,1616.83 1725.94,1614.33 1729,1613C1732.83,1611.33 1738.87,1609.64 1744,1609C1749.33,1608.33 1756.67,1610 1761,1609C1764.51,1608.19 1768.86,1606.42 1770,1603C1771.83,1597.5 1774.72,1584.61 1772,1576C1768,1563.33 1755.67,1542.5 1746,1527C1736.4,1511.61 1723.5,1493.33 1714,1483C1707.05,1475.44 1697.77,1470.34 1689,1465C1677.5,1458 1656.5,1449.04 1645,1441C1635.49,1434.35 1626.83,1424.58 1620,1416.74C1613.91,1409.76 1609.67,1398.79 1604,1394C1599.17,1389.92 1592.32,1388.15 1586,1388C1579,1387.83 1569.89,1390.86 1562,1393C1552.17,1395.67 1537.83,1401.88 1527,1404C1517.17,1405.93 1504,1405.24 1497,1405.74C1492.99,1406.03 1488.7,1405.42 1485,1407C1481,1408.71 1477.26,1413.38 1473,1416C1468.67,1418.67 1463.17,1421 1459,1423C1455.37,1424.74 1451.82,1426.73 1448,1428C1443.5,1429.5 1437.17,1430.5 1432,1432C1426.94,1433.47 1420.67,1435.67 1417,1437C1414.61,1437.87 1412.49,1439.5 1410,1440C1406.67,1440.67 1401,1440.83 1397,1441C1393.34,1441.15 1389,1441.5 1386,1441C1383.5,1440.58 1381.33,1438.17 1379,1438C1376.67,1437.83 1374.38,1439.52 1372,1440C1369.5,1440.5 1366.22,1442.52 1364,1441Z" style="fill:rgb(81,61,47);"/> <clipPath id="_clip1"> <path d="M1364,1441C1360.83,1438.83 1356.17,1430.33 1353,1427C1350.7,1424.58 1346,1423.67 1345,1421C1344,1418.33 1345.48,1414.04 1347,1411C1349.83,1405.33 1357.29,1395.17 1362,1387C1367,1378.33 1373.83,1365.83 1377,1359C1378.91,1354.89 1380.57,1350.51 1381,1346C1381.67,1339 1379.67,1325.5 1381,1317C1382.21,1309.29 1385.57,1302.01 1389,1295C1393.17,1286.5 1401.83,1275.14 1406,1266C1409.74,1257.8 1410.67,1245.99 1414,1240.16C1416.5,1235.79 1421.61,1233.46 1426,1231C1432,1227.64 1441.75,1223.06 1450,1220C1461.67,1215.67 1481.17,1209.83 1496,1205C1510.33,1200.33 1526.33,1196.5 1539,1191C1550.64,1185.94 1561.15,1178.6 1572,1172C1584.33,1164.5 1598.11,1152.33 1613,1146C1629.33,1139.06 1650.31,1129.75 1670,1130.38C1690.67,1131.05 1718.67,1147.4 1737,1150C1751.25,1152.02 1765.64,1147.08 1780,1146C1804.33,1144.17 1856.5,1139.5 1883,1139C1901.71,1138.65 1920.93,1138.14 1939,1143C1961.33,1149 1991.93,1162.3 2017,1175C2042.67,1188 2075.33,1208.17 2093,1221C2104.63,1229.45 2115.62,1239.66 2123,1252C2134.17,1270.67 2155.83,1308.54 2160,1333C2163.74,1354.96 2153.83,1378.74 2148,1398.74C2142.5,1417.6 2130.83,1437.12 2125,1453C2120.09,1466.37 2111.83,1481.33 2113,1494C2114.17,1506.67 2126.19,1517.07 2132,1529C2138.33,1542 2147.83,1559.83 2151,1572C2153.52,1581.68 2154,1593.83 2151,1602C2148,1610.17 2138.57,1614.29 2133,1621C2126.5,1628.83 2118.67,1642.17 2112,1649C2106.64,1654.49 2096.67,1658.67 2093,1662C2091.12,1663.71 2092.53,1668.86 2090,1669C2087,1669.17 2077.67,1667 2075,1663C2072.33,1659 2072.83,1650.67 2074,1645C2075.17,1639.33 2080.33,1634 2082,1629C2083.49,1624.53 2086.5,1618.5 2084,1615C2081.5,1611.5 2072.59,1610.51 2067,1608C2055.5,1602.83 2029.83,1593 2015,1584C2001.42,1575.76 1989.37,1565.08 1978,1554C1965,1541.33 1947.5,1517.83 1937,1508C1930.78,1502.18 1923.12,1497.58 1915,1495C1904.5,1491.67 1884.33,1490.67 1874,1488C1866.63,1486.1 1857,1478 1853,1479C1849,1480 1850.38,1488.91 1850,1494C1849.5,1500.78 1850.16,1511.1 1850,1519.65C1849.83,1528.48 1851,1538.1 1849,1547C1846.67,1557.39 1840.17,1571.5 1836,1582C1832.26,1591.44 1828.48,1600.88 1824,1610C1819.5,1619.17 1813,1630.5 1809,1637C1806.38,1641.26 1804.6,1647.05 1800,1649C1794.5,1651.33 1784.02,1651.44 1776,1651C1766.83,1650.5 1753.5,1648.33 1745,1646C1737.95,1644.07 1728.5,1639.67 1725,1637C1723.12,1635.57 1724.83,1631.33 1724,1630C1723.27,1628.84 1720.83,1629.67 1720,1629C1719.18,1628.34 1718.89,1627.05 1719,1626C1719.17,1624.33 1719.52,1620.92 1721,1619C1722.67,1616.83 1725.94,1614.33 1729,1613C1732.83,1611.33 1738.87,1609.64 1744,1609C1749.33,1608.33 1756.67,1610 1761,1609C1764.51,1608.19 1768.86,1606.42 1770,1603C1771.83,1597.5 1774.72,1584.61 1772,1576C1768,1563.33 1755.67,1542.5 1746,1527C1736.4,1511.61 1723.5,1493.33 1714,1483C1707.05,1475.44 1697.77,1470.34 1689,1465C1677.5,1458 1656.5,1449.04 1645,1441C1635.49,1434.35 1626.83,1424.58 1620,1416.74C1613.91,1409.76 1609.67,1398.79 1604,1394C1599.17,1389.92 1592.32,1388.15 1586,1388C1579,1387.83 1569.89,1390.86 1562,1393C1552.17,1395.67 1537.83,1401.88 1527,1404C1517.17,1405.93 1504,1405.24 1497,1405.74C1492.99,1406.03 1488.7,1405.42 1485,1407C1481,1408.71 1477.26,1413.38 1473,1416C1468.67,1418.67 1463.17,1421 1459,1423C1455.37,1424.74 1451.82,1426.73 1448,1428C1443.5,1429.5 1437.17,1430.5 1432,1432C1426.94,1433.47 1420.67,1435.67 1417,1437C1414.61,1437.87 1412.49,1439.5 1410,1440C1406.67,1440.67 1401,1440.83 1397,1441C1393.34,1441.15 1389,1441.5 1386,1441C1383.5,1440.58 1381.33,1438.17 1379,1438C1376.67,1437.83 1374.38,1439.52 1372,1440C1369.5,1440.5 1366.22,1442.52 1364,1441Z"/> </clipPath> <g clip-path="url(#_clip1)"> <g transform="matrix(1,0,0,1,8,1)"> <path d="M1390,1358C1389.5,1356.67 1389.67,1349.83 1391,1348C1392.33,1346.17 1396,1347.17 1398,1347C1399.66,1346.86 1402.33,1346.33 1403,1347C1403.67,1347.67 1402.62,1349.77 1402,1351C1401.33,1352.33 1400.33,1354.17 1399,1355C1397.67,1355.83 1395.5,1355.5 1394,1356C1392.59,1356.47 1390.5,1359.33 1390,1358Z" style="fill:rgb(100,84,53);stroke:rgb(46,29,17);stroke-width:1.7px;"/> </g> </g> <g transform="matrix(1.37428,0,0,1.75313,-504.272,-1071.49)"> <path d="M1345.22,1415.51C1346.72,1414.51 1349.37,1412.92 1351,1413C1352.63,1413.08 1354.33,1414.5 1355,1416C1355.67,1417.5 1355.17,1420.5 1355,1422C1354.88,1423.05 1354.17,1424 1354,1425C1353.84,1425.99 1354.99,1427.86 1354,1428C1352.83,1428.17 1348.94,1427.46 1347,1426C1345,1424.5 1342.3,1420.75 1342,1419C1341.74,1417.44 1343.9,1416.38 1345.22,1415.51Z" style="fill:rgb(46,29,17);"/> </g> <path d="M1440,1290C1435.96,1285.69 1432.5,1279.7 1430,1275.36C1427.93,1271.78 1425.61,1268.09 1425,1264C1424.33,1259.49 1424.83,1252.66 1426,1248.33C1427.04,1244.48 1429.33,1240.56 1432,1238C1434.67,1235.44 1439,1233.17 1442,1233C1444.98,1232.84 1447.48,1235.41 1450,1237C1453,1238.89 1457.34,1241.16 1460,1244.33C1463.5,1248.49 1469.17,1256.83 1471,1262C1472.49,1266.2 1473.17,1272.03 1471,1275.36C1468.83,1278.7 1460.33,1279.56 1458,1282C1456.14,1283.94 1457.4,1287.34 1457,1290C1456.5,1293.33 1457.83,1302 1455,1302C1452.17,1302 1444.17,1294.44 1440,1290Z" style="fill:rgb(66,50,38);"/> </g> </g> </svg>