<?xml version='1.0' encoding='utf-8'?>
<svg xmlns="http://www.w3.org/2000/svg" enable-background="new 0 0 1719.2 1148.8" version="1.1" viewBox="0 0 1719.2 1148.8">
<path d="m98.7 379.7l35.6-30.5s-13.6-116.9 120.3-132.1c0 0-36.2-71.2 28.9-94.1 22.5-7.9 37.5-3.3 52.7-17.1 7-6.3 8.2-11.5 11.1-10.9 7.4 1.5 11.2 36.1 2.7 62.8-13.5 42.3-57.3 61.7-71.7 67.4 0 0 20.3-1.3 32.2 17.3 0 0 30.3-60.2 70.9-59.5 32.4 0.5 28 7.1 58.1-16 24.7-19 23.9 130.5-117.1 95.8 0 0 66.1 39 11.9 164.3s33.9 82.9 33.9 82.9 159.3-101.5 289.7 0.1c0 0-33.6-21.1-5.1-62.7 16-23.4 59.4-19.3 31.4-72.9 0 0 80.4 132.2-6 166.1 0 0 37.8 36.9 23.7 86.3-11.1 39.1 49.2 42.2 36.5 92.7-17.5 69.7 54.7 285.7 39.8 283.3-13.9-2.2-19.1 25.5-47.4 0-12.7-11.4 19.3-240.9-61-271-42.4-15.9-53.1 235-69.5 274.4-9.5 22.8-24.8 17.9-45.7 11.9-23.7-6.8 93.2-227.6 13.6-321.8-57.2-67.6-47.5-20.8-148.3-44.1-9.7-2.2-39.9 41-29.6 91.5 22.5 110.8 86.6 280.7 65.3 279.5-28.8-1.7-23-7.4-46.7-15.1 0 0-14.1-114-66.1-262.8-4.6-13.2-6-40.4-18.6-47-10.8-5.4-78.1 133.6-110.3 297.9-1.7 8.9-42.6 31.1-44.9 12.6-7.6-60.5 145.2-337.1 109.2-363.6-49.3-36.2-42.3-135.1-42.3-135.2-3.4-84.6-13.6-79.5-13.6-79.5s-85.2 11.9-123.6-50.9z" fill="#CA9E67" stroke="#936037" stroke-miterlimit="10" stroke-width="8.1309"/>
<circle cx="95.7" cy="373.8" r="15.6"/>
<circle cx="617.7" cy="531.2" r="12" fill="#fff"/>
<circle cx="555.5" cy="490.5" r="9.9" fill="#fff"/>
<circle cx="595" cy="498.7" r="8.2" fill="#fff"/>
	<path d="m251.7 334.3c-4.3 4.1-31.6 29.5-59.5 21.8-3.1-0.9-10.5-5.4-13.1-15.8-2.5-10.5 2.1-20.3 10.5-26.3 9.2-6.5 41.5-0.3 62.1 20.3z" fill="#fff"/>
	<path d="m188.2 354.5s-22.2-12.2-4.9-36c0 0 9.3-11.1 31.1-5.3s28.4-15.7 28.4-15.7 0.4 17.8-12.3 22.6c0 0 15 3.8 33.9-17.4 0 0-11.1 25.9-22.9 24.2 0 0 19.2 7.4 42-17.8 0 0-9.3 26.1-31.8 25.3l-8.3 7.1s-4-15.3-26.1-25.4c0 0 17 23.5-1.6 40 0-0.1-17 5.7-27.5-1.6z" fill="#432918"/>
<circle cx="577.3" cy="531.2" r="12" fill="#fff" stroke="#fff" stroke-miterlimit="10" stroke-width="4.4685"/>
<ellipse transform="matrix(.8715 .4904 -.4904 .8715 184.26 -51.719)" cx="190.8" cy="325.8" rx="4" ry="5.8" fill="#CA9E67"/>
<path d="m1062.4 509.3c0 0.1-7 99 42.3 135.2 36 26.5-116.8 303.1-109.2 363.6 2.3 18.5 43.1-3.7 44.9-12.6 32.2-164.3 99.6-303.3 110.1-297.7 12.6 6.7 14 33.8 18.6 47 51.9 148.8 66.1 262.8 66.1 262.8 23.7 7.7 17.9 13.4 46.7 15.1 21.3 1.2-42.8-168.7-65.3-279.5-10.2-50.5 20-93.7 29.6-91.5 100.8 23.3 91.1-23.6 148.3 44.1 79.7 94.3-37.3 315.1-13.6 321.8 21 6 36.3 11 45.7-11.9 16.3-39.4 27-290.3 69.5-274.4 80.3 30.1 48.3 259.6 61 271 28.3 25.4 33.6-2.2 47.4 0 14.9 2.4-57.3-213.6-39.8-283.3 12.7-50.6-47.6-53.7-36.5-92.7 14.1-49.4-23.7-86.3-23.7-86.3 86.4-33.9 6-166.1 6-166.1 28 53.6-15.3 49.5-31.4 72.9-28.5 41.6 5.1 62.7 5.1 62.7-130.4-101.6-289.7-0.1-289.7-0.1-45.5 22.3-44.6-22.4-44.6-22.4 3.4-84.6 13.6-79.5 13.6-79.5s85.3 12 123.7-50.8l-35.6-30.5s13.6-116.9-120.3-132.1c0 0 36.2-71.2-28.9-94.1-22.5-7.9-37.5-3.3-52.7-17.1-7-6.3-8.2-11.5-11.1-10.9-7.4 1.5-11.2 36.1-2.7 62.8 13.5 42.3 57.3 61.7 71.7 67.4 0 0-20.3-1.3-32.2 17.3 0 0-30.3-60.2-70.9-59.5-32.4 0.5-28 7.1-58.1-16-24.7-19-23.9 130.5 117.1 95.8 0 0-82.2 57.8-11.9 164.3 0-0.1 22 37.2 10.8 105.2z" fill="#CA9E67" stroke="#936037" stroke-miterlimit="10" stroke-width="8.1309"/>
<circle cx="1290.1" cy="350.6" r="15.6"/>
	<path d="m1134.1 311.1c4.3 4.1 31.6 29.5 59.5 21.8 3.1-0.9 10.5-5.4 13.1-15.8 2.5-10.5-2.1-20.3-10.5-26.3-9.2-6.5-41.5-0.2-62.1 20.3z" fill="#fff"/>
	<path d="m1197.6 331.3s22.2-12.2 4.9-36c0 0-9.3-11.1-31.1-5.3s-28.4-15.7-28.4-15.7-0.4 17.8 12.3 22.6c0 0-15 3.8-33.9-17.4 0 0 11.1 25.9 22.9 24.2 0 0-19.2 7.4-42-17.8 0 0 9.3 26.1 31.8 25.3l8.3 7.1s4-15.3 26.1-25.4c0 0-17 23.5 1.6 40 0 0 17 5.7 27.5-1.6z" fill="#432918"/>
<ellipse transform="matrix(.8715 .4904 -.4904 .8715 307.37 -546.38)" cx="1196.3" cy="313.3" rx="4" ry="5.8" fill="#CA9E67"/>
<circle cx="1444.2" cy="530.4" r="12" fill="#fff"/>
<circle cx="1382" cy="489.7" r="9.9" fill="#fff"/>
<circle cx="1421.5" cy="497.9" r="8.2" fill="#fff"/>
<circle cx="1403.8" cy="530.4" r="12" fill="#fff" stroke="#fff" stroke-miterlimit="10" stroke-width="4.4685"/>
</svg>