<?xml version="1.0" encoding="utf-8"?>

<svg version="1.1" id="Layer_1" xmlns="http://www.w3.org/2000/svg" xmlns:xlink="http://www.w3.org/1999/xlink" x="0px" y="0px"
	 viewBox="0 0 5000 4546.552" enable-background="new 0 0 5000 4546.552" xml:space="preserve">
<g>
	<path fill="#060808" d="M4999.239,2844.926l-4.222-57.425l-19.3,27.762c31.509-87.936,18.506-164.749,9.134-252.156
		c-32.478,72.402-33.795,79.277-50.129,99.045c-3.821-69.593-44.959-132.073-106.537-154.896l-81.374-30.192
		c57.255,60.927,88.208,81.123,84.115,138.812c-3.678,51.874-31.088,70.299-52.464,86.993
		c-160.434,125.511-194.554,170.436-207.801,374.124c-1.195,18.343-2.334,35.852-4.208,49.729
		c-118.623,46.052-234.341-13.667-330.313-164.817c-87.414-245.369-203.172-418.818-418.255-564.742l-9.331,13.735l7.987-14.645
		c-17.936-12.093-34.216-22.564-55.39-35.302c55.96-48.793,106.659-110.344,147.776-187.897
		c92.848-174.84,212.816-425.889,244.126-621.611c16.26-130.798,20.407-316.245,1.039-466.41
		c-94.512-716.143-625.113-969.995-1003.477-822.971c-180.378,48.847-336.277,179.258-432.22,360.002
		c-204.707-212.368-465.134-332.898-767.189-328.969C1877.163,117.565,1743.644,6.42,1557.063,0.245
		c-61.252-1.921-97.837,7.01-272.902,42.665v-0.007c-10.979,1.371,43.961-7.852-130.106,23.216l130.302,9.928
		c2.646,0.197,253.819,21.241,314.325,183.988c-284.064-20.773-344.265,177.663-348.635,177.663l-18.215,33.592
		c53.542-13.905,106.333-27.362,187.923-30.138c-5.585,3.162-50.849,28.835-60.031,35.634
		c-31.095,17.508-105.362,67.835-171.874,124.12c-3.902,2.633-2.389,1.602-6.677,4.547
		c-58.551-57.12-123.726-98.088-194.146-121.453c-175.661-83.342-359.207-35.668-511.117,98.183h0.007
		c-200.227,170.056-286.527,463.621-314.542,724.802c-46.099,434.847,28.455,690.708,200.309,1086.467
		c133.234,307.185,408.782,410.234,745.513,353.236c-12.873,19.707-26.744,38.756-41.572,57.045
		c-0.447-0.047-0.896-0.115-1.344-0.163c-5.048,5.531-10.221,11.062-15.567,16.633c0.997,0.034,2.001,0.095,2.992,0.156
		c-43.69,50.53-90.352,91.058-142.905,126.237c-2.151-0.38-4.303-0.801-6.475-1.113c-7.03,5.001-14.245,9.956-21.547,14.855
		c1.819,0.19,3.59,0.597,5.409,0.828c-54.323,33.707-121.893,58.097-187.469,65.745c-81.978,9.413-155.16-11.218-173.761-21.505
		c-52.37-23.759-77.763-82.446-93.181-137.978c-31.855-116.696-17.923-184.382-52.003-231.315
		c-31.59-44.063-90.27-67.306-138.432-39.055c-25.911,8.958-39.91,27.423-54.629,50.266c-5.66,0.224-11.313,0.556-16.959,1.126
		l15.317,1.33c-15.486,25.19-23.072,54.5-26.88,83.626c-4.52,35.526-7.166,129.739-0.515,203.526
		c-89.497,62.345-115.217,94.98-141.581,126.21c-3.292,4.879-12.433,20.06-13.586,26.073c0.197-0.55,0.34-1.14,0.596-1.649
		l-0.644,1.887l-1.004,5.171c-0.02-1.072,0.129-2.206,0.36-3.312l-0.129,0.373c-0.204-0.767-3.082,9.901-0.835,20.413
		c1.791,8.374,3.577,9.847,9.202,17.997c0.726,0.78,5.212,5.368,5.971,6.06c21.472,40.052,58.843,76.026,93.352,105.79
		c0.774,0.665,107.501,88.845,108.26,89.408c133.247,96.941,73.149,55.464,155.051,124.751l-1.221-1.113
		c35.586,30.62,105.478,72.158,117.944,76.549l-1.289-0.305c27.75,13.729,62.386,29.507,104.047,42.102l-2.558-1.018l0.305,0.082
		c3.373,1.364,26.384,8.571,31.474,8.653l-3.244-0.319c19.87,5.13,53.652,12.738,62.834,13.654l-1.065-0.292
		c0.596,0.156,0.896,0.217,1.324,0.312c2.049,0.197,1.635,0.163,2.144,0.224l-2.076-0.204c0.774,0.177,1.92,0.278,2.687,0.299
		l-2.225-0.183c1.324,0.305,10.6,1.975,13.329,2.043l-2.729-0.231c19.51,2.687,38.701,5.368,51.657,6.291
		c-0.149,0.034-0.305,0.034-0.462,0.007l1.655,0.082c-0.767,0.176-2.369-0.034,16.24,1.33c-0.664-0.068-1.324-0.197-1.94-0.373
		l1.67,0.333c7.437,0.543,14.787,0.916,18.805,1.093c-0.162,0-0.36-0.068-0.537-0.074c0.441,0.088,0.916,0.136,1.37,0.122
		l-1.113-0.136c-0.78,0.041-2.111-0.129-2.918-0.36l2.918,0.36l6.1-0.312c-0.936,0.278-1.927,0.435-2.911,0.482
		c4.187,0.258,8.564,0.401,13.682,0.556c0.298-0.102,2.986,0.292-1.175-0.244c4.031,0.401,2.402,0.339,10.62,0.455l-1.181-0.048
		c19.694,0.292,14.311,0.265,17.332,0.054c-3.671,0.489,22.285-0.136,23.059-0.183c-0.081,0.041-0.169,0.054-0.252,0.048
		c7.906-0.034,27.518-0.964,39.597-1.69l-1.269,0.054c2.315-0.122,11.258-0.611,12.724-0.848l1.079-0.048
		c0,0,0.081-0.007,0.129-0.034c1.738-0.068,1.072-0.034,2.924-0.19l-1.377,0.054c1.479-0.116,0.434,0,5.11-0.577
		c-0.462,0.136-1.609,0.251-2.45,0.36c0.197,0.007,0.298-0.041,1.004-0.061c-0.116,0.014-0.605,0.095-0.739,0.102
		c0.482-0.02,23.447-2.05,24.247-2.192c8.673-0.529,40.704-4.709,47.313-5.592l-2.111,0.129c0.78-0.197,1.092,0.048,5.951-0.692
		l-1.249,0.17l3.645-0.523l-2.076,0.129c0.611-0.068-0.055,0.007,3.658-0.4l0.013,0.034l0.02,0.02
		c2.056-0.292,4.228-0.57,5.837-0.943l-1.784,0.156c1.995-0.041,4.099-0.38,6.013-0.991l-2.904,0.678
		c88.547-13.979,154.936-30.667,242.947-57.656l-2.47,0.597c5.076-0.964,82.371-25.673,155.921-56.746
		c79.67-33.042,166.745-77.831,255.936-135.127c-109.143,201.218-110.256,502.533-151.109,593.326
		c-40.548,90.087-107.792,129.861-95.761,229.062l-0.259,0.23c2.749,16.511,2.578,16.131,4.458,22.286
		c6.786,22.096,22.178,37.215,20.345,35.112c14.048,16.049,33.89,30.002,52.431,40.337l-0.32,0.496
		c10.784,5.226,7.803,3.692,13.524,6.895l0.169-0.258c59.169,28.658,130.655,45.752,195.871,54.188l-0.094,0.176
		c108.356,10.647,145.307,7.485,209.213-0.977v-0.251c29.731-4.825,58.003-11.509,85.703-25.123c0.502,4.723,1.228,9.392,2.117,14
		l-0.651,0.292c15.67,54.968,30.904,79.467,92.368,121.127l0.298-0.482c4.458,2.599,9.011,5.124,13.77,7.546v0.047
		c50.741,23.603,111.125,42.828,220.09,48.236l-0.441,0.489c95.014,1.778,154.393,2.429,249.909-19.815l-0.02-0.143
		c90.237-23.731,148.924-67.577,174.732-131.639c17.509-43.533,25.332-160.087,66.308-244.311
		c15.31,60.31,38.701,57.778,24.552,113.778c-15.175,57.29-59.088,111.24-23.739,153.769l-0.401,0.78
		c25.523,23.867,53.503,44.273,122.417,64.659l-0.143,0.366c13.206,3.38,8.422,2.077,20.935,5.673l0.081-0.339
		c75.584,18.967,141.812,20.779,208.12,18.282v-0.217c0.815-0.047,1.629-0.074,2.444-0.122v0.237
		c77.932-6.373,122.715-13.369,187.774-39.896l-0.197-0.597c116.33-55.301,109.971-145.51,112.645-261.785
		c1.37-56.644,22.625-110.866,48.691-161.695c25.516,69.301,16.172,46.832,40.921,99.893l14.664-7.784l-14.061,8.938
		c10.403,19.782,13.667,24.2,26.093,43.676l13.647-9.454l-12.948,10.464c12.378,17.455,25.129,33.639,40.799,48.094
		c-24.328,48.854-89.354,187.239-75.144,243.225l-1.017,1.018c33.572,62.528,78.375,81.801,147.078,102.003l0.149-0.583
		c4.221,1.065,8.347,2.165,12.731,3.142v0.258c87.793,16.993,160.732,18.167,260.211,13.654v-0.082
		c0.109-0.007,0.21-0.014,0.312-0.021l-0.027,0.102c93.78-6.752,139.999-16.673,202.304-36.503l-0.048-0.204
		c95.544-33.124,190.943-100.47,200.377-199.685c9.969-107.507-94.444-182.033-68.616-410.817
		c20.291-180.534,63.288-377.449,22.945-651.762c108.654,37.446,231.681,9.521,310.923-70.333
		c20.685-2.375,39.917-1.92,63.343-1.839C4899.732,3173.196,5010.341,2999.149,4999.239,2844.926z M3160.133,293.912
		c13.498-4.411,60.547-24.627,131.538-34.257c169.086-22.829,321.449,30.45,459.692,127.791
		c276.667,187.646,386.462,579.842,382.071,914.938c1.431,223.348-12.915,401.445-253.825,855.124
		c-161.41,304.355-489.423,377.09-829.262,340.248c-70.637-7.668-133.797-20.589-136.172-20.963
		c-35.803-4.648-48.604-9.521-62.012-15.886c55.232-77.003,96.092-155.466,128.035-240.734
		c135.805,20.013,300.032,86.497,487.095-76.535c47.131-41.036,112.041-86.782,144.716-144.261
		c83.057-146.182,110.493-312.424,118.474-480.369c9.107-108.478,11.666-218.903,4.073-326.2
		c-25.415-211.75-44.321-481.903-236.56-582.59c-181.911-95.53-370.752,106.286-460.919,288.163
		c-25.896,48.189-47.795,98.963-66.539,150.362c-30.891-106.829-76.312-205.853-144.479-299.198l0.042,0.054
		c-17.862-24.641-50.761-65.894-83.517-101.868C2833.859,469.62,2984.982,341.076,3160.133,293.912z M2985.755,1106.731
		c110.506-334.893,322.895-558.404,496.819-467.109c177.209,92.822,194.845,358.034,218.93,556.321
		c7.411,105.505,4.785,214.173-4.154,320.88c-7.79,162.354-33.572,324.205-114.213,466.145
		c-29.201,51.372-92.442,96.215-137.658,135.636c-169.989,148.13-315.145,91.119-454.1,69.613
		C3056.671,1989.387,3067.997,1450.561,2985.755,1106.731z M2838.039,766.375c-0.21-0.299-0.34-0.536-0.59-0.97L2838.039,766.375z
		 M2210.829,356.263l-0.726-0.204l-0.191-0.109L2210.829,356.263z M1296.312,421.798
		c67.665-117.843,213.942-144.628,347.563-122.016l-5.877-24.444c-32.818-136.41-169.018-193.502-261.927-216.874
		c83.287-16.579,123.007-26.853,179.903-25c169.581,5.599,288.8,101.909,359.398,260.693
		c-93.223,4.207-182.807,19.775-276.409,50.422l3.15-0.774c-2.008,0.333-4.066,0.97-5.905,1.853l4.689-1.527
		c-1.887,0.353-3.801,0.97-5.53,1.792l2.369-0.964c-98.869,32.241-154.338,63.913-155.105,64.238
		C1421.396,404.581,1355.603,410.553,1296.312,421.798z M392.151,2380.26c-202.359-466.023-212.986-645.267-207.442-915.773
		c4.553-214.988,47.402-452.261,144.736-640.049c107.426-207.326,316.787-379.974,539.403-343.267
		c55.436,9.209,89.523,27.172,106.808,34.067c64.225,21.153,123.978,58.151,178.029,109.781
		c-94.328,68.622-174.019,151.068-237.456,243.992c-83.212-74.811-158.078-74.859-217.858-36.496
		c-161.214,103.259-175.098,389.312-193.916,582.902c-6.087,106.218-4.051,216.541,3.36,324.422
		c6.46,164.159,27.783,331.609,96.704,479.908c26.833,57.73,80.994,104.427,118.413,144.323
		c101.298,107.955,198.504,121.073,309.369,97.871c49.757,39.129,103.367,73.162,159.13,102.655
		c-14.787,50.15-35.369,98.577-61.117,144.119C800.422,2773.84,525.622,2687.988,392.151,2380.26z M702.925,1810.604
		c31.983,255.596,103.523,457.357,296.069,623.81c-89.7,14.733-169.975-5.829-251.851-93.066
		c-37.188-39.652-88.635-84.21-112.523-135.595c-67.251-144.709-87.392-309.038-93.663-467.693
		c-7.275-106.069-9.399-214.77-3.413-320.065c17.998-183.513,31.638-463.295,178.743-557.522
		c63.261-40.622,125.736-14.733,180.968,36.313C723.569,1151.398,669.904,1508.197,702.925,1810.604z M36.607,3109.785
		c-1.011-0.95-2.83-3.515-3.284-4.282c-0.109-0.285-0.101-0.638-0.142-0.781c-0.611-5.707,7.54-18.608,9.969-22.266l-1.778,2.097
		c1.296-1.303,2.444-2.891,3.284-4.526l-1.243,2.077c30.354-42.604,108.729-101.162,149.358-128.972
		c-1.418-12.867-0.754-6.114-2.83-29.14l0.02,0.102l-0.644-9.019l0.061,1.391c0-0.265-0.075-0.007-0.237-2.287l0.149,0.76
		c-4.458-70.55-5.537-195.457,29.988-256.112c1.48-1.961,3.102-3.78,4.704-5.639l2.266,0.197c-2.518,4.954-4.906,9.908-7.126,14.869
		h0.176c1.784-3.943,7.207-15.73,9.338-19.422c-0.311-0.041-0.638-0.047-0.949-0.081c7.77-8.083,15.995-14.299,25.591-19.843
		c21.851-15.249,46.228-13.803,69.226-0.719c5.138,4.058,9.603,7.363,12.093,8.286c0,0,0,0,0,0.007
		c43.731,51.759,56.659,200.567,54.323,269.338c-0.224-4.92-0.596-9.731-1.276-14.292c-15.595-46.167-57.913-20.827-65.684,36.198
		c-7.865,57.683,26.996,90.107,54.038,49.186c5.184-11.774,9.127-25.401,11.313-40.1
		C376.053,3090.729,190.504,3127.986,36.607,3109.785z M189.88,2923.761v0.014v0.007
		C189.88,2923.768,189.88,2923.768,189.88,2923.761z M394.003,3430.651l1.282,1.147
		C394.858,3431.425,395.136,3431.669,394.003,3430.651z M556.364,3561.116c0.346,0.102,0.265,0.074,0.881,0.278L556.364,3561.116z
		 M625.78,3548.487l-0.041-0.014C626.065,3548.575,625.699,3548.467,625.78,3548.487z M683.068,3561.408l3.189,0.313
		C683.619,3561.51,684.69,3561.612,683.068,3561.408z M684.331,3561.571c1.431-0.014,2.063,0.143,3.305,0.414L684.331,3561.571z
		 M896.828,3603.252c0.469-0.074-0.026-0.007,2.497-0.319C898.524,3603.15,897.669,3603.184,896.828,3603.252z M897.391,3603.157
		c0.278-0.048,1.181-0.156,1.453-0.19C898.375,3603.095,897.88,3603.089,897.391,3603.157z M924.876,3600.856h0.033
		c-0.116,0-0.237,0.048-0.353,0.048l5.239-0.848C928.241,3600.591,926.517,3600.877,924.876,3600.856z M1607.298,3322.771
		c-156.144,100.931-341.49,174.555-516.452,215.876c-13.796,0.305-29.628,0.333-47.354-0.224
		c-76.019,15.072-128.572,21.438-127.662,21.323c-6.773,0.889-13.45,1.724-19.999,2.518c-0.048,0-0.081,0.048-0.081,0.048
		c-4.601,0.536,2.389-0.305-14.421,1.724c-0.048-0.048-0.094-0.048-0.176,0c-31.956,3.576-57.547,6.06-90.297,8.32
		c-6.203-0.231-4.283-0.143-6.291-0.237c0.401-0.02,0.943,0.02,1.398,0.122c-1.344-0.095-20.039-1.079-20.142-1.079
		c0.033,0.007,0.068,0.007,0.101,0.014l1.67,0.319c-7.696-0.964-20.718-1.833-21.608-1.914l0.923,0.048
		c-0.346-0.02-1.039-0.061-1.357-0.095c0.013,0.007,0.033,0.007,0.048,0.007l-1.541-0.095c0.068,0.007,1.561,0.116,1.629,0.116
		l-0.265-0.014c1.181,0.082,2.952,0.577,4.588,1.452l-7.323-1.717l1.181,0.054c-17.434-1.737-48.678-5.945-48.738-5.952
		c1.622-0.061,6.223,0.834-4.689-0.991c-0.475,0-2.992-0.678-0.026,0.197c-9.745-2.66-16.599-1.737-65.059-14.244h0.007
		c-3.176-0.95-4.323-1.045-23.019-6.63l2.45,0.998l-0.305-0.082c-4.71-1.886,8.259,2.816-39.753-13.64l1.214,0.353
		c-26.691-10.315-39.727-16.3-62.834-27.729l-7.485-1.785c1.933-0.38,4.54,0.19,5.844,0.943
		c-104.847-55.383-138.554-101.176-183.221-136.383c-45.075-35.852-204.72-149.351-256.886-218.808
		c172.288,13.695,338.592-37.229,359.459-209.409c27.892,62.08,64.537,92.014,113.785,108.484
		c35.676,11.34,76.589,18.045,118.86,18.072c-8.463,0.455-16.979,0.59-25.543,0.047c0.129,0.095,0.311,0.129,0.441,0.224
		c61.484,28.007,118.297,98.516,108.593,171.895c-0.447,3.495,4.553,4.384,5.177,0.93c12.5-70.814-22.923-131.184-78.958-173.34
		c30.016-0.692,60.186-3.692,101.962-14.455c81.305,19.578,159.421,93.208,151.896,171.121c0,0.129,0.224,0.177,0.272,0.048
		c11.598-85.065-42.02-147.404-121.874-179.889c56.883-18.547,94.553-39.869,135.731-67.781
		c96.813,32.221,176.251,124.615,195.538,231.03c0.129,0.794,1.324,0.753,1.194-0.095
		c-12.568-103.063-85.378-206.315-178.158-243.931c52.709-38.003,100.138-82.69,141.472-133.661
		c121.582,20.121,246.686,106.367,318.314,242.051c0.048,0.129,0.272,0.047,0.224-0.095
		c-51.1-120.34-167.457-228.058-306.458-257.245c35.391-46.126,65.175-96.554,88.58-149.819
		c131.496,8.673,303.806,78.408,429.5,195.579c14.094,11.781-168.014-194.256-422.184-212.823
		c14.903-36.462,22.483-61.917,31.487-94.831l-1.677-0.868c10.885-21.499,17.277-45.997,17.794-71.778
		c0.38,0.163,0.726,0.333,1.113,0.489c178.267-27.05,406.312,17.936,507.195,176.048c0.353,0.489,1.065-0.048,0.754-0.577
		c-98.828-163.935-319.481-222.378-509.672-193.95c-0.543-8.605-2.681-17.074-4.546-25.503
		c-41.342-121.086-171.624-135.168-222.757-75.788c50.239-6.42,70.712-10.939,108.132-1.351c6.229,2.762,12.724,4.744,18.419,8.53
		c29.832,14.97,61.672,55.654,64.789,97.898c2.098,24.315-2.301,47.795-11.299,70.068
		c-286.595-154.515-400.856-359.846-452.41-647.426c-17.753-99.499-26.161-242.322-13.239-385.559
		c29.113-321.287,149.351-609.083,393.274-810.179c46.567-38.546,75.157-55.376,82.316-61.137
		c57.446-48.555,110.995-86.477,169.853-122.654c17.665-13.654,108.573-61.144,109.36-61.571l2.565-0.794
		c13.539-4.472,3.59-4.33,58.327-27.355c63.974-27.803,89.985-34.067,99.838-38.064c11.523-2.816,123.732-44.368,280.236-49.478
		c360.64-12.141,653.941,155.642,869.743,441.824c-0.401-0.543-0.712-1.052-1.011-1.737c1.955,3.196-0.007,0.38,11.462,16.063
		l-1.133-1.927c89.409,137.977,142.857,256.465,177.053,507.765c39.272,291.197,25.917,513.88,11.481,680.25
		c-12.711,142.409-31.827,237.436-114.565,383.679c-77.94,137.916-213.746,297.209-366.313,345.201
		c12.886-47.11,15.648-90.033,2.898-141.581c-5.123,30.653-17.419,106.557-38.933,153.477
		c-64.796,158.553-201.774,259.539-317.223,284.797c-40.601,9.711-127.011,12.045-171.828,10.831
		c19.64-29.418,42.155-65.826,62.895-102.363c177.263,71.425,272.99-261.276,149.86-359.866
		c23.657-91.729,36.211-188.175,28.692-283.006c13.892,1.513,16.178,2.68,17.454,2.877c20.997,7.424,41.532,35.309,74.031,40.453
		c-18.057-24.654-29.058-47.463-48.189-62.677c-30.314-25.184-99.799-15.12-129.087,26.012c16.273-2.925,35.961-6.121,52.545-7.125
		c21.01,249.964-111.925,550.715-253.459,752.87C1925.26,3025.011,1863.491,3161.089,1607.298,3322.771z M2089.486,2880.411
		c53.266-95.733,93.67-239.343,108.946-298.166c19.876,25.156,46.153,81.278,15.364,185.752
		C2194.74,2832.616,2156.682,2888.358,2089.486,2880.411z M1968.263,3040.81c0.061-0.047-0.353,0.57-0.557,0.787
		c-0.026,0.034-0.068,0.047-0.101,0.081C1967.823,3041.4,1967.978,3041.19,1968.263,3040.81z M1472.74,4226.803
		c-14.732-9.745-30.45-22.415-38.92-37.941l-0.007,0.006c-1.819-3.339-3.542-7.464-4.642-11.733
		c38.003-49.383,55.206-49.213,57.078-49.023c3.454,0.346,6.42,5.178,8.286,9.161
		C1500.407,4149.773,1490.731,4192.594,1472.74,4226.803z M1669.337,4290.581c-49.669-7.261-104.06-20.114-149.941-39.442
		c12.378-17.101,28.475-35.302,49.879-48.48c28.657-17.624,71.146-30.694,89.829-21.099
		C1681.721,4193.198,1685.101,4228.907,1669.337,4290.581z M1733.86,4297.448c32.241-53.374,60.35-76.257,85.56-69.925
		c22.531,5.653,33.905,26.867,36.097,68.106C1819.957,4299.518,1778.304,4300.447,1733.86,4297.448z M1975.036,4261.447
		c-25.985,16.477-56.17,24.485-86.362,29.69c-1.826-32.967-11.238-83.288-61.144-95.808c-51.23-12.928-92.021,35.499-121.12,83.389
		c9.175-43.283,13.478-103.239-32.105-126.686c-43.514-22.408-118.84,12.819-154.441,47.605c9.23-28.665,13.281-58.307,4.743-76.494
		c-21.24-45.142-62.657-30.972-98.284,6.189c6.657-60.96,57.439-98.041,93.554-178.328c34.589-76.868,42.035-280.006,96.432-459.094
		l-15.894-4.818l16.26,3.597c12.472-40.84,27.857-81.896,47.184-119.594l-14.78-7.573l15.411,6.365
		c20.543-39.781,26.595-40.948,35.75-66.077c16.402-11.659,32.614-23.623,48.562-35.947
		c54.934-2.938,296.165,209.857,325.23,360.043c29.188,150.837-48.657,364.936-48.657,398.989c0,22.761,2.165,86.755,3.604,126.746
		C1987.807,4203.547,1977.546,4243.85,1975.036,4261.447z M2051.598,4085.06C2051.598,4085.06,2051.598,4085.046,2051.598,4085.06
		l16.565-1.018c0.596-36.958,11.564-64.965,38.635-125.654c2.341,82.453,22.198,100.144-38.607,156.965
		c0-4.092-0.013-6.08-0.081-19.558l-16.599,0.048l16.599-1.703l0.041-8.876L2051.598,4085.06z M2058.852,4387.216
		c-19.293-15.968-34.087-34.868-42.909-57.717c54.744-38.288,73.774-34.915,77.281-33.883
		C2096.699,4300.902,2092.138,4329.899,2058.852,4387.216z M2293.438,4456.51c-56.041-3.4-118.379-12.324-170.789-33.076
		c77.607-136.2,165.068-125.355,184.287-92.191C2320.496,4354.628,2315.533,4399.913,2293.438,4456.51z M2365.073,4458.424
		c62.529-125.334,130.872-108.01,149.731-13.294C2466.031,4454.922,2414.959,4458.207,2365.073,4458.424z M2912.742,4392.109
		c-26.08-8.503-55.07-20.569-77.248-36.496c24.736-40.684,42.339-49.282,50.897-50.693c4.52-0.733,11.672-0.692,21.79,8.32
		C2918.619,4322.516,2920.179,4353.78,2912.742,4392.109z M2961.515,4405.07c32.988-73.413,66.356-100.687,109.943-90.711
		c36.408,8.354,41.39,50.021,41.037,105.309C3061.842,4420.271,3010.987,4415.915,2961.515,4405.07z M3188.248,4414.612
		c8.571-23.507,25.442-59.379,50.265-63.668c28.394-4.879,43.269,14.557,54.737,41.688
		C3259.856,4404.1,3223.212,4410.52,3188.248,4414.612z M3504.507,3972.673c0.109-0.19,0.21-0.393,0.312-0.583l3.869-0.943
		L3504.507,3972.673z M3652.975,4485.813c-31.691-11.197-64.197-28.461-83.138-56.183c17.63-23.555,42.523-47.375,69.769-45.59
		C3670.795,4386.313,3659.761,4455.268,3652.975,4485.813z M3729.565,4504.143c79.337-178.898,174.039-170.267,185.74,8.388
		C3854.398,4514.566,3790.036,4513.575,3729.565,4504.143z M3997.98,4507c43.479-110.595,94.071-93.589,114.877-21.736
		C4074.488,4496.196,4036.778,4502.527,3997.98,4507z M4292.883,3204.018c-12.908-5.931-6.353-2.918-28.482-13.09
		c63.057,376.506-8.082,566.636-17.373,747.536c-10.057,196.319,77.187,274.252,72.789,362.12
		c-4.873,86.612-92.773,145.876-175.295,174.867c-16.043-55.002-46.37-83.586-86.443-80.735
		c-38.078,2.721-70.583,41.64-96.71,115.563c-4.221,0.298-8.516,0.543-12.819,0.787c-3.652-61.85-21.744-169.879-103.389-169.879
		c-66.702,0-117.137,82.453-149.106,156.802c-3.801-0.848-7.547-1.717-11.197-2.633c37.868-165.109-59.936-171.244-121.887-108.654
		c10.763-61.178,55.465-157.338,84.047-213.189c-13.776-11.557-22.971-19.055-36-34.324c-16.47,14.122-11.72,10.037-12.602,10.803
		c0.732-0.767-2.742,2.837,11.591-11.978c-29.113-34.793-45.033-69.932-55.015-90.243c-20.162,8.496-14.136,5.972-15.31,6.447
		c1.242-0.651-4.886,2.585,14.692-7.797l-9.651-22.768c-15.764,6.277-15.295,6.087-15.425,6.142
		c0.129-0.061-0.34,0.163,15.052-7.071c-27.443-80.145-19.517-54.459-37.907-120.408c-40.167,69.518-87.881,153.593-91.445,235.74
		c-4.038,92.625,16.843,189.03-90.895,241.881c-11.747-28.509-37.107-71.079-91.219-61.754
		c-44.402,7.668-67.183,58.518-80.913,99.737c-2.069,0.143-4.14,0.292-6.229,0.421c0.394-53.706-4.669-122.118-66.852-136.396
		c-60.892-13.932-100.408,23.378-128.313,71.262c0.502-25.618-4.14-50.462-20.325-64.835c-42.204-37.515-84.299-8.782-116.201,39.21
		c-2.104-38.539,53.286-105.756,38.872-170.293l-16.198,3.63l15.913-4.899c-1.065-4.893-3.101-10.791-4.831-14.889l-15.289,6.467
		l14.861-7.492c-12.466-31.176-22.829-13.233-34.481-168.441c-76.419,171.677-66.777,127.282-109.156,330.394
		c-16.293,75.51-81.842,115.033-156.592,135.514c-13.178-65.48-45.956-101.332-93.589-101.332c-56.142,0-98.359,64-125.063,121.772
		c-0.055,0-0.101,0-0.156,0c30.28-83.26,32.221-169.384-52.742-179.978c-86.654-10.905-149.691,71.961-183.228,131.517
		c-2.049-1.12-4.167-2.199-6.148-3.345c26.562-45.196,67.183-125.478,17.406-142.036c-21.9-7.315-53.292,2.701-95.726,30.653
		c-0.712-7.458-0.978-15.079-0.522-22.958c2.098-35.974,30.681-78.849,54.921-106.164c44.573-41.64,92.035-75.178,81.72-150.79
		c-7.126-52.24-3.957-144.445-2.924-204.15l-16.898,34.264c3.536-112.041,13.104-226.877,13.104-226.877
		c-78.984-203.098-256.723-342.161-333.386-394.87c94.681-82.67,140.209-150.396,162.578-180.106
		c14.576-3.4,105.234,3.474,176.551-7.899c46.513-7.384,79.629-22.917,107.473-34.067c16.422-8.91,33.585-16.558,49.003-27.104
		c92.699-60.587,164.938-140.061,204.095-239.927l0.407,1.622c136.606-35.987,241.63-135.324,328.018-247.778
		c19.896,9.718,34.595,16.002,77.336,21.587c278.982,55.002,599.502,48.746,824.458-126.21
		c25.659,15.093,44.246,26.901,64.158,40.365c12.656-18.744,8.388-12.426,9.29-13.763c-0.658,1.235,2.687-4.899-8.021,14.611
		c86.327,58.599,164.239,128.036,228.906,210.447c107.548,135.948,166.072,313.354,178.932,342.996
		c94.538,149.724,225.33,242.546,388.11,172.628C4519.393,3227.919,4396.528,3251.617,4292.883,3204.018z M4805.255,3112.73
		c-79.453,33.232-121.887,19.734-182.603,24.729c-1.153,1.364-2.273,2.776-3.461,4.092c-8,0.767-10.159,1.106-17.25,2.077
		c-2.369,2.49-4.384,4.628-5.721,6.012c2.402-12.969,1.431-7.56,2.551-15.011c1.385-0.692,2.769-1.473,4.16-2.192
		c8.577-61.843,2.206-168.427,47.287-251.735c32.309-59.678,123.204-126.183,170.559-164.077
		c37.69-30.144,54.684-88.526,44.558-138.575c27.973,33.917,39.97,83.362,28.278,131.761l-11.089,45.875
		c36.639-28.271,56.224-41.986,76.338-64.863c0.149,141.594-62.235,189.844-124.188,251.816l17.691-6.081l-4.303,4.954
		l28.495-13.274c26.812-9.216,53.672-16.782,85.634-41.423C4954.524,2984.892,4892.777,3076.125,4805.255,3112.73z"/>
	<path fill="#060808" d="M1202.072,2360.811c-1.466,1.418,0.081,3.936,1.852,2.741c149.025-101.318,334.031-132.487,486.368-30.701
		c0.482,0.353,1.107-0.4,0.618-0.794C1542.733,2219.976,1336.676,2230.047,1202.072,2360.811z"/>
	<path fill="#060808" d="M1348.58,2194.005c-2.694,2.3-0.577,7.343,2.966,5.931c48.481-19.972,107.44-57.703,210.82-37.032
		C1580.41,2166.134,1441.674,2114.505,1348.58,2194.005z"/>
	<path fill="#060808" d="M1144.83,960.25c209.395-163.188,574.413-200.845,786.495-114.171
		c27.614,11.184-130.94-91.974-412.269-51.982C1225.891,835.771,1123.237,977.521,1144.83,960.25z"/>
	<path fill="#060808" d="M1437.669,666.577c67.985-32.825,137.706-48.175,212.904-40.168c0.712,0.095,0.923-1.065,0.176-1.194
		c-74.852-11.856-151.502-12.256-214.356,38.797C1435.192,664.982,1436.163,667.33,1437.669,666.577z"/>
	<path fill="#060808" d="M1292.973,782.255c79.094-32.425,157.297-61.931,242.138-73.515c83.471-11.326,169.16-9.195,251.213,11.367
		c19.918,5.836-120.977-45.651-259.478-23.888C1390.532,717.711,1273.932,789.224,1292.973,782.255z"/>
	<path fill="#060808" d="M126.334,3087.499c-0.971-2.124-1.948-4.207-2.871-6.277c0.929,2.077,1.9,4.208,2.836,6.277H126.334z"/>
	<path fill="#060808" d="M205.333,2927.589c-1.852-6.372-3.584-12.785-5.131-19.246c-0.048,0-0.129,0.047-0.176,0.047
		c1.547,6.454,3.271,12.826,5.131,19.246C205.203,2927.636,205.285,2927.589,205.333,2927.589z"/>
	<path fill="#060808" d="M261.841,2964.499c10.688-27.036,14.522-59.278,11.652-85.411c-12.338-45.59-49.106-20.04-56.909,37.161
		C208.713,2973.959,237.71,3005.963,261.841,2964.499z"/>
	<polygon fill="#060808" points="681.284,3594.443 681.019,3594.416 681.074,3594.436 681.352,3594.457 	"/>
	<path fill="#060808" d="M2.533,3089.236c-0.258,0.699-0.529,1.364-0.679,2.097l0.638-1.859L2.533,3089.236z"/>
	<path fill="#060808" d="M681.114,3594.443l0.359,0.102l0.34,0.034C681.705,3594.538,681.216,3594.457,681.114,3594.443z"/>
	<path fill="#060808" d="M987.688,3593.079l-0.664,0.054l-1.499,0.305C987.56,3593.133,987.125,3593.208,987.688,3593.079z"/>
	<path fill="#060808" d="M990.044,3592.502l-2.348,0.57C988.468,3593.011,989.242,3592.801,990.044,3592.502z"/>
	<path fill="#060808" d="M783.606,3605.281l-0.76-0.054C782.019,3605.247,782.575,3605.24,783.606,3605.281z"/>
	<path fill="#060808" d="M901.762,3602.973l-1.032,0.054C900.587,3603.028,901.245,3603.014,901.762,3602.973z"/>
	<polygon fill="#060808" points="987.03,3593.127 987.023,3593.133 987.023,3593.133 	"/>
	<path fill="#060808" d="M782.955,3605.227c-0.57-0.041-1.133-0.048-1.69-0.108C781.489,3605.131,782.738,3605.227,782.955,3605.227
		z"/>
	<path fill="#060808" d="M680.171,3594.342c0.311,0.054,0.631,0.054,0.943,0.102l-0.041-0.014L680.171,3594.342z"/>
	<path fill="#060808" d="M761.64,3604.107l-0.136-0.007C762.263,3604.188,763.499,3604.222,761.64,3604.107z"/>
	<polygon fill="#060808" points="681.705,3594.599 681.481,3594.538 681.324,3594.525 	"/>
	<polygon fill="#060808" points="625.379,3548.365 625.372,3548.365 625.386,3548.372 625.406,3548.372 	"/>
	<path fill="#060808" d="M2798.808,768.54l0.143,0.183C2799.147,768.974,2799.005,768.798,2798.808,768.54z"/>
	<path fill="#060808" d="M765.827,3571.16c-0.068-0.02-0.142-0.048-0.21-0.048C765.603,3571.119,765.189,3571.132,765.827,3571.16z"
		/>
	<path fill="#060808" d="M745.448,3569.558c-0.041,0-0.136-0.007-0.176-0.007L745.448,3569.558z"/>
	<path fill="#060808" d="M2043.753,2064.769c180.459-23.63,314.737-207.068,299.326-408.944
		c-15.418-201.883-174.786-346.891-355.244-323.268c-180.431,23.616-314.718,207.075-299.293,408.958
		C1703.96,1943.404,1863.32,2088.398,2043.753,2064.769z M1989.172,1350.01c165.943-21.729,312.885,117.008,327.571,309.275
		c14.686,192.24-108.376,366.32-274.32,388.05c-165.943,21.729-312.872-117.001-327.558-309.248
		C1700.194,1545.826,1823.228,1371.733,1989.172,1350.01z"/>
	<path fill="#060808" d="M1968.609,1807.51c5.177-48.915,59.007-47.178,57.33,0.95c-0.454,13.172-5.857,25.014-13.702,32.282
		c103.402,49.519,215.381-56.461,197.818-189.729c-43.33,40.995-101.407-4.587-90.963-70.414
		c3.141-19.802,12.148-36.483,24.193-47.673c-25.597-18.262-56.238-27.199-88.479-22.978
		C1930.396,1526.234,1880.09,1708.879,1968.609,1807.51z"/>
	<path fill="#060808" d="M2079.958,1950.02c161.532-21.146,243.497-243.327,148.72-394.177
		c-124.493-198.137-394.109-70.217-375.318,175.919C1863.402,1863.17,1962.04,1965.574,2079.958,1950.02z M2044.038,1479.606
		c84.461-11.014,157.78,45.977,188.881,128.68c52.959,140.834-26.575,305.488-155.493,322.359
		c-110.25,14.407-195.735-84.427-204.584-200.384C1863.32,1605.66,1940.121,1493.22,2044.038,1479.606z"/>
	<path fill="#060808" d="M1413.503,1688.744c-49.437-190.095-215.353-304.118-369.849-254.191
		c-154.468,49.919-239.947,245.186-190.51,435.282c49.437,190.089,215.346,304.097,369.816,254.178
		C1377.455,2074.086,1462.94,1878.833,1413.503,1688.744z M875.695,1862.553c-47.076-181.029,30.172-365.655,172.233-411.57
		c142.062-45.916,295.939,64.021,343.016,245.057c47.076,181.022-30.198,365.641-172.262,411.557
		C1076.629,2153.498,922.778,2043.568,875.695,1862.553z"/>
	<path fill="#060808" d="M1295.667,1704.352c-30.83,45.685-89.985,11.007-92.504-53.313c-0.76-19.354,4.193-36.625,12.805-49.125
		c-25.753-13.518-54.29-17.386-81.889-8.463c-105.438,34.08-118.982,215.585-22.923,296.741
		c-4.112-47.11,43.466-54.154,50.585-7.804c1.94,12.629-0.706,24.729-6.311,32.845
		C1252.935,1946.044,1335.556,1831.065,1295.667,1704.352z"/>
	<path fill="#060808" d="M1352.618,1721.488c-36.116-138.866-149.012-202.786-239.247-173.632
		c-170.138,54.975-168.8,356.473-2.301,447.829C1259.612,2077.214,1402.278,1912.425,1352.618,1721.488z M1228.565,1990.805
		c-96.94,31.318-187.294-55.973-214.336-159.958c-38.003-146.128,41.695-270.668,144.669-270.668
		c83.287,0,151.686,77.275,174.82,166.242C1364.202,1843.612,1317.03,1962.215,1228.565,1990.805z"/>
	<path fill="#060808" d="M2297.435,1137.703c-237.544-273.763-475.077-39.482-475.077-39.482
		C2115.212,1013.895,2297.435,1137.703,2297.435,1137.703z"/>
	<path fill="#060808" d="M1272.845,1189.686c-240.293-237.565-397.252,26.039-397.252,26.039
		C1102.654,1092.473,1272.845,1189.686,1272.845,1189.686z"/>
</g>
</svg>
