<?xml version="1.0" encoding="utf-8"?>

<svg version="1.1" id="Layer_1" xmlns="http://www.w3.org/2000/svg" xmlns:xlink="http://www.w3.org/1999/xlink" x="0px" y="0px"
	 viewBox="0 0 4207.169 5000" enable-background="new 0 0 4207.169 5000" xml:space="preserve">
<g>
	<path d="M897.074,3687.446c40.262,0,77.041-20.742,97.292-61.319c48.957-98.043-29.533-239.238-135.205-239.238
		c-40.426,0-77.096,20.899-97.285,61.333C713.015,3546.184,791.259,3687.446,897.074,3687.446z M803.539,3463.453
		c38.234-76.693,134.31-28.221,156.084,62.555c11.987,49.892-3.558,114.886-54.141,122.242
		C835.168,3658.836,764.096,3542.448,803.539,3463.453z"/>
	<path d="M640.024,3619.011c-16.665-69.324-76.659-123.095-141.755-113.78c-65.915,9.603-97.135,77.963-80.449,147.479
		c16.802,69.952,77.021,122.925,141.775,113.779C625.859,3756.832,656.443,3687.331,640.024,3619.011z M590.097,3698.081
		c-31.24,62.541-109.784,23.003-128.095-53.171c-10.409-43.335,4.378-96.035,43.944-101.793
		C565.619,3534.382,622.464,3633.258,590.097,3698.081z"/>
	<path d="M4193.939,3737.968c7.779-2.711,15.224-10.136,12.745-23.146c-15.88-65.936-67.186-125.773-156.426-182.154
		c24.267,3.176,67.651,6.994,67.651-17.607v-4.993c-102.872-118.854-248.622-175.597-404.276-197.371
		c-104.784-268.354-253.314-395.138-403.989-501.787c25.489,5.826,88.707,19.793,112.721,10.409
		c62.61-24.294-59.851-112.604-203.217-145.88c78.64-13.708,78.646-27.511,78.646-34.655c0-28.351-82.164-25.551-198.682-55.404
		c52.884-14.234,80.422-23.283,80.422-42.591c0-37.995-183.499-43.65-221.528-42.755
		c-58.471-51.805-116.115-101.779-168.815-146.891c45.269-57.569,117.311-140.286,107.578-300.017
		c9.657,29.054,15.046,57.699,31.773,134.467c18.147-99.949,59.775-258.635-51.477-399.597
		c35.468,20.783,41.164,34.368,85.674,95.332c-24.847-130.998-23.741-160.687-156.664-357.621
		c-78.598-116.32-96.329-134.884-132.077-291.535c425.783,7.54,529.297-312.735,460.438-483.578
		c42.728,26.705,64.952,56.347,103.077,100.106l-9.835-57.439c-31.39-182.393-112.42-265.97-171.601-303.507
		c45.562,2.923,85.572,15.996,144.685,32.21c-48.704-46.143-140.348-150.224-311.594-146.7
		c38.801-9.835,68.62-10.006,156.145-15.408c-89.724-28.488-149.479-51.375-238.398-53.253
		c-174.695-3.497-325.548,87.184-423.618,251.989c-158.795-166.049-365.154-232.128-540.929-259.304
		c-40.194-224.035-204.877-272.588-223.85-277.431l-39.887-10.142c23.276,36.636,38.036,55.923,47.864,96.24
		c-4.713-5.157-6.768-7.069-12.505-12.69l0,0c-85.914-88.243-198.013-117.051-313.876-78.571l-54.639,18.236
		c64.713,15.21,132.268,18.912,180.856,138.852c-194.065-35.454-350.292,50.179-432.825,204.904
		c-87.553,39.907-161.411,89.998-224.513,147.232C717.618,435.68,596.558,331.175,455.09,328.184
		c-62.992-1.455-103.562,15.415-170.16,36.813l56.818,8.558C226.48,375.529,168.419,425.25,86.262,484.343
		c90.462-20.599,87.375-19.964,97.77-21.828c-60.65,29.895-134.105,90.838-170.222,214.698L0,724.182
		c37.291-27.9,63.122-49.237,102.469-67.787c-72.82,144.644,15.722,417.061,313.445,473.763
		c-56.176,154.752-110.296,322.747-189.052,435.291C74.624,1783.138,101.663,1855.262,124.926,2012.5
		c18.714-101.499,19.561-125.725,45.706-171.827c-60.8,193.034-0.232,317.939,25.455,385.74
		c5.334-80.081,5.225-84.138,8.025-102.735c5.976,121.606,54.113,181.703,90.237,235.01c-5.362-61.695-12.567-94.348,5.969-191.326
		c79.097,247.249,332.958,388.137,506.69,457.815c61.893,75.703,47.604,186.73,165.946,275.409
		c-73.783,56.135-123.799,73.708-157.484,86.59c32.258,13.933,59.81,28.05,110.918,32.94
		c-104.019,76.024-80.859,183.035-80.586,184.189l6.345,27.026c19.219-17.191,35.27-32.408,62.159-51.026
		c-12.567,47.502-5.696,100.085,10.054,138.593c-84.022-15.969-181.819,11.092-244.012,83.031
		c-55.029-6.775-124.53-8.401-176.922,8.879c-73.544,24.137-137.281,112.4-148.093,200.26
		c-10.067,81.829,63.067,450.774,323.055,687.205c-96.131,10.293-187.932,55.001-239.299,137.383
		c-44.77,71.803-46.962,155.025-37.831,190.603c17.17,66.844,80.634,110.118,174.279,118.977
		c98.665,89.089,280.935,84.875,364.109,44.729c84.281,28.105,202.397,28.194,312.188-17.471
		c122.481-50.938,179.51-166.705,201.913-296.356c29.423,3.176,59.646,4.952,90.483,5.601
		c-90.708,68.21-139.112,159.854-124.919,229.874c22.259,109.606,109.169,141.372,242.216,156.644
		c111.471,78.585,258.239,82.239,373.37,44.408c47.844,27.606,128.833,42.386,224.363,19.8l0.096-3.572
		c225.503,124.386,515.446,92.573,758.352-151.009c53.034,5.601,98.077,5.013,97.306,5.013
		c486.31-0.021,1092.396-333.471,1009.802-906.438c37.489,52.105,42.263,55.698,55.465,53.703
		c7.561-1.175,13.298-6.584,14.37-14.322c1.885-63.887-16.05-132.179-49.769-191.647
		C4175.082,3740.822,4187.239,3740.331,4193.939,3737.968z M2873.984,345.627c-61.189,17.17-88.406,42.824-160.059,96.302
		l83.222-22.764c83.646-22.593,192.952-13.393,279.036,39.593c-47.905-5.655-80.333-0.594-197.692,10.211l101.54,22.662
		c25.421,5.655,151.118,43.985,204.48,254.906c-47.27-39.286-88.024-50.61-145.586-72.09l41.765,48.308
		c98.282,113.793,43.643,490.743-414.056,478.551c-11.549-52.358-21.746-99.71-35.263-151.679
		c147.827,37.81,287.471-69.761,290.49-212.554c4.74-224.465-298.125-317.878-425.797-127.712
		c-27.115-46.771-57.221-88.413-89.629-125.479C2506.323,410.307,2672.406,312.42,2873.984,345.627z M2621.237,1012.431
		c-23.755-84.233-56.361-175.481-106.943-270.15c33.453-61.032,99.737-102.531,175.624-102.531
		c111.526,0,201.51,88.973,199.229,196.633C2886.353,968.597,2749.584,1058.499,2621.237,1012.431z M159.301,634.3l54.509-47.058
		c-64.973,17.724-103.084,25.237-152.607,53.908c67.773-158.638,206.967-174.818,235.202-176.444l93.037-5.58
		c-95.544-28.221-106.792-33.801-145.86-34.491c70.853-26.336,152.867-23.215,214.93,1.257l93.426,36.629
		c-80.525-67.288-95.653-82.594-132.125-100.222c137.151-14.275,270.533,82.28,324.769,186.695
		c-43.629,42.707-81.877,88.912-115.835,137.431c-63.771-84.827-184.38-96.281-261.258-18.454
		c-107.728,109.06-46.717,302.538,102.872,319.626c-15.224,37.271-29.451,74.542-43.056,111.416
		C106.642,1040.96,55.869,723.711,159.301,634.3z M609.05,715.487c-50.118,76.597-90.524,158.194-125.479,240.399
		c-78.107-3.442-139.747-72.93-137.971-156.617C348.735,650.815,529.407,591.736,609.05,715.487z M316.327,2097.123l-11.222-62.507
		c-19.37,57.351-37.674,103.07-46.942,194.516c-55.022-152.587,0.437-251.197,58.286-400.574
		c-83.981,127.508-112.065,160.004-134.201,240.83c-23.98-184.114,54.591-303.917,107.223-398.02
		c-64.993,56.005-112.509,90.64-148.735,155.947c8.107-69.18,42.721-142.8,112.939-243.104
		C462.651,1285.061,476.448,681.686,971.8,426.876l-15.989,42.4l41.785-27.224c73.012-47.461,165.297-75.163,262.501-79.186
		c-194.748,122.18-154.417,376.881-123.205,459.94l13.141,34.826l16.72-33.227c112.612-223.748,263.518-258.089,265.035-258.41
		c-1.373-9.159-0.861-5.744-2.227-14.862c-6.434,0.587-155.333,16.31-273.176,223.468
		c-30.823-123.744-24.936-332.685,176.826-411.925l67.746-26.616c-124.154-8.346-238.255-16.597-375.495,52.454
		c36.998-65.588,147.56-216.242,369.211-186.634l-0.021,0.205c9.794,1.065,18.816,2.507,28.481,4.392
		c86.139,18.932,161.609,91.48,162.408,92.272l11.235-9.972c-2.746-3.49-55.65-69.966-131.162-102.196
		c-11.87-36.752-42.987-111.819-107.974-150.565c87.58-14.247,168.255,14.602,233.658,82.505l-0.103,0.109
		c37.879,37.093,75.341,98.508,95.038,171.315l14.753-2.807c-0.403-3.429-7.513-60.977-34.327-117.638
		c-1.011-35.099-5.396-67.643-18.441-101.042c79.978,41.915,145.074,127.665,165.284,257.248l-3.319,1.987
		c1.236,0.171,2.472,0.348,3.709,0.519l0.833,5.341l7.281-4.207c840.488,120.917,745.614,882.185,891.132,1114.491
		c79.357,126.497,154.854,216.952,190.186,321.969c-51.552-33.897-90.688-35.133-145.053-42.83
		c58.594,47.475,162.736,117.188,160.817,297.081c-19.841-45.917-39.552-59.27-97.886-113.513l27.586,68.149
		c14.534,36.096,38.207,159.615-26.657,276.7c-2.302-71.236-13.312-97.285-31.793-158.768l-13.236,62.637
		c-90.114,428.686-642.667,532.022-977.626,583.117c93.392-105.29,178.95-255.479,181.901-394.086
		c4.583-215.156-82.635-291.487-256.067-364.3c-167.865-70.403-190.609-127.275-242.434-233.276
		c-56.142-115.152-170.14-136.974-251.382-143.387c-113.417-3.996-165.892,29.662-247.57,112.154
		c-76.304,77.137-198.02,157.716-288.215,218.625c-120.213,81.542-168.214,221.111-128.409,373.33
		c31.377,120.111,102.654,188.649,173.084,253.342C566.568,2478.382,359.069,2332.81,316.327,2097.123z M1807.194,3390.011
		l0.417,2.117c7.663,21.904,53.506,31.424,76.98,33.719c-98.781,72.37-175.617,275.669-31.718,178.309
		c-36.472,96.896-2.206,251.156,19.356,355.094c22.429,108.315,33.446,153.625,12.034,224.144
		c-21.35,70.321-69.795,136.106-124.298,183.028c-27.654-22.682-50.978-44.913-68.839-65.984
		c-102.278-120.678-129.707-386.634-134.29-544.234c51.45,56.319,86.924,97.832,124.099,140.771
		c-31.185-57.2-62.487-120.254-124.666-188.055l0.014-1.188l-4.562-3.784l-3.367-3.599l-0.458,0.26
		c-70.519-60.11-125.486-168.227-128.361-253.533l-2.315-68.333c-43.431,91.712-38.794,75.341-56.695,163.774
		c-18.304-36.519-31.37-87.184-22.566-127.719c4.173-19.233,23.611-57.754,30.953-72.657
		c-93.542,39.996-79.842,37.086-108.889,48.069c64.338-112.304,52.256-181.518,48.274-278.906
		c-31.124,93.829-33.671,113.199-82.321,194.051c-12.396-34.949-26.179-106.048,8.708-208.92
		c7.772-22.921,19.718-71.789,25.291-94.287c-62.542,58.45-64.932,62.22-105.618,125.937c-9.603-35.358-16.631-91.787,6.379-155.811
		c226.275,35.386,433.815-27.074,602.582-195.458c4.747-0.71,9.555-1.428,14.425-2.158c59.243,107.1,153.195,172.735,222.717,462.76
		c-33.378,46.232-65.526,133.272-194.045,135.99L1807.194,3390.011z M815.3,2589.122c-87.177-85.449-181.532-147.97-218.516-289.41
		c-36.39-139.221,6.994-266.469,116.027-340.382c91.384-61.804,214.131-142.916,292.812-222.416
		c76.071-76.85,121.934-106.956,224.267-103.173c141.529,11.215,193.915,61.046,232.627,140.648
		c46.997,97.026,78.052,161.138,251.033,233.754c164.191,68.893,241.581,136.68,237.367,335.54
		c-4.077,194.051-179.538,430.059-370.208,534.133c-187.556,102.23-450.849,86.801-567.886,13.312
		C869.393,2801.102,905.83,2677.467,815.3,2589.122z M376.833,3635.28c-12.458-96.035,72.151-187.044,135.594-207.902
		c45.924-15.094,106.458-13.858,154.54-8.701l-5.081,6.755c9.371,1.12,29.854,3.709,41.628,5.601
		c62.719-78.578,160.803-99.191,243.104-72.233l22.074,34.231l0.123-25.783c26.869,11.939,50.282,28.515,70.799,47.898
		c-1.632,104.047-16.405,201.182-39.026,290.299c-183.253-20.407-343.77,32.353-380.829,214.575
		c-28.563,140.395,26.507,255.405,97.353,340.321c-7.738,9.254-14.452,16.986-20.066,23.304
		C558.099,4157.856,418.332,3955.124,376.833,3635.28z M990.139,3744.189c-63.668,222.266-174.183,389.974-245.009,481.276
		c-59.987-76.618-103.897-177.12-79.425-297.408C697.463,3771.96,829.718,3728.153,990.139,3744.189z M1420.819,4470.516
		l-0.055,0.021c-1.127,6.639-1.783,10.443-3.49,21.35v0.007c-19.281,106.048-79.377,212.253-179.907,254.059
		c-108.575,45.166-225.899,40.098-292.211,14.233c-50.002-20.21-102.838-66.018-109.422-122.597
		c-7.315-62.548,67.473-134.112,119.346-167.702l-7.602-12.983c-6.406,3.374-156.678,83.851-145.047,183.717
		c6.796,58.232,48.581,102.94,99.416,131.947c-90.448,28.617-228.399,20.606-304.149-49.735
		c-27.361-55.561-28.426-103.951-15.156-141.803c25.906-73.852,102.339-109.593,103.097-109.941l-5.805-13.885
		c-53.704,20.606-112.133,70.164-131.039,130.923c-11.973,38.486-9.077,80.374,8.558,124.933
		c-81.774-13.626-110.836-55.575-120.992-85.326c-13.202-38.685-6.441-116.559,31.602-177.591
		c40.734-65.349,117.748-115.842,234.156-124.523l2.049-2.821l0.096-0.239c5.259-5.259,18.639-19.971,25.878-27.879l-0.423,0.02
		c76.242-87.655,321.579-402.37,342.137-840.618c15.19,64.754,13.216,123.553,13.182,124.393l14.93,1.639
		c0.936-5.205,22.04-126.982-27.121-218.789l-0.041-1.7l-2.288-2.643l-2.349-4.221l-0.895,0.301
		c-52.857-63.115-50.166-116.149-50.131-116.655c2.24-29.403,1.482-19.384,3.961-51.928
		c-27.627,34.115-54.154,63.491-72.493,103.282c-11.228-41.601-11.385-96.623,13.503-136.694l24.649-39.524
		c-49.981,20.572-67.042,25.059-110.371,58.088c1.147-38.773,18.277-107.653,115.719-152.478
		c44.989-20.708,22.976-10.573,97.709-44.982c-112.004,18.052-135.861,26.521-192.829,13.209
		c33.077-16.911,69.119-39.736,103.207-66.264c38.138,23.071,84.22,37.988,128.19,47.249
		c-26.227,76.256-16.412,160.134,6.523,205.232l14.097,27.408c14.466-24.137,22.375-37.688,40.228-65.294
		c-32.141,136.373,18.01,210.054,20.394,213.448l14.732,20.961l0,0l0,0c14.008-21.336,21.63-32.565,35.789-56.463
		c-23.229,64.632-53.574,101.069-72.5,126.067c38.685-6.693,67.609-9.494,119.271-34.942c-19.192,72.322,24.895,187.98,59.12,187.98
		c24.233,0,25.974-35.932,32.531-69.194c20.626,70.86,66.796,149.042,124.14,198.75c-0.021,37.394,2.145,207.124,39.887,366.384
		C1516.697,4162.098,1451.642,4293.553,1420.819,4470.516z M1459.162,4447.11c27.484-137.589,75.416-244.771,115.063-315.849
		c37.175,129.631,80.641,188.737,160.564,255.097c-7.691,5.635-15.415,10.99-23.153,15.777
		c-45.439,11.666-86.801,29.143-123.28,50.405C1545.642,4453.325,1503.618,4451.856,1459.162,4447.11z M2490.785,4965.582
		c-53.977-4.418-107.414-17.484-158.802-38.834c-140.225-58.266-207.595-143.866-205.942-261.674
		c0.779-55.725,19.178-119.257,61.387-270.512c19.26-112.871,72.677-242.291,66.12-360.612l4.733,5.272
		c-0.901-3.934-11.338-51.129-12.786-54.899c-0.799-3.306-1.598-6.523-2.343-9.555l8.203,10.081
		c-12.663-37.571-14.254-42.216-15.504-46.15c-38.247-117.768,42.243-263.853,205.874-199.911
		c-0.826,4.112,0.048-0.294-10.491,53.191l23.563-43.506c84.479-155.899,357.901-125.582,378.022,31.923
		c9.234-0.464,16.357-0.874,26.527-0.737l0.492,0.068l0.656-0.109c132.008,1.489,185.364,70.888,173.671,186.327
		c218.823-18.167,266.039,193.539,200.294,408.757l-0.437-0.062c0.014,0.13,0.055,0.253,0.068,0.383
		C3078.014,4758.007,2786.418,4989.644,2490.785,4965.582z M4050.586,3636.202c53.021,87.033,96.24,132.917,108.466,232.729
		c-55.158-75.949-24.622-37.476-96.069-124.912l15.647,67.439c147.792,636.732-557.798,976.936-1034.806,939.283
		c95.605-103.61,170.864-229.628,225.127-362.217l0.567,0.123c2.049-6.721,1.277-4.501,3.032-8.797l-0.123-0.956
		c47.325-157.464,33.631-293.672-37.851-374.054c-38.664-43.445-94.273-70.013-160.92-72.889
		c-0.546-44.463-13.872-87.136-42.455-120.507c43.657-107.592,99.962-167.551,101-168.63c-6.509-6.857-3.9-4.112-10.354-10.914
		c-0.833,0.744-63.969,58.348-112.891,158.153c-42.646-34.061-93.071-42.461-147.683-43.001
		c-9.944-27.457-34.245-74.371-89.813-104.723c19.95-79.671,26.964-178.909-3.92-256.128c-0.499,0.164-13.755,4.46-14.247,4.617
		c9.876,45.638,11.215,137.78-12.792,237.804c-94.321-33.514-228.085-16.249-299.607,74.753
		c-172.38-57.426-284.411,85.326-243.555,235.27l-0.123,0.061c0.915,2.336,1.428,5.218,2.329,8.1v0.007
		c44.463,142.226-5.641,232.49-38.411,386.778c-17.922,52.802-54.79,221.624-66.633,276.338
		c-20.128,127.862,25.025,227.695,131.94,298.931c0,0.116-0.007,0.226-0.007,0.341c-133.081,22.286-245.494-28.549-267.732-163.119
		c-7.076-42.81-1.919-76.994-1.803-77.697l-14.684-3.217c-0.239,0.874-12.355,46.846-4.815,101.5
		c5.764,41.785,23.085,88.604,65.97,124.284c-107.837,28.822-228.017,20.572-322.385-46.894
		c-30.939-40.181-45.733-84.711-33.856-133.204c18.208-74.412,91.35-124.81,94.615-127.023l-8.073-12.704
		c-50.978,30.42-107.352,91.009-119.052,153.851c-6.898,37.039,0.54,73.988,21.644,110.249
		c-72.67-10.593-125.506-28.385-156.439-67.199c-102.578-128.696,82.574-298.126,245.638-338.852l2.063-0.86
		c19.281-11.652,31.117-20.982,55.869-39.518l-2.138,0.321c76.864-65.772,148.188-172.066,148.188-279.453
		c0-138.203-136.81-459.455,4.276-557.245l-22.102-21.473c-54.592,30.4-83.4,54.81-103.944,65.28
		c6.83-34.607,42.209-116.32,113.916-158.338c14.521-8.469,42.544-28.611,54.899-37.373c-84.575-4.849-79.896-1.243-105.024-6.229
		c38.575-11.194,95.434-38.329,132.937-103.794c73.995-129.133,227.17-219.923,233.658-223.727
		c-5.894-11.87-4.357-8.77-6.673-13.448c-64.864,26.739-145.996,81.214-205.116,151.05
		c-69.965-269.843-160.462-341.359-214.077-434.908c329.646-50.412,741.496-140.211,921.73-422.443
		c54.782,46.635,116.395,99.744,179.661,155.517c-67.261,5.99-146.235,27.743-187.891,73.503l-49.292,54.339
		c59.898-43.629,74.179-56.77,113.52-72.301c116.621-46.041,282.164-27.88,340.977-12.909
		c-31.172,10.334-52.966,13.435-119.858,35.993c66.229,34.826,62.958,30.14,222.355,61.292
		c-62.22,13.229-39.142,2.705-187.829,34.177c29.095,4.501,93.645,14.514,124.455,19.124
		c95.127,14.247,201.25,63.306,230.947,100.201c-52.29,1.093-154.902-25.954-208.176-41.751l7.629,8.551l0,0l-7.533-2.991
		c8.633,8.449,17.15,16.836,25.462,25.114c167.346,120.78,336.154,222.416,458.014,523.266
		c-68.326-7.028-134.201,0.963-168.214,11.44c0.198,0.997-0.157-0.765,2.93,14.684c3.667-0.355,361.521-33.043,559.772,171.158
		c-47.529-3.552-96.828-20.08-218.181-55.801c159.144,100.4,276.994,146.713,315.76,253.028
		C4124.698,3678.65,4145.31,3682.501,4050.586,3636.202z"/>
	<path d="M2937.899,4106.079c-26.425,73.21,4.255,150.736,74.808,168.33c116.006,28.89,221.535-116.129,166.739-218.912
		C3128.282,3959.543,2981.002,3986.781,2937.899,4106.079z M3024.365,4237.609c-47.55-11.863-60.772-71.502-43.527-119.236
		c29.061-80.524,123.007-113.09,157.798-47.844C3178.038,4144.45,3101.365,4256.835,3024.365,4237.609z"/>
	<path d="M2500.593,4031.872c-6.755-3.777-13.134-8.203-19.151-13.175c3.203,5.28,6.885,10.894,10.648,15.805
		c-308.582,103.193-415.539,763.085-105.823,813.859c145.818,19.541,283.065-12.11,390.739-114.94
		c111.895-106.84,165.209-269.488,165.639-389.721C2943.451,4116.904,2712.211,3966.852,2500.593,4031.872z M2396.738,4810.42
		c-244.948-42.755-173.855-614.507,94.492-734.229c182.522-73.25,379.449,56.381,402.391,225.189
		C2916.992,4473.118,2789.423,4862.778,2396.738,4810.42z"/>
	<path d="M2696.898,3828.689c16.344-63.921-8.162-133.702-73.572-147.123c-101.745-19.021-179.012,124.571-124.776,211.556
		C2548.156,3972.677,2668.554,3939.586,2696.898,3828.689z M2531.082,3797.763c15.989-62.541,80.21-107.387,112.311-55.93
		c37.79,60.622-18.632,165.577-75.129,155.087C2530.611,3889.721,2521.37,3835.785,2531.082,3797.763z"/>
	<path d="M2307.211,3968.32c76.003,10.136,132.637-83.434,107.756-160.359c-32.094-99.191-163.488-79.951-182.741,35.816
		C2222.254,3903.702,2252.545,3961.162,2307.211,3968.32z M2341.75,3785.914c19.356,5.942,35.789,38.029,29.403,76.331
		c-7.813,46.908-51.252,88.85-79.247,50.944C2255.27,3863.563,2300.668,3773.182,2341.75,3785.914z"/>
	<path d="M2828.606,4056.22c93.604,16.679,167.387-98.583,123.102-181.792c-44.866-84.343-173.493-61.667-199.959,46.778
		C2736.662,3983.14,2767.902,4045.327,2828.606,4056.22z M2876.58,3859.39c30.468,5.464,56.005,42.939,44.005,92.101
		c-16.863,69.242-92.313,96.814-122.187,40.713C2767.957,3934.963,2817.631,3848.701,2876.58,3859.39z"/>
	<path d="M1019.398,2638.038c7.308,26.309,19.95,49.346,39.989,67.076c47.372,41.908,169.716,58.956,273.743,4.959
		c57.153-29.717,99.498-72.732,138.989-122.365l-0.055-0.116c81.303-105.911,98.549-223.481,103.227-296.097
		c23.433-26.698,40.775-52.857,52.242-72.281c51.955,7.936,107.803-4.624,141.147-22.894l-6.277-13.646
		c-33.009,12.226-101.035,15.279-153.038,1.81c-62.391-16.153-78.325-44.436-109.572-84.534
		c12.096,36.165,20.421,87.58,96.24,112.045c-37.421,59.598-90.715,115.931-154.827,143.647
		c-115.555,49.988-257.856,43.11-315.794-14.022c-43.049-44.92-27.354-147.225-8.23-201.086l-13.919-5.696
		c-25.626,57.337-46.785,150.531-14.514,207.882c-84.93,43.787-249.742-7.752-283.66-183.397
		c-6.475-33.535-6.14-58.696-6.092-61.046c-0.007,0-11.987-0.922-14.978-1.147c-0.82,5.833-18.81,143.886,75.3,225.763
		c35.263,30.659,72.24,49.059,107.694,58.225C1050.03,2478.737,990.664,2534.428,1019.398,2638.038z M1293.544,2694.248
		c-63.723,25.277-162.176,27.565-208.326-7.506c-47.604-36.178-44.702-104.552-42.004-160.544
		c43.206-27.654,114.292-27.914,154.144,11.467c-31.213,37.223-27.675,81.522-29.232,128.86
		c13.482-42.878,22.853-89.26,59.372-116.573c47.229-36.82,167.107-33.624,208.463,33.992
		C1397.235,2630.948,1350.628,2671.587,1293.544,2694.248z M1010.676,2388.057c37.489,1.987,71.379-6.229,97.087-20.879
		c0.048,0.041-0.574-0.635,5.737,5.204l0.28-0.307c82.198,67.172,297.217,71.618,427.784-46.382
		c-8.203,70.328-29.471,154.588-86.05,232.996c-50.193-68.101-161.404-76.311-227.019-44.681l-0.198-0.355
		c-1.243,0.683-7.438,4.207-7.52,4.255c-44.797-46.286-120.807-52.515-177.216-26.452
		C1041.998,2446.671,1031.46,2417.938,1010.676,2388.057z"/>
	<path d="M917.858,2041.084c28.481,45.904,80.231,52.051,133.019,39.948c1.96,1.271-0.703-0.54,7.035,4.159l0.123-0.198
		c30.987,16.501,69.167,16.918,101.513,5.532c40.399,42.612,184.168,48.807,209.917-75.3
		c28.979-139.672-114.565-200.451-268.422-199.474c-105.14,0.833-173.015,52.87-193.635,104.115
		C894.39,1952.274,896.009,2005.766,917.858,2041.084z M921.689,1925.576c18.693-46.368,81.46-93.604,179.463-94.383
		c90.612-0.601,213.851,20.702,246.184,105.269c31.609,82.567-20.449,140.437-49.025,154.158
		c-32.551,15.579-95.933,17.307-124.215-7.588c53.526-23.556,81.153-59.229,81.153-59.229c-0.505,0.43-48.964,39.969-125.711,57.993
		c-26.247,3.429-49.032-1.584-66.25-11.495c-45.549-29.164-60.076-72.848-60.178-73.285c0,0,1.496,39.436,33.275,71.181
		c-49.462,8.729-85.599-3.23-105.385-35.249C909.293,1997.891,912.599,1948.177,921.689,1925.576z"/>
	<path d="M2228.913,1210.601c-68.682-332.985-412.048-505.331-587.741-168.002C1847.845,863.539,2085.328,963.625,2228.913,1210.601
		z"/>
	<path d="M927.502,1037.989c-79.937-299.307-318.472-245.556-463.457,65.772C588.199,956.31,773.405,795.971,927.502,1037.989z"/>
	<path d="M2027.957,1929.251c73.906-24.635,135.813-79.862,173.61-160.079c141.27-299.853-139.487-707.387-391.087-608.237
		c-94.376,37.189-142.349,135.273-170.795,226.248C1513.405,1791.102,1736.033,2015.109,2027.957,1929.251z M1651.834,1413.839
		c27.217-83.837,73.128-174.224,163.426-208.503c240.406-91.241,509.511,283.988,374.231,560.524
		c-36.151,73.9-95.366,124.81-166.124,147.526C1741.852,1993.131,1531.634,1784.129,1651.834,1413.839z"/>
	<path d="M1912.326,1905.462c155.134,0,280.893-125.759,280.893-280.894s-125.759-280.894-280.894-280.894
		s-280.894,125.759-280.894,280.894S1757.192,1905.462,1912.326,1905.462z M1718.152,1467.31
		c7.916-57.241,63.32-94.403,118.881-81.071c161.295-50.903,325.193,69.843,325.193,238.33c0,138.019-111.881,249.9-249.9,249.9
		C1701.385,1874.468,1586.984,1629.063,1718.152,1467.31z"/>
	<path d="M1953.702,1802.891c-2.623-33.193,38.227-51.306,60.936-26.357c152.198-102.681,74.917-343.62-111.177-334.713
		c42.53,97.729-82.184,183.499-157.996,107.428C1683.641,1685.956,1804.557,1837.388,1953.702,1802.891z"/>
	<path d="M926.47,1332.604c-26.09-85.859-70.095-178.431-156.664-213.537c-247.181-100.222-512.503,339.289-337.001,614.111
		C592.747,1983.685,1094.513,1885.594,926.47,1332.604z M442.947,1726.928c-169.361-255.466,88.106-657.461,322.474-565.947
		c82.84,32.34,124.946,117.652,149.91,196.783c111.266,352.656-85.729,545.819-340.812,471.482
		C518.581,1810.779,474.037,1773.816,442.947,1726.928z"/>
	<path d="M934.038,1556.659c0-146.413-115.357-265.11-257.665-265.11s-257.665,118.697-257.665,265.11
		s115.357,265.11,257.665,265.11S934.038,1703.072,934.038,1556.659z M507.906,1402.583c7.192-67.917,78.646-107.148,137.411-75.648
		c136.878-19.424,256.518,90.073,256.518,229.724c0,128.115-100.939,231.964-225.448,231.964
		C481.317,1788.623,379.818,1550.758,507.906,1402.583z"/>
	<path d="M723.56,1722.523c-3.606-31.82,32.818-52.208,56.681-30.12c119.448-96.896,61.92-293.536-88.215-307.817
		c30.099,100.728-98.078,172.715-163.549,89.97C458.724,1607.282,578.596,1766.118,723.56,1722.523z"/>
</g>
</svg>
