<?xml version='1.0' encoding='utf-8'?>
<svg xmlns="http://www.w3.org/2000/svg" width="100%" height="100%" viewBox="0 0 1190 615" version="1.1" style="fill-rule:evenodd;clip-rule:evenodd;stroke-linecap:round;stroke-linejoin:round;stroke-miterlimit:1.5;"> <g transform="matrix(1.33333,0,0,1.33333,-196.448,-2398.32)"> <g transform="matrix(1.1305,0,0,1.1305,-236.978,134.791)"> <path d="M1008,1498C1007.33,1497.33 1007.76,1491.33 1006,1489C1004.24,1486.66 1000.21,1485.83 997.462,1484C994.462,1482 988.244,1478.17 988,1477C987.756,1475.83 995,1477.83 996,1477C997,1476.17 993.167,1472 994,1472C994.833,1472 999.628,1476.8 1001,1477C1002.31,1477.19 1001.42,1472.73 1002.23,1473.23C1003.05,1473.73 1004.94,1478.37 1005.88,1480C1006.49,1481.04 1007.3,1481.95 1007.88,1483C1008.7,1484.46 1010.42,1487.1 1010.77,1488.77C1011.07,1490.17 1010.41,1491.63 1010,1493C1009.54,1494.54 1008.67,1498.67 1008,1498Z" style="fill:rgb(71,58,40);"/> <path d="M1103.35,1510.31C1104.33,1509.02 1105.39,1497.21 1106,1493C1106.38,1490.35 1106.33,1487.37 1107,1485.04C1107.62,1482.88 1108.5,1480.67 1110,1479C1111.5,1477.33 1116.5,1475.33 1116,1475C1115.5,1474.67 1108.5,1477.5 1107,1477C1105.5,1476.5 1107.83,1471 1107,1472C1106.17,1473 1103.02,1480.31 1102,1483C1101.38,1484.63 1101.53,1488.21 1100.88,1488.11C1100.24,1488.01 1098.26,1481.57 1098.12,1482.38C1097.97,1483.2 1099.67,1489.94 1100,1493C1100.28,1495.56 1100.64,1499.09 1100.12,1500.73C1098.9,1504.5 1102.37,1511.6 1103.35,1510.31Z" style="fill:rgb(71,58,40);"/> <path d="M466,1566C460.333,1567 454.711,1574.72 452,1581C448.833,1588.33 448.387,1600.29 447,1610C445.5,1620.5 444.5,1634.5 443,1644C441.776,1651.75 442.167,1660.63 438,1667C433.833,1673.37 425.667,1679.69 418,1682.23C410.333,1684.76 399.167,1681.1 392,1682.23C385.974,1683.18 379,1686.2 375,1689C371.666,1691.33 369.333,1695.16 368,1698.99C366.667,1702.83 367.523,1707.68 367,1712C366.333,1717.5 364.56,1725.28 364,1732C363.333,1740 363.941,1750.71 363,1760C361.985,1770.02 360.076,1784.79 357.909,1792.13C356.562,1796.69 352.124,1799.75 350,1804C347.515,1808.98 344.167,1816.67 343,1822C342.003,1826.56 343.5,1832.33 343,1836C342.615,1838.82 339.532,1841.19 340,1844C340.5,1847 343.334,1851.17 346,1854C348.985,1857.17 354.409,1861.83 357.909,1863C360.853,1863.98 364.152,1862.17 367,1861C369.848,1859.83 372.833,1857.67 375,1856C376.868,1854.56 379.003,1853.14 380,1851C381.167,1848.5 380.545,1844.07 382,1841C383.5,1837.83 386.929,1835.19 389,1832C391.167,1828.67 393.965,1825.05 395,1821C396.833,1813.83 398.667,1797.83 400,1789C401.055,1782.01 401.667,1774.33 403,1768C404.217,1762.22 405.167,1754.17 408,1751C410.704,1747.98 417,1749.5 420,1749C422,1748.67 423.975,1748.09 426,1748C429.667,1747.83 436.668,1747.86 442,1748C448.5,1748.17 458.333,1747.67 465,1749C471.009,1750.2 475.975,1757.12 482,1756C489.167,1754.67 501.395,1748.52 508,1741C515.5,1732.47 522.951,1717.81 527,1704.8C531.667,1689.8 537.333,1665.3 536,1651C534.879,1638.97 525.639,1629.09 519,1619C510.667,1606.33 494.833,1583.83 486,1575C480.831,1569.83 471.667,1565 466,1566Z" style="fill:rgb(193,172,145);"/> <g transform="matrix(1,0,0,1,17,-2)"> <path d="M821,1730C824.796,1736.6 815.333,1744.67 812,1751C808.856,1756.97 804.667,1762.33 801,1768C797.333,1773.67 793.782,1779.41 790,1785C786.167,1790.67 781,1797 778,1802C775.545,1806.09 773.919,1810.67 772,1815C770.094,1819.3 767.74,1824.17 766.487,1828C765.432,1831.23 764.402,1835.17 764.487,1838C764.562,1840.48 764.797,1843.86 767,1845C769.585,1846.33 775.667,1845.67 780,1846C784.333,1846.33 789.561,1845.33 793,1847C796.439,1848.67 798.965,1853.33 800.631,1856C801.937,1858.09 802.772,1860.67 803,1863C803.228,1865.33 803.2,1867.97 802,1870C800.772,1872.08 798.074,1874.1 795.631,1875.46C792.798,1877.03 788.439,1878.46 785,1879.46C781.736,1880.4 778.399,1881.46 775,1881.46C770.333,1881.46 762.833,1880.37 757,1879.46C751.286,1878.57 744.333,1877.41 740,1876C736.736,1874.94 733.565,1873.28 731,1871C728,1868.33 723.256,1864.57 722,1860C720.167,1853.33 720,1838 720,1831C720,1826.62 722.167,1821.83 722,1818C721.849,1814.52 718.601,1811.46 719,1808C719.5,1803.67 722.833,1797.17 725,1792C727.134,1786.91 730.255,1782.24 732,1777C734.5,1769.5 737.596,1757.07 740,1747C742.667,1735.83 739.833,1716 748,1710C756.167,1704 776.833,1707.67 789,1711C800.964,1714.28 817.167,1723.33 821,1730Z" style="fill:rgb(193,172,145);"/> </g> <path d="M365,1566C370.333,1559.33 381.167,1543.83 390,1537C398.032,1530.79 408.457,1528.47 418,1525C429,1521 443.333,1516 456,1513C468.478,1510.05 484.5,1508.17 494,1507C500.295,1506.23 506.757,1507.12 513,1506C522.333,1504.33 537.5,1498.67 550,1497C562.5,1495.33 575.429,1494.41 588,1496C606.439,1498.33 637.631,1506.5 660.631,1511C682.373,1515.25 706.939,1519.67 726,1523C742.302,1525.85 761.833,1528.67 775,1531C785.042,1532.78 794.803,1536.87 805,1537C817.667,1537.17 837.667,1533.5 851,1532C862.34,1530.72 873.589,1528 885,1528C898.5,1528 922.167,1532 932,1532C936.216,1532 939.978,1529.26 944,1528C949.833,1526.17 959.833,1523.5 967,1521C973.78,1518.63 979.875,1513.89 987,1513C997.667,1511.67 1020.74,1512.83 1031,1513C1036.87,1513.1 1042.92,1514.33 1048.58,1514C1054.14,1513.67 1060.43,1511.5 1065,1511C1068.64,1510.6 1072.36,1511.47 1076,1511C1079.83,1510.5 1084.19,1509.59 1088,1508C1092,1506.33 1097.5,1504.17 1100,1501C1102.5,1497.83 1101.83,1489.17 1103,1489C1104.17,1488.83 1106.17,1496.83 1107,1500C1107.68,1502.6 1108.82,1505.44 1108,1508C1106.83,1511.67 1102.5,1517.33 1100,1522C1097.54,1526.6 1094.83,1532.67 1093,1536C1091.84,1538.11 1089.58,1539.67 1089,1542C1088.33,1544.67 1088.29,1548.74 1089,1552C1089.83,1555.83 1093,1561.67 1094,1565C1094.68,1567.26 1095.17,1570.33 1095,1572C1094.88,1573.2 1093.26,1573.83 1093,1575C1092.67,1576.5 1093.42,1579.04 1093,1581C1092.5,1583.33 1091.14,1586.39 1090,1589C1088.83,1591.67 1086.67,1594.5 1086,1597C1085.4,1599.26 1086.28,1601.68 1086,1604C1085.5,1608.17 1084.5,1617.83 1083,1622C1081.96,1624.89 1078.67,1627.17 1077,1629C1075.73,1630.39 1074.26,1631.6 1073,1633C1071.5,1634.67 1069.67,1637 1068,1639C1066.33,1641 1065.06,1643.41 1063,1645C1060.83,1646.67 1057.93,1648.44 1055,1649C1051.5,1649.67 1045.5,1649.33 1042,1649C1039.26,1648.74 1036.75,1647 1034,1647C1029.5,1647 1018.83,1647.17 1015,1649C1012.04,1650.42 1012.42,1655.04 1011,1658C1009.17,1661.83 1005.2,1666.92 1004,1672C1002.67,1677.67 1002.71,1685.33 1003,1692C1003.33,1699.67 1003.83,1709.83 1006,1718C1008.14,1726.08 1011.84,1733.75 1016,1741C1021.17,1750 1030.67,1762.67 1037,1772C1042.66,1780.34 1048,1790.17 1054,1797C1059.46,1803.22 1067.67,1808.67 1073,1813C1077.24,1816.45 1082.83,1821.5 1086,1823C1087.83,1823.87 1090.02,1822.42 1092,1822C1094.33,1821.5 1097.27,1820.29 1100,1820C1103.17,1819.67 1107.83,1819.17 1111,1820C1114.04,1820.8 1116.64,1822.92 1119,1825C1121.83,1827.5 1126.33,1832 1128,1835C1129.31,1837.35 1129.5,1840.67 1129,1843C1128.5,1845.33 1126.82,1847.43 1125,1849C1122.5,1851.17 1116.67,1855 1114,1856C1112.41,1856.6 1110.5,1854.5 1109,1855C1107.5,1855.5 1106.79,1858.4 1105,1859C1103,1859.67 1099.67,1859 1097,1859C1093.33,1859 1087.17,1859.5 1083,1859C1079.23,1858.55 1074.83,1856.33 1072,1856C1069.99,1855.76 1068.02,1856.88 1066,1857C1063.17,1857.17 1058.35,1858.49 1055,1857C1050.5,1855 1043.83,1848.83 1039,1845C1034.55,1841.47 1030.59,1837.34 1026,1834C1020.5,1830 1012.57,1825.48 1006,1821C998.667,1816 989.667,1810 982,1804C974.369,1798.03 967.833,1790.67 960,1785C952.167,1779.33 942.667,1775.83 935,1770C927.333,1764.17 920,1756.17 914,1750C908.73,1744.58 906.377,1734.64 899,1733C891.5,1731.33 879.149,1738.44 869,1740C858.167,1741.67 845.7,1742.52 834,1743C821.772,1743.5 808.366,1744.18 795.631,1743C777.631,1741.33 744.105,1735.67 726,1733C712.987,1731.08 698.333,1729.33 687,1727C677.178,1724.98 666.116,1721.52 658,1719C651.962,1717.13 647.754,1711.34 635,1708C627.155,1705.95 622.637,1692.33 620.631,1704.8C619.971,1708.9 616.956,1714.78 610,1722C604.371,1727.84 593.956,1733.27 586,1739C577.667,1745 568.5,1752.17 560,1758C551.842,1763.6 541,1770 535,1774C531.228,1776.52 525.5,1779.17 524,1782C522.562,1784.72 526,1788.5 526,1791C526,1793.11 523.489,1794.95 524,1797C524.833,1800.33 528.235,1806.58 531,1811C534.333,1816.33 540.333,1824.83 544,1829C546.511,1831.85 550.5,1834.33 553,1836C554.861,1837.24 556.802,1838.59 559,1839C561.667,1839.5 565.679,1838.71 569,1839C572.833,1839.33 579.167,1839 582,1841C584.833,1843 584.833,1847.83 586,1851C587.093,1853.97 588.349,1856.91 589,1860C589.667,1863.17 590.5,1867.5 590,1870C589.581,1872.09 588.025,1874.33 586,1875C583.5,1875.83 578.652,1875.33 575,1875C571.333,1874.67 567.727,1873 564,1873C559.667,1873 552.667,1875.5 549,1875C546.159,1874.61 544.565,1871.28 542,1870C538.333,1868.17 531.426,1867.07 527,1864C520.99,1859.83 511.439,1850.5 505.939,1845C501.603,1840.66 497.963,1835.68 494,1831C489.343,1825.5 482.68,1818.83 478,1812C471.833,1803 460.667,1785.83 457,1777C454.696,1771.45 452.627,1763.97 456,1759C460.296,1752.67 475.609,1745.33 482.775,1739C488.828,1733.65 496.83,1728.78 499,1721C501.371,1712.5 499.634,1698.7 497,1688C494.333,1677.17 486.621,1667.07 483,1656C477,1637.67 464.333,1594.83 461,1578C459.505,1570.45 464.5,1558 463,1555C461.5,1552 455.791,1558.64 452,1560C445.5,1562.33 432.995,1565.1 424,1569C414,1573.33 401,1583 392,1586C385.036,1588.32 375.667,1588.5 370,1587C364.967,1585.67 358.833,1580.5 358,1577C357.167,1573.5 362.285,1569.39 365,1566Z" style="fill:rgb(204,189,170);"/> <clipPath id="_clip1"> <path d="M365,1566C370.333,1559.33 381.167,1543.83 390,1537C398.032,1530.79 408.457,1528.47 418,1525C429,1521 443.333,1516 456,1513C468.478,1510.05 484.5,1508.17 494,1507C500.295,1506.23 506.757,1507.12 513,1506C522.333,1504.33 537.5,1498.67 550,1497C562.5,1495.33 575.429,1494.41 588,1496C606.439,1498.33 637.631,1506.5 660.631,1511C682.373,1515.25 706.939,1519.67 726,1523C742.302,1525.85 761.833,1528.67 775,1531C785.042,1532.78 794.803,1536.87 805,1537C817.667,1537.17 837.667,1533.5 851,1532C862.34,1530.72 873.589,1528 885,1528C898.5,1528 922.167,1532 932,1532C936.216,1532 939.978,1529.26 944,1528C949.833,1526.17 959.833,1523.5 967,1521C973.78,1518.63 979.875,1513.89 987,1513C997.667,1511.67 1020.74,1512.83 1031,1513C1036.87,1513.1 1042.92,1514.33 1048.58,1514C1054.14,1513.67 1060.43,1511.5 1065,1511C1068.64,1510.6 1072.36,1511.47 1076,1511C1079.83,1510.5 1084.19,1509.59 1088,1508C1092,1506.33 1097.5,1504.17 1100,1501C1102.5,1497.83 1101.83,1489.17 1103,1489C1104.17,1488.83 1106.17,1496.83 1107,1500C1107.68,1502.6 1108.82,1505.44 1108,1508C1106.83,1511.67 1102.5,1517.33 1100,1522C1097.54,1526.6 1094.83,1532.67 1093,1536C1091.84,1538.11 1089.58,1539.67 1089,1542C1088.33,1544.67 1088.29,1548.74 1089,1552C1089.83,1555.83 1093,1561.67 1094,1565C1094.68,1567.26 1095.17,1570.33 1095,1572C1094.88,1573.2 1093.26,1573.83 1093,1575C1092.67,1576.5 1093.42,1579.04 1093,1581C1092.5,1583.33 1091.14,1586.39 1090,1589C1088.83,1591.67 1086.67,1594.5 1086,1597C1085.4,1599.26 1086.28,1601.68 1086,1604C1085.5,1608.17 1084.5,1617.83 1083,1622C1081.96,1624.89 1078.67,1627.17 1077,1629C1075.73,1630.39 1074.26,1631.6 1073,1633C1071.5,1634.67 1069.67,1637 1068,1639C1066.33,1641 1065.06,1643.41 1063,1645C1060.83,1646.67 1057.93,1648.44 1055,1649C1051.5,1649.67 1045.5,1649.33 1042,1649C1039.26,1648.74 1036.75,1647 1034,1647C1029.5,1647 1018.83,1647.17 1015,1649C1012.04,1650.42 1012.42,1655.04 1011,1658C1009.17,1661.83 1005.2,1666.92 1004,1672C1002.67,1677.67 1002.71,1685.33 1003,1692C1003.33,1699.67 1003.83,1709.83 1006,1718C1008.14,1726.08 1011.84,1733.75 1016,1741C1021.17,1750 1030.67,1762.67 1037,1772C1042.66,1780.34 1048,1790.17 1054,1797C1059.46,1803.22 1067.67,1808.67 1073,1813C1077.24,1816.45 1082.83,1821.5 1086,1823C1087.83,1823.87 1090.02,1822.42 1092,1822C1094.33,1821.5 1097.27,1820.29 1100,1820C1103.17,1819.67 1107.83,1819.17 1111,1820C1114.04,1820.8 1116.64,1822.92 1119,1825C1121.83,1827.5 1126.33,1832 1128,1835C1129.31,1837.35 1129.5,1840.67 1129,1843C1128.5,1845.33 1126.82,1847.43 1125,1849C1122.5,1851.17 1116.67,1855 1114,1856C1112.41,1856.6 1110.5,1854.5 1109,1855C1107.5,1855.5 1106.79,1858.4 1105,1859C1103,1859.67 1099.67,1859 1097,1859C1093.33,1859 1087.17,1859.5 1083,1859C1079.23,1858.55 1074.83,1856.33 1072,1856C1069.99,1855.76 1068.02,1856.88 1066,1857C1063.17,1857.17 1058.35,1858.49 1055,1857C1050.5,1855 1043.83,1848.83 1039,1845C1034.55,1841.47 1030.59,1837.34 1026,1834C1020.5,1830 1012.57,1825.48 1006,1821C998.667,1816 989.667,1810 982,1804C974.369,1798.03 967.833,1790.67 960,1785C952.167,1779.33 942.667,1775.83 935,1770C927.333,1764.17 920,1756.17 914,1750C908.73,1744.58 906.377,1734.64 899,1733C891.5,1731.33 879.149,1738.44 869,1740C858.167,1741.67 845.7,1742.52 834,1743C821.772,1743.5 808.366,1744.18 795.631,1743C777.631,1741.33 744.105,1735.67 726,1733C712.987,1731.08 698.333,1729.33 687,1727C677.178,1724.98 666.116,1721.52 658,1719C651.962,1717.13 647.754,1711.34 635,1708C627.155,1705.95 622.637,1692.33 620.631,1704.8C619.971,1708.9 616.956,1714.78 610,1722C604.371,1727.84 593.956,1733.27 586,1739C577.667,1745 568.5,1752.17 560,1758C551.842,1763.6 541,1770 535,1774C531.228,1776.52 525.5,1779.17 524,1782C522.562,1784.72 526,1788.5 526,1791C526,1793.11 523.489,1794.95 524,1797C524.833,1800.33 528.235,1806.58 531,1811C534.333,1816.33 540.333,1824.83 544,1829C546.511,1831.85 550.5,1834.33 553,1836C554.861,1837.24 556.802,1838.59 559,1839C561.667,1839.5 565.679,1838.71 569,1839C572.833,1839.33 579.167,1839 582,1841C584.833,1843 584.833,1847.83 586,1851C587.093,1853.97 588.349,1856.91 589,1860C589.667,1863.17 590.5,1867.5 590,1870C589.581,1872.09 588.025,1874.33 586,1875C583.5,1875.83 578.652,1875.33 575,1875C571.333,1874.67 567.727,1873 564,1873C559.667,1873 552.667,1875.5 549,1875C546.159,1874.61 544.565,1871.28 542,1870C538.333,1868.17 531.426,1867.07 527,1864C520.99,1859.83 511.439,1850.5 505.939,1845C501.603,1840.66 497.963,1835.68 494,1831C489.343,1825.5 482.68,1818.83 478,1812C471.833,1803 460.667,1785.83 457,1777C454.696,1771.45 452.627,1763.97 456,1759C460.296,1752.67 475.609,1745.33 482.775,1739C488.828,1733.65 496.83,1728.78 499,1721C501.371,1712.5 499.634,1698.7 497,1688C494.333,1677.17 486.621,1667.07 483,1656C477,1637.67 464.333,1594.83 461,1578C459.505,1570.45 464.5,1558 463,1555C461.5,1552 455.791,1558.64 452,1560C445.5,1562.33 432.995,1565.1 424,1569C414,1573.33 401,1583 392,1586C385.036,1588.32 375.667,1588.5 370,1587C364.967,1585.67 358.833,1580.5 358,1577C357.167,1573.5 362.285,1569.39 365,1566Z"/> </clipPath> <g clip-path="url(#_clip1)"> <g transform="matrix(1,0,0,1,16.6299,0)"> <path d="M385,1511C390.348,1513.67 388.667,1530 390,1537C391.015,1542.33 390.369,1548.25 393,1553C395.667,1557.81 401.833,1562.03 406,1565.87C409.853,1569.41 415.833,1571.64 418,1576C420.167,1580.36 423.976,1590.05 419,1592C407.5,1596.5 365.167,1609.33 349,1603C332.833,1596.67 320.515,1567.67 322,1554C323.485,1540.33 347.409,1528.17 357.909,1521C365.86,1515.57 379.652,1508.33 385,1511Z" style="fill:rgb(71,58,40);"/> </g> <path d="M1052,1510.43C1051,1511.31 1049.3,1510.11 1048,1510.43C1045.83,1510.96 1035.83,1513.38 1039,1513.61C1048.93,1514.36 1063.43,1521.8 1065,1523.61C1071.22,1530.81 1089.83,1512.63 1096,1510.43C1097.88,1509.76 1100.83,1510.1 1102,1510.43C1102.72,1510.63 1104.67,1510.65 1103,1512.43C1101.4,1514.13 1100.05,1515.7 1099,1517.61C1097.67,1520.04 1096.17,1524.44 1095,1527C1094.07,1529.04 1092.74,1530.89 1092,1533C1090.83,1536.33 1087.17,1544.5 1088,1547C1088.83,1549.5 1094.72,1549.97 1097,1548C1100.67,1544.83 1107.88,1535.66 1110,1528C1113,1517.17 1118.5,1491.33 1115,1483C1111.58,1474.86 1097.49,1475.6 1089,1478C1080.17,1480.5 1068.17,1492.6 1062,1498C1058,1501.51 1054.33,1508.36 1052,1510.43Z" style="fill:rgb(198,178,154);"/> <path d="M983,1613C983.5,1617 983.505,1623.18 985,1628C986.5,1632.83 989.333,1638.33 992,1642C994.361,1645.25 998.5,1647.67 1001,1650C1003.07,1651.93 1005.83,1656.5 1007,1656C1008.17,1655.5 1008,1650 1008,1647C1008,1644 1007.47,1640.98 1007,1638C1006.5,1634.83 1004.83,1630.67 1005,1628C1005.14,1625.77 1006.73,1623.84 1008,1622C1009.5,1619.83 1012,1616.67 1014,1615C1015.72,1613.57 1018.83,1611.83 1020,1612C1021.17,1612.17 1020.69,1614.66 1021,1616C1021.5,1618.17 1022.19,1622.04 1023,1625C1023.83,1628 1024.27,1631.33 1025.95,1634C1027.95,1637.17 1031.97,1641.33 1034.98,1644C1037.68,1646.4 1040.53,1648.99 1044,1650C1048,1651.17 1054.67,1652.17 1059,1651C1063.33,1649.83 1065.87,1644.67 1070,1643C1074.13,1641.33 1080.54,1644.34 1083.76,1641C1087.13,1637.5 1089.17,1628.33 1090.26,1622C1091.32,1615.76 1092.3,1608.19 1090.26,1603C1088.21,1597.81 1078.57,1588.8 1077.99,1590.88C1077.52,1592.54 1083.66,1609.18 1080.88,1611.88C1078.44,1614.27 1073.92,1610.18 1070.88,1609.77C1065.62,1609.05 1062.48,1613.46 1059,1612C1055.52,1610.54 1051.44,1604.19 1050,1601C1048.7,1598.13 1054.88,1588.53 1053.54,1589C1051.18,1589.83 1042.23,1591.83 1037.98,1592C1034.59,1592.13 1031.09,1591.39 1028,1590C1024.67,1588.5 1021.17,1585.25 1018,1583C1014.98,1580.86 1012.33,1577.16 1009,1576.49C1005.67,1575.82 1001.62,1580.01 998,1578.98C994.167,1577.9 988.833,1572.17 986,1569.98C984.291,1568.66 981.758,1563.85 981,1565.87C980,1568.53 979.833,1579.63 980,1585.98C980.158,1592.02 981.5,1599.5 982,1604C982.333,1607 982.626,1610.01 983,1613Z" style="fill:rgb(214,206,197);"/> <path d="M603,1739C604.167,1736 614.781,1729.25 619,1723C623.5,1716.33 628.01,1707.57 630,1698.99C632.167,1689.66 632.833,1676 632,1667C631.29,1659.34 623.667,1645.5 625,1645C626.333,1644.5 635.667,1658.67 640,1664C643.58,1668.41 645.833,1674.83 651,1677C656.167,1679.17 664.489,1678.43 671,1677C679.333,1675.17 693.5,1665.5 701,1666C707.824,1666.45 709.5,1679.5 716,1680C722.5,1680.5 731.945,1672.54 740,1669C748.333,1665.33 756.728,1659 766,1658C775.272,1657 785.792,1661.13 795.631,1663C806.131,1665 820.272,1669 829,1670C835.301,1670.72 842,1669.67 848,1669C853.719,1668.37 859.271,1665.47 865,1666C872.167,1666.67 884.167,1669.33 891,1673C897.231,1676.34 903.5,1682.5 906,1688C908.483,1693.46 906.825,1700.06 906,1706C905.167,1712 900.667,1718.17 901,1724C901.333,1729.83 905.833,1736.33 908,1741C909.759,1744.79 916.377,1748.57 914,1752C911,1756.33 899.282,1765.31 890,1767C875.333,1769.67 847.334,1767.75 826,1768C797.5,1768.33 745.5,1772.5 719,1769C700.341,1766.54 684.833,1751.67 667,1747C649.167,1742.33 622.667,1742.33 612,1741C608.951,1740.62 601.886,1741.86 603,1739Z" style="fill:rgb(214,206,197);"/> </g> <path d="M1062,1614C1063,1613.33 1065.08,1611.32 1067,1611C1069,1610.67 1072.17,1611.67 1074,1612C1075.35,1612.25 1077.17,1612.5 1078,1613C1078.64,1613.38 1079.28,1614.31 1079,1615C1078.35,1616.61 1075.18,1620 1074,1621C1073.28,1621.61 1072.59,1622.26 1072,1623C1071.33,1623.83 1070.5,1625.17 1070,1626C1069.62,1626.64 1069.17,1627.5 1069,1628C1068.89,1628.32 1068.82,1628.72 1069,1629C1069.33,1629.5 1070.5,1630.5 1071,1631C1071.33,1631.33 1071.68,1631.66 1072,1632C1072.33,1632.35 1073.04,1632.88 1073,1633.12C1072.83,1634.17 1071.62,1633.26 1071,1633C1070.17,1632.65 1068.83,1631.33 1068,1631C1067.38,1630.75 1066.63,1630.79 1066,1631C1065,1631.33 1063.37,1632.41 1062,1633C1060.5,1633.65 1058.75,1634.57 1057,1634.88C1055.17,1635.22 1052.99,1635.25 1051,1635C1048.5,1634.69 1044.96,1633.81 1042,1633C1038.87,1632.15 1033.23,1630.55 1032.23,1629.88C1031.23,1629.22 1034.72,1628.85 1036,1629C1037.61,1629.19 1039.91,1630.38 1041.88,1631C1044.01,1631.67 1046.4,1632.72 1048.77,1633C1051.44,1633.31 1054.96,1634.1 1057.88,1632.88C1059.01,1632.42 1059.93,1631.58 1061,1631C1062.19,1630.35 1064,1629.5 1065,1629C1065.67,1628.67 1066.55,1628.6 1067,1628C1067.5,1627.33 1068,1626 1068,1625C1068,1624 1067.66,1622.82 1067,1622C1066.33,1621.17 1064.78,1620.91 1064,1620C1063,1618.83 1061.33,1616 1061,1615C1060.85,1614.55 1061.61,1614.26 1062,1614Z" style="fill:rgb(50,56,66);"/> <path d="M995,1551C993.833,1549.17 991,1544.5 990,1541C989,1537.5 989.16,1533.68 989,1530C988.833,1526.17 988,1521.83 989,1518C990,1514.17 992.195,1510.1 995,1507C997.853,1503.85 1004.26,1501.78 1006.12,1499.12C1007.66,1496.89 1006.63,1493.66 1006.12,1491C1005.6,1488.31 1002.02,1483.17 1003,1483C1003.98,1482.83 1009.5,1487.33 1012,1490C1014.47,1492.63 1016.03,1495.98 1018,1499C1020.17,1502.33 1023,1506.14 1025,1510C1027.16,1514.17 1028.97,1520 1030.97,1524C1032.71,1527.48 1037,1531.67 1037,1534C1037,1536.33 1032.97,1537.33 1030.97,1538C1029.08,1538.63 1026.87,1538.67 1025,1538C1022.67,1537.17 1019.17,1534.83 1017,1533C1015.01,1531.32 1014.17,1528.17 1012,1527C1009.83,1525.83 1006.17,1526.17 1004,1526C1002.34,1525.87 1000.02,1524.68 999,1526C997.833,1527.5 997.322,1531.94 997,1535C996.667,1538.17 997,1542.17 997,1545C997,1547.33 997.333,1551 997,1552C996.764,1552.71 995.4,1551.63 995,1551Z" style="fill:rgb(198,178,154);"/> <g transform="matrix(1,0,0,1,1.25522,0.983472)"> <path d="M1076,1585C1076.44,1583.28 1077.33,1579.83 1078,1578C1078.51,1576.6 1079,1575 1080,1574C1081,1573 1082.58,1572.44 1084,1572C1085.63,1571.5 1088.94,1571 1089.77,1571C1090.19,1571 1089.1,1571.59 1089,1572C1088.7,1573.17 1088.67,1576.5 1088,1578C1087.43,1579.29 1086.15,1580.18 1085,1581C1083.83,1581.83 1082.39,1582.67 1081,1583C1079.61,1583.33 1077.64,1583.09 1076.65,1582.97" style="fill:url(#_Radial2);stroke:rgb(50,56,66);stroke-width:2.21px;"/> </g> <path d="M1050,1583C1049.62,1581.86 1048.86,1579.58 1048,1578C1047,1576.17 1045.83,1573.33 1044,1572C1042.17,1570.67 1039.02,1570.31 1037,1570C1035.32,1569.74 1033.58,1569.96 1031.88,1570.12C1030.05,1570.28 1026.57,1570.84 1026,1571C1025.43,1571.16 1028,1570.74 1028.5,1571.08C1029,1571.41 1028.81,1572.37 1029,1573C1029.25,1573.82 1029.52,1575.06 1030,1576C1030.5,1576.98 1031.1,1578.14 1032,1578.88C1033,1579.72 1034.53,1580.65 1036,1581C1037.5,1581.35 1039.67,1581.17 1041,1581C1042.05,1580.87 1043.03,1580.41 1044,1580C1045.17,1579.5 1047.06,1578.5 1048,1578" style="fill:url(#_Radial3);"/> <path d="M1027.76,1572.08C1027.77,1572.2 1027.79,1572.34 1027.8,1572.44C1027.82,1572.76 1027.86,1573.06 1027.94,1573.32C1028.1,1573.83 1028.26,1574.51 1028.48,1575.17C1028.63,1575.63 1028.81,1576.09 1029.02,1576.5C1029.34,1577.14 1029.7,1577.84 1030.15,1578.48C1030.49,1578.94 1030.86,1579.38 1031.29,1579.73C1031.86,1580.2 1032.58,1580.7 1033.36,1581.13C1034.12,1581.55 1034.94,1581.89 1035.75,1582.08C1036.41,1582.23 1037.19,1582.3 1037.99,1582.31C1039.12,1582.32 1040.29,1582.2 1041.14,1582.1C1041.63,1582.04 1042.11,1581.91 1042.58,1581.76C1043.21,1581.55 1043.83,1581.28 1044.44,1581.02C1044.91,1580.81 1045.51,1580.53 1046.11,1580.22C1046.59,1579.99 1047.07,1579.74 1047.51,1579.51C1047.64,1579.79 1047.76,1580.08 1047.88,1580.37C1048.34,1581.51 1048.72,1582.65 1048.95,1583.35C1049.14,1583.93 1049.77,1584.24 1050.35,1584.05C1050.93,1583.86 1051.24,1583.23 1051.05,1582.65C1050.81,1581.92 1050.41,1580.73 1049.93,1579.54C1049.64,1578.82 1049.31,1578.1 1048.98,1577.49L1048.97,1577.47C1048.36,1576.35 1047.69,1574.87 1046.85,1573.57C1046.21,1572.59 1045.49,1571.72 1044.65,1571.11C1043.82,1570.5 1042.76,1570.06 1041.63,1569.75C1040.09,1569.31 1038.42,1569.1 1037.17,1568.91C1036.43,1568.79 1035.68,1568.76 1034.93,1568.78C1033.88,1568.8 1032.83,1568.92 1031.78,1569.01C1030.97,1569.09 1029.84,1569.24 1028.77,1569.4C1027.34,1569.61 1026.03,1569.84 1025.7,1569.94C1025.5,1569.99 1025.39,1570.06 1025.34,1570.09C1025.03,1570.28 1024.53,1572.25 1026.17,1572.13C1026.45,1572.12 1027.31,1572.09 1027.76,1572.08ZM1046.51,1577.54C1046.06,1576.65 1045.57,1575.66 1044.99,1574.77C1044.51,1574.03 1043.98,1573.35 1043.35,1572.89C1042.71,1572.43 1041.89,1572.12 1041.03,1571.88C1039.58,1571.47 1038.01,1571.28 1036.83,1571.09C1036.22,1571 1035.6,1570.98 1034.98,1570.99C1033.98,1571.01 1032.98,1571.13 1031.99,1571.22C1031.41,1571.27 1030.67,1571.36 1029.91,1571.47C1029.94,1571.62 1029.96,1571.77 1029.97,1571.93C1030,1572.18 1029.99,1572.46 1030.06,1572.68C1030.21,1573.18 1030.37,1573.83 1030.58,1574.48C1030.7,1574.84 1030.83,1575.19 1030.99,1575.5C1031.26,1576.04 1031.57,1576.65 1031.96,1577.2C1032.18,1577.51 1032.42,1577.8 1032.71,1578.04C1033.17,1578.42 1033.77,1578.84 1034.41,1579.19C1035,1579.51 1035.63,1579.78 1036.25,1579.92C1036.77,1580.05 1037.38,1580.09 1038,1580.09C1039.04,1580.1 1040.1,1580 1040.86,1579.9C1041.21,1579.86 1041.55,1579.77 1041.89,1579.66C1042.46,1579.47 1043.01,1579.22 1043.56,1578.98C1044.01,1578.79 1044.56,1578.53 1045.12,1578.25C1045.6,1578.01 1046.08,1577.76 1046.51,1577.54Z" style="fill:rgb(50,56,66);"/> <g transform="matrix(1.05099,-0.103542,0.086727,0.880306,-109.876,-13.3217)"> <path d="M934,1910C933.167,1910.83 932.833,1913.5 933,1915C933.165,1916.48 934.5,1918.83 935,1919C935.5,1919.17 935.71,1917.01 936,1916C936.333,1914.83 936.667,1913 937,1912C937.236,1911.29 938.5,1910.33 938,1910C937.5,1909.67 934.833,1909.17 934,1910Z" style="fill:rgb(50,56,66);"/> </g> <g transform="matrix(-0.903268,0.166073,0.140277,0.762966,1660.42,-38.7242)"> <path d="M934,1910C933.167,1910.83 932.833,1913.5 933,1915C933.165,1916.48 934.5,1918.83 935,1919C935.5,1919.17 935.71,1917.01 936,1916C936.333,1914.83 936.667,1913 937,1912C937.236,1911.29 938.5,1910.33 938,1910C937.5,1909.67 934.833,1909.17 934,1910Z" style="fill:rgb(50,56,66);"/> </g> </g> </g> <defs> <radialGradient id="_Radial2" cx="0" cy="0" r="1" gradientUnits="userSpaceOnUse" gradientTransform="matrix(6.19198,-6.03383e-13,6.09238e-13,6.25207,1083.21,1577.27)"><stop offset="0" style="stop-color:rgb(243,243,152);stop-opacity:1"/><stop offset="1" style="stop-color:rgb(255,189,0);stop-opacity:1"/></radialGradient> <radialGradient id="_Radial3" cx="0" cy="0" r="1" gradientUnits="userSpaceOnUse" gradientTransform="matrix(6.19198,-4.02255e-13,4.02255e-13,6.19198,1037.58,1575.6)"><stop offset="0" style="stop-color:rgb(243,243,152);stop-opacity:1"/><stop offset="1" style="stop-color:rgb(255,206,10);stop-opacity:1"/></radialGradient> </defs> </svg>