<?xml version='1.0' encoding='utf-8'?>
<svg xmlns="http://www.w3.org/2000/svg" width="100%" height="100%" viewBox="0 0 1700 1583" version="1.1" style="fill-rule:evenodd;clip-rule:evenodd;stroke-linejoin:round;stroke-miterlimit:2;"> <g transform="matrix(1.33333,0,0,1.33333,-2517.25,-70.5453)"> <g transform="matrix(1.47583,0,0,1.44342,-1082.31,-340.489)"> <path d="M2752,780C2751,786 2747.17,801.167 2746,809C2745.12,814.944 2744.54,821.008 2745,827C2745.5,833.5 2747,841.667 2749,848C2750.89,853.972 2754.67,860 2757,865C2759.02,869.325 2762.83,873.5 2763,878C2763.17,882.5 2759.67,887.333 2758,892C2755.5,899 2751.33,911.833 2748,920C2745.07,927.178 2740.21,933.569 2738,941C2733.83,955 2726.5,989.5 2723,1004C2721.07,1012.02 2718.67,1020.83 2717,1028C2715.53,1034.3 2716,1043 2713,1047C2710.03,1050.96 2703,1051.17 2699,1052C2695.74,1052.68 2691.33,1050.67 2689,1052C2686.67,1053.33 2686.65,1057.52 2685,1060C2683.33,1062.5 2681.75,1065.63 2679,1067C2675.67,1068.67 2669.76,1069.59 2665,1070C2659.17,1070.5 2648.83,1070.17 2644,1070C2641.31,1069.91 2636.17,1070.83 2636,1069C2635.83,1067.17 2640.19,1061.94 2643,1059C2646.5,1055.33 2652.33,1049.83 2657,1047C2661.24,1044.43 2667,1043.67 2671,1042C2674.44,1040.57 2678.37,1039.63 2681,1037C2684.5,1033.5 2688.73,1026.59 2692,1021C2696,1014.17 2702.39,1005.02 2705,996C2709.67,979.833 2717.83,938.833 2720,924C2720.83,918.354 2718.98,912.621 2718,907C2716.67,899.333 2713.5,885.667 2712,878C2710.89,872.353 2710.63,866.518 2709,861C2706.83,853.667 2701.67,841.5 2699,834C2696.88,828.041 2695.3,821.893 2693,816C2689.17,806.167 2680,786.667 2676,775C2672.78,765.593 2667.33,753 2669,746C2670.65,739.06 2679.03,734.533 2686,733C2694.33,731.167 2709.83,730.833 2719,735C2728.17,739.167 2735.5,751.667 2741,758C2745.07,762.681 2750.17,769.333 2752,773C2753.04,775.087 2752.38,777.698 2752,780Z" style="fill:rgb(70,50,29);"/> <clipPath id="_clip1"> <path d="M2752,780C2751,786 2747.17,801.167 2746,809C2745.12,814.944 2744.54,821.008 2745,827C2745.5,833.5 2747,841.667 2749,848C2750.89,853.972 2754.67,860 2757,865C2759.02,869.325 2762.83,873.5 2763,878C2763.17,882.5 2759.67,887.333 2758,892C2755.5,899 2751.33,911.833 2748,920C2745.07,927.178 2740.21,933.569 2738,941C2733.83,955 2726.5,989.5 2723,1004C2721.07,1012.02 2718.67,1020.83 2717,1028C2715.53,1034.3 2716,1043 2713,1047C2710.03,1050.96 2703,1051.17 2699,1052C2695.74,1052.68 2691.33,1050.67 2689,1052C2686.67,1053.33 2686.65,1057.52 2685,1060C2683.33,1062.5 2681.75,1065.63 2679,1067C2675.67,1068.67 2669.76,1069.59 2665,1070C2659.17,1070.5 2648.83,1070.17 2644,1070C2641.31,1069.91 2636.17,1070.83 2636,1069C2635.83,1067.17 2640.19,1061.94 2643,1059C2646.5,1055.33 2652.33,1049.83 2657,1047C2661.24,1044.43 2667,1043.67 2671,1042C2674.44,1040.57 2678.37,1039.63 2681,1037C2684.5,1033.5 2688.73,1026.59 2692,1021C2696,1014.17 2702.39,1005.02 2705,996C2709.67,979.833 2717.83,938.833 2720,924C2720.83,918.354 2718.98,912.621 2718,907C2716.67,899.333 2713.5,885.667 2712,878C2710.89,872.353 2710.63,866.518 2709,861C2706.83,853.667 2701.67,841.5 2699,834C2696.88,828.041 2695.3,821.893 2693,816C2689.17,806.167 2680,786.667 2676,775C2672.78,765.593 2667.33,753 2669,746C2670.65,739.06 2679.03,734.533 2686,733C2694.33,731.167 2709.83,730.833 2719,735C2728.17,739.167 2735.5,751.667 2741,758C2745.07,762.681 2750.17,769.333 2752,773C2753.04,775.087 2752.38,777.698 2752,780Z"/> </clipPath> <g clip-path="url(#_clip1)"> <g transform="matrix(1.50419,0,0,1.16108,-1600.57,-192.659)"> <path d="M2806,1087C2807.83,1083.83 2809.74,1079.44 2813,1077C2816.33,1074.5 2822.67,1072.67 2826,1072C2828.31,1071.54 2832,1072.33 2833,1073C2833.88,1073.59 2831.39,1075.14 2832,1076C2832.83,1077.17 2835.85,1078.92 2838,1080C2840.33,1081.17 2844.17,1081.67 2846,1083C2847.57,1084.14 2850.08,1086.38 2849,1088C2847.67,1090 2842.23,1094.01 2838,1095C2832.33,1096.33 2821,1095.83 2815,1096C2810.67,1096.12 2803.5,1097.5 2802,1096C2800.5,1094.5 2804.36,1089.84 2806,1087Z" style="fill:rgb(37,25,0);"/> </g> </g> <path d="M2432,738C2436.83,741 2433,760.025 2434,771C2435,782 2436.8,792.985 2438,804C2439.83,820.833 2443.33,857 2445,872C2445.82,879.356 2447.58,886.611 2448,894C2448.5,902.833 2447.33,916.167 2448,925C2448.56,932.432 2450.67,939.667 2452,947C2454,958 2457.68,977.667 2460,991C2462.09,1002.98 2466.1,1018.17 2465.94,1027C2465.82,1033.12 2461.49,1042.33 2459,1044C2456.51,1045.67 2453.67,1037 2451,1037C2448.33,1037 2444.83,1041 2443,1044C2441.17,1047 2441,1051.5 2440,1055C2439.04,1058.35 2439.9,1063.08 2437,1065C2433.17,1067.54 2423,1069.39 2417,1070.26C2411.72,1071.04 2404.83,1070.81 2401,1070.26C2398.45,1069.9 2394.17,1068.71 2394,1067C2393.83,1065.29 2398.03,1062.36 2400,1060C2402.5,1057 2406.17,1052.5 2409,1049C2411.69,1045.68 2413.85,1041.88 2417,1039C2420.83,1035.5 2429,1031.67 2432,1028C2434.41,1025.06 2434.46,1020.76 2435,1017C2435.83,1011.17 2437,1000.17 2437,993C2437,986.632 2435.99,980.29 2435,974C2433.5,964.5 2430.17,945.5 2428,936C2426.52,929.525 2424.18,923.273 2422,917C2419.33,909.333 2413.83,897 2412,890C2410.73,885.152 2411.66,879.967 2411,875C2410,867.5 2408.67,854 2406,845C2403.5,836.562 2397.38,829.472 2395,821C2392,810.333 2386.33,792.333 2388,781C2389.59,770.197 2397.67,760.167 2405,753C2412.33,745.833 2427.17,735 2432,738Z" style="fill:rgb(70,50,29);"/> <clipPath id="_clip2"> <path d="M2432,738C2436.83,741 2433,760.025 2434,771C2435,782 2436.8,792.985 2438,804C2439.83,820.833 2443.33,857 2445,872C2445.82,879.356 2447.58,886.611 2448,894C2448.5,902.833 2447.33,916.167 2448,925C2448.56,932.432 2450.67,939.667 2452,947C2454,958 2457.68,977.667 2460,991C2462.09,1002.98 2466.1,1018.17 2465.94,1027C2465.82,1033.12 2461.49,1042.33 2459,1044C2456.51,1045.67 2453.67,1037 2451,1037C2448.33,1037 2444.83,1041 2443,1044C2441.17,1047 2441,1051.5 2440,1055C2439.04,1058.35 2439.9,1063.08 2437,1065C2433.17,1067.54 2423,1069.39 2417,1070.26C2411.72,1071.04 2404.83,1070.81 2401,1070.26C2398.45,1069.9 2394.17,1068.71 2394,1067C2393.83,1065.29 2398.03,1062.36 2400,1060C2402.5,1057 2406.17,1052.5 2409,1049C2411.69,1045.68 2413.85,1041.88 2417,1039C2420.83,1035.5 2429,1031.67 2432,1028C2434.41,1025.06 2434.46,1020.76 2435,1017C2435.83,1011.17 2437,1000.17 2437,993C2437,986.632 2435.99,980.29 2435,974C2433.5,964.5 2430.17,945.5 2428,936C2426.52,929.525 2424.18,923.273 2422,917C2419.33,909.333 2413.83,897 2412,890C2410.73,885.152 2411.66,879.967 2411,875C2410,867.5 2408.67,854 2406,845C2403.5,836.562 2397.38,829.472 2395,821C2392,810.333 2386.33,792.333 2388,781C2389.59,770.197 2397.67,760.167 2405,753C2412.33,745.833 2427.17,735 2432,738Z"/> </clipPath> <g clip-path="url(#_clip2)"> <g transform="matrix(1.50413,-0.0133878,0.010334,1.16104,-1855.61,-158.385)"> <path d="M2806,1087C2807.83,1083.83 2810.23,1078.64 2813,1077C2815.76,1075.36 2819.75,1077.8 2822.64,1077.13C2825.48,1076.47 2829.12,1072.87 2830.34,1072.97C2831.57,1073.06 2828.83,1076.63 2829.99,1077.7C2831.27,1078.87 2835.43,1078.95 2838,1080C2840.89,1081.17 2845.48,1083.4 2847.32,1084.74C2848.31,1085.46 2849.82,1087.09 2849,1088C2847.45,1089.71 2842.23,1094.01 2838,1095C2832.33,1096.33 2821,1095.83 2815,1096C2810.67,1096.12 2803.5,1097.5 2802,1096C2800.5,1094.5 2804.36,1089.84 2806,1087Z" style="fill:rgb(37,25,0);"/> </g> </g> <g> <path d="M2116,501.5C2113.17,501.167 2111.67,496.739 2109,495C2106.33,493.261 2103.22,491.667 2100,491.064C2096.5,490.407 2091.5,490.074 2088,491.064C2084.54,492.041 2081.48,494.398 2079,497C2075.83,500.323 2071.83,506.5 2069,511C2066.38,515.165 2064.33,520.333 2062,524C2059.96,527.206 2056.5,532.667 2055,533C2053.5,533.333 2052.77,528.416 2053,526C2053.33,522.5 2055.67,516.5 2057,512C2058.29,507.653 2060.33,502.833 2061,499C2061.57,495.716 2061.67,491 2061,489C2060.53,487.586 2058.44,486.601 2057,487C2054,487.833 2047.23,490.94 2043,494C2038.17,497.5 2032.17,503.833 2028,508C2024.5,511.504 2020.5,516.333 2018,519C2016.39,520.72 2013.67,525 2013,524C2012.33,523 2012.4,516.317 2014,513C2016.17,508.5 2021.52,501.94 2026,497C2030.83,491.667 2037.74,486.73 2043,481C2048.67,474.833 2054.33,466.333 2060,460C2065.34,454.028 2072.52,449.644 2077,443C2081.83,435.833 2087.33,423.333 2089,417C2090.03,413.078 2088.98,408.538 2087,405C2084.67,400.833 2078.83,396 2075,392C2071.41,388.256 2065.67,383.833 2064,381C2062.97,379.252 2063.33,375 2065,375C2066.67,375 2070.96,379.064 2074,381C2077.67,383.333 2084,387.667 2087,389C2088.52,389.677 2091.52,390.596 2092,389C2093,385.667 2094.67,374.5 2093,369C2091.35,363.567 2085.83,360.167 2082,356C2078.17,351.837 2072.83,347.833 2070,344C2067.61,340.761 2064,334 2065,333C2066,332 2072.43,336.142 2076,338C2080.17,340.167 2086.67,343.833 2090,346C2092.18,347.419 2095.83,353.333 2096,351C2096.17,348.667 2094.17,337.333 2091,332C2087.83,326.667 2081,322.667 2077,319C2073.69,315.97 2069.83,311.833 2067,310C2064.96,308.682 2060,309.5 2060,308C2060,306.5 2064.17,301.333 2067,301C2069.83,300.667 2073.83,304.167 2077,306C2080.12,307.807 2083.02,309.964 2086,312C2089.17,314.167 2096.17,322.667 2096,319C2095.83,315.333 2088.33,296.333 2085,290C2083.02,286.246 2078.67,283.833 2076,281C2073.57,278.42 2068.83,274.167 2069,273C2069.17,271.833 2074.44,273.191 2077,274C2080.17,275 2084.84,276.504 2088,279C2091.17,281.5 2093.25,285.731 2096,289C2099.5,293.167 2105.33,299.667 2109,304C2112.06,307.617 2116.5,315 2118,315C2119.5,315 2117.83,307.663 2118,304C2118.17,300.333 2118.5,295.5 2119,293C2119.29,291.538 2119.83,288.667 2121,289C2122.17,289.333 2125.18,292.53 2126,295C2127.17,298.5 2126.85,305.088 2128,310C2129.17,315 2131.08,322 2133,325C2134.28,327.011 2138.42,329.167 2139.5,328C2140.58,326.833 2139.29,321.327 2139.5,318C2139.75,314 2140.42,307.333 2141,304C2141.36,301.923 2142.5,298 2143,298C2143.5,298 2143.73,301.99 2144,304C2144.33,306.5 2144.43,310.036 2145,313C2147.5,326 2158.33,364 2159,382C2159.5,395.411 2154.64,408.823 2149,421C2142.67,434.667 2126,454.667 2121,464C2118.93,467.865 2118.67,472.833 2119,477C2119.33,481.167 2121.83,485.667 2123,489C2123.94,491.688 2127.17,494.917 2126,497C2124.83,499.083 2118.83,501.833 2116,501.5Z" style="fill:rgb(132,98,44);"/> <path d="M2128.03,495.157C2128.03,494.657 2122.17,487.859 2121,484C2119.84,480.173 2119.35,475.641 2121,472C2122.67,468.333 2128.15,465.753 2131,462C2134.17,457.833 2136.93,451.96 2140,447C2144.67,439.452 2155.17,426.378 2159,416.712C2162.44,408.036 2163,398.333 2163,389C2163,378.548 2161,363 2159,354C2157.51,347.292 2153,341.13 2151,335C2149.12,329.225 2148.17,322.386 2147,317.22C2146.01,312.812 2144.67,304 2144,304C2143.33,304 2143,312.886 2143,317.22C2143,321.493 2143.5,326.37 2144,330C2144.42,333.044 2145.29,336.01 2146,339C2146.83,342.5 2148.38,346.923 2149,351C2149.83,356.5 2150.83,365.5 2151,372C2151.15,378.007 2150.78,384.042 2150,390C2149.17,396.333 2147.83,404.333 2146,410C2144.39,414.964 2141.7,419.538 2139,424C2135.67,429.5 2129,437.5 2126,443C2123.63,447.35 2122.67,452.667 2121,457C2119.44,461.044 2116,464.667 2116,469C2116,474 2118.99,482.641 2121,487C2122.5,490.261 2128.03,495.657 2128.03,495.157Z" style="fill:rgb(152,121,71);"/> </g> <path d="M2038,625C2035,618.167 2034.17,608.667 2035,602C2035.78,595.786 2039.19,589.97 2043,585C2049.83,576.089 2066.33,558.447 2076,548.531C2083.91,540.419 2096,532.261 2101,525.506C2104.61,520.628 2102.6,513.027 2106,508C2109.67,502.58 2118.67,496.82 2123,492.987C2126,490.329 2130.73,488.805 2132,485C2133.67,480.002 2130,469.498 2133,463C2136,456.502 2145.33,449.708 2150,446.011C2153.18,443.492 2159.17,438.984 2161,440.815C2162.83,442.647 2161,451.605 2161,457L2161,478C2161,480.333 2159.33,483.5 2161,485C2162.67,486.5 2167.75,486.002 2171,487C2175.33,488.331 2181.39,491.999 2187,492.987C2192.67,493.984 2200.83,491.484 2205,492.987C2208.58,494.277 2208.2,502 2212,502C2218.5,502 2235.33,496.487 2244,492.987C2251.21,490.076 2260.5,481 2264,481C2267.5,481 2265.87,489.073 2265,492.987C2264,497.487 2257.67,505.998 2258,508C2258.33,510.002 2263.84,505 2267,505C2273,505 2285.83,507.5 2294,508C2301.32,508.448 2308.69,507.378 2316,508C2323.83,508.667 2332.68,513.42 2341,512C2351.74,510.167 2368.12,501.025 2380.42,497C2391.68,493.313 2403.44,489.516 2414.78,487.85C2425.88,486.217 2437.66,484.333 2448.42,487C2459.18,489.667 2469.54,497.407 2479.36,503.85C2490.79,511.35 2501.94,527.682 2517,532C2535.11,537.192 2567.33,534.833 2588,535C2605.68,535.143 2623.35,534.062 2641,533C2660.61,531.82 2684.9,526.43 2705.68,527.922C2726.16,529.392 2749.01,536.447 2765.68,541.947C2779.69,546.572 2792.81,553.702 2805.68,560.922C2819.07,568.43 2835.78,577.154 2846,587C2855.39,596.046 2862.37,608.922 2867,620C2871.39,630.503 2880.35,642.376 2873.78,653.47C2871.46,657.378 2859.13,643.495 2856,645C2852.87,646.505 2856.2,656.784 2855,662.503C2852.83,672.837 2847.98,692.468 2843,707C2838,721.583 2829.33,739 2825,750C2822.03,757.552 2818.5,765.167 2817,773C2815.5,780.833 2814.5,789.333 2816,797C2817.5,804.667 2821.38,812.401 2826,819C2831.83,827.333 2844.67,840 2851,847C2855.27,851.722 2861.81,855.019 2864,861C2866.5,867.833 2865.6,878.984 2866,888C2866.67,903.167 2867,931.167 2868,952C2868.98,972.354 2871,997.833 2872,1013C2872.66,1023 2873.33,1034 2874,1043C2874.59,1051.01 2877.33,1062.83 2876,1067C2874.98,1070.19 2868.5,1068.5 2866,1068C2863.91,1067.58 2862.58,1062.56 2861,1064C2859.17,1065.67 2856.67,1073.67 2855,1078C2853.49,1081.93 2854.44,1087.56 2851,1090C2847,1092.83 2837.33,1094.5 2831,1095C2824.98,1095.48 2817.5,1093.5 2813,1093C2810,1092.67 2804.33,1094.17 2804,1092C2803.67,1089.83 2808.05,1083.57 2811,1080C2814.17,1076.17 2819.17,1071.83 2823,1069C2826.36,1066.52 2830.68,1065.53 2834,1063C2837.5,1060.33 2841.33,1056.5 2844,1053C2846.53,1049.68 2849.54,1046.15 2850,1042C2851.17,1031.5 2852.17,1006.5 2851,990C2849.88,974.148 2845.5,956 2843,943C2841,932.597 2839.5,921 2836,912C2832.75,903.635 2825.67,895 2822,889C2819.35,884.658 2817.3,879.87 2814,876C2808.17,869.167 2796.44,856.886 2787,848C2776.72,838.321 2763.25,828.619 2752.29,817.928C2740.62,806.545 2726.55,791.521 2717,779.699C2708.74,769.479 2701,751.45 2695,747C2690.92,743.976 2685.63,750.91 2681,753C2675.67,755.41 2669.03,758.714 2663,761.458C2655.95,764.661 2646.84,768.708 2638.71,772.222C2629.16,776.35 2614.38,783.222 2605.71,786.222C2599.59,788.339 2589.54,791.056 2586.71,790.222C2583.88,789.389 2591.38,782.737 2588.71,781.222C2585.88,779.62 2576.05,781.038 2569.74,780.608C2562.41,780.108 2552.94,779.791 2544.71,778.222C2533.87,776.158 2517.16,770.683 2504.71,768.222C2493.25,765.958 2479.95,762.995 2470,763.458C2461.3,763.862 2452.32,766.999 2445,771C2437.68,775.001 2431.5,781.103 2426.07,787.464C2420.23,794.297 2413.35,802.815 2410,812C2405.66,823.923 2401.83,845.167 2400,859C2398.42,870.901 2400.5,883.5 2399,895C2397.54,906.224 2392.67,917.833 2391,928C2389.49,937.234 2389.48,946.655 2389,956C2388.17,972.167 2386.5,1011.17 2386,1025C2385.83,1029.66 2388,1035.5 2386,1039C2384,1042.5 2377.42,1042.88 2374,1046C2370.17,1049.5 2365.17,1055.83 2363,1060C2361.28,1063.31 2362.17,1067.83 2361,1071C2359.91,1073.95 2359.01,1078.08 2356,1079C2349.5,1081 2329.5,1082.67 2322,1083C2318.28,1083.16 2311.33,1083.5 2311,1081C2310.67,1078.5 2316.13,1071.58 2320,1068C2324.5,1063.83 2332.83,1060.5 2338,1056C2342.99,1051.65 2347.33,1045.67 2351,1041C2354.26,1036.86 2358.04,1032.89 2360,1028C2362.33,1022.17 2364.53,1013.51 2365,1006C2365.67,995.333 2364.33,976.5 2364,964C2363.71,952.999 2363.67,939.167 2363,931C2362.56,925.592 2360.52,920.401 2360,915C2359.17,906.333 2357.83,887.833 2358,879C2358.11,873.247 2361.49,867.733 2361,862C2360,850.333 2354.17,822.333 2352,809C2350.54,800.02 2348.67,788.5 2348,782C2347.59,778.021 2350.17,773.167 2348,770C2345.83,766.833 2339.01,765.861 2335,763C2330.33,759.667 2323.63,755.529 2320,750C2316.17,744.167 2314.56,735.37 2312,728C2309.33,720.333 2309.33,709.667 2304,704C2298.67,698.333 2285.67,699 2280,694C2274.41,689.069 2275,676.667 2270,674C2265,671.333 2256.78,678.462 2250,678C2242.67,677.5 2232.86,675.735 2226,671C2219,666.167 2214.17,654 2208,649C2202.66,644.672 2194.33,640.833 2189,641C2183.73,641.165 2181.19,649.069 2176,650C2169.5,651.167 2157.17,650.667 2150,648C2143.12,645.44 2137.83,637.333 2133,634C2129.32,631.461 2124.67,629 2121,628C2117.78,627.123 2114.2,627.084 2111,628C2107.5,629 2103.76,632.171 2100,634C2093.5,637.167 2079.83,645.5 2072,647C2065.64,648.217 2058.43,646.516 2053,643C2047.33,639.333 2041,631.833 2038,625Z" style="fill:rgb(85,60,33);"/> <clipPath id="_clip3"> <path d="M2038,625C2035,618.167 2034.17,608.667 2035,602C2035.78,595.786 2039.19,589.97 2043,585C2049.83,576.089 2066.33,558.447 2076,548.531C2083.91,540.419 2096,532.261 2101,525.506C2104.61,520.628 2102.6,513.027 2106,508C2109.67,502.58 2118.67,496.82 2123,492.987C2126,490.329 2130.73,488.805 2132,485C2133.67,480.002 2130,469.498 2133,463C2136,456.502 2145.33,449.708 2150,446.011C2153.18,443.492 2159.17,438.984 2161,440.815C2162.83,442.647 2161,451.605 2161,457L2161,478C2161,480.333 2159.33,483.5 2161,485C2162.67,486.5 2167.75,486.002 2171,487C2175.33,488.331 2181.39,491.999 2187,492.987C2192.67,493.984 2200.83,491.484 2205,492.987C2208.58,494.277 2208.2,502 2212,502C2218.5,502 2235.33,496.487 2244,492.987C2251.21,490.076 2260.5,481 2264,481C2267.5,481 2265.87,489.073 2265,492.987C2264,497.487 2257.67,505.998 2258,508C2258.33,510.002 2263.84,505 2267,505C2273,505 2285.83,507.5 2294,508C2301.32,508.448 2308.69,507.378 2316,508C2323.83,508.667 2332.68,513.42 2341,512C2351.74,510.167 2368.12,501.025 2380.42,497C2391.68,493.313 2403.44,489.516 2414.78,487.85C2425.88,486.217 2437.66,484.333 2448.42,487C2459.18,489.667 2469.54,497.407 2479.36,503.85C2490.79,511.35 2501.94,527.682 2517,532C2535.11,537.192 2567.33,534.833 2588,535C2605.68,535.143 2623.35,534.062 2641,533C2660.61,531.82 2684.9,526.43 2705.68,527.922C2726.16,529.392 2749.01,536.447 2765.68,541.947C2779.69,546.572 2792.81,553.702 2805.68,560.922C2819.07,568.43 2835.78,577.154 2846,587C2855.39,596.046 2862.37,608.922 2867,620C2871.39,630.503 2880.35,642.376 2873.78,653.47C2871.46,657.378 2859.13,643.495 2856,645C2852.87,646.505 2856.2,656.784 2855,662.503C2852.83,672.837 2847.98,692.468 2843,707C2838,721.583 2829.33,739 2825,750C2822.03,757.552 2818.5,765.167 2817,773C2815.5,780.833 2814.5,789.333 2816,797C2817.5,804.667 2821.38,812.401 2826,819C2831.83,827.333 2844.67,840 2851,847C2855.27,851.722 2861.81,855.019 2864,861C2866.5,867.833 2865.6,878.984 2866,888C2866.67,903.167 2867,931.167 2868,952C2868.98,972.354 2871,997.833 2872,1013C2872.66,1023 2873.33,1034 2874,1043C2874.59,1051.01 2877.33,1062.83 2876,1067C2874.98,1070.19 2868.5,1068.5 2866,1068C2863.91,1067.58 2862.58,1062.56 2861,1064C2859.17,1065.67 2856.67,1073.67 2855,1078C2853.49,1081.93 2854.44,1087.56 2851,1090C2847,1092.83 2837.33,1094.5 2831,1095C2824.98,1095.48 2817.5,1093.5 2813,1093C2810,1092.67 2804.33,1094.17 2804,1092C2803.67,1089.83 2808.05,1083.57 2811,1080C2814.17,1076.17 2819.17,1071.83 2823,1069C2826.36,1066.52 2830.68,1065.53 2834,1063C2837.5,1060.33 2841.33,1056.5 2844,1053C2846.53,1049.68 2849.54,1046.15 2850,1042C2851.17,1031.5 2852.17,1006.5 2851,990C2849.88,974.148 2845.5,956 2843,943C2841,932.597 2839.5,921 2836,912C2832.75,903.635 2825.67,895 2822,889C2819.35,884.658 2817.3,879.87 2814,876C2808.17,869.167 2796.44,856.886 2787,848C2776.72,838.321 2763.25,828.619 2752.29,817.928C2740.62,806.545 2726.55,791.521 2717,779.699C2708.74,769.479 2701,751.45 2695,747C2690.92,743.976 2685.63,750.91 2681,753C2675.67,755.41 2669.03,758.714 2663,761.458C2655.95,764.661 2646.84,768.708 2638.71,772.222C2629.16,776.35 2614.38,783.222 2605.71,786.222C2599.59,788.339 2589.54,791.056 2586.71,790.222C2583.88,789.389 2591.38,782.737 2588.71,781.222C2585.88,779.62 2576.05,781.038 2569.74,780.608C2562.41,780.108 2552.94,779.791 2544.71,778.222C2533.87,776.158 2517.16,770.683 2504.71,768.222C2493.25,765.958 2479.95,762.995 2470,763.458C2461.3,763.862 2452.32,766.999 2445,771C2437.68,775.001 2431.5,781.103 2426.07,787.464C2420.23,794.297 2413.35,802.815 2410,812C2405.66,823.923 2401.83,845.167 2400,859C2398.42,870.901 2400.5,883.5 2399,895C2397.54,906.224 2392.67,917.833 2391,928C2389.49,937.234 2389.48,946.655 2389,956C2388.17,972.167 2386.5,1011.17 2386,1025C2385.83,1029.66 2388,1035.5 2386,1039C2384,1042.5 2377.42,1042.88 2374,1046C2370.17,1049.5 2365.17,1055.83 2363,1060C2361.28,1063.31 2362.17,1067.83 2361,1071C2359.91,1073.95 2359.01,1078.08 2356,1079C2349.5,1081 2329.5,1082.67 2322,1083C2318.28,1083.16 2311.33,1083.5 2311,1081C2310.67,1078.5 2316.13,1071.58 2320,1068C2324.5,1063.83 2332.83,1060.5 2338,1056C2342.99,1051.65 2347.33,1045.67 2351,1041C2354.26,1036.86 2358.04,1032.89 2360,1028C2362.33,1022.17 2364.53,1013.51 2365,1006C2365.67,995.333 2364.33,976.5 2364,964C2363.71,952.999 2363.67,939.167 2363,931C2362.56,925.592 2360.52,920.401 2360,915C2359.17,906.333 2357.83,887.833 2358,879C2358.11,873.247 2361.49,867.733 2361,862C2360,850.333 2354.17,822.333 2352,809C2350.54,800.02 2348.67,788.5 2348,782C2347.59,778.021 2350.17,773.167 2348,770C2345.83,766.833 2339.01,765.861 2335,763C2330.33,759.667 2323.63,755.529 2320,750C2316.17,744.167 2314.56,735.37 2312,728C2309.33,720.333 2309.33,709.667 2304,704C2298.67,698.333 2285.67,699 2280,694C2274.41,689.069 2275,676.667 2270,674C2265,671.333 2256.78,678.462 2250,678C2242.67,677.5 2232.86,675.735 2226,671C2219,666.167 2214.17,654 2208,649C2202.66,644.672 2194.33,640.833 2189,641C2183.73,641.165 2181.19,649.069 2176,650C2169.5,651.167 2157.17,650.667 2150,648C2143.12,645.44 2137.83,637.333 2133,634C2129.32,631.461 2124.67,629 2121,628C2117.78,627.123 2114.2,627.084 2111,628C2107.5,629 2103.76,632.171 2100,634C2093.5,637.167 2079.83,645.5 2072,647C2065.64,648.217 2058.43,646.516 2053,643C2047.33,639.333 2041,631.833 2038,625Z"/> </clipPath> <g clip-path="url(#_clip3)"> <g transform="matrix(1.50419,0,0,1.16108,-1430.57,-174.659)"> <path d="M2806,1087C2807.83,1083.83 2809.74,1079.44 2813,1077C2816.33,1074.5 2822.67,1072.67 2826,1072C2828.31,1071.54 2832,1072.33 2833,1073C2833.88,1073.59 2831.39,1075.14 2832,1076C2832.83,1077.17 2835.85,1078.92 2838,1080C2840.33,1081.17 2844.17,1081.67 2846,1083C2847.57,1084.14 2850.08,1086.38 2849,1088C2847.67,1090 2842.23,1094.01 2838,1095C2832.33,1096.33 2821,1095.83 2815,1096C2810.67,1096.12 2803.5,1097.5 2802,1096C2800.5,1094.5 2804.36,1089.84 2806,1087Z" style="fill:rgb(37,25,0);"/> </g> <g transform="matrix(1.6933,-0.0150716,0.0104879,1.17833,-2473.77,-158.232)"> <path d="M2806,1087C2807.83,1083.83 2810.23,1078.64 2813,1077C2815.76,1075.36 2819.75,1077.8 2822.64,1077.13C2825.48,1076.47 2829.12,1072.87 2830.34,1072.97C2831.57,1073.06 2828.83,1076.63 2829.99,1077.7C2831.27,1078.87 2835.43,1078.95 2838,1080C2840.89,1081.17 2845.48,1083.4 2847.32,1084.74C2848.31,1085.46 2849.82,1087.09 2849,1088C2847.45,1089.71 2842.23,1094.01 2838,1095C2832.33,1096.33 2821,1095.83 2815,1096C2810.67,1096.12 2803.5,1097.5 2802,1096C2800.5,1094.5 2804.36,1089.84 2806,1087Z" style="fill:rgb(37,25,0);"/> </g> <g transform="matrix(0.794685,0.169822,-0.16802,0.786254,528.204,-253.693)"> <path d="M2150,547C2150,545.167 2150.17,540.667 2151,538C2151.8,535.435 2152.83,532.5 2155,531C2157.17,529.5 2161.5,528.667 2164,529C2166.38,529.318 2168.83,531.333 2170,533C2171.16,534.661 2171.78,537.128 2171,539C2170.17,541 2167.3,543.356 2165,545C2162.67,546.667 2159.33,548.333 2157,549C2155.08,549.549 2152.17,549.333 2151,549C2150.28,548.795 2150,547.745 2150,547Z" style="fill:rgb(25,4,0);"/> </g> <path d="M2104.51,533C2077.94,544.581 2063.07,568.505 2051,588C2047.31,593.959 2049.83,603.984 2050,609C2050.1,612.103 2050.82,615.429 2052,618.095C2053.16,620.711 2055.77,624.683 2057.1,625C2058.43,625.317 2058.14,620.5 2060,620C2062.48,619.333 2068.17,620.333 2072,621C2075.74,621.651 2079.21,624.291 2083,624C2087.33,623.667 2092.76,619.611 2098,619C2105,618.183 2114.44,617.589 2125,619.095C2157.12,623.676 2215.85,575.32 2204,591C2197.97,598.983 2194.83,613.167 2195,618C2195.12,621.397 2201.74,619.031 2205,620C2211.17,621.833 2223.48,624.822 2232,629C2240.83,633.333 2248.2,642.648 2258,646C2270.67,650.333 2295.5,655.5 2308,655C2317.24,654.631 2328.17,641 2333,643C2337.83,645 2335.47,659.036 2337,667C2338.67,675.667 2340.08,685.913 2343,695C2346,704.334 2353.5,713.84 2355,723.007C2356.46,731.941 2350.04,741.162 2352,750C2354,758.999 2364.13,767.113 2367,777C2370,787.333 2370.41,800.298 2370,812C2369.5,826.167 2368.17,850 2364,862C2360.82,871.154 2351.9,890.806 2345,884C2332.33,871.5 2320.71,805.348 2288,787C2253.83,767.833 2173.83,781.833 2140,769C2114.86,759.465 2103.62,729.393 2085,710C2056.83,680.667 1985.67,617.167 1971,593C1964.39,582.112 1986.67,569.667 1997,565C2007.33,560.333 2025.33,567.5 2033,565C2038.71,563.137 2040.79,554.899 2043,550C2054.95,523.523 2096.38,500.309 2130.8,488.787C2142.84,484.755 2154.39,485.366 2163.6,484.215C2175.37,482.746 2183.74,480.295 2188.89,482.02C2197.19,484.805 2195.94,486.311 2185.05,499.603C2181.45,503.987 2168.26,503.851 2154.21,507.029C2133.95,511.609 2107.35,531.765 2104.51,533Z" style="fill:rgb(74,43,10);"/> <g transform="matrix(0.972516,0.232837,-0.232837,0.972516,200.672,-464.056)"> <path d="M2066,608C2066.67,606.5 2069,602.5 2070,603C2071,603.5 2071.85,608.255 2072,611C2072.17,614 2071.5,617.833 2071,621C2070.52,624.036 2070.33,628 2069,630C2067.76,631.861 2064.5,632.833 2063,633C2061.81,633.133 2060,632.202 2060,631C2060,629.667 2063,626.5 2063,625C2063,623.586 2059.67,623.167 2060,622C2060.33,620.833 2064,619.667 2065,618C2066,616.333 2065.83,613.667 2066,612C2066.13,610.673 2065.46,609.218 2066,608Z" style="fill:rgb(25,4,0);"/> </g> <path d="M2638,511C2622.33,512.865 2578.33,523.644 2571,529.191C2563.69,534.721 2586.93,538.437 2594,544.278C2606.67,554.746 2634.17,584.713 2647,592C2654.05,596.005 2664.2,592.416 2671,588C2680.5,581.833 2689.67,559.5 2704,555C2718.33,550.5 2741.33,559.167 2757,561C2770.68,562.6 2785,562.5 2798,566C2810.97,569.493 2827.67,577.333 2835,582C2838.91,584.486 2841.3,589.422 2842,594C2843.17,601.667 2843,619.333 2842,628C2841.28,634.283 2838.86,640.361 2836,646C2830.67,656.5 2815.67,676.667 2810,691C2804.88,703.949 2803.17,718.333 2802,732C2800.84,745.621 2801,764.5 2803,773C2804.14,777.824 2809.28,781.479 2814,783C2819.17,784.667 2830.78,788.84 2834,783C2843.87,765.077 2862.03,709.464 2873.2,675.464C2883.64,643.671 2901.53,603.577 2901,579C2900.57,559.111 2888.2,536.03 2870,528C2847.33,518 2799.17,520.667 2765,519C2731.7,517.376 2686.17,519.333 2665,518C2655.72,517.415 2647.23,509.901 2638,511Z" style="fill:rgb(74,43,10);"/> </g> <g> <path d="M2173,496C2175.12,492.667 2181.34,485.117 2186.73,481C2192.39,476.667 2201.01,474.819 2207,470C2214.05,464.333 2222.42,455.324 2229,447C2235.59,438.667 2241.72,429.595 2246.51,420C2251.35,410.333 2254.09,398.167 2258,389C2261.51,380.774 2265.67,372.333 2270,365C2274.14,357.994 2280.5,350.5 2284,345C2286.64,340.848 2288.17,336.025 2291,332C2294.17,327.5 2300.33,313.833 2303,318C2305.67,322.167 2307,343.932 2307,357C2307,370.5 2305.33,387.833 2303,399C2301.16,407.786 2296.87,415.901 2293,424C2287.67,435.167 2277.91,456.667 2271,466C2266.24,472.427 2255.43,475 2251.51,480C2248.13,484.329 2248.6,491.5 2247.51,496C2246.63,499.656 2248,504.735 2245,507C2240.58,510.333 2227.67,517.5 2221,516C2214.33,514.5 2210,501.167 2205,498C2201.05,495.497 2194.83,496.833 2191,497C2187.93,497.133 2184.83,498.333 2182,499C2179.32,499.63 2175.5,501.5 2174,501C2172.5,500.5 2172.09,497.434 2173,496Z" style="fill:rgb(132,98,44);"/> <path d="M2187,497C2185.33,497.667 2191.71,497.428 2194,498C2196.67,498.667 2201.18,498.417 2203,501C2205,503.833 2206.16,510.23 2206,515C2205.83,520 2203.5,526.833 2202,531C2200.84,534.229 2198.33,536.837 2197,540C2195.67,543.167 2193,548.833 2194,550C2195,551.167 2200.72,549.195 2203,547C2207.67,542.5 2218.34,524.02 2222,523C2230.8,520.548 2234.96,515.137 2254,521C2259.68,522.749 2252.32,514.208 2253,510.89C2254.14,505.33 2246.67,493.815 2250,487C2253.33,480.185 2267.67,474.667 2273,470C2276.57,466.88 2279.17,462.802 2282,459C2286.83,452.5 2297.17,441.405 2302,431C2307.33,419.5 2311.67,403.833 2314,390C2316.33,376.179 2316.67,359.5 2316,348C2315.47,338.796 2312.91,329.746 2310,321C2307,312 2301.5,301.167 2298,294C2295.32,288.501 2291.67,280.833 2289,278C2287.39,276.284 2281.83,274.833 2282,277C2282.17,279.167 2287.67,286.167 2290,291C2292.33,295.833 2294.67,301.667 2296,306C2297.1,309.562 2299.83,316.5 2298,317C2296.17,317.5 2288.83,311.333 2285,309C2281.68,306.979 2278.5,304.667 2275,303C2271.5,301.333 2264.67,298.5 2264,299C2263.33,299.5 2269,303.667 2271,306C2272.87,308.177 2273.92,311.022 2276,313C2279.5,316.333 2288.5,321.833 2292,326C2294.79,329.318 2297.33,335.5 2297,338C2296.67,340.5 2292.36,341.943 2290,341C2285.83,339.333 2277,330.667 2272,328C2268.36,326.06 2260.83,323.667 2260,325C2259.17,326.333 2264.28,332.606 2267,336C2270.33,340.167 2276.83,346.333 2280,350C2282.18,352.523 2284.66,354.949 2286,358C2287.83,362.167 2291.33,370.333 2291,375C2290.69,379.335 2287.83,384.667 2284,386C2280.17,387.333 2272.67,384.5 2268,383C2263.74,381.631 2257.67,376.667 2256,377C2254.33,377.333 2256.17,382.946 2258,385C2260.67,388 2268.17,392.5 2272,395C2274.88,396.875 2279.33,397.333 2281,400C2282.67,402.667 2282.83,408.5 2282,411C2281.24,413.28 2278.18,416.016 2276,415C2273.5,413.833 2268.5,403.667 2267,404C2265.5,404.333 2265.83,412.833 2267,417C2268.17,421.167 2273.09,424.459 2274,429C2275.17,434.833 2275.33,445.833 2274,452C2272.86,457.253 2269.87,462.275 2266,466C2261.67,470.167 2252,473.333 2248,477C2244.92,479.822 2242.5,484.667 2242,488C2241.53,491.127 2246.33,494.167 2245,497C2243.67,499.833 2237.83,504.167 2234,505C2230.17,505.833 2225.87,503.419 2222,502C2217,500.167 2209.83,494.833 2204,494C2198.3,493.186 2188.67,496.333 2187,497Z" style="fill:rgb(152,121,71);"/> </g> </g> </g> </svg>