<?xml version="1.0" encoding="utf-8"?>
<!-- Generator: Moho 12.5 build 22438 -->
<!DOCTYPE svg PUBLIC "-//W3C//DTD SVG 1.1//EN" "http://www.w3.org/Graphics/SVG/1.1/DTD/svg11.dtd">
<svg version="1.1" id="Frame_0" xmlns="http://www.w3.org/2000/svg" xmlns:xlink="http://www.w3.org/1999/xlink" width="1280px" height="720px">
<g id="Layer_6">
<path fill="#f00001" fill-rule="evenodd" stroke="#f00001" stroke-width="1" stroke-linecap="round" stroke-linejoin="round" d="M 821.994 148.501 C 840.904 153.967 865.620 164.245 881.849 175.385 C 897.551 186.163 915.503 204.833 926.993 220.022 C 937.390 233.766 948.634 254.181 954.891 270.239 C 961.673 287.643 966.783 312.302 969.318 330.809 C 972.239 352.123 973.570 381.028 971.878 402.474 C 970.340 421.965 965.780 447.943 959.507 466.461 C 953.272 484.867 940.841 507.912 930.627 524.444 C 921.897 538.573 908.833 556.663 897.479 568.785 C 879.201 588.299 851.803 611.820 829.109 625.957 C 805.170 640.869 770.350 656.608 743.125 663.971 C 719.374 670.395 686.268 673.676 661.666 673.474 C 633.406 673.242 595.524 668.404 568.335 660.695 C 543.742 653.722 512.327 639.439 490.315 626.442 C 469.446 614.121 443.539 594.260 426.091 577.442 C 411.219 563.107 392.789 542.139 382.150 524.435 C 368.926 502.427 357.751 469.581 350.144 445.058 C 346.114 432.066 341.556 414.390 339.902 400.889 C 337.870 384.304 338.359 361.881 339.261 345.197 C 339.885 333.662 341.513 318.293 343.676 306.946 C 346.284 293.267 350.874 275.162 355.819 262.144 C 360.247 250.485 367.535 235.393 374.242 224.879 C 381.352 213.731 392.551 199.918 401.877 190.544 C 408.258 184.129 417.552 176.278 425.130 171.333 C 434.949 164.924 449.140 158.009 460.151 153.980 C 470.499 150.193 484.921 146.875 495.803 145.146 C 561.588 134.692 651.023 134.432 717.625 135.453 C 719.450 135.481 721.877 135.689 723.699 135.791 C 723.699 135.791 723.699 135.791 723.699 135.791 C 723.666 135.799 793.430 140.244 821.994 148.501 Z"/>
<path fill="#d60000" fill-rule="evenodd" stroke="none" d="M 698.833 661.294 C 694.801 660.620 690.356 656.919 686.724 655.044 C 686.724 655.044 687.079 650.519 687.896 648.795 C 692.505 639.058 704.975 630.258 713.285 623.405 C 726.725 612.321 746.861 600.465 761.721 591.375 C 778.014 581.408 801.340 570.784 817.188 560.125 C 826.817 553.649 839.208 544.252 847.656 536.298 C 857.874 526.678 871.435 513.259 878.515 501.143 C 884.347 491.162 889.605 476.274 891.531 464.876 C 893.639 452.404 892.725 435.246 890.984 422.718 C 888.237 402.941 879.472 377.521 872.916 358.661 C 868.030 344.603 859.005 326.814 854.019 312.791 C 849.019 298.726 843.000 279.697 839.679 265.143 C 836.521 251.308 832.946 232.597 832.277 218.421 C 832.026 213.110 832.196 205.962 833.063 200.716 C 833.805 196.232 834.663 189.894 837.246 186.153 C 839.089 183.483 842.876 180.965 845.767 179.492 C 846.011 179.367 846.371 179.281 846.630 179.191 C 852.980 180.453 861.919 180.684 867.799 183.396 C 881.555 189.740 896.185 204.854 906.077 216.326 C 916.434 228.337 927.326 246.796 934.223 261.078 C 940.842 274.785 947.308 294.186 951.110 308.925 C 954.281 321.220 957.144 337.998 958.216 350.650 C 959.308 363.549 959.146 380.888 958.216 393.799 C 956.993 410.772 954.431 433.513 949.859 449.905 C 944.598 468.768 934.122 493.005 924.458 510.038 C 916.491 524.079 903.444 541.411 892.837 553.582 C 878.328 570.230 857.271 591.219 839.454 604.265 C 822.271 616.845 796.839 630.063 777.346 638.639 C 763.065 644.921 743.207 651.431 728.129 655.435 C 719.466 657.736 707.673 662.772 698.833 661.294 M 846.630 179.191 C 846.630 179.191 846.630 179.191 846.630 179.191 Z"/>
<path fill="none" stroke="#d60000" stroke-width="1" stroke-linecap="round" stroke-linejoin="round" d="M 686.724 655.044 C 686.724 655.044 686.724 655.044 686.724 655.044 C 690.356 656.919 694.801 660.620 698.833 661.294 C 707.673 662.772 719.466 657.736 728.129 655.435 C 743.207 651.431 763.065 644.921 777.346 638.639 C 796.839 630.063 822.271 616.845 839.454 604.265 C 857.271 591.219 878.328 570.230 892.837 553.582 C 903.444 541.411 916.491 524.079 924.458 510.038 C 934.122 493.005 944.598 468.768 949.859 449.905 C 954.431 433.513 956.993 410.772 958.216 393.799 C 959.146 380.888 959.308 363.549 958.216 350.650 C 957.144 337.998 954.281 321.220 951.110 308.925 C 947.308 294.186 940.842 274.785 934.223 261.078 C 927.326 246.796 916.434 228.337 906.077 216.326 C 896.185 204.854 881.555 189.740 867.799 183.396 C 861.919 180.684 852.980 180.453 846.630 179.191 C 846.630 179.191 846.630 179.191 846.630 179.191 C 846.371 179.281 846.011 179.367 845.767 179.492 C 842.876 180.965 839.089 183.483 837.246 186.153 C 834.663 189.894 833.805 196.232 833.063 200.716 C 832.196 205.962 832.026 213.110 832.277 218.421 C 832.946 232.597 836.521 251.308 839.679 265.143 C 843.000 279.697 849.019 298.726 854.019 312.791 C 859.005 326.814 868.030 344.603 872.916 358.661 C 879.472 377.521 888.237 402.941 890.984 422.718 C 892.725 435.246 893.639 452.404 891.531 464.876 C 889.605 476.274 884.347 491.162 878.515 501.143 C 871.435 513.259 857.874 526.678 847.656 536.298 C 839.208 544.252 826.817 553.649 817.188 560.125 C 801.340 570.784 778.014 581.408 761.721 591.375 C 746.861 600.465 726.725 612.321 713.285 623.405 C 704.975 630.258 692.505 639.058 687.896 648.795 C 687.079 650.519 686.724 655.044 686.724 655.044 "/>
<path fill="#ff521a" fill-rule="evenodd" stroke="#ff521a" stroke-width="1" stroke-linecap="round" stroke-linejoin="round" d="M 520.357 146.485 C 508.050 147.244 491.406 148.961 479.791 153.099 C 459.104 160.468 433.271 176.077 417.178 191.019 C 403.779 203.459 390.180 224.331 381.462 240.403 C 374.552 253.143 368.119 271.536 363.825 285.378 C 360.029 297.618 355.940 314.290 354.106 326.973 C 351.547 344.658 349.841 368.627 351.015 386.458 C 352.185 404.216 356.722 427.737 361.831 444.784 C 365.321 456.431 371.725 471.438 377.282 482.252 C 384.342 495.991 394.958 513.854 404.734 525.813 C 415.932 539.514 433.797 555.244 447.520 566.416 C 459.242 575.960 475.648 587.865 488.826 595.271 C 498.437 600.672 511.587 608.011 522.380 610.263 C 529.160 611.678 539.122 613.284 545.464 610.501 C 549.394 608.777 553.647 604.158 555.459 600.268 C 557.368 596.173 557.213 589.782 556.887 585.276 C 556.323 577.469 552.938 567.392 550.224 560.050 C 547.002 551.335 540.655 540.595 536.659 532.207 C 531.524 521.429 524.244 507.234 519.874 496.124 C 515.428 484.821 509.778 469.521 507.375 457.614 C 505.323 447.443 503.828 433.523 504.335 423.158 C 504.844 412.756 506.991 398.752 510.754 389.040 C 515.310 377.277 524.924 363.026 533.105 353.424 C 544.759 339.745 563.786 324.642 578.559 314.409 C 591.897 305.171 611.645 296.008 625.907 288.273 C 636.096 282.747 650.396 276.585 659.998 270.091 C 664.802 266.843 671.159 262.229 674.954 257.844 C 679.611 252.461 684.638 244.127 687.044 237.428 C 688.878 232.322 690.455 224.997 690.017 219.589 C 688.919 206.008 682.227 187.710 673.421 177.312 C 664.248 166.479 644.958 160.375 632.759 153.117 C 632.759 153.117 632.759 153.117 632.759 153.117 C 632.638 153.111 554.072 144.404 520.357 146.485 Z"/>
<path fill="#ffffff" fill-rule="evenodd" stroke="#ffffff" stroke-width="1" stroke-linecap="round" stroke-linejoin="round" d="M 453.582 195.388 C 453.582 195.388 453.582 195.388 453.582 195.388 C 456.037 194.303 459.311 192.857 461.766 191.772 C 461.766 191.772 461.766 191.772 461.766 191.772 C 463.300 191.892 465.448 191.603 466.878 192.172 C 468.429 192.788 470.521 194.158 471.191 195.686 C 471.789 197.048 471.264 199.184 470.952 200.638 C 470.079 204.699 467.982 210.054 465.440 213.339 C 463.594 215.724 460.522 218.852 457.612 219.649 C 455.706 220.171 452.884 219.699 451.063 218.930 C 448.683 217.924 445.704 215.631 444.513 213.339 C 443.424 211.244 443.160 207.805 443.714 205.511 C 443.981 204.404 444.916 203.122 445.631 202.236 C 447.608 199.786 453.581 195.389 453.582 195.388 C 453.582 195.388 453.582 195.388 453.582 195.388 Z"/>
<path fill="#ffffff" fill-rule="evenodd" stroke="#ffffff" stroke-width="1" stroke-linecap="round" stroke-linejoin="round" d="M 440.709 224.721 C 442.418 227.343 443.214 231.633 443.646 234.733 C 444.447 240.487 443.770 248.318 443.112 254.089 C 442.385 260.465 440.534 268.859 438.840 275.048 C 437.347 280.501 435.266 287.827 432.703 292.867 C 430.956 296.301 428.214 300.778 425.460 303.472 C 423.883 305.014 421.471 306.903 419.382 307.610 C 416.697 308.520 412.714 308.582 409.940 307.998 C 407.495 307.483 404.400 305.927 402.439 304.377 C 400.101 302.528 397.594 299.269 396.232 296.617 C 394.778 293.787 393.838 289.550 393.386 286.400 C 392.896 282.982 392.589 278.278 393.257 274.890 C 394.670 267.719 399.739 259.057 403.474 252.774 C 406.445 247.777 411.277 241.664 414.974 237.177 C 417.780 233.772 421.652 229.311 424.893 226.318 C 426.641 224.705 428.985 222.469 431.107 221.394 C 431.925 220.979 433.123 220.644 434.027 220.487 C 434.564 220.394 435.296 220.417 435.840 220.387 C 435.840 220.387 435.840 220.387 435.840 220.387 C 435.859 220.405 439.641 223.083 440.709 224.721 Z"/>
<path fill="#006734" fill-rule="evenodd" stroke="none" d="M 716.587 277.740 C 717.964 287.733 717.019 301.274 717.204 311.359 C 717.203 311.356 711.010 288.134 707.026 278.665 C 702.948 268.972 696.292 256.511 690.370 247.821 C 684.159 238.707 673.905 228.037 666.621 219.754 C 661.992 214.491 655.960 207.321 650.890 202.481 C 648.611 200.305 645.572 197.320 642.871 195.696 C 638.862 193.284 632.968 190.604 628.317 190.093 C 620.602 189.246 610.366 192.709 602.846 194.632 C 593.946 196.909 582.567 201.582 573.845 204.467 C 566.599 206.865 556.783 209.610 549.635 212.285 C 542.779 214.851 534.017 219.221 527.191 221.868 C 525.227 222.630 522.563 223.521 520.579 224.230 C 541.122 209.499 568.513 189.857 589.056 175.126 C 589.056 175.126 587.605 171.119 586.582 169.628 C 585.014 167.344 582.341 164.622 579.984 163.167 C 574.198 159.597 564.758 158.719 558.265 156.706 C 551.850 154.718 543.350 151.895 536.958 149.833 C 536.958 149.833 531.746 149.558 530.360 148.046 C 516.090 132.479 579.640 147.797 600.748 147.156 C 635.523 146.102 681.784 141.124 716.574 141.382 C 732.724 141.502 754.197 143.522 770.322 144.439 C 761.502 146.314 749.705 148.639 740.925 150.689 C 732.071 152.756 720.021 154.850 711.554 158.165 C 706.438 160.168 699.255 162.838 695.356 166.709 C 692.827 169.220 690.186 173.540 689.482 177.033 C 688.834 180.247 690.128 184.668 690.728 187.891 C 695.862 215.466 712.760 249.953 716.587 277.740 M 770.322 144.439 C 770.322 144.439 770.322 144.439 770.322 144.439 Z"/>
<path fill="none" stroke="#006734" stroke-width="1" stroke-linecap="round" stroke-linejoin="round" d="M 717.204 311.359 C 717.204 311.359 717.204 311.359 717.204 311.359 C 717.019 301.274 717.964 287.733 716.587 277.740 C 712.760 249.953 695.862 215.466 690.728 187.891 C 690.128 184.668 688.834 180.247 689.482 177.033 C 690.186 173.540 692.827 169.220 695.356 166.709 C 699.255 162.838 706.438 160.168 711.554 158.165 C 720.021 154.850 732.071 152.756 740.925 150.689 C 749.705 148.639 761.502 146.314 770.322 144.439 C 770.322 144.439 770.322 144.439 770.322 144.439 C 754.197 143.522 732.724 141.502 716.574 141.382 C 681.784 141.124 635.523 146.102 600.748 147.156 C 579.640 147.797 516.090 132.479 530.360 148.046 C 531.746 149.558 536.958 149.833 536.958 149.833 C 536.958 149.833 536.958 149.833 536.958 149.833 C 543.350 151.895 551.850 154.718 558.265 156.706 C 564.758 158.719 574.198 159.597 579.984 163.167 C 582.341 164.622 585.014 167.344 586.582 169.628 C 587.605 171.119 589.056 175.126 589.056 175.126 C 589.056 175.126 589.056 175.126 589.056 175.126 C 568.513 189.857 541.122 209.499 520.579 224.230 C 520.579 224.230 520.579 224.230 520.579 224.230 C 520.579 224.230 520.579 224.230 520.579 224.230 C 522.563 223.521 525.227 222.630 527.191 221.868 C 534.017 219.221 542.779 214.851 549.635 212.285 C 556.783 209.610 566.599 206.865 573.845 204.467 C 582.567 201.582 593.946 196.909 602.846 194.632 C 610.366 192.709 620.602 189.246 628.317 190.093 C 632.968 190.604 638.862 193.284 642.871 195.696 C 645.572 197.320 648.611 200.305 650.890 202.481 C 655.960 207.321 661.992 214.491 666.621 219.754 C 673.905 228.037 684.159 238.707 690.370 247.821 C 696.292 256.511 702.948 268.972 707.026 278.665 C 711.010 288.134 717.203 311.356 717.204 311.359 "/>
<path fill="#01cc00" fill-rule="evenodd" stroke="none" d="M 720.868 326.772 C 720.432 328.039 719.665 329.658 719.150 330.895 C 719.149 330.893 718.499 315.458 717.604 308.906 C 716.214 298.732 713.940 285.105 710.560 275.408 C 707.148 265.615 700.584 253.290 695.100 244.487 C 689.194 235.008 679.724 223.422 672.508 214.897 C 668.097 209.685 662.254 202.604 657.025 198.212 C 651.790 193.814 644.249 188.351 637.896 185.825 C 634.193 184.353 628.852 183.516 624.882 183.159 C 620.852 182.797 615.399 182.868 611.398 183.473 C 607.482 184.066 602.426 185.744 598.698 187.079 C 589.894 190.232 578.752 195.928 570.274 199.874 C 561.700 203.864 549.987 208.694 541.863 213.536 C 534.613 217.857 525.593 224.669 519.042 229.992 C 512.977 234.919 505.395 242.091 499.790 247.536 C 496.483 250.749 492.292 255.252 489.078 258.558 C 489.079 258.557 493.287 247.781 495.754 243.499 C 499.809 236.461 506.389 227.731 511.900 221.764 C 518.262 214.876 527.939 206.819 535.498 201.271 C 540.409 197.667 547.403 193.489 552.723 190.522 C 557.426 187.900 564.021 185.021 568.802 182.543 C 573.351 180.186 579.626 177.357 583.826 174.423 C 585.179 173.478 587.372 172.383 588.023 170.866 C 588.610 169.499 588.403 167.267 587.790 165.911 C 587.063 164.302 584.987 162.837 583.505 161.877 C 580.815 160.133 576.637 158.860 573.552 157.987 C 566.858 156.093 557.534 155.357 550.672 154.212 C 545.385 153.329 538.370 151.922 533.054 151.237 C 525.093 150.212 514.405 149.508 506.398 148.949 C 498.941 148.429 488.981 148.010 481.516 147.607 C 481.519 147.606 502.806 141.368 512.047 139.140 C 520.454 137.114 531.713 134.501 540.280 133.322 C 549.237 132.089 561.305 131.219 570.347 131.224 C 579.768 131.229 592.286 132.650 601.672 133.461 C 607.133 133.933 614.398 134.734 619.852 135.279 C 619.852 135.278 618.826 123.106 617.468 118.076 C 616.006 112.659 613.375 105.502 610.333 100.787 C 607.712 96.724 603.144 91.991 599.356 88.987 C 594.692 85.287 587.562 81.539 582.068 79.245 C 579.497 78.171 575.844 77.361 573.177 76.553 C 573.177 76.552 570.929 70.616 570.765 67.937 C 570.630 65.748 570.872 62.687 571.799 60.700 C 572.989 58.147 575.724 55.195 578.175 53.807 C 582.013 51.633 588.239 51.306 592.649 51.222 C 596.509 51.148 601.849 51.434 605.401 52.946 C 609.494 54.688 613.893 59.015 616.946 62.250 C 622.379 68.007 628.134 77.021 631.938 83.962 C 638.320 95.611 643.685 112.642 648.651 124.961 C 649.817 127.854 651.352 131.719 652.509 134.615 C 652.512 134.614 672.971 131.389 681.786 130.344 C 690.781 129.278 702.800 127.850 711.855 127.602 C 723.171 127.292 738.287 128.037 749.560 129.076 C 759.669 130.008 773.097 131.930 783.052 133.921 C 797.147 136.741 815.933 141.031 829.418 146.010 C 837.849 149.123 849.016 153.857 856.477 158.867 C 857.746 159.719 859.199 161.170 860.365 162.156 C 851.655 159.642 840.161 155.837 831.334 153.777 C 820.073 151.148 804.887 148.179 793.377 147.065 C 779.138 145.686 759.953 145.171 745.698 146.371 C 735.437 147.234 721.766 149.420 711.906 152.388 C 706.705 153.954 699.731 156.370 695.193 159.356 C 692.491 161.135 688.584 163.742 687.309 166.715 C 686.376 168.890 686.420 172.359 687.177 174.600 C 688.243 177.757 692.252 180.494 694.274 183.142 C 698.936 189.250 705.046 197.531 708.813 204.229 C 712.680 211.105 716.831 220.829 719.548 228.236 C 721.808 234.397 724.344 242.807 725.701 249.228 C 727.042 255.573 728.200 264.182 728.538 270.659 C 728.996 279.444 728.817 291.257 727.592 299.968 C 726.438 308.178 723.562 318.932 720.868 326.772 M 860.365 162.156 C 860.365 162.156 860.365 162.156 860.365 162.156 Z"/>
<path fill="none" stroke="#01cc00" stroke-width="1" stroke-linecap="round" stroke-linejoin="round" d="M 719.150 330.895 C 719.150 330.895 719.150 330.895 719.150 330.895 C 719.665 329.658 720.432 328.039 720.868 326.772 C 723.562 318.932 726.438 308.178 727.592 299.968 C 728.817 291.257 728.996 279.444 728.538 270.659 C 728.200 264.182 727.042 255.573 725.701 249.228 C 724.344 242.807 721.808 234.397 719.548 228.236 C 716.831 220.829 712.680 211.105 708.813 204.229 C 705.046 197.531 698.936 189.250 694.274 183.142 C 692.252 180.494 688.243 177.757 687.177 174.600 C 686.420 172.359 686.376 168.890 687.309 166.715 C 688.584 163.742 692.491 161.135 695.193 159.356 C 699.731 156.370 706.705 153.954 711.906 152.388 C 721.766 149.420 735.437 147.234 745.698 146.371 C 759.953 145.171 779.138 145.686 793.377 147.065 C 804.887 148.179 820.073 151.148 831.334 153.777 C 840.161 155.837 851.655 159.642 860.365 162.156 C 860.365 162.156 860.365 162.156 860.365 162.156 C 859.199 161.170 857.746 159.719 856.477 158.867 C 849.016 153.857 837.849 149.123 829.418 146.010 C 815.933 141.031 797.147 136.741 783.052 133.921 C 773.097 131.930 759.669 130.008 749.560 129.076 C 738.287 128.037 723.171 127.292 711.855 127.602 C 702.800 127.850 690.781 129.278 681.786 130.344 C 672.971 131.389 652.512 134.614 652.509 134.615 C 652.509 134.615 652.509 134.615 652.509 134.615 C 651.352 131.719 649.817 127.854 648.651 124.961 C 643.685 112.642 638.320 95.611 631.938 83.962 C 628.134 77.021 622.379 68.007 616.946 62.250 C 613.893 59.015 609.494 54.688 605.401 52.946 C 601.849 51.434 596.509 51.148 592.649 51.222 C 588.239 51.306 582.013 51.633 578.175 53.807 C 575.724 55.195 572.989 58.147 571.799 60.700 C 570.872 62.687 570.630 65.748 570.765 67.937 C 570.929 70.616 573.177 76.552 573.177 76.553 C 573.177 76.553 573.177 76.553 573.177 76.553 C 575.844 77.361 579.497 78.171 582.068 79.245 C 587.562 81.539 594.692 85.287 599.356 88.987 C 603.144 91.991 607.712 96.724 610.333 100.787 C 613.375 105.502 616.006 112.659 617.468 118.076 C 618.826 123.106 619.852 135.278 619.852 135.279 C 619.852 135.279 619.852 135.279 619.852 135.279 C 614.398 134.734 607.133 133.933 601.672 133.461 C 592.286 132.650 579.768 131.229 570.347 131.224 C 561.305 131.219 549.237 132.089 540.280 133.322 C 531.713 134.501 520.454 137.114 512.047 139.140 C 502.806 141.368 481.519 147.606 481.516 147.607 C 481.516 147.607 481.516 147.607 481.516 147.607 C 488.981 148.010 498.941 148.429 506.398 148.949 C 514.405 149.508 525.093 150.212 533.054 151.237 C 538.370 151.922 545.385 153.329 550.672 154.212 C 557.534 155.357 566.858 156.093 573.552 157.987 C 576.637 158.860 580.815 160.133 583.505 161.877 C 584.987 162.837 587.063 164.302 587.790 165.911 C 588.403 167.267 588.610 169.499 588.023 170.866 C 587.372 172.383 585.179 173.478 583.826 174.423 C 579.626 177.357 573.351 180.186 568.802 182.543 C 564.021 185.021 557.426 187.900 552.723 190.522 C 547.403 193.489 540.409 197.667 535.498 201.271 C 527.939 206.819 518.262 214.876 511.900 221.764 C 506.389 227.731 499.809 236.461 495.754 243.499 C 493.287 247.781 489.079 258.557 489.078 258.558 C 489.078 258.558 489.078 258.558 489.078 258.558 C 492.292 255.252 496.483 250.749 499.790 247.536 C 505.395 242.091 512.977 234.919 519.042 229.992 C 525.593 224.669 534.613 217.857 541.863 213.536 C 549.987 208.694 561.700 203.864 570.274 199.874 C 578.752 195.928 589.894 190.232 598.698 187.079 C 602.426 185.744 607.482 184.066 611.398 183.473 C 615.399 182.868 620.852 182.797 624.882 183.159 C 628.852 183.516 634.193 184.353 637.896 185.825 C 644.249 188.351 651.790 193.814 657.025 198.212 C 662.254 202.604 668.097 209.685 672.508 214.897 C 679.724 223.422 689.194 235.008 695.100 244.487 C 700.584 253.290 707.148 265.615 710.560 275.408 C 713.940 285.105 716.214 298.732 717.604 308.906 C 718.499 315.458 719.149 330.893 719.150 330.895 "/>
<path fill="#029834" fill-rule="evenodd" stroke="none" d="M 650.664 129.665 C 653.240 136.899 656.359 146.654 658.799 153.935 C 658.798 153.936 652.405 161.286 648.791 163.206 C 645.406 165.004 640.176 165.810 636.359 166.156 C 633.082 166.453 628.689 165.787 625.402 165.629 C 625.404 165.628 633.969 162.570 636.570 159.835 C 639.133 157.139 641.028 152.214 641.732 148.562 C 643.113 141.400 640.967 131.520 639.730 124.331 C 639.224 121.388 638.395 117.460 637.320 114.674 C 636.089 111.481 633.780 107.496 631.898 104.638 C 629.339 100.751 624.988 96.256 622.208 92.524 C 619.742 89.214 616.579 84.702 614.363 81.219 C 612.804 78.769 610.849 75.422 609.476 72.863 C 608.541 71.120 607.137 68.841 606.557 66.949 C 606.038 65.258 605.755 62.879 605.733 61.110 C 605.720 60.062 605.636 58.578 606.093 57.634 C 606.300 57.206 607.170 56.472 607.170 56.472 C 607.961 56.440 609.049 56.139 609.808 56.365 C 613.169 57.363 616.229 61.480 618.603 64.060 C 621.393 67.093 624.464 71.692 626.716 75.141 C 629.267 79.047 632.423 84.427 634.491 88.608 C 637.329 94.343 640.275 102.374 642.624 108.327 C 645.135 114.690 648.369 123.220 650.664 129.665 Z"/>
<path fill="none" stroke="#029834" stroke-width="1" stroke-linecap="round" stroke-linejoin="round" d="M 658.799 153.935 C 658.799 153.935 658.799 153.935 658.799 153.935 C 656.359 146.654 653.240 136.899 650.664 129.665 C 648.369 123.220 645.135 114.690 642.624 108.327 C 640.275 102.374 637.329 94.343 634.491 88.608 C 632.423 84.427 629.267 79.047 626.716 75.141 C 624.464 71.692 621.393 67.093 618.603 64.060 C 616.229 61.480 613.169 57.363 609.808 56.365 C 609.049 56.139 607.961 56.440 607.170 56.472 C 607.170 56.472 606.300 57.206 606.093 57.634 C 605.636 58.578 605.720 60.062 605.733 61.110 C 605.755 62.879 606.038 65.258 606.557 66.949 C 607.137 68.841 608.541 71.120 609.476 72.863 C 610.849 75.422 612.804 78.769 614.363 81.219 C 616.579 84.702 619.742 89.214 622.208 92.524 C 624.988 96.256 629.339 100.751 631.898 104.638 C 633.780 107.496 636.089 111.481 637.320 114.674 C 638.395 117.460 639.224 121.388 639.730 124.331 C 640.967 131.520 643.113 141.400 641.732 148.562 C 641.028 152.214 639.133 157.139 636.570 159.835 C 633.969 162.570 625.404 165.628 625.402 165.629 C 625.402 165.629 625.402 165.629 625.402 165.629 C 628.689 165.787 633.082 166.453 636.359 166.156 C 640.176 165.810 645.406 165.004 648.791 163.206 C 652.405 161.286 658.798 153.936 658.799 153.935 "/>
</g>
</svg>
