<?xml version='1.0' encoding='utf-8'?>
<svg xmlns="http://www.w3.org/2000/svg" version="1.1" width="1080px" height="2131px" viewBox="0 0 1080 2131"> <rect x="0" y="0" width="1080" height="2131" fill="rgb(255,255,255)"/> <g id="layer1"> <g style="fill:rgb(0,0,0); fill-opacity:0.10980392; stroke-linejoin: miter"> <path d="M1837.1119,2494.664L1825.2137,2522.465Q1740.6234,2606.4814,1330.1913,2656.854Q916.9193,2707.1858,356.8789,2697.6726Q-177.60657,2684.376,-498.06,2619.8596Q-600.7368,2599.005,-667.2086,2574.4124L-723.0764,2549.1292Q-769.1165,2523.0334,-769.63416,2494.664Q-755.6577,2407.6035,-387.885,2349.793Q-20.112427,2291.9824,533.7389,2289.7854Q1087.5902,2291.9824,1455.3629,2349.793Q1823.1356,2407.6035,1837.1119,2494.664"/> </g> <g style="fill:rgb(254,131,2); fill-opacity:1.0; stroke-linejoin: miter"> <path d="M-239.18185,988.8084L-261.2853,1032.2045L-321.5835,1164.8232L-355.25272,1324.342Q-365.1339,1465.7761,-364.25717,1549.2532L-349.7054,1690.4507Q-286.7784,1900.3494,-268.65698,1946.1545L-191.68068,2049.9023L-94.30182,2120.5288L-1.1694946,2125.0317L66.89276,2195.141L185.47,2246.251L299.9479,2244.6267L373.1534,2196.894L413.05734,2255.0085L486.9224,2297.15L577.0575,2320.8052L685.0277,2306.1719Q811.1741,2224.2598,808.35254,2215.151L870.261,2238.8496L953.45105,2248.9644L1046.8195,2205.9216L1115.7953,2122.8833L1184.3234,2127.0872L1279.3079,2083.4985L1387.8976,1952.374L1448.1294,1825.499L1475.1014,1647.8966L1479.6163,1407.3639Q1486.2751,1386.642,1433.7916,1160.9646L1365.8115,1015.3053Q1354.064,1013.7918,1066.0614,1062.0454L884.6416,1072.0481L705.0405,1054.9126Q548.4818,1030.7788,408.69937,1000.76764L46.93399,988.21655L-139.61824,977.1376L-239.18185,988.8084"/> </g> <g style="fill:rgb(167,96,238); fill-opacity:1.0; stroke-linejoin: miter"> <path d="M-363.0225,1521.3752L-440.5704,1513.2078L-600.3303,1493.3707L-730.57544,1435.7152L-798.1416,1376.8608L-826.818,1310.8992L-827.4804,1220.2657L-778.8572,1099.1555L-682.33014,961.8517Q-567.84863,856.2588,-375.87714,728.345L-234.7724,656.9077L-245.20831,400.46985L-207.52844,390.5044Q-166.48425,250.59521,-102.58807,119.3739L34.860107,-110.42282Q230.6872,-314.5476,386.83612,-433.5079L503.24603,-491.22458L667.5323,-523.6089Q817.4786,-446.3393,965.77423,-382.31396L1102.0222,-390.64087Q1223.6846,-495.1888,1251.9138,-538.32227L1265.5476,-448.10446Q1253.2981,-333.2904,1198.6125,-241.51181L1009.91705,-49.30237L1066.5408,85.01129L1146.1199,272.63757L1171.9756,412.68024L1204.0322,410.7367L1203.7666,650.3898L1348.3047,711.89233Q1545.1887,744.17004,1686.354,760.9562L1802.4092,807.69604L1879.3164,890.9713L1904.4985,970.6863L1878.7505,1051.315L1823.3188,1123.9543L1683.3286,1257.3214L1480.9036,1365.5854Q1413.6814,1065.8019,1363.0144,1008.1244L1088.2847,1063.9215L877.841,1066.932L605.1539,1053.5653L450.50397,1009.63367L253.65497,993.87524Q42.10315,984.61536,-118.19476,980.68945L-240.62878,996.7717L-292.2868,1096.8878L-344.16333,1267.9275Q-374.69012,1435.8468,-363.0225,1521.3752"/> </g> <g style="fill:rgb(0,0,0); fill-opacity:1.0; stroke-linejoin: miter"> <path d="M108.55543,-516.01465L108.554085,-516.01294L108.55274,-516.0112L108.55543,-516.01465"/> </g> <g style="fill:rgb(0,0,0); fill-opacity:0.30980393; stroke-linejoin: miter"> <path d="M1233.3748,-321.18103L1220.8625,-313.42493Q1120.9818,-250.63025,1064.7716,-239.99237Q977.40393,-221.3525,864.2131,-232.88153Q907.67303,-132.7618,927.171,-78.52521Q944.0454,-31.980988,950.4437,2.9241638Q954.7477,26.346558,956.50793,49.16519Q962.5829,163.87958,976.73755,324.28815L1149.1793,343.15936L1155.1077,300.27087L1119.7289,181.05432L1069.3751,52.089874L1006.6866,-50.02832L1106.5598,-133.66435L1177.3304,-216.2266L1233.3748,-321.18103"/> </g> <g style="fill:rgb(0,0,0); fill-opacity:0.30980393; stroke-linejoin: miter"> <path d="M1282.0754,1757.667L1282.075,1757.6691L1282.0745,1757.6711L1282.0754,1757.667"/> </g> <g style="fill:rgb(0,0,0); fill-opacity:0.30980393; stroke-linejoin: miter"> <path d="M-322.654,927.95245L-322.65378,927.953L-322.65356,927.95355L-322.654,927.95245"/> </g> <g style="fill:rgb(255,185,112); fill-opacity:1.0; stroke-linejoin: miter"> <path d="M-176.32433,992.7966L-180.28168,999.557Q-258.99127,1133.8336,-292.22876,1323.3917Q-305.7193,1402.2358,-307.5991,1516.7858Q-307.5724,1623.1324,-298.01822,1688.5103Q-291.47287,1739.6196,-279.25812,1789.9539Q-262.8831,1851.9015,-258.1381,1863.0504Q-234.01413,1934.7063,-201.44173,1987.8405Q-141.41986,2080.1785,-40.970703,2123.381L-128.60913,2103.7957L-247.0221,1978.5028Q-307.3783,1856.9553,-319.80777,1801.7792Q-331.55948,1759.3429,-344.66675,1691.4272L-362.2054,1562.2198L-365.09634,1403.0903L-351.53363,1258.568L-313.47958,1136.9706L-248.67363,989.2665L-176.32433,992.7966"/> </g> <g style="fill:rgb(209,162,255); fill-opacity:1.0; stroke-linejoin: miter"> <path d="M1256.5107,-490.99854L1250.0063,-482.87964Q1192.0107,-413.77084,1131.235,-373.04953Q1087.2476,-341.98007,1026.5884,-333.37842Q972.4779,-326.75708,935.4208,-339.0714Q922.7427,-343.41467,910.8502,-350.71127L843.843,-400.89127Q812.4922,-421.0086,793.9587,-428.83685Q719.702,-463.26886,653.68,-467.85Q617.5342,-469.80002,568.7406,-461.9619Q578.9314,-423.06995,554.1318,-396.67786Q515.763,-358.02866,453.5323,-337.79913Q400.83167,-321.77368,380.95892,-334.71356Q353.92773,-349.20505,372.87323,-375.00134Q92.40607,-196.24338,-156.72961,243.90112Q-146.89555,145.74854,93.90166,-181.25168L122.422,-214.25208L243.9649,-326.48462L385.87738,-436.65988L497.35236,-501.08466L612.10693,-530.3278L729.31866,-507.05176L842.10956,-451.2564L938.5325,-392.8557L1034.3367,-385.23962L1112.426,-411.53943L1186.2639,-467.77426L1251.0372,-541.709L1256.5107,-490.99854"/> </g> <g style="fill:rgb(209,162,255); fill-opacity:1.0; stroke-linejoin: miter"> <path d="M-64.8739,625.3283L-70.33557,629.00507Q-103.41168,652.0644,-152.78064,677.1866Q-175.56946,689.7664,-367.11243,777.5737Q-416.2044,801.2695,-436.60986,813.27454Q-498.4435,845.82324,-592.8071,926.3342Q-716.6536,1035.1765,-751.40045,1097.2227Q-764.57495,1115.697,-786.21606,1169.4585L-824.9174,1287.5558Q-830.5182,1288.6934,-825.2732,1201.8494L-783.6678,1095.4685L-727.82733,1013.6063L-565.5536,854.8497L-474.19516,785.39075L-396.59827,735.3642L-307.4408,697.2582L-240.55121,656.31525L-149.26355,635.3714L-64.8739,625.3283"/> </g> <g style="fill:rgb(255,185,112); fill-opacity:1.0; stroke-linejoin: miter"> <path d="M-443.30762,1195.8647L-443.30774,1195.8651L-443.30783,1195.8656L-443.30762,1195.8647"/> </g> <g style="fill:rgb(255,185,112); fill-opacity:1.0; stroke-linejoin: miter"> <path d="M-87.85861,1417.6372L-88.6264,1439.8702Q-94.0851,1507.0603,-120.57063,1547.3445Q-147.23943,1587.5962,-183.3793,1579.9883Q-217.87012,1569.3545,-238.54924,1517.7592Q-245.17506,1501.0813,-249.46455,1481.4138L-253.06975,1461.1942Q-256.04074,1440.3248,-256.07416,1417.6372Q-255.17224,1348.0127,-231.43956,1301.78Q-207.70688,1255.5474,-171.96638,1253.7904Q-136.22589,1255.5474,-112.49321,1301.78Q-88.76051,1348.0127,-87.85861,1417.6372"/> </g> <g style="fill:rgb(255,185,112); fill-opacity:1.0; stroke-linejoin: miter"> <path d="M-116.91977,1694.6768L-117.42507,1707.0923Q-121.01752,1744.6133,-138.44807,1767.1091Q-155.99925,1789.5869,-179.7835,1785.3385Q-202.48247,1779.4001,-216.09175,1750.5878Q-220.45232,1741.2744,-223.2753,1730.2915L-225.64793,1719.0002Q-227.6032,1707.3462,-227.62518,1694.6768Q-227.03162,1655.7964,-211.41275,1629.9786Q-195.79388,1604.161,-172.27246,1603.1798Q-148.75107,1604.161,-133.1322,1629.9786Q-117.513336,1655.7964,-116.91977,1694.6768"/> </g> <g style="fill:rgb(255,185,112); fill-opacity:1.0; stroke-linejoin: miter"> <path d="M16.031494,1217.2742L15.155362,1224.3954Q9.30871,1267.4122,13.055409,1293.5691Q15.607851,1317.1891,33.688118,1350.0928Q71.77594,1423.7661,151.55508,1460.5754Q231.28561,1495.486,302.61774,1483.5884Q333.40308,1478.4768,359.3199,1463.7388Q389.61884,1446.818,431.16144,1408.896L361.51035,1435.2288L253.54187,1456.5864L195.85445,1443.9373L128.2327,1417.1107L61.59564,1358.9216L16.031494,1217.2742"/> </g> <g style="fill:rgb(255,185,112); fill-opacity:1.0; stroke-linejoin: miter"> <path d="M710.992,1406.3799L715.1387,1411.1918Q824.5857,1545.4331,992.3496,1454.3893Q1070.74,1408.9066,1102.9673,1344.4901Q1117.2072,1315.9675,1121.172,1283.2305Q1126.055,1245.1875,1121.478,1180.5801Q1125.3914,1257.3458,1095.5957,1307.9211Q1051.758,1383.9425,980.86743,1425.036Q909.9726,1464.7019,827.3389,1456.0933Q819.828,1455.5659,812.35114,1454.9739L710.992,1406.3799"/> </g> <g style="fill:rgb(255,185,112); fill-opacity:1.0; stroke-linejoin: miter"> <path d="M395.95297,1949.4508L394.68073,1950.7467Q380.62134,1967.3665,355.72522,1947.974Q294.68732,1902.2621,258.99088,1858.5065Q233.27719,1827.1216,217.90207,1791.548Q204.88278,1762.9908,187.55516,1697.198Q227.0693,1797.542,259.3584,1834.2902Q274.86346,1853.8396,307.03815,1881.1887Q305.92462,1882.7067,395.95297,1949.4508"/> </g> <g style="fill:rgb(255,185,112); fill-opacity:1.0; stroke-linejoin: miter"> <path d="M400.95615,1881.5083L400.95612,1881.5083L395.88052,1909.5765Q450.79718,1911.5206,505.71384,1913.4648Q504.05518,1894.0569,502.3965,1874.649L400.95615,1881.5083"/> </g> <g style="fill:rgb(255,185,112); fill-opacity:1.0; stroke-linejoin: miter"> <path d="M511.15805,1971.3839L511.54092,1973.4467Q515.7762,1997.6171,527.9415,2001.8383Q543.1052,2008.4636,573.0573,2005.44Q711.796,1991.2292,777.8638,1948.7622Q836.9541,1911.3192,881.3094,1847.9247Q920.0652,1797.4791,943.6908,1712.7013Q897.814,1795.53,860.2985,1840.6116Q831.1232,1876.9202,777.3717,1910.8154Q718.0063,1946.7869,626.1338,1972.6891L511.15805,1971.3839"/> </g> <g style="fill:rgb(255,185,112); fill-opacity:1.0; stroke-linejoin: miter"> <path d="M-64.535614,-59.71118L-64.53578,-59.710022L-64.53595,-59.708862L-64.535614,-59.71118"/> </g> <g style="fill:rgb(0,0,0); fill-opacity:0.30980393; stroke-linejoin: miter"> <path d="M1467.5857,1730.5166L1460.8528,1742.3616Q1406.7101,1846.2087,1335.0107,1898.3364Q1254.2577,1954.6335,1225.5453,1950.4512Q1219.7706,1949.0652,1215.662,1946.3398L1229.1556,1878.5309Q1137.0415,2010.8038,1053.294,2045.4861Q1009.53784,2068.3186,882.29614,2079.1558Q907.5311,2003.403,914.0084,1965.1992Q885.301,2018.6284,739.3529,2094.0854Q640.6677,2142.0945,563.91864,2139.4348Q398.4864,2132.7126,267.11908,1985.7498L295.01666,2083.082Q173.6358,2084.567,110.02173,2055.2969Q50.57251,2030.5986,-23.037872,1970.1907Q-90.75467,1915.4519,-102.27551,1874.2582L-84.49571,1956.4019Q-142.55821,1949.575,-163.02335,1938.3789Q-222.57312,1919.6127,-338.94678,1750.8253L-292.90674,1899.5286L-203.42444,2038.5072L-83.15637,2118.1301L-1.119873,2123.4065L47.544586,2179.6155L129.76804,2225.478L199.01953,2246.2324L283.97467,2246.381L363.02252,2191.548L390.27783,2241.0503L464.97095,2292.543L583.2829,2322.211L666.55304,2316.0305L741.08923,2279.571L799.3805,2221.1182L860.3424,2241.3057L949.0276,2239.1777L1026.5968,2216.4092L1081.0883,2179.7334L1115.5515,2129.2275L1192.6588,2117.897L1260.722,2097.5947L1330.8579,2032.3724L1394.8402,1941.8075L1445.6844,1831.3188L1467.5857,1730.5166"/> </g> <g style="fill:rgb(0,0,0); fill-opacity:0.30980393; stroke-linejoin: miter"> <path d="M910.3477,2676.0146L876.39923,2706.3442L842.45074,2736.6738L910.3477,2676.0146"/> </g> <g style="fill:rgb(0,0,0); fill-opacity:0.30980393; stroke-linejoin: miter"> <path d="M779.7281,714.91437L779.72845,714.9148L779.7288,714.9153L779.7281,714.91437"/> </g> <g style="fill:rgb(255,217,0); fill-opacity:1.0; stroke-linejoin: miter"> <path d="M1204.0103,409.39978L1204.0103,409.39993L1146.8291,413.2601Q1144.8873,526.43994,1142.9457,639.6199Q1171.2755,643.64526,1199.6053,647.67065L1204.0103,409.39978"/> </g> <g style="fill:rgb(255,202,0); fill-opacity:1.0; stroke-linejoin: miter"> <path d="M795.76526,371.7784L798.72894,597.606L1088.5828,629.92004L1093.3809,392.93082L941.0499,372.17618L795.76526,371.7784"/> </g> <g style="fill:rgb(255,202,0); fill-opacity:1.0; stroke-linejoin: miter"> <path d="M751.0451,595.3129L742.2707,357.71124L628.63556,347.69556Q466.65204,351.86963,290.61163,350.6123L135.7202,358.44586Q-18.58368,381.29095,-166.67297,400.31305L-253.70818,410.20535L-240.29218,657.74426L-142.06348,632.0398L-14.712418,625.3522Q123.53352,610.47516,348.71814,589.80035L751.0451,595.3129"/> </g> <g style="fill:rgb(0,0,0); fill-opacity:0.30980393; stroke-linejoin: miter"> <path d="M982.08655,322.42584L981.21814,380.80533L1089.2952,392.94666L1091.3452,496.35617Q1030.187,555.74927,1003.90234,558.8489L796.54443,559.0127Q702.93384,536.0924,558.16187,536.10657Q312.45337,536.2822,61.445496,553.96497Q-76.73639,561.0307,-243.0647,621.69763L-244.38672,664.12744L-122.44348,635.36414Q-74.58411,628.39844,258.28455,600.5654L412.2915,595.21716Q738.08594,604.75366,748.7406,600.28577L743.7809,643.89636Q1020.7595,664.36316,1086.1372,676.91003Q1149.0812,741.74023,1200.3646,767.24646Q1225.8882,788.8988,1444.1816,835.5645Q1473.7195,846.5986,1449.5579,855.961Q1174.0092,942.6378,952.78625,947.1997Q835.2871,948.1784,698.8086,931.8622Q644.58777,929.2345,292.06494,865.9787Q224.53125,855.1898,143.64166,850.91113Q-80.09357,843.4465,-327.8118,890.49164Q-586.65753,934.5034,-765.19415,1089.5579L-811.7149,1201.2094L-825.4197,1313.8501L-787.1169,1386.1196L-723.83154,1447.6675L-624.5405,1489.7988Q-485.1549,1517.9136,-360.20044,1523.5815L-363.88223,1380.0227Q-336.37683,1221.9102,-296.50134,1118.0331Q-175.22723,1098.8887,-34.892334,1099.7488Q149.98523,1099.2875,368.59436,1119.89Q465.8064,1131.2085,480.0244,1134.5903L738.577,1183.5797Q793.84424,1190.9673,858.6516,1190.5421Q1105.1061,1187.768,1412.4392,1110.6339Q1492.9753,1346.469,1481.1052,1361.3926L1596.1465,1307.9153L1702.564,1243.066Q1813.6458,1152.2959,1865.6338,1066.2341L1902.5789,980.9695L1884.4348,905.31854L1809.3462,819.0066L1729.7446,784.7914L1595.5679,747.3054L1472.8716,726.06665Q1333.2886,691.067,1250.0586,675.16064L1197.3425,645.2046Q1189.5082,611.04285,1201.3103,413.01932L1174.0272,403.10007L1161.9973,355.34354L1077.608,331.49503L982.08655,322.42584"/> </g> <g style="fill:rgb(0,0,0); fill-opacity:0.30980393; stroke-linejoin: miter"> <path d="M981.44775,368.06564L982.0828,328.05673L953.9126,320.9307L856.33704,316.49667L780.3264,319.08856L746.5314,316.08273Q746.5496,384.27695,750.91064,517.0679L743.8612,548.16187L794.41766,557.9259L789.0919,506.29608Q790.3516,445.86475,790.2429,390.79987L797.3617,356.7914L872.41943,365.99142L981.44775,368.06564"/> </g> <g style="fill:rgb(0,0,0); fill-opacity:0.30980393; stroke-linejoin: miter"> <path d="M-400.22913,-330.05908L-400.22922,-330.05762L-400.2293,-330.05615L-400.22913,-330.05908"/> </g> <g style="fill:rgb(255,255,255); fill-opacity:0.40392157; stroke-linejoin: miter"> <path d="M-247.88376,463.13257L-250.4633,405.44727Q-190.76497,401.7416,-135.00192,395.78546Q-111.748566,393.56787,-3.264862,379.85837L118.338425,369.69754Q159.21794,365.74365,261.19672,353.40027L392.87848,344.88953L485.50946,347.17664L560.68353,347.02356L669.63416,353.82703Q709.45996,352.82605,724.5664,354.592Q742.027,356.42676,745.8805,363.41406Q749.5992,371.18887,739.7796,388.78857Q529.1046,392.03723,443.492,394.6208Q323.4253,398.35132,247.47475,404.34543Q167.5067,410.5059,-247.88374,463.13257"/> </g> <g style="fill:rgb(255,255,255); fill-opacity:0.30980393; stroke-linejoin: miter"> <path d="M254.77359,-718.5105L254.7734,-718.5093L254.77322,-718.50806L254.77359,-718.5105"/> </g> <g style="fill:rgb(0,0,0); fill-opacity:0.20784314; stroke-linejoin: miter"> <path d="M777.2003,1370.1272L711.8744,1326.7866L665.1068,1338.861L675.6,1372.6543L720.66187,1401.9734L800.0285,1446.3154L907.4934,1448.0947L994.62665,1416.1633L1054.915,1360.314L1078.6562,1327.3401L1104.8267,1270.2288L1108.5419,1236.6858L1090.5981,1216.1543L777.2003,1370.1272"/> </g> <g style="fill:rgb(0,0,0); fill-opacity:0.20392157; stroke-linejoin: miter"> <path d="M478.22375,1359.2179L425.5652,1333.489L380.62454,1348.8357L304.28613,1384.699L176.65825,1359.38L79.2995,1277.5459L37.517944,1226.7682L39.783627,1291.0156L79.61188,1363.7023L149.78018,1418.8964L223.17801,1453.5652L344.5426,1449.4355L400.29373,1415.375L478.22375,1359.2179"/> </g> <g style="fill:rgb(0,0,0); fill-opacity:0.20784314; stroke-linejoin: miter"> <path d="M202.48116,1640.8325L199.63058,1713.6516L243.41582,1812.3617Q267.0467,1837.2676,333.22128,1898.6212L385.53738,1936.3889L396.2143,1874.8066Q446.34778,1874.7611,503.23938,1878.8943Q509.61255,1882.428,512.0607,1899.859Q515.00073,1909.0237,512.0482,1965.1509L577.95166,1971.9054L686.8273,1957.2051L774.7527,1909.4879L851.55835,1848.8182L910.88403,1763.0471L863.1155,1742.5022L730.8219,1840.2104L612.56714,1828.6024L551.2258,1776.9845L471.62506,1773.3096L368.19775,1735.1526L283.66742,1637.3076L202.48116,1640.8325"/> </g> <g style="fill:rgb(0,0,0); fill-opacity:0.10980392; stroke-linejoin: miter"> <path d="M869.88306,2277.5186L869.88275,2277.5195L869.88245,2277.5205L869.88306,2277.5186"/> </g> <g style="fill:rgb(0,0,0); fill-opacity:1.0; stroke-linejoin: miter"> <path d="M1261.5961,-548.65955L1261.5964,-548.6583L1261.6946,-548.26196L1261.6943,-548.2632C1264.7428,-535.9696,1267.8894,-523.25696,1270.3169,-509.32764L1270.3169,-509.32764C1273.5083,-491.01318,1275.4463,-470.6742,1274.5181,-445.86694L1274.5181,-445.86694C1272.8806,-402.11133,1262.3162,-344.2307,1233.8818,-287.17236L1233.8818,-287.17236C1205.5447,-230.30884,1159.7366,-174.86108,1119.672,-133.53857L1119.672,-133.53857C1079.4111,-92.014404,1044.3909,-64.19141,1009.8855,-36.7666L1012.40027,-52.43701C1037.8843,-13.624512,1063.8083,25.83496,1088.7302,80.31885L1088.7302,80.31885C1113.5605,134.60352,1137.2926,203.55933,1153.4264,259.36157L1153.4264,259.36157C1169.6077,315.32812,1178.2034,358.26953,1186.7252,400.82422L1175.1802,391.36768L1202.7792,391.35156C1209.2646,391.3479,1214.5305,396.59204,1214.5532,403.07715L1214.5532,403.07715L1215.417,648.17285L1208.865,637.666C1243.2517,654.666,1277.0225,671.35693,1333.5986,687.3003L1333.5986,687.3003C1390.5593,703.3523,1470.7434,718.67017,1539.6873,728.36914L1539.6873,728.36914C1553.9883,730.3811,1567.9902,732.1753,1581.4541,733.8989L1581.4541,733.8989C1594.1282,735.522,1606.5686,737.11523,1618.6396,738.8135L1618.6394,738.8135C1655.3008,743.9712,1689.7312,750.2449,1723.0142,762.2749L1723.0142,762.2749C1778.7544,782.4221,1830.5239,818.4292,1863.7002,855.46533L1863.7,855.46533C1891.7358,886.7622,1906.696,919.0188,1911.9177,948.98413L1911.9177,948.9844C1912.9177,954.7251,1913.5603,960.3789,1913.8674,965.9133L1913.8672,965.91284C1915.8408,1001.43945,1903.8726,1030.9666,1868.8657,1080.1931L1868.8657,1080.1931C1833.9502,1129.292,1774.2366,1200.5454,1705.2607,1253.6318L1705.2607,1253.6318C1636.217,1306.7695,1558.352,1341.3062,1481.9958,1375.2322L1488.9663,1363.8125C1494.3379,1458.5679,1499.7903,1554.3579,1490.8613,1649.999L1490.8613,1649.999C1481.928,1745.6841,1458.5815,1841.6143,1414.9912,1924.2515L1414.9912,1924.2515C1371.5537,2006.5996,1307.9241,2075.8545,1254.3694,2108.9824L1254.3694,2108.9824C1199.4509,2142.954,1155.53,2138.6245,1114.647,2134.6895L1125.8364,2129.0776C1109.3147,2156.3242,1091.6885,2185.5781,1054.9272,2210.334L1054.9272,2210.334C1018.89825,2234.5972,964.5577,2254.5132,917.9788,2257.4746L917.9792,2257.474C870.8016,2260.4746,832.2288,2245.9917,796.0684,2232.5469L808.1342,2230.1797C775.2238,2260.4424,740.67267,2292.355,696.85614,2311.5928L696.85614,2311.5928C652.93866,2330.8745,600.3337,2337.2466,549.8365,2329.1514L549.8365,2329.1514C499.45868,2321.0757,451.20148,2298.6055,418.73065,2274.2666L418.73102,2274.2666C385.80743,2249.5898,369.2796,2223.0728,353.685,2198.1729L371.74774,2200.4722C353.9626,2217.3105,334.56903,2235.812,302.5794,2246.9692L302.5794,2246.9692C271.15692,2257.9287,228.28839,2261.6128,186.76093,2255.982L186.76093,2255.982C145.07208,2250.3286,104.10126,2235.2046,71.01361,2211.5928L71.01337,2211.5928C38.038147,2188.0605,13.451355,2156.4097,-9.957581,2126.401L2.8049927,2130.4028C-17.159607,2136.5918,-39.629944,2143.6929,-69.1723,2138.17L-69.1723,2138.17C-98.28021,2132.728,-133.00873,2115.351,-171.20099,2081.6143L-171.20111,2081.6143C-209.3628,2047.9048,-251.70795,1997.2251,-282.98096,1937.6182L-282.98102,1937.6187C-314.28467,1877.9556,-334.29547,1809.7236,-347.65668,1738.2666L-347.6563,1738.2681C-348.53375,1733.5796,-349.3681,1728.9536,-350.18988,1724.2373L-350.18988,1724.2373C-361.89386,1657.0728,-368.24347,1586.8765,-374.54547,1517.2778L-363.10138,1527.981C-426.17462,1526.5063,-490.2232,1525.0261,-548.7441,1516.1453L-548.7441,1516.1453C-607.4683,1507.2339,-660.8818,1490.8542,-709.31146,1464.3662L-709.3112,1464.3662C-757.3775,1438.0784,-801.5739,1401.2441,-824.18024,1357.2305L-824.1805,1357.2302C-831.643,1342.7007,-836.69415,1327.5005,-839.49725,1311.4124L-839.497,1311.4124C-845.2458,1278.4253,-841.46075,1242.2112,-830.43866,1200.9905L-830.43866,1200.9905C-814.0046,1139.531,-780.9366,1064.9453,-717.4792,988.5464L-717.4792,988.5464C-654.24786,912.41943,-561.01373,834.7175,-477.95868,778.5034L-477.95868,778.5034C-394.68414,722.1411,-321.31464,687.167,-248.6803,652.5288L-255.37836,663.4568L-262.1391,404.2666C-262.30505,397.9004,-257.3766,392.55737,-251.01776,392.2102L-251.01776,392.2102L-212.2873,390.09375L-222.87543,398.32935L-222.86432,398.2937L-222.86395,398.29248C-203.60748,336.7871,-184.21039,274.81787,-154.16193,202.0L-154.16193,202.0C-124.0567,129.0437,-83.23724,45.137695,-9.652893,-57.49585L-9.652893,-57.49585C63.73242,-159.85205,169.84515,-281.01904,267.27277,-364.99585L267.27277,-364.99585C364.90057,-449.14514,453.9668,-496.0985,528.5575,-519.51587L528.55756,-519.51587C603.3575,-542.99854,663.8917,-542.88306,720.744,-524.71045L720.744,-524.7106C770.99084,-508.64966,817.74036,-478.61096,857.93,-452.85693L857.9299,-452.85706C862.6835,-449.8109,867.2789,-446.8662,871.86597,-443.95166L871.8661,-443.95166C915.7607,-416.062,950.6932,-396.36304,993.5129,-393.9851L993.5129,-393.9851C1036.8223,-391.57983,1089.4392,-406.90137,1131.9412,-436.01758L1131.9412,-436.01758C1174.4495,-465.1383,1206.9365,-508.03638,1240.7798,-552.9126C1243.5122,-556.53564,1248.0842,-558.2649,1252.5303,-557.35645C1256.9763,-556.448,1260.5039,-553.0642,1261.5961,-548.65955L1261.5961,-548.65955 M1238.7535,-542.9951L1259.5698,-538.7422C1226.205,-494.50037,1191.4839,-448.28052,1145.2417,-416.60205L1145.2417,-416.60205C1098.9923,-384.91846,1041.3182,-367.75952,992.2079,-370.48682L992.2079,-370.48682C942.60846,-373.24146,902.99536,-396.28955,859.2449,-424.08765L859.24493,-424.08765C854.574,-427.05542,850.0174,-429.9756,845.2324,-433.04187L845.2323,-433.04187C804.54913,-459.11218,760.38354,-487.33276,713.5785,-502.29346L713.5785,-502.29346C662.0323,-518.7699,606.51495,-519.3229,535.6067,-497.06177L535.60675,-497.06177C464.49,-474.73523,378.19153,-429.531,282.63803,-347.16968L282.63803,-347.16968C186.88425,-264.6355,81.99359,-144.93213,9.473633,-43.78296L9.473572,-43.78296C-62.849182,57.091064,-102.84332,139.3335,-132.40692,210.97705L-132.40692,210.97705C-162.01593,282.7307,-181.1419,343.79932,-200.4046,405.32422L-200.40399,405.32275L-200.41522,405.35815C-201.88226,410.0437,-206.10223,413.32568,-211.00336,413.5935L-211.00336,413.5935L-249.73389,415.70947L-238.61273,403.65283L-231.85193,662.843C-231.73065,667.4888,-234.35516,671.7705,-238.54987,673.771L-238.54987,673.771C-311.19366,708.41406,-383.11273,742.7273,-464.7674,797.9934L-464.7674,797.9934C-546.6464,853.4116,-637.9969,929.68774,-699.3754,1003.58374L-699.3754,1003.58374C-760.5269,1077.2068,-792.0921,1148.689,-807.70294,1207.0698L-807.70294,1207.0698C-818.23395,1246.4536,-821.2603,1278.9792,-816.3122,1307.3723L-816.3121,1307.3723C-813.9086,1321.1663,-809.6058,1334.0945,-803.24567,1346.478L-803.2458,1346.478C-783.6351,1384.6594,-743.94305,1418.6008,-698.01825,1443.718L-698.0181,1443.7183C-652.45624,1468.6375,-601.788,1484.2915,-545.21295,1492.8772L-545.21295,1492.8772C-488.4449,1501.492,-425.97357,1502.9702,-362.55133,1504.4526C-356.5705,1504.5928,-351.6463,1509.1975,-351.107,1515.1558L-351.107,1515.1558C-344.7885,1584.9365,-338.513,1654.1572,-327.00494,1720.1973L-327.00494,1720.1973C-326.2038,1724.7949,-325.377,1729.3789,-324.52356,1733.94L-324.52313,1733.9409C-311.41742,1804.0312,-291.98712,1869.7983,-262.14087,1926.6841L-262.14087,1926.6846C-232.26416,1983.6299,-191.74213,2032.0684,-155.62042,2063.9756L-155.62054,2063.9756C-119.52936,2095.8564,-88.5506,2110.6045,-64.84735,2115.0361L-64.84735,2115.0361C-41.573425,2119.3867,-24.124329,2114.1123,-4.1638794,2107.9238C0.50860596,2106.4756,5.590027,2108.0684,8.598694,2111.9258L8.598694,2111.9258C32.371765,2142.4014,54.954163,2171.2197,84.684265,2192.436L84.68402,2192.436C114.29364,2213.566,151.54889,2227.4565,189.92352,2232.6606L189.92352,2232.6606C228.46454,2237.8867,267.50348,2234.2778,294.82916,2224.7476L294.82904,2224.7476C321.58575,2215.415,337.7718,2200.2305,355.56744,2183.3823C358.1291,2180.957,361.6441,2179.8086,365.14362,2180.254C368.64313,2180.6997,371.758,2182.6914,373.6303,2185.6816L373.6303,2185.6816C389.14362,2210.4517,403.72418,2233.608,432.84564,2255.435L432.846,2255.4355C462.4195,2277.6025,507.1469,2298.4731,553.5618,2305.9136L553.5618,2305.9136C599.8569,2313.3354,647.8566,2307.4033,687.39496,2290.044L687.39496,2290.044C727.0361,2272.6387,758.80096,2243.5718,792.2044,2212.8555C795.46136,2209.8608,800.123,2208.9463,804.2702,2210.4883L804.2702,2210.4883C840.8201,2224.0776,874.9616,2236.6284,916.4854,2233.9878L916.4858,2233.9873C958.6069,2231.3096,1008.96783,2212.9116,1041.7815,2190.8135L1041.7815,2190.8135C1073.8652,2169.2075,1089.2383,2144.043,1105.7126,2116.875C1108.0554,2113.0112,1112.4043,2110.8306,1116.9021,2111.2637L1116.9021,2111.2637C1157.0164,2115.125,1194.0928,2118.5952,1241.9888,2088.9673L1241.9888,2088.9673C1291.248,2058.4966,1352.2507,1992.751,1394.1753,1913.2715L1394.1753,1913.2715C1435.9443,1834.0869,1458.6956,1741.3535,1467.4285,1647.8115L1467.4285,1647.8115C1476.1663,1554.2212,1470.8579,1460.1987,1465.4697,1365.1445C1465.1926,1360.259,1467.968,1355.7122,1472.4397,1353.7251L1472.4397,1353.7251C1549.2039,1319.6177,1624.4517,1286.1272,1690.9067,1234.9814L1690.9067,1234.9814C1757.4236,1183.7876,1815.5857,1114.5063,1849.6863,1066.554L1849.6863,1066.554C1883.6987,1018.7261,1891.8945,994.67676,1890.3691,967.2178L1890.3689,967.2173C1890.1133,962.61035,1889.5764,957.86816,1888.7324,953.0239L1888.7324,953.0244C1884.343,927.8364,1871.5784,899.53174,1846.1704,871.16846L1846.1702,871.1682C1815.6411,837.0864,1767.168,803.25854,1715.0142,784.40796L1715.0142,784.40796C1684.0706,773.2234,1651.5769,767.2134,1615.3608,762.1184L1615.3606,762.11816C1603.4995,760.4497,1591.1272,758.86426,1578.4646,757.2427L1578.4646,757.2427C1565.0078,755.51953,1550.8884,753.7112,1536.4084,751.6741L1536.4084,751.6741C1466.8481,741.8882,1385.5464,726.3906,1327.2151,709.9524L1327.2151,709.9524C1268.4978,693.4055,1233.1565,675.9287,1198.435,658.76294C1194.4358,656.7859,1191.8984,652.7173,1191.8828,648.25586L1191.8828,648.25586L1191.019,403.1604L1202.793,414.886L1175.194,414.9021C1169.5833,414.90527,1164.7507,410.94702,1163.6489,405.44556L1163.6489,405.44556C1155.1366,362.93896,1146.7034,320.84253,1130.8179,265.89844L1130.8179,265.89844C1114.8851,210.79199,1091.5249,143.00684,1067.3285,90.1084L1067.3285,90.1084C1043.2256,37.414307,1018.1964,-0.73046875,992.7275,-39.520508C989.3868,-44.608154,990.4774,-51.40381,995.2421,-55.190674L995.2421,-55.190674C1029.7131,-82.58838,1063.6707,-109.58887,1102.7754,-149.9209L1102.7754,-149.9209C1142.0756,-190.45483,1186.0223,-243.89893,1212.818,-297.6692L1212.818,-297.6692C1239.517,-351.24512,1249.4656,-405.7439,1251.0,-446.74707L1251.0,-446.74707C1251.8602,-469.73682,1250.0713,-488.4187,1247.1318,-505.28735L1247.1318,-505.28735C1244.8666,-518.2859,1241.9188,-530.2302,1238.8516,-542.5989L1238.8513,-542.6001L1238.7532,-542.99634 Z"/> </g> <g style="fill:rgb(0,0,0); fill-opacity:1.0; stroke-linejoin: miter"> <path d="M1880.4333,918.9414L1880.4333,918.9414L1880.4329,918.94116L1882.4135,919.6614C1861.4628,914.10815,1840.6691,908.2827,1777.0813,918.2346L1777.0813,918.2346C1712.4886,928.344,1604.9005,954.5735,1509.4202,980.4768L1509.4202,980.4768C1482.491,987.7825,1456.3857,995.10156,1431.0944,1002.1931L1431.0944,1002.1931C1407.09,1008.9236,1383.5708,1015.5178,1360.4628,1021.78687L1360.4628,1021.78687C1321.8643,1032.2583,1284.0505,1041.9219,1245.8857,1050.1096L1245.8857,1050.1096C1160.6343,1068.3992,1073.7732,1079.3088,971.8165,1082.8013L971.8165,1082.8013C870.0355,1086.2878,752.8633,1082.394,657.1575,1068.1721L657.1576,1068.1724C608.7213,1060.9749,565.90186,1051.1462,524.5825,1041.6672L524.5825,1041.6672C485.1427,1032.6184,447.16235,1023.9104,406.31958,1017.84155L406.31958,1017.8413C405.1687,1017.6704,404.1057,1017.51465,402.94824,1017.3474L402.94946,1017.3474C334.93823,1007.52515,258.50464,1005.1135,175.93945,1002.52515L175.93945,1002.52515C154.9209,1001.8662,133.79028,1001.20435,112.09595,1000.396L112.09595,1000.396C96.21802,999.80444,80.621826,999.157,64.517334,998.489L64.517334,998.489C48.140137,997.8096,32.26245,997.15063,15.749512,996.53516L15.749512,996.53516C-61.038086,993.6741,-138.51562,992.31055,-211.95776,999.656L-211.95776,999.656C-316.2881,1010.0908,-413.042,1038.1714,-502.84888,1075.813L-502.84888,1075.813C-592.9011,1113.5574,-675.0825,1160.541,-725.05005,1203.6372L-725.05005,1203.6372C-774.33105,1246.1414,-792.57446,1285.0828,-811.53467,1325.6477C-814.2864,1331.5354,-821.2898,1334.0774,-827.1775,1331.3254C-833.0652,1328.5735,-835.6072,1321.5701,-832.8552,1315.6829L-832.8552,1315.6829C-813.61646,1274.5212,-793.65845,1231.7322,-740.42065,1185.8157L-740.42065,1185.8157C-687.86865,1140.49,-603.21387,1092.3616,-511.9458,1054.1079L-511.9458,1054.1079C-420.4265,1015.7488,-321.38696,986.949,-214.29956,976.23804L-214.29956,976.23804C-139.14014,968.72095,-60.286377,970.15137,16.625732,973.01685L16.625732,973.01685C33.21753,973.635,49.102295,974.29517,65.492676,974.97485L65.492676,974.97485C81.583984,975.6421,97.17334,976.2893,112.97241,976.8779L112.97241,976.8779C134.5293,977.6809,155.70435,978.345,176.67676,979.00244L176.67676,979.00244C258.90015,981.5803,336.7356,984.0061,406.31372,994.05493L406.3147,994.05493C407.55054,994.23315,408.54834,994.37964,409.77905,994.5625L409.77905,994.56226C451.66357,1000.7864,490.52673,1009.70776,529.8452,1018.7283L529.8452,1018.7283C571.2483,1028.227,613.19836,1037.8472,660.6168,1044.8931L660.61694,1044.8933C754.5154,1058.8469,870.1881,1062.7341,971.01086,1059.2805L971.01086,1059.2805C1071.6603,1055.8328,1157.135,1045.0803,1240.9487,1027.0991L1240.9487,1027.0991C1278.5347,1019.0354,1315.9008,1009.4912,1354.3008,999.0735L1354.3008,999.0735C1377.2533,992.84644,1400.7614,986.2561,1424.7407,979.5325L1424.7407,979.5325C1450.0402,972.4387,1476.1964,965.1052,1503.2582,957.7634L1503.2582,957.7634C1598.7915,931.84546,1707.4634,905.3093,1773.4425,894.98315L1773.4425,894.98315C1840.4247,884.50024,1864.5131,890.5696,1888.4432,896.91235C1889.1238,897.0928,1889.7866,897.33374,1890.4241,897.63257L1890.4241,897.63257L1890.4243,897.63306C1896.3086,900.39185,1898.842,907.39844,1896.0833,913.2827C1893.3241,919.167,1886.3177,921.70044,1880.4333,918.9414 Z"/> </g> <g style="fill:rgb(0,0,0); fill-opacity:1.0; stroke-linejoin: miter"> <path d="M-351.61523,1524.5424L-351.61523,1524.5424L-351.6153,1524.5428C-352.31116,1530.7853,-357.78723,1535.3807,-364.05566,1534.9828C-370.32422,1534.5848,-375.17493,1529.3336,-375.07587,1523.0536L-375.07587,1523.0536C-373.903,1448.7535,-372.7318,1373.5897,-363.28162,1303.4591L-363.28162,1303.4591C-353.81696,1233.2196,-336.07977,1168.1512,-316.15033,1116.316L-316.15033,1116.316C-296.18304,1064.3827,-274.05396,1025.8634,-252.34094,988.04114C-249.10529,982.4049,-241.91327,980.45886,-236.27716,983.69446C-230.64099,986.93005,-228.695,994.1221,-231.93066,999.7584L-231.93066,999.7584C-253.64001,1037.5746,-274.93488,1074.6971,-294.1836,1124.7616L-294.1836,1124.7616C-313.4704,1174.9252,-330.74304,1238.2155,-339.958,1306.6022L-339.958,1306.6022C-349.18842,1375.1019,-350.36682,1448.8265,-351.5443,1523.4249L-375.00488,1521.9357L-375.00482,1521.9347C-374.28467,1515.476,-368.4651,1510.8236,-362.00623,1511.5438C-355.54742,1512.2638,-350.89514,1518.0834,-351.61523,1524.5424 Z"/> </g> <g style="fill:rgb(0,0,0); fill-opacity:1.0; stroke-linejoin: miter"> <path d="M1470.1077,1375.6613L1470.1077,1375.6613L1470.1072,1375.6608C1468.2902,1373.9017,1467.0884,1371.6041,1466.6796,1369.1083L1466.6796,1369.1083C1455.8379,1302.9103,1445.149,1237.7887,1426.7986,1179.8534L1426.7986,1179.8534C1408.4849,1122.0339,1382.4431,1071.0883,1355.8888,1019.1942C1352.9282,1013.4088,1355.2184,1006.3187,1361.0039,1003.3583C1366.7893,1000.3978,1373.8792,1002.688,1376.8396,1008.4734L1376.8396,1008.4734C1403.2826,1060.1498,1430.2394,1112.7765,1449.2346,1172.747L1449.2346,1172.747C1468.1943,1232.6061,1479.1256,1299.4896,1489.9047,1365.3048L1486.477,1358.7523L1486.4777,1358.7528C1491.1467,1363.2733,1491.2673,1370.7228,1486.7468,1375.392C1482.2263,1380.0612,1474.7767,1380.1815,1470.1077,1375.6613 Z"/> </g> <g style="fill:rgb(0,0,0); fill-opacity:1.0; stroke-linejoin: miter"> <path d="M478.54388,1368.72L478.54388,1368.72L27.133667,1143.4812L44.010986,1134.7837C36.331665,1183.511,29.275879,1229.3425,43.0166,1277.0491L43.0166,1277.0491C56.80493,1324.9209,91.79468,1375.2563,143.3479,1406.8586L143.34802,1406.8586C195.10144,1438.584,263.565,1451.4897,321.0683,1439.1187L321.0683,1439.1187C378.56012,1426.7502,426.2115,1389.043,476.46313,1348.989L478.54388,1368.72 M489.05133,1347.6616C492.64703,1349.4556,495.0785,1352.9604,495.5,1356.9565C495.9215,1360.9529,494.27448,1364.888,491.13208,1367.3926L491.13208,1367.3926C441.79333,1406.7192,389.85358,1448.3936,326.01807,1462.1267L326.01807,1462.1267C262.1953,1475.8574,187.59424,1461.5864,131.04834,1426.9233L131.04846,1426.9231C74.30249,1392.1377,35.75598,1336.8721,20.401733,1283.5627L20.401733,1283.5627C4.999756,1230.0886,13.193481,1179.155,20.763672,1131.1201C21.347412,1127.4148,23.662842,1124.21,26.996948,1122.492C30.331055,1120.7737,34.28479,1120.748,37.64099,1122.4226L37.64099,1122.4226L489.05133,1347.6616 Z"/> </g> <g style="fill:rgb(0,0,0); fill-opacity:1.0; stroke-linejoin: miter"> <path d="M653.27386,1340.4346L653.27386,1340.4346L1093.294,1109.7649C1096.4583,1108.1061,1100.2048,1107.9749,1103.4775,1109.4078C1106.7502,1110.841,1109.1947,1113.6833,1110.1217,1117.1337L1110.1226,1117.1368L1110.1768,1117.3385L1110.1758,1117.3354C1118.7052,1149.082,1127.7485,1182.5592,1127.7485,1217.9637L1127.7485,1217.9636C1127.7485,1220.632,1127.6973,1223.3217,1127.591,1226.0171L1127.591,1226.0168C1126.0623,1264.7823,1113.1711,1305.371,1087.2161,1343.4258L1087.2161,1343.4258C1061.3566,1381.3403,1022.43225,1416.8804,976.0692,1439.903L976.0692,1439.903C929.8095,1462.8743,876.01605,1473.4324,829.5344,1468.5828L829.5345,1468.5828C782.7847,1463.7054,744.34705,1443.3503,715.86914,1422.4636L715.8692,1422.4636C687.29034,1401.5032,668.1945,1379.5818,649.87286,1358.5955C647.5035,1355.8816,646.50806,1352.2317,647.1712,1348.6906C647.8343,1345.1494,650.08307,1342.1073,653.27386,1340.4346L653.27386,1340.4346 M664.2007,1361.2786L667.6017,1343.1177C685.9594,1364.1453,703.5388,1384.2344,729.7878,1403.4861L729.78784,1403.4861C756.1362,1422.8109,790.67267,1440.866,831.9766,1445.1754L831.9767,1445.1754C873.549,1449.5127,922.88934,1440.0343,965.6022,1418.8242L965.6022,1418.8242C1008.2114,1397.6658,1044.0957,1364.8805,1067.7734,1330.1649L1067.7734,1330.1649C1091.355,1295.5901,1102.728,1259.2441,1104.0747,1225.0894L1104.0747,1225.0892C1104.1685,1222.7169,1104.2142,1220.3259,1104.2141,1217.9639L1104.2141,1217.9639C1104.2141,1186.1687,1096.1057,1155.6686,1087.4475,1123.4419L1087.4465,1123.4387L1087.3923,1123.237L1104.221,1130.6089L664.2007,1361.2786 Z"/> </g> <g style="fill:rgb(0,0,0); fill-opacity:1.0; stroke-linejoin: miter"> <path d="M663.7778,1610.2639L663.7771,1610.2639L662.38165,1610.1494L662.3824,1610.1494C520.69714,1598.5311,380.49393,1587.091,298.86588,1590.374L298.86588,1590.374C216.61751,1593.682,201.76685,1611.4357,197.38683,1637.082L197.38683,1637.082C192.04913,1668.3354,202.77188,1717.0089,228.40474,1763.4099L228.40474,1763.4099C253.88052,1809.5269,293.608,1852.4388,324.1801,1880.324L324.18005,1880.324C354.37595,1907.8657,374.9696,1920.1512,396.10974,1932.7664L378.425,1941.2487L388.04544,1872.1414C388.89322,1866.0515,394.28644,1861.641,400.42334,1862.0188L400.42334,1862.0188L508.54413,1868.675C514.4122,1869.0363,519.1131,1873.6731,519.55505,1879.5356L519.55505,1879.5356L526.5403,1972.2163L515.57526,1961.3585C557.13025,1964.0801,597.04755,1966.6403,647.49976,1953.5079L647.49976,1953.5079C698.461,1940.2435,760.3326,1910.9003,806.6675,1875.2499L806.6675,1875.2499C852.6532,1839.8682,883.4662,1798.155,905.13434,1752.9767L905.13434,1752.9767C927.16534,1707.0415,938.9312,1659.3066,936.56464,1632.7631L936.56464,1632.7631C934.6996,1611.8444,924.4696,1604.4329,895.8771,1600.1168L895.8787,1600.1171C895.3139,1600.032,894.8127,1599.9584,894.24066,1599.8767L894.2384,1599.8763C863.67584,1595.5106,819.55426,1595.7405,774.0433,1596.0092L785.70856,1585.1154L779.9223,1662.876C779.455,1669.1554,774.12714,1673.9542,767.83307,1673.7646L767.83307,1673.7646L665.09753,1670.6682C658.7934,1670.4781,653.76013,1665.3517,653.6856,1659.0452L653.6856,1659.0452L652.9731,1598.6748L663.7778,1610.2639 M665.7011,1586.8082C671.75354,1587.3044,676.43427,1592.3248,676.50586,1598.3972L676.50586,1598.3972L677.21844,1658.7675L665.8066,1647.1444L768.54205,1650.241L756.4528,1661.1294L762.2391,1583.3689C762.69415,1577.2526,767.77106,1572.5114,773.90436,1572.4751L773.90436,1572.4751C818.69293,1572.2109,864.8707,1571.9081,897.56647,1576.5785L897.56415,1576.5781C898.2041,1576.6694,898.75964,1576.751,899.3882,1576.8457L899.3898,1576.846C931.9148,1581.7556,956.67773,1593.342,960.00604,1630.6732L960.00604,1630.6732C962.93005,1663.4703,949.06006,1715.812,926.35443,1763.1539L926.35443,1763.1539C903.28564,1811.2526,870.2617,1856.0144,821.01874,1893.9022L821.01874,1893.9022C772.1255,1931.521,707.3771,1962.2413,653.4279,1976.2836L653.4279,1976.2836C598.9697,1990.4587,555.6842,1987.5702,514.03735,1984.8428C508.18823,1984.4597,503.51288,1979.8302,503.0724,1973.9851L503.0724,1973.9851L496.08713,1881.3044L507.09796,1892.165L398.97723,1885.5088L411.3551,1875.3864L401.73468,1944.4937C401.1908,1948.4006,398.72552,1951.7751,395.16882,1953.4811C391.61218,1955.187,387.43732,1954.9973,384.05,1952.9761L384.05,1952.9761C362.42383,1940.071,340.2513,1926.836,308.32043,1897.7119L308.32037,1897.7119C276.7662,1868.931,235.0054,1824.0295,207.80453,1774.7899L207.80453,1774.7899C180.76016,1725.8336,167.61572,1671.6041,174.1883,1633.12L174.1883,1633.12C181.71848,1589.0283,214.55511,1570.2113,297.92014,1566.8584L297.92014,1566.8584C381.35962,1563.5027,523.38513,1575.1381,664.3057,1586.6937L664.3064,1586.6937L665.7018,1586.8082 Z"/> </g> <g style="fill:rgb(0,0,0); fill-opacity:1.0; stroke-linejoin: miter"> <path d="M-237.66913,651.06445L-237.66913,651.06445L-237.66907,651.06445L-246.98816,649.73267L-246.9552,649.72363L-246.9552,649.72363L-246.92224,649.71436L-246.92267,649.71436C-208.6308,639.13306,-169.80176,628.39844,-140.18219,622.1985L-140.18213,622.1985C-112.46216,616.3965,-92.679016,614.5493,-29.59314,608.60815L-29.594177,608.60815L-12.740906,607.01953L-12.744751,607.02L-1.6461182,605.9702L-1.6461182,605.9702L10.922424,604.78125L10.923767,604.781C89.7384,597.3347,209.17035,586.28394,308.87177,581.7766L308.87177,581.7766C406.70148,577.3533,485.45502,579.2317,550.1857,580.7732L550.1856,580.7732C558.6047,580.97363,566.5081,581.16187,574.4705,581.33716L574.4705,581.33716C643.4875,582.85596,695.9743,582.8821,748.55096,582.9082C751.7542,582.90967,754.81854,584.21704,757.0362,586.52856C759.2537,588.8401,760.4333,591.9558,760.3024,595.15625L760.3024,595.15625L758.2044,646.44556L747.03314,634.2119C805.259,637.1155,863.74164,640.031,921.16986,645.01636L921.16974,645.01636C929.80145,645.76587,938.36017,646.5571,946.9465,647.4075L946.9465,647.4075C1012.6319,653.91113,1076.6228,663.55786,1140.262,673.14966L1126.7917,683.69434L1130.4998,643.86816C1131.0796,637.6433,1136.4258,632.95825,1142.6729,633.2009L1142.6729,633.2009L1202.5276,635.52466C1209.0215,635.77686,1214.0813,641.24585,1213.8293,647.73975C1213.5771,654.23364,1208.1082,659.29346,1201.6143,659.0415L1201.6143,659.0415L1141.7598,656.7175L1153.9329,646.05005L1150.2249,685.8762C1149.9246,689.0989,1148.3103,692.0559,1145.7617,694.051C1143.2131,696.04614,1139.9551,696.90356,1136.7544,696.42114L1136.7544,696.42114C1073.0225,686.8157,1009.623,677.2627,944.6275,670.8274L944.6275,670.8274C936.1507,669.98804,927.67035,669.20386,919.1346,668.46265L919.13446,668.4629C862.2039,663.52075,804.17096,660.625,745.8608,657.7173C739.41095,657.3955,734.4256,651.93604,734.6895,645.48364L734.6895,645.48364L736.78766,594.1946L748.5391,606.4426C695.93866,606.41675,643.257,606.39087,573.9527,604.86597L573.9527,604.86597C565.75836,604.68555,558.2463,604.5061,549.62555,604.301L549.6254,604.3008C484.9323,602.76,406.8852,600.90356,309.9347,605.28735L309.9347,605.28735C210.9002,609.76465,92.01996,620.75854,13.137451,628.2112L13.138672,628.21094L0.5701904,629.3999L0.5701904,629.3999L-10.528442,630.4497L-10.532227,630.44995L-27.385498,632.03906L-27.386536,632.03906C-90.8902,638.0193,-109.21863,639.76196,-135.36053,645.23364L-135.36047,645.23364C-164.08545,651.24634,-202.09302,661.74316,-240.65442,672.3989L-240.65497,672.3987L-240.68793,672.40796L-240.68793,672.40796L-240.72095,672.417C-243.87701,673.28955,-247.25415,672.8069,-250.04004,671.08545L-250.04004,671.08545L-250.0401,671.08545C-255.56866,667.6692,-257.28107,660.41797,-253.86493,654.8894C-250.44891,649.36084,-243.1977,647.6482,-237.66913,651.06445 Z"/> </g> <g style="fill:rgb(0,0,0); fill-opacity:1.0; stroke-linejoin: miter"> <path d="M-209.60684,389.5251L-209.61838,389.52643L-209.5878,389.52286L-209.5878,389.52286L-209.55722,389.5193L-209.54568,389.51794C-121.04799,379.2729,-32.64524,369.03888,28.522131,361.69104L28.518185,361.69153L42.655853,359.98834L42.655743,359.98837L55.252216,358.47076L55.256275,358.47028C101.46317,352.91962,136.37598,349.00375,204.35936,344.412L204.35936,344.412C284.47626,339.0007,410.86163,332.62726,508.07275,332.62726L508.07434,332.62726L508.5285,332.62732L508.52933,332.62732C606.0075,332.64737,673.89624,339.09985,741.3836,345.51135L728.51135,356.79553L730.04504,314.8833C730.27795,308.518,735.5334,303.49356,741.9027,303.54678L741.90247,303.54678L742.57245,303.55237L742.5727,303.55237C828.599,304.2713,915.1504,305.00058,983.3543,310.15616L983.3543,310.15616C1051.9825,315.3438,1101.9731,325.00363,1151.4348,334.55536C1154.5557,335.15805,1157.2999,336.99765,1159.0432,339.65552C1160.7865,342.3134,1161.3804,345.5634,1160.6897,348.666L1160.6897,348.666C1157.5936,362.57428,1154.3926,376.53656,1153.2659,425.84183L1153.2659,425.84183C1152.1292,475.5892,1153.1191,560.577,1154.1154,645.95166C1154.1912,652.45013,1148.9846,657.7796,1142.4862,657.85547C1135.9878,657.93134,1130.6582,652.7248,1130.5824,646.2263L1130.5824,646.2263C1129.5887,561.06995,1128.5891,475.56192,1129.7375,425.30417L1129.7375,425.30417C1130.8958,374.61752,1134.2543,359.11005,1137.7175,343.55228L1146.9724,357.6629C1097.5978,348.128,1048.7516,338.70114,981.5804,333.62363L981.5804,333.62363C914.3357,328.54056,828.66565,327.80713,742.37604,327.086L742.3763,327.086L741.7063,327.0804L753.5637,315.7439L752.03,357.65613C751.91156,360.89352,750.4637,363.9389,748.0276,366.07443C745.59155,368.20996,742.3828,369.2467,739.1578,368.9403L739.1578,368.9403C671.792,362.54037,604.828,356.18155,508.5245,356.16174L508.52533,356.16174L508.07117,356.16168L508.07275,356.16168C411.6233,356.16168,285.83328,362.4971,205.94533,367.89294L205.94533,367.89294C138.48184,372.4496,103.99405,376.3192,58.063206,381.83673L58.067265,381.83624L45.47079,383.35385L45.47068,383.35388L31.333012,385.057L31.329065,385.0575C-29.909979,392.41394,-118.35362,402.6526,-206.83926,412.89624L-206.82773,412.8949L-206.8583,412.89847L-206.8583,412.89847L-206.88889,412.90204C-213.35617,413.65073,-219.19542,409.0232,-219.94278,402.56744C-220.69014,396.1117,-216.06259,390.27243,-209.60684,389.5251 Z"/> </g> <g style="fill:rgb(0,0,0); fill-opacity:1.0; stroke-linejoin: miter"> <path d="M736.438,596.18506L736.438,596.18506L728.52026,350.83057C728.3106,344.33508,733.4063,338.89954,739.9018,338.68994C746.3973,338.48032,751.8328,343.57602,752.0424,350.0715L752.0424,350.0715L759.9602,595.426C760.1698,601.9215,755.0741,607.35706,748.5786,607.56665C742.0831,607.77625,736.6476,602.68054,736.438,596.18506 Z"/> </g> <g style="fill:rgb(0,0,0); fill-opacity:1.0; stroke-linejoin: miter"> <path d="M1079.5146,630.90125L1079.5146,630.90125L1084.4974,393.19073L1094.6544,405.09424C1038.0765,397.29077,981.8218,389.534,931.1178,384.7575L931.1178,384.7575C880.47156,379.98645,835.274,378.1811,789.75433,376.3653L801.98987,364.4729L804.62775,595.1865L794.264,583.63776L1092.682,619.4645L1079.5146,630.90125 M1103.044,631.3945C1102.9744,634.71594,1101.5039,637.8533,1098.9956,640.03186C1096.4874,642.21045,1093.1753,643.22723,1089.8767,642.8312L1089.8767,642.8312L791.4586,607.0045C785.5957,606.3006,781.16235,601.36035,781.09485,595.4557L781.09485,595.4557L778.4569,364.74194C778.42004,361.51654,779.7088,358.41748,782.02185,356.16925C784.3349,353.92108,787.46936,352.72095,790.69244,352.84955L790.69244,352.84955C836.1617,354.66333,881.9611,356.4881,933.3251,361.32678L933.3251,361.32678C984.63,366.1599,1041.4174,373.99432,1097.8699,381.78046C1103.7854,382.59637,1108.152,387.71375,1108.0269,393.68396L1108.0269,393.68396L1103.044,631.3945 Z"/> </g> <g style="fill:rgb(0,0,0); fill-opacity:1.0; stroke-linejoin: miter"> <path d="M-18.29383,2117.9106L-20.679657,2114.6858Q-39.4774,2089.913,-57.02334,2048.9014Q-81.81882,1991.3273,-95.08307,1945.3488Q-105.72692,1908.6461,-109.245,1878.0814Q-112.60405,1856.8353,-112.98874,1801.6482Q-77.862175,1947.5876,-55.611694,1996.1458Q-39.30787,2040.754,30.271027,2142.4316L-18.29383,2117.9106"/> </g> <g style="fill:rgb(0,0,0); fill-opacity:1.0; stroke-linejoin: miter"> <path d="M346.4081,2195.5684L339.63525,2184.593Q294.3379,2113.6794,276.87506,2059.8916Q260.3626,2012.415,254.64154,1908.2384Q270.31,1975.5784,279.15384,2002.3186Q292.2763,2042.2148,302.56433,2062.908Q323.18808,2111.86,417.82758,2251.8293L346.4081,2195.5684"/> </g> <g style="fill:rgb(0,0,0); fill-opacity:1.0; stroke-linejoin: miter"> <path d="M806.0398,2225.163L815.01886,2212.8462Q875.253,2133.1072,896.5578,2074.3608Q916.94836,2022.3939,917.65686,1911.4984Q894.3058,2043.3702,845.8614,2119.18Q806.58746,2189.747,673.99335,2309.5186L806.0398,2225.163"/> </g> <g style="fill:rgb(0,0,0); fill-opacity:1.0; stroke-linejoin: miter"> <path d="M1142.0386,2124.723L1149.3578,2112.684Q1198.3134,2035.1016,1217.1719,1974.0382Q1235.006,1920.2836,1241.137,1798.3275Q1224.5712,1906.4497,1187.8345,1975.5614Q1156.1753,2041.9877,1035.9497,2204.9404L1142.0386,2124.723"/> </g> <g style="fill:rgb(0,0,0); fill-opacity:1.0; stroke-linejoin: miter"> <path d="M1014.7241,-59.94861L1007.3417,-70.49774Q959.13995,-140.15994,928.11414,-176.48636Q900.3685,-209.62433,849.48376,-252.51813Q912.03876,-166.49738,947.2189,-112.587585Q981.7025,-60.62274,1058.4751,65.10547L1014.7241,-59.94861"/> </g> <g style="fill:rgb(0,0,0); fill-opacity:1.0; stroke-linejoin: miter"> <path d="M125.44477,-1430.7297L125.4443,-1430.7283L125.443825,-1430.7268L125.44477,-1430.7297"/> </g> <g style="fill:rgb(0,0,0); fill-opacity:1.0; stroke-linejoin: miter"> <path d="M691.5457,1338.3213L696.75745,1342.1504Q760.9719,1391.7755,832.62946,1396.431Q906.4535,1402.909,982.5864,1365.1384Q1022.86536,1342.602,1049.2117,1310.774Q1089.2256,1262.647,1116.3677,1207.0831L1098.6277,1117.2305L1024.3744,1159.0015L869.8103,1237.1598L691.5457,1338.3213"/> </g> <g style="fill:rgb(0,0,0); fill-opacity:1.0; stroke-linejoin: miter"> <path d="M428.97714,1332.7844L424.9155,1336.2828Q388.67212,1368.1895,364.1727,1379.0642Q340.69382,1390.5236,302.99545,1395.6052Q258.16864,1400.927,223.55191,1395.7864Q184.82996,1390.734,147.94812,1371.9Q112.82358,1353.6669,87.18803,1324.9165Q66.53695,1303.6127,30.122932,1241.0629L33.21398,1135.8167Q117.68646,1175.237,428.97714,1332.7844"/> </g> <g style="fill:rgb(0,0,0); fill-opacity:1.0; stroke-linejoin: miter"> <path d="M773.5502,1909.1051L779.7799,1902.829Q852.17004,1835.4578,881.5719,1767.1538Q824.7345,1848.4474,707.7588,1899.0916Q671.09985,1913.044,641.3192,1915.0865Q622.38916,1917.7607,511.77325,1916.3546L513.76025,1898.9916Q526.74115,1880.7145,527.2013,1861.1658Q528.7699,1840.4418,515.69934,1827.5123Q506.24133,1820.9775,490.7399,1820.4934Q421.89484,1818.3892,421.3306,1822.636Q398.74445,1830.1868,398.7304,1878.2571L387.9103,1872.9458Q322.5456,1834.9556,274.55194,1781.2571Q238.47783,1736.9138,217.4545,1667.9724Q220.38037,1754.244,267.2594,1835.6512Q198.90121,1757.4517,187.68208,1676.5502L179.9791,1637.8524L214.71237,1596.3491L279.8025,1574.2339L405.1363,1571.297L589.93176,1595.1965L667.32874,1594.4838L673.28394,1653.7435L767.37866,1662.2357L781.7512,1590.3693L855.89734,1583.3486L929.6802,1596.8993L953.61145,1648.8455L929.5753,1736.9521L893.3076,1812.2834L773.5502,1909.1051"/> </g> <g style="fill:rgb(0,0,0); fill-opacity:1.0; stroke-linejoin: miter"> <path d="M1028.4813,2529.1821L1028.4812,2529.183L1028.481,2529.184L1028.4813,2529.1821"/> </g> <g style="fill:rgb(255,255,255); fill-opacity:0.30980393; stroke-linejoin: miter"> <path d="M-198.4975,369.0368L-198.49731,369.03674L-198.49715,369.0367L-198.4975,369.0368"/> </g> </g> </svg>