<?xml version='1.0' encoding='utf-8'?>
<svg xmlns="http://www.w3.org/2000/svg" width="391.842mm" height="398.634mm" version="1.1" style="shape-rendering:geometricPrecision; text-rendering:geometricPrecision; image-rendering:optimizeQuality; fill-rule:evenodd; clip-rule:evenodd" viewBox="0 0 20546 20903"> <defs> <style type="text/css">  .str0 {stroke:#156274;stroke-width:3.99559} .str1 {stroke:white;stroke-width:3.99559} .fil5 {fill:#104C59} .fil0 {fill:#156274} .fil6 {fill:#242424} .fil1 {fill:#358DA1} .fil2 {fill:#74C1DF} .fil4 {fill:#CCCCCC} .fil3 {fill:white}  </style> </defs> <g id="Vrstva_x0020_1"> <metadata id="CorelCorpID_0Corel-Layer"/> <g id="_523882896"> <path class="fil0 str0" d="M6249 10510c-83,186 -178,337 -255,490 547,144 1134,1557 692,1684 -64,18 -62,14 -116,-1 -298,-82 -188,-175 -296,-634 -82,-345 -248,-649 -481,-772 -279,-148 -830,-15 -1066,98 -419,201 -756,575 -971,959 -157,278 -535,1028 -564,1308 47,58 88,84 166,126 61,32 119,56 177,83 145,66 206,91 370,150 245,88 487,222 727,314 489,190 1092,349 1619,487 1746,456 3823,623 5677,503 1408,-91 1440,-105 2793,-376 213,-42 1587,-583 1865,-738 168,-95 154,-3 364,-154 8,-232 -42,-449 -78,-673 -21,-127 -12,-238 -34,-359 -71,-402 -336,-1875 -447,-2182 -74,-204 -85,-405 -140,-612 -171,-648 -412,-999 -680,-1558 -97,-201 -182,-306 -281,-474 -350,-597 -854,-1204 -1427,-1592 -257,-174 -692,-353 -1024,-458 -1575,-501 -3336,203 -4517,1175 -429,354 -1026,1111 -1338,1679 -90,165 -157,337 -242,512 -90,187 -163,322 -253,501 -88,174 -157,327 -240,514zm2744 -2456c-7,155 -38,61 -191,223 -66,71 -110,124 -180,211 -240,300 -230,411 -364,378 4,-102 401,-554 500,-659 172,-180 141,-151 235,-153zm-338 910c-36,56 -43,84 -78,123 -85,-70 31,-142 91,-244 157,-267 93,-128 179,-226 58,78 -149,280 -192,347zm-714 -219c-60,120 -77,227 -186,256 -96,-156 570,-1047 704,-1198 85,-97 880,-926 1144,-778 120,67 -195,143 -244,166 -504,242 -930,775 -1238,1239 -76,116 -114,183 -180,315zm3582 2480c-48,-705 248,-1862 919,-2113 799,-298 941,-298 1652,-154 498,101 917,452 1171,857 332,530 272,675 282,1172 3,188 22,252 -59,389 -105,179 -150,589 -293,720 -239,217 -87,86 -251,269 -199,220 -745,371 -1049,441 -221,51 -655,-20 -881,-65 -503,-99 -902,-434 -1197,-829 -110,-148 -277,-447 -294,-687z"/> <path class="fil1" d="M11733 6832c-283,-3 -756,17 -1150,88 -395,72 -711,195 -1056,526 -344,331 -717,870 -815,1093 -98,223 78,130 349,-78 272,-208 638,-531 959,-754 321,-223 597,-346 975,-417 378,-72 857,-92 1075,-150 218,-58 175,-155 107,-217 -68,-61 -162,-88 -444,-91z"/> <path class="fil1" d="M8393 9267c-130,156 -288,472 -329,643 -41,172 36,199 140,145 104,-55 235,-190 327,-359 93,-170 147,-373 122,-477 -25,-103 -129,-108 -260,48z"/> <path class="fil2" d="M2810 13819c-280,0 -713,54 -998,54 -284,0 -419,-54 -550,-58 -131,-5 -258,40 -393,63 -136,22 -280,22 -388,31 -109,9 -181,27 -199,95 -18,68 18,185 474,280 456,95 1332,167 1846,284 515,118 668,280 605,416 -63,135 -343,243 -384,329 -40,86 158,149 213,307 54,158 -37,411 130,632 167,221 592,411 1300,497 709,85 1702,67 2081,158 379,90 145,288 176,392 32,104 330,113 298,194 -31,82 -392,235 -541,429 -149,194 -86,429 307,695 392,267 1114,564 1710,564 596,0 1066,-297 1558,-370 492,-72 1006,82 1471,208 465,126 880,226 713,478 -167,253 -916,659 -966,962 -49,302 601,501 962,429 361,-73 433,-416 406,-664 -27,-248 -153,-402 -149,-514 5,-113 140,-185 185,-289 45,-104 0,-240 176,-325 176,-86 573,-122 989,-172 415,-49 848,-113 1020,-343 171,-230 81,-627 388,-799 307,-171 1011,-117 1205,36 194,154 -122,407 -158,537 -36,131 208,140 479,23 270,-117 568,-361 505,-587 -63,-225 -487,-433 -370,-550 117,-118 776,-145 1223,-95 447,49 682,176 944,198 262,23 550,-58 451,-329 -99,-271 -587,-731 -465,-1093 122,-361 853,-622 871,-857 18,-235 -677,-442 -595,-542 81,-99 938,-90 1151,-126 212,-36 -222,-118 -610,-190 -388,-72 -731,-135 -1020,-171 -289,-36 -524,-45 -713,-5 -190,41 -334,131 -533,185 -198,54 -451,72 -650,86 -198,14 -343,23 -668,190 -325,167 -830,492 -1453,681 -623,190 -1363,244 -2131,289 -767,45 -1562,81 -2446,45 -885,-36 -1860,-144 -2812,-302 -953,-158 -1883,-366 -2564,-587 -682,-221 -1115,-456 -1395,-600 -280,-145 -406,-199 -686,-199z"/> <path class="fil3 str1" d="M12299 9565c-201,231 -373,816 -430,1191 -81,534 109,925 421,1149 228,164 789,465 1124,496 360,33 1058,-216 1216,-402 271,-319 431,-596 478,-1139 26,-296 58,-448 -59,-697 -178,-380 -435,-683 -831,-789 -225,-61 -387,-153 -648,-158 -429,-9 -1060,106 -1271,349zm1687 1374l228 -17c45,83 -7,54 60,143 0,0 294,267 -29,288 -258,16 -293,-267 -292,-279 0,-30 27,-78 33,-135z"/> <path class="fil4" d="M14911 10143c-54,234 -97,706 -162,1012 -66,306 -154,446 -353,597 -200,151 -511,313 -738,394 -227,80 -369,77 -510,53 -141,-25 -281,-73 -488,-156 -206,-84 -479,-203 -545,-185 -65,18 77,174 317,336 241,163 579,332 933,374 355,41 725,-44 1028,-167 304,-123 541,-284 706,-624 164,-341 257,-863 245,-1203 -13,-341 -130,-501 -222,-583 -91,-81 -156,-83 -211,152z"/> <path class="fil5" d="M16126 9989c-9,594 63,1880 -59,2704 -122,824 -438,1185 -930,1458 -492,273 -1160,458 -2329,602 -1169,145 -2839,249 -3929,267 -1090,18 -1600,-50 -2036,-111 -436,-61 -797,-115 -885,-104 -88,12 97,88 628,215 530,126 1406,302 2444,411 1038,108 2239,148 3455,36 1217,-113 2449,-380 3252,-639 804,-260 1179,-512 1337,-785 158,-274 99,-567 -21,-1221 -119,-655 -300,-1671 -433,-2269 -133,-598 -219,-778 -307,-918 -88,-140 -178,-239 -187,354z"/> <g> <path class="fil6" d="M16950 14037c-210,151 -196,59 -364,154 -278,155 -1652,696 -1865,738 -1353,271 -1385,285 -2793,376 -1854,120 -3931,-47 -5677,-503 -527,-138 -1130,-297 -1619,-487 -240,-92 -482,-226 -727,-314 -164,-59 -225,-84 -370,-150 -58,-27 -116,-51 -177,-83 -78,-42 -119,-68 -166,-126 29,-280 407,-1030 564,-1308 215,-384 552,-758 971,-959 236,-113 787,-246 1066,-98 233,123 399,427 481,772 108,459 -2,552 296,634 54,15 52,19 116,1 442,-127 -145,-1540 -692,-1684 77,-153 172,-304 255,-490 83,-187 152,-340 240,-514 90,-179 163,-314 253,-501 85,-175 152,-347 242,-512 312,-568 909,-1325 1338,-1679 1181,-972 2942,-1676 4517,-1175 332,105 767,284 1024,458 573,388 1077,995 1427,1592 99,168 184,273 281,474 268,559 509,910 680,1558 55,207 66,408 140,612 111,307 376,1780 447,2182 22,121 13,232 34,359 36,224 86,441 78,673zm288 337c133,69 184,122 357,17 90,-56 211,-139 279,-209 196,10 326,121 504,101 141,-15 302,-115 494,-135 193,-19 855,219 1041,174 41,-24 76,-46 117,-82 0,-140 -61,-150 -169,-236 -343,140 -790,-181 -1177,-104 -238,47 -356,120 -593,62 -346,-84 -291,-57 -575,23 -30,-546 -130,-1070 -248,-1576 -57,-244 -88,-529 -141,-771l-253 -1118c-89,-397 -182,-668 -346,-1062 -92,-223 -189,-405 -289,-618 -286,-608 -697,-1125 -1086,-1669 -125,-176 -286,-342 -429,-481 -654,-633 -1672,-1038 -2610,-1083 -342,-17 -605,33 -925,41 -27,-159 24,-817 8,-1079 -11,-185 -18,-209 36,-360 83,-232 56,-435 100,-679 89,-500 200,-715 511,-1078 230,-267 695,-414 1042,-518 253,-76 276,-241 291,-451 -281,-96 -820,134 -1072,274 -145,82 -107,84 -242,195 -235,193 -453,547 -591,837 -57,120 -74,241 -143,347 -48,-344 3,-617 38,-961 30,-299 77,-583 255,-844 124,-181 378,-427 559,-536 306,-185 820,-291 650,-646l-102 -149c-591,124 -959,494 -1245,878 -372,497 -432,1059 -465,1668l-461 -435c-198,-158 -353,-211 -609,-298 -463,-156 -1035,-224 -1603,-172 -12,151 21,124 56,208 55,135 8,87 136,175 370,253 613,-108 1536,230 129,47 294,128 391,210 126,105 174,193 271,355 154,262 282,594 286,976l-272 -262c-123,-121 -951,-630 -1065,-497 -36,82 12,85 50,161 82,163 223,197 465,312 557,262 775,604 872,1216l90 913c-17,81 -426,121 -537,159 -168,57 -322,104 -484,164 -458,170 -913,372 -1298,651 -915,661 -1605,1415 -2138,2460 -299,586 -577,1202 -794,1830 -524,-42 -828,42 -1242,195 -889,328 -1683,1657 -1712,2602 -162,15 -234,-20 -401,17 -614,137 -591,-254 -1036,-49 -107,49 -169,119 -325,75 -725,-207 -657,40 -995,157 44,479 463,7 701,-2 151,-6 221,118 466,137 225,17 282,31 434,-108 260,31 379,194 679,173 141,-10 137,-52 224,-82 3,-1 520,-31 521,-31 84,5 287,154 383,196l834 364c622,284 2087,665 2779,808 2022,418 4591,455 6597,173 1018,-144 1886,-359 2806,-774 270,-122 590,-239 814,-379z"/> <path class="fil6" d="M11869 10756c57,-375 229,-960 430,-1191 211,-243 842,-358 1271,-349 261,5 423,97 648,158 396,106 653,409 831,789 117,249 85,401 59,697 -47,543 -207,820 -478,1139 -158,186 -856,435 -1216,402 -335,-31 -896,-332 -1124,-496 -312,-224 -502,-615 -421,-1149zm2026 2050c304,-70 850,-221 1049,-441 164,-183 12,-52 251,-269 143,-131 188,-541 293,-720 81,-137 62,-201 59,-389 -10,-497 50,-642 -282,-1172 -254,-405 -673,-756 -1171,-857 -711,-144 -853,-144 -1652,154 -671,251 -967,1408 -919,2113 17,240 184,539 294,687 295,395 694,730 1197,829 226,45 660,116 881,65z"/> <path class="fil6" d="M9311 17724c322,335 443,181 956,175 71,-25 246,-262 -181,-269 -157,-3 -257,27 -391,26 -110,-91 -151,-200 -362,-205 -710,-18 -995,601 -1274,192 -332,-485 -867,-506 -1294,-42 -112,120 -21,52 -182,123 21,86 40,121 106,171 52,40 -17,16 91,38 44,10 73,13 133,11 53,-56 405,-387 500,-398 208,-26 254,269 494,405 618,349 1011,-209 1404,-227z"/> <path class="fil6" d="M19135 16871l-31 -205c-227,76 -641,-222 -1021,-141 -212,45 -566,286 -976,-50 -466,-382 -862,-162 -1219,240l-221 246c-10,11 -31,33 -39,41 -4,4 -10,11 -13,15 -4,4 -10,12 -13,15 -3,4 -9,11 -14,16 78,205 272,214 371,103 155,-173 471,-593 685,-620 152,-18 133,100 394,245 278,154 764,183 1068,48 262,-116 376,35 792,95 139,21 122,-15 237,-48z"/> <path class="fil6" d="M12191 16543c154,105 260,352 565,310 309,-42 530,-230 645,-262 127,-35 364,155 786,32 149,-44 187,-66 180,-193 -5,-72 7,-43 -72,-105 -50,-38 -82,-73 -122,-96 -41,90 -25,190 -345,160 -187,-18 -156,-99 -412,-83 -359,23 -478,209 -731,258 -133,-84 -376,-472 -712,-279 -155,89 -312,247 -424,381 -81,97 -42,77 -155,127 80,172 -13,30 121,172 447,7 368,-366 676,-422z"/> <path class="fil6" d="M6230 15644c-267,-243 -535,61 -794,21 -76,-12 -97,-59 -176,-54 -9,1 -205,21 -229,28 -186,60 -99,230 -813,54 -161,-40 -357,-386 -706,-71 -87,78 -123,164 -177,215l-82 67c70,102 187,82 292,37 119,-52 149,-108 207,-199 129,27 161,87 269,139 190,91 766,229 1006,110 148,-74 101,-123 303,-64 156,47 538,-42 678,-99 163,-66 174,-20 222,-184z"/> <path class="fil6" d="M12884 18466c139,179 562,179 821,119 151,-35 180,-124 338,-154 160,-29 295,46 434,-8 42,-88 -38,-34 53,-127 -68,-45 -56,-60 -110,-120 -184,73 -391,-71 -669,45 -800,333 -449,-19 -883,-28 -351,-7 -592,119 -843,337 165,133 3,114 270,207 239,-80 313,-258 589,-271z"/> <path class="fil6" d="M7755 9001c109,-29 126,-136 186,-256 66,-132 104,-199 180,-315 308,-464 734,-997 1238,-1239 49,-23 364,-99 244,-166 -264,-148 -1059,681 -1144,778 -134,151 -800,1042 -704,1198z"/> <path class="fil6" d="M14214 10922l-228 17c-6,57 -33,105 -33,135 -1,12 34,295 292,279 323,-21 29,-288 29,-288 -67,-89 -15,-60 -60,-143z"/> <path class="fil6" d="M8993 8054c-94,2 -63,-27 -235,153 -99,105 -496,557 -500,659 134,33 124,-78 364,-378 70,-87 114,-140 180,-211 153,-162 184,-68 191,-223z"/> <path class="fil6" d="M8847 8617c-86,98 -22,-41 -179,226 -60,102 -176,174 -91,244 35,-39 42,-67 78,-123 43,-67 250,-269 192,-347z"/> </g> <path class="fil3" d="M9389 16263c-219,-6 -513,21 -948,-54 -436,-74 -1014,-250 -1467,-302 -454,-52 -783,20 -833,126 -50,106 180,246 569,343 388,97 934,151 1286,262 352,111 510,278 623,275 113,-2 181,-173 354,-259 174,-86 454,-86 874,-158 420,-72 979,-217 1058,-337 79,-119 -322,-214 -571,-178 -248,36 -343,203 -462,267 -120,63 -264,22 -483,15z"/> <path class="fil3" d="M15963 16071c-126,-40 -659,-49 -1036,149 -377,199 -598,605 -903,795 -304,189 -693,162 -925,176 -232,13 -309,68 -52,104 257,36 849,54 1160,-7 312,-61 343,-201 454,-375 110,-173 300,-381 442,-408 142,-27 237,126 323,174 86,47 162,-12 178,-100 16,-88 -29,-205 88,-300 118,-95 397,-167 271,-208z"/> <path class="fil3" d="M18651 14571c-260,-7 -675,61 -851,108 -176,47 -113,74 147,81 259,7 715,-7 891,-54 176,-47 73,-129 -187,-135z"/> <path class="fil1" d="M10772 7738c-165,62 -449,224 -606,377 -157,152 -186,294 -144,356 41,62 154,44 241,-26 87,-70 148,-191 271,-316 123,-124 308,-250 378,-332 70,-83 25,-121 -140,-59z"/> </g> </g> </svg>