<?xml version='1.0' encoding='utf-8'?>
<svg xmlns:xlink="http://www.w3.org/1999/xlink" xmlns="http://www.w3.org/2000/svg" width="210mm" height="297mm" viewBox="0 0 210 297" version="1.1" id="svg22968"> <defs id="defs22965"> <linearGradient xlink:href="#linearGradient1085" id="linearGradient1087" x1="43.920834" y1="158.22084" x2="180.44583" y2="158.48541" gradientUnits="userSpaceOnUse" gradientTransform="matrix(1.5885239,0,0,1.3589991,-88.728205,-90.542421)"/> <linearGradient id="linearGradient1085"> <stop style="stop-color:#000000;stop-opacity:1" offset="0" id="stop1083"/> <stop style="stop-color:#00d400;stop-opacity:1;" offset="1" id="stop1081"/> </linearGradient> <filter style="color-interpolation-filters:sRGB" id="filter15679" x="-0.037437895" y="-0.12025569" width="1.0901896" height="1.2900214"> <feColorMatrix values="0 0 0 0 0 0 0 0 0 0 0 0 0 0 0 0.21 0.72 0.07 0 0 " result="result1" id="feColorMatrix15651"/> <feColorMatrix values="1 0 0 0 0 0 1 0 0 0 0 0 1 0 0 0 0 0 2 0 " result="result9" id="feColorMatrix15653"/> <feComposite in2="result9" in="SourceGraphic" operator="in" result="result4" id="feComposite15655"/> <feFlood result="result2" flood-color="rgb(0,0,0)" id="feFlood15657"/> <feComposite in2="result9" operator="in" result="result10" id="feComposite15659"/> <feComposite in2="result4" operator="atop" id="feComposite15661"/> <feGaussianBlur stdDeviation="3" result="result8" id="feGaussianBlur15663"/> <feOffset dx="3" dy="3" result="result3" in="result8" id="feOffset15665"/> <feFlood flood-opacity="1" flood-color="rgb(219,173,62)" result="result5" id="feFlood15667"/> <feMerge result="result6" id="feMerge15675"> <feMergeNode in="result5" id="feMergeNode15669"/> <feMergeNode in="result3" id="feMergeNode15671"/> <feMergeNode in="result4" id="feMergeNode15673"/> </feMerge> <feComposite in2="SourceGraphic" operator="in" result="result7" id="feComposite15677"/> </filter> <filter style="color-interpolation-filters:sRGB" id="filter15957" x="-0.04489681" y="-0.82136994" width="1.1083695" height="2.9825784"> <feColorMatrix values="0 0 0 0 0 0 0 0 0 0 0 0 0 0 0 0.21 0.72 0.07 0 0 " result="result1" id="feColorMatrix15929"/> <feColorMatrix values="1 0 0 0 0 0 1 0 0 0 0 0 1 0 0 0 0 0 2 0 " result="result9" id="feColorMatrix15931"/> <feComposite in2="result9" in="SourceGraphic" operator="in" result="result4" id="feComposite15933"/> <feFlood result="result2" flood-color="rgb(0,0,0)" id="feFlood15935"/> <feComposite in2="result9" operator="in" result="result10" id="feComposite15937"/> <feComposite in2="result4" operator="atop" id="feComposite15939"/> <feGaussianBlur stdDeviation="3" result="result8" id="feGaussianBlur15941"/> <feOffset dx="3" dy="3" result="result3" in="result8" id="feOffset15943"/> <feFlood flood-opacity="1" flood-color="rgb(219,173,62)" result="result5" id="feFlood15945"/> <feMerge result="result6" id="feMerge15953"> <feMergeNode in="result5" id="feMergeNode15947"/> <feMergeNode in="result3" id="feMergeNode15949"/> <feMergeNode in="result4" id="feMergeNode15951"/> </feMerge> <feComposite in2="SourceGraphic" operator="in" result="result7" id="feComposite15955"/> </filter> <linearGradient xlink:href="#linearGradient4964" id="linearGradient7715" x1="257.96875" y1="102.39375" x2="350.89786" y2="120.14672" gradientUnits="userSpaceOnUse" gradientTransform="matrix(0.61440246,-0.09827581,0.05016192,0.41770654,-47.808988,95.848979)"/> <linearGradient id="linearGradient4964"> <stop style="stop-color:#ff001d;stop-opacity:1" offset="0" id="stop4962"/> <stop style="stop-color:#010101;stop-opacity:0.81415929" offset="1" id="stop4960"/> </linearGradient> <filter style="color-interpolation-filters:sRGB" id="filter4498-6" x="-0.0072161279" y="-0.0072161279" width="1.0144323" height="1.0144323"> <feComposite in2="SourceGraphic" operator="arithmetic" k1="0.658683" k2="1.37725" result="composite1" id="feComposite4484-5" k3="0" k4="0"/> <feColorMatrix in="composite1" values="1" type="saturate" result="colormatrix1" id="feColorMatrix4486-6"/> <feFlood flood-opacity="1" flood-color="rgb(246,255,0)" result="flood1" id="feFlood4488-6"/> <feBlend in="flood1" in2="colormatrix1" mode="multiply" result="blend1" id="feBlend4490-6"/> <feBlend in2="blend1" mode="multiply" result="blend2" id="feBlend4492-0"/> <feColorMatrix in="blend2" values="1" type="saturate" result="colormatrix2" id="feColorMatrix4494-8"/> <feComposite in="colormatrix2" in2="SourceGraphic" operator="in" result="composite2" id="feComposite4496-9"/> </filter> <filter style="color-interpolation-filters:sRGB" id="filter4514-0" x="0" y="0" width="1" height="1"> <feComposite in2="SourceGraphic" operator="arithmetic" k1="0.658683" k2="1.37725" result="composite1" id="feComposite4500-8" k3="0" k4="0"/> <feColorMatrix in="composite1" values="1" type="saturate" result="colormatrix1" id="feColorMatrix4502-3"/> <feFlood flood-opacity="1" flood-color="rgb(246,255,0)" result="flood1" id="feFlood4504-3"/> <feBlend in="flood1" in2="colormatrix1" mode="multiply" result="blend1" id="feBlend4506-3"/> <feBlend in2="blend1" mode="multiply" result="blend2" id="feBlend4508-6"/> <feColorMatrix in="blend2" values="1" type="saturate" result="colormatrix2" id="feColorMatrix4510-6"/> <feComposite in="colormatrix2" in2="SourceGraphic" operator="in" result="composite2" id="feComposite4512-7"/> </filter> <radialGradient r="10.715625" fy="181.69205" fx="228.44983" cy="181.69205" cx="228.44983" gradientTransform="matrix(1.0773258,-8.6377071e-4,8.4899763e-4,1.0588851,-10.516304,-22.240952)" gradientUnits="userSpaceOnUse" id="radialGradient1061" xlink:href="#linearGradient959"/> <linearGradient id="linearGradient959"> <stop id="stop957" offset="0" style="stop-color:#ffcc00;stop-opacity:1"/> <stop id="stop955" offset="1" style="stop-color:#ff6600;stop-opacity:1"/> </linearGradient> <filter style="color-interpolation-filters:sRGB" id="filter4530-3" x="0" y="0" width="1" height="1"> <feComposite in2="SourceGraphic" operator="arithmetic" k1="0.658683" k2="1.37725" result="composite1" id="feComposite4516-8" k3="0" k4="0"/> <feColorMatrix in="composite1" values="1" type="saturate" result="colormatrix1" id="feColorMatrix4518-0"/> <feFlood flood-opacity="1" flood-color="rgb(246,255,0)" result="flood1" id="feFlood4520-1"/> <feBlend in="flood1" in2="colormatrix1" mode="multiply" result="blend1" id="feBlend4522-9"/> <feBlend in2="blend1" mode="multiply" result="blend2" id="feBlend4524-5"/> <feColorMatrix in="blend2" values="1" type="saturate" result="colormatrix2" id="feColorMatrix4526-5"/> <feComposite in="colormatrix2" in2="SourceGraphic" operator="in" result="composite2" id="feComposite4528-4"/> </filter> <filter style="color-interpolation-filters:sRGB" id="filter99024" x="0" y="0" width="1" height="1"> <feComposite in2="SourceGraphic" operator="arithmetic" k1="0.658683" k2="1.37725" result="composite1" id="feComposite99010" k3="0" k4="0"/> <feColorMatrix in="composite1" values="1" type="saturate" result="colormatrix1" id="feColorMatrix99012"/> <feFlood flood-opacity="1" flood-color="rgb(246,255,0)" result="flood1" id="feFlood99014"/> <feBlend in="flood1" in2="colormatrix1" mode="multiply" result="blend1" id="feBlend99016"/> <feBlend in2="blend1" mode="multiply" result="blend2" id="feBlend99018"/> <feColorMatrix in="blend2" values="1" type="saturate" result="colormatrix2" id="feColorMatrix99020"/> <feComposite in="colormatrix2" in2="SourceGraphic" operator="in" result="composite2" id="feComposite99022"/> </filter> <linearGradient xlink:href="#linearGradient4964" id="linearGradient9669" gradientUnits="userSpaceOnUse" gradientTransform="matrix(0.51597288,-0.01012196,-0.00842686,0.45800268,123.65184,78.329139)" x1="257.96875" y1="102.39375" x2="350.89786" y2="120.14672"/> <filter style="color-interpolation-filters:sRGB" id="filter99044" x="-0.0072161281" y="-0.0072161281" width="1.0144323" height="1.0144323"> <feComposite in2="SourceGraphic" operator="arithmetic" k1="0.658683" k2="1.37725" result="composite1" id="feComposite99030" k3="0" k4="0"/> <feColorMatrix in="composite1" values="1" type="saturate" result="colormatrix1" id="feColorMatrix99032"/> <feFlood flood-opacity="1" flood-color="rgb(246,255,0)" result="flood1" id="feFlood99034"/> <feBlend in="flood1" in2="colormatrix1" mode="multiply" result="blend1" id="feBlend99036"/> <feBlend in2="blend1" mode="multiply" result="blend2" id="feBlend99038"/> <feColorMatrix in="blend2" values="1" type="saturate" result="colormatrix2" id="feColorMatrix99040"/> <feComposite in="colormatrix2" in2="SourceGraphic" operator="in" result="composite2" id="feComposite99042"/> </filter> <filter style="color-interpolation-filters:sRGB" id="filter99060" x="0" y="0" width="1" height="1"> <feComposite in2="SourceGraphic" operator="arithmetic" k1="0.658683" k2="1.37725" result="composite1" id="feComposite99046" k3="0" k4="0"/> <feColorMatrix in="composite1" values="1" type="saturate" result="colormatrix1" id="feColorMatrix99048"/> <feFlood flood-opacity="1" flood-color="rgb(246,255,0)" result="flood1" id="feFlood99050"/> <feBlend in="flood1" in2="colormatrix1" mode="multiply" result="blend1" id="feBlend99052"/> <feBlend in2="blend1" mode="multiply" result="blend2" id="feBlend99054"/> <feColorMatrix in="blend2" values="1" type="saturate" result="colormatrix2" id="feColorMatrix99056"/> <feComposite in="colormatrix2" in2="SourceGraphic" operator="in" result="composite2" id="feComposite99058"/> </filter> <radialGradient xlink:href="#linearGradient959" id="radialGradient9671" gradientUnits="userSpaceOnUse" gradientTransform="matrix(1.0773258,-8.6377071e-4,8.4899763e-4,1.0588851,-10.516304,-22.240952)" cx="228.44983" cy="181.69205" fx="228.44983" fy="181.69205" r="10.715625"/> <filter style="color-interpolation-filters:sRGB" id="filter99083" x="0" y="0" width="1" height="1"> <feComposite in2="SourceGraphic" operator="arithmetic" k1="0.658683" k2="1.37725" result="composite1" id="feComposite99069" k3="0" k4="0"/> <feColorMatrix in="composite1" values="1" type="saturate" result="colormatrix1" id="feColorMatrix99071"/> <feFlood flood-opacity="1" flood-color="rgb(246,255,0)" result="flood1" id="feFlood99073"/> <feBlend in="flood1" in2="colormatrix1" mode="multiply" result="blend1" id="feBlend99075"/> <feBlend in2="blend1" mode="multiply" result="blend2" id="feBlend99077"/> <feColorMatrix in="blend2" values="1" type="saturate" result="colormatrix2" id="feColorMatrix99079"/> <feComposite in="colormatrix2" in2="SourceGraphic" operator="in" result="composite2" id="feComposite99081"/> </filter> <filter style="color-interpolation-filters:sRGB" id="filter99099" x="0" y="0" width="1" height="1"> <feComposite in2="SourceGraphic" operator="arithmetic" k1="0.658683" k2="1.37725" result="composite1" id="feComposite99085" k3="0" k4="0"/> <feColorMatrix in="composite1" values="1" type="saturate" result="colormatrix1" id="feColorMatrix99087"/> <feFlood flood-opacity="1" flood-color="rgb(246,255,0)" result="flood1" id="feFlood99089"/> <feBlend in="flood1" in2="colormatrix1" mode="multiply" result="blend1" id="feBlend99091"/> <feBlend in2="blend1" mode="multiply" result="blend2" id="feBlend99093"/> <feColorMatrix in="blend2" values="1" type="saturate" result="colormatrix2" id="feColorMatrix99095"/> <feComposite in="colormatrix2" in2="SourceGraphic" operator="in" result="composite2" id="feComposite99097"/> </filter> <filter style="color-interpolation-filters:sRGB" id="filter26253" x="-0.16621604" y="-0.78155511" width="1.4009059" height="2.8850751"> <feColorMatrix values="0 0 0 0 0 0 0 0 0 0 0 0 0 0 0 0.21 0.72 0.07 0 0 " result="result1" id="feColorMatrix26225"/> <feColorMatrix values="1 0 0 0 0 0 1 0 0 0 0 0 1 0 0 0 0 0 2 0 " result="result9" id="feColorMatrix26227"/> <feComposite in2="result9" in="SourceGraphic" operator="in" result="result4" id="feComposite26229"/> <feFlood result="result2" flood-color="rgb(0,0,0)" id="feFlood26231"/> <feComposite in2="result9" operator="in" result="result10" id="feComposite26233"/> <feComposite in2="result4" operator="atop" id="feComposite26235"/> <feGaussianBlur stdDeviation="3" result="result8" id="feGaussianBlur26237"/> <feOffset dx="3" dy="3" result="result3" in="result8" id="feOffset26239"/> <feFlood flood-opacity="1" flood-color="rgb(219,173,62)" result="result5" id="feFlood26241"/> <feMerge result="result6" id="feMerge26249"> <feMergeNode in="result5" id="feMergeNode26243"/> <feMergeNode in="result3" id="feMergeNode26245"/> <feMergeNode in="result4" id="feMergeNode26247"/> </feMerge> <feComposite in2="SourceGraphic" operator="in" result="result7" id="feComposite26251"/> </filter> <filter style="color-interpolation-filters:sRGB" id="filter99144" x="-0.16621605" y="-0.78155512" width="1.4009058" height="2.8850751"> <feColorMatrix values="0 0 0 0 0 0 0 0 0 0 0 0 0 0 0 0.21 0.72 0.07 0 0 " result="result1" id="feColorMatrix99116"/> <feColorMatrix values="1 0 0 0 0 0 1 0 0 0 0 0 1 0 0 0 0 0 2 0 " result="result9" id="feColorMatrix99118"/> <feComposite in2="result9" in="SourceGraphic" operator="in" result="result4" id="feComposite99120"/> <feFlood result="result2" flood-color="rgb(0,0,0)" id="feFlood99122"/> <feComposite in2="result9" operator="in" result="result10" id="feComposite99124"/> <feComposite in2="result4" operator="atop" id="feComposite99126"/> <feGaussianBlur stdDeviation="3" result="result8" id="feGaussianBlur99128"/> <feOffset dx="3" dy="3" result="result3" in="result8" id="feOffset99130"/> <feFlood flood-opacity="1" flood-color="rgb(219,173,62)" result="result5" id="feFlood99132"/> <feMerge result="result6" id="feMerge99140"> <feMergeNode in="result5" id="feMergeNode99134"/> <feMergeNode in="result3" id="feMergeNode99136"/> <feMergeNode in="result4" id="feMergeNode99138"/> </feMerge> <feComposite in2="SourceGraphic" operator="in" result="result7" id="feComposite99142"/> </filter> <filter style="color-interpolation-filters:sRGB" id="filter22442" x="-0.1263757" y="-0.37135628" width="1.3050388" height="1.8963263"> <feColorMatrix values="0 0 0 0 0 0 0 0 0 0 0 0 0 0 0 0.21 0.72 0.07 0 0 " result="result1" id="feColorMatrix22414"/> <feColorMatrix values="1 0 0 0 0 0 1 0 0 0 0 0 1 0 0 0 0 0 2 0 " result="result9" id="feColorMatrix22416"/> <feComposite in2="result9" in="SourceGraphic" operator="in" result="result4" id="feComposite22418"/> <feFlood result="result2" flood-color="rgb(0,0,0)" id="feFlood22420"/> <feComposite in2="result9" operator="in" result="result10" id="feComposite22422"/> <feComposite in2="result4" operator="atop" id="feComposite22424"/> <feGaussianBlur stdDeviation="3" result="result8" id="feGaussianBlur22426"/> <feOffset dx="3" dy="3" result="result3" in="result8" id="feOffset22428"/> <feFlood flood-opacity="1" flood-color="rgb(219,173,62)" result="result5" id="feFlood22430"/> <feMerge result="result6" id="feMerge22438"> <feMergeNode in="result5" id="feMergeNode22432"/> <feMergeNode in="result3" id="feMergeNode22434"/> <feMergeNode in="result4" id="feMergeNode22436"/> </feMerge> <feComposite in2="SourceGraphic" operator="in" result="result7" id="feComposite22440"/> </filter> <filter style="color-interpolation-filters:sRGB" id="filter22701" x="-0.04270984" y="-0.15997457" width="1.1030897" height="1.3861395"> <feColorMatrix values="0 0 0 0 0 0 0 0 0 0 0 0 0 0 0 0.21 0.72 0.07 0 0 " result="result1" id="feColorMatrix22673"/> <feColorMatrix values="1 0 0 0 0 0 1 0 0 0 0 0 1 0 0 0 0 0 2 0 " result="result9" id="feColorMatrix22675"/> <feComposite in2="result9" in="SourceGraphic" operator="in" result="result4" id="feComposite22677"/> <feFlood result="result2" flood-color="rgb(0,0,0)" id="feFlood22679"/> <feComposite in2="result9" operator="in" result="result10" id="feComposite22681"/> <feComposite in2="result4" operator="atop" id="feComposite22683"/> <feGaussianBlur stdDeviation="3" result="result8" id="feGaussianBlur22685"/> <feOffset dx="3" dy="3" result="result3" in="result8" id="feOffset22687"/> <feFlood flood-opacity="1" flood-color="rgb(219,173,62)" result="result5" id="feFlood22689"/> <feMerge result="result6" id="feMerge22697"> <feMergeNode in="result5" id="feMergeNode22691"/> <feMergeNode in="result3" id="feMergeNode22693"/> <feMergeNode in="result4" id="feMergeNode22695"/> </feMerge> <feComposite in2="SourceGraphic" operator="in" result="result7" id="feComposite22699"/> </filter> <filter style="color-interpolation-filters:sRGB" id="filter25138" x="-0.10664517" y="-0.27594945" width="1.25728" height="1.6657239"> <feColorMatrix values="0 0 0 0 0 0 0 0 0 0 0 0 0 0 0 0.21 0.72 0.07 0 0 " result="result1" id="feColorMatrix25110"/> <feColorMatrix values="1 0 0 0 0 0 1 0 0 0 0 0 1 0 0 0 0 0 2 0 " result="result9" id="feColorMatrix25112"/> <feComposite in2="result9" in="SourceGraphic" operator="in" result="result4" id="feComposite25114"/> <feFlood result="result2" flood-color="rgb(0,0,0)" id="feFlood25116"/> <feComposite in2="result9" operator="in" result="result10" id="feComposite25118"/> <feComposite in2="result4" operator="atop" id="feComposite25120"/> <feGaussianBlur stdDeviation="3" result="result8" id="feGaussianBlur25122"/> <feOffset dx="3" dy="3" result="result3" in="result8" id="feOffset25124"/> <feFlood flood-opacity="1" flood-color="rgb(219,173,62)" result="result5" id="feFlood25126"/> <feMerge result="result6" id="feMerge25134"> <feMergeNode in="result5" id="feMergeNode25128"/> <feMergeNode in="result3" id="feMergeNode25130"/> <feMergeNode in="result4" id="feMergeNode25132"/> </feMerge> <feComposite in2="SourceGraphic" operator="in" result="result7" id="feComposite25136"/> </filter> <filter style="color-interpolation-filters:sRGB" id="filter28400" x="-0.16549158" y="-0.58784457" width="1.3994544" height="2.4189056"> <feColorMatrix values="0 0 0 0 0 0 0 0 0 0 0 0 0 0 0 0.21 0.72 0.07 0 0 " result="result1" id="feColorMatrix28372"/> <feColorMatrix values="1 0 0 0 0 0 1 0 0 0 0 0 1 0 0 0 0 0 2 0 " result="result9" id="feColorMatrix28374"/> <feComposite in2="result9" in="SourceGraphic" operator="in" result="result4" id="feComposite28376"/> <feFlood result="result2" flood-color="rgb(0,0,0)" id="feFlood28378"/> <feComposite in2="result9" operator="in" result="result10" id="feComposite28380"/> <feComposite in2="result4" operator="atop" id="feComposite28382"/> <feGaussianBlur stdDeviation="3" result="result8" id="feGaussianBlur28384"/> <feOffset dx="3" dy="3" result="result3" in="result8" id="feOffset28386"/> <feFlood flood-opacity="1" flood-color="rgb(219,173,62)" result="result5" id="feFlood28388"/> <feMerge result="result6" id="feMerge28396"> <feMergeNode in="result5" id="feMergeNode28390"/> <feMergeNode in="result3" id="feMergeNode28392"/> <feMergeNode in="result4" id="feMergeNode28394"/> </feMerge> <feComposite in2="SourceGraphic" operator="in" result="result7" id="feComposite28398"/> </filter> </defs> <g id="layer1"> <g id="g98936" transform="matrix(0.92491414,0,0,1.0460199,5.8128794,13.930666)" style="stroke-width:1.01667"> <path id="path98246" style="opacity:1;fill:#808080;fill-opacity:1;stroke:#003700;stroke-width:0.101666;stroke-linecap:round;stroke-linejoin:round;stroke-miterlimit:4;stroke-dasharray:none;stroke-opacity:1;stop-color:#000000" d="m 6.3707691,163.61593 c 2.23191,3.04128 0,12.90309 0,12.90309 9.6672099,-0.43622 19.6265399,-2.86281 28.8095199,0 v 13.45137 c -10.03407,3.523 -19.25444,0.39331 -28.8095199,0 0,0 2.37426,10.76544 0,14.0007 -2.37425,3.23526 -8.74695,7.06639 -9.87154,0 -1.12459,-7.0664 -2.58122,-27.68506 0,-40.35516 2.64058999,-12.96156 7.5448,-3.17052 9.87154,0 z"/> <path id="rect94403" style="opacity:1;fill:#808080;fill-opacity:1;stroke:#003700;stroke-width:0.101666;stroke-linecap:round;stroke-linejoin:round;stroke-miterlimit:4;stroke-dasharray:none;stroke-opacity:1;stop-color:#000000" d="m 207.79915,163.61593 c -2.23191,3.04128 0,12.90309 0,12.90309 -9.66721,-0.43622 -19.62654,-2.86281 -28.80952,0 v 13.45137 c 10.03407,3.523 19.25444,0.39331 28.80952,0 0,0 -2.37426,10.76544 0,14.0007 2.37425,3.23526 8.74695,7.06639 9.87154,0 1.12459,-7.0664 2.58122,-27.68506 0,-40.35516 -2.64059,-12.96156 -7.5448,-3.17052 -9.87154,0 z"/> <g id="g94379" style="stroke-width:1.01667"> <g id="g94369" style="stroke-width:1.01667"> <path id="path42589" style="opacity:1;fill:#009b00;fill-opacity:1;stroke:#003700;stroke-width:0.101667;stroke-linecap:round;stroke-linejoin:round;stroke-opacity:1;stop-color:#000000" d="m 189.53426,115.51244 c 1.64997,16.10674 2.02589,30.35053 11.82643,32.37087 9.80053,2.02034 26.25759,-17.23829 29.52657,-33.09589 3.26898,-15.857599 -8.02404,-21.735427 -17.68855,-24.329555 -12.67235,-3.401487 -25.54246,6.721619 -23.66445,25.054575 z"/> <path id="path86396" style="opacity:1;fill:#2b0000;fill-opacity:1;stroke:#003700;stroke-width:0.101667;stroke-linecap:round;stroke-linejoin:round;stroke-miterlimit:4;stroke-dasharray:none;stroke-opacity:1;stop-color:#000000" d="m 205.49845,97.197584 a 14.717324,10.926992 49.565051 0 1 17.84976,3.938556 14.717324,10.926992 49.565051 0 1 1.40104,18.3277 14.717324,10.926992 49.565051 0 1 -0.87685,0.65689 14.717324,10.926992 49.565051 0 0 -2.169,-17.54561 14.717324,10.926992 49.565051 0 0 -16.99791,-4.579001 14.717324,10.926992 49.565051 0 1 0.79301,-0.798553 z"/> <path style="fill:#2b0000;fill-rule:evenodd;stroke:#000000;stroke-width:1.26563" id="path94279" transform="matrix(-0.14985633,0,0,0.30144229,165.64444,0.63218156)" d="m -327.87222,383.901 c 0,0 0,0 0,0 0,0 0,0 0,0 0,0 0,0 0,0 0,0 0,0 0,0 0,0 0,0 0,0 0,0 0,0 0,0 0,0 0,0 0,0 0,0 0,0 0,0 0,0 0,0 0,0 0,0 0,0 0,0 0,0 0,0 0,0 0,0 0,0 0,0 0,0 0,0 0,0 0,0 0,0 0,0 0,0 0,0 0,0 0,0 0,0 0,0 0,0 0,0 0,0 0,0 0,0 0,0 0,0 0,0 0,0 0,0 0,0 0,0 0,0 0,0 0,0 0,0 0,0 0,0 0,0 0,0 0,0 0,0 0,0 0,0 0,0 0,0 0,0 0,0 0,0 0,0 0,0 0,0 0,0 0,0 0,0 0,0 0,0 0,0 0,0 0,0 0,0 0,0 0,0 0,0 0,0 0,0 0,0 0,0 0,0 0,0 0,0 0,0 0,0 0,0 0,0 0,0 0,0 0,0 0,0 0,0 0,0 0,0 0,0 0,0 0,0 0,0 0,0 0,0 0,0 0,0 0,0 0,0 0,0 -10e-6,0 -10e-6,0 0,0 0,0 10e-6,0 0,0 0,0 0,0 0,0 0,10e-6 0,10e-6 -10e-6,0 -10e-6,0 -10e-6,-10e-6 0,0 0,-1e-5 10e-6,-1e-5 0,0 1e-5,0 1e-5,1e-5 0,10e-6 0,2e-5 -1e-5,2e-5 -10e-6,0 -2e-5,-1e-5 -2e-5,-2e-5 -1e-5,-1e-5 0,-2e-5 2e-5,-3e-5 1e-5,0 3e-5,1e-5 3e-5,3e-5 0,2e-5 -1e-5,4e-5 -3e-5,4e-5 -3e-5,0 -5e-5,-1e-5 -5e-5,-4e-5 -10e-6,-3e-5 2e-5,-5e-5 4e-5,-6e-5 4e-5,0 7e-5,2e-5 8e-5,6e-5 10e-6,4e-5 -3e-5,8e-5 -7e-5,9e-5 -5e-5,10e-6 -10e-5,-3e-5 -1.1e-4,-9e-5 -1e-5,-6e-5 4e-5,-1.2e-4 10e-5,-1.3e-4 8e-5,-10e-6 1.5e-4,5e-5 1.6e-4,1.3e-4 1e-5,9e-5 -6e-5,1.7e-4 -1.5e-4,1.9e-4 -1.1e-4,1e-5 -2.1e-4,-7e-5 -2.2e-4,-1.8e-4 -2e-5,-1.3e-4 8e-5,-2.5e-4 2.1e-4,-2.7e-4 1.6e-4,-3e-5 3e-4,9e-5 3.2e-4,2.5e-4 3e-5,1.9e-4 -1.1e-4,3.6e-4 -3e-4,3.9e-4 -2.2e-4,3e-5 -4.3e-4,-1.4e-4 -4.6e-4,-3.6e-4 -4e-5,-2.7e-4 1.7e-4,-5.1e-4 4.3e-4,-5.5e-4 3.1e-4,-4e-5 6e-4,2e-4 6.4e-4,5.1e-4 6e-5,3.7e-4 -2.3e-4,7.1e-4 -6e-4,7.6e-4 -4.4e-4,6e-5 -8.3e-4,-2.8e-4 -8.9e-4,-7.1e-4 -8e-5,-5.2e-4 3.2e-4,-9.8e-4 8.3e-4,-0.001 6.1e-4,-9e-5 0.001,3.8e-4 0.001,9.8e-4 10e-5,7.1e-4 -4.5e-4,0.001 -0.001,0.001 -8.4e-4,1.2e-4 -0.002,-5.3e-4 -0.002,-0.001 -1.3e-4,-9.8e-4 6.3e-4,-0.002 0.002,-0.002 0.001,-1.6e-4 0.002,7.3e-4 0.002,0.002 1.8e-4,0.001 -8.5e-4,0.003 -0.002,0.003 -0.002,2.1e-4 -0.003,-9.9e-4 -0.003,-0.003 -2.4e-4,-0.002 0.001,-0.003 0.003,-0.004 0.002,-2.7e-4 0.004,0.001 0.004,0.003 3.2e-4,0.002 -0.002,0.005 -0.004,0.005 -0.003,3.7e-4 -0.005,-0.002 -0.006,-0.005 -4.2e-4,-0.003 0.002,-0.006 0.005,-0.007 0.004,-4.7e-4 0.007,0.002 0.008,0.006 5.5e-4,0.004 -0.003,0.008 -0.007,0.009 -0.005,6.2e-4 -0.009,-0.003 -0.01,-0.008 -7.1e-4,-0.006 0.004,-0.0107 0.009,-0.0114 0.006,-8.1e-4 0.0123,0.004 0.013,0.0106 9.2e-4,0.007 -0.005,0.014 -0.0121,0.0149 -0.008,0.001 -0.016,-0.006 -0.0171,-0.0138 -0.001,-0.01 0.006,-0.0183 0.0158,-0.0195 0.011,-0.001 0.0209,0.007 0.0222,0.018 0.002,0.0126 -0.008,0.0238 -0.0206,0.0253 -0.0143,0.002 -0.0271,-0.009 -0.0287,-0.0234 -0.002,-0.0163 0.0107,-0.0308 0.0266,-0.0326 0.0185,-0.002 0.0349,0.0122 0.037,0.0303 0.002,0.0209 -0.0138,0.0396 -0.0343,0.042 -0.0237,0.003 -0.0448,-0.0156 -0.0475,-0.0389 -0.003,-0.0268 0.0177,-0.0507 0.044,-0.0537 0.0303,-0.004 0.0573,0.0201 0.0607,0.0498 0.004,0.0342 -0.0227,0.0647 -0.0563,0.0685 -0.0386,0.004 -0.0729,-0.0256 -0.0772,-0.0635 -0.005,-0.0435 0.0289,-0.0821 0.0716,-0.0869 0.0489,-0.006 0.0924,0.0325 0.0978,0.0806 0.006,0.055 -0.0366,0.10389 -0.0907,0.10993 -0.0618,0.007 -0.11668,-0.0412 -0.12343,-0.10192 -0.008,-0.0693 0.0463,-0.13093 0.11443,-0.13846 0.0777,-0.009 0.14678,0.0519 0.15518,0.12837 0.01,0.0871 -0.0583,0.1644 -0.14387,0.17376 -0.0974,0.0107 -0.18396,-0.0653 -0.19439,-0.1611 -0.0119,-0.10896 0.0731,-0.20567 0.18023,-0.21727 0.12172,-0.0132 0.22974,0.0817 0.24263,0.20145 0.0146,0.13586 -0.0913,0.2564 -0.22496,0.27072 -0.15152,0.0162 -0.28592,-0.10195 -0.30182,-0.25101 -0.018,-0.16883 0.11372,-0.31857 0.27985,-0.3362 0.18797,-0.0199 0.35465,0.12674 0.37418,0.31173 0.0221,0.20911 -0.14114,0.39451 -0.34695,0.41613 -0.23245,0.0244 -0.43849,-0.15704 -0.46241,-0.38585 -0.027,-0.25818 0.1746,-0.48699 0.42876,-0.51344 0.28655,-0.0298 0.54044,0.19396 0.56966,0.47608 0.0329,0.31778 -0.21531,0.5993 -0.52821,0.63155 -0.35215,0.0363 -0.66406,-0.23882 -0.69964,-0.58561 -0.04,-0.38994 0.26469,-0.73527 0.64875,-0.7745 0.43148,-0.0441 0.81353,0.29316 0.85674,0.71817 0.0485,0.47711 -0.32444,0.89948 -0.79444,0.94705 -0.52717,0.0533 -0.99379,-0.35881 -1.04612,-0.87818 -0.0587,-0.58208 0.39652,-1.09722 0.97006,-1.15476 0.64227,-0.0644 1.21059,0.4379 1.2738,1.0708 0.0707,0.70821 -0.48326,1.33476 -1.1812,1.40417 -0.78037,0.0776 -1.47067,-0.53295 -1.54683,-1.30209 -0.0851,-0.85933 0.58735,-1.61935 1.4344,-1.70287 0.94565,-0.0932 1.78189,0.64687 1.87342,1.5791 0.10211,1.03998 -0.71196,1.95949 -1.73727,2.05974 -1.14298,0.11176 -2.15341,-0.78309 -2.26315,-1.91006 -0.12225,-1.2554 0.86077,-2.36504 2.0987,-2.4851 1.37801,-0.13363 2.59587,0.94557 2.72712,2.30454 0.14601,1.51168 -1.03807,2.84747 -2.52899,2.9909 -1.65731,0.15943 -3.12159,-1.13892 -3.27822,-2.77362 -0.17399,-1.81589 1.24881,-3.42006 3.04008,-3.59101 1.98848,-0.18978 3.74486,1.36849 3.93135,3.33017 0.20689,2.17619 -1.49875,4.09812 -3.6458,4.30144 -2.38026,0.22541 -4.48214,-1.64044 -4.7037,-3.98904 -0.24547,-2.60199 1.79451,-4.89938 4.3621,-5.14067 2.84279,-0.26716 5.35246,1.96192 5.61512,4.76737 0.29062,3.10416 -2.14376,5.84421 -5.20739,6.12997 -3.3877,0.31599 -6.37768,-2.34114 -6.68841,-5.68488 -0.34339,-3.69517 2.5553,-6.9561 6.20281,-7.29382 4.02838,-0.37298 7.58293,2.78755 7.94979,6.76429 0.40493,4.38933 -3.03927,8.26192 -7.37267,8.66024 -4.78015,0.43939 -8.99705,-3.31199 -9.42932,-8.03158 -0.47655,-5.20309 3.6073,-9.79255 8.74487,-10.26144 5.66057,-0.51661 10.653,3.92691 11.16135,9.51663 0.55979,6.1552 -4.27266,11.58325 -10.35127,12.13414 -6.68974,0.60628 -12.58852,-4.64652 -13.18522,-11.25351 -0.65633,-7.26714 5.05059,-13.67434 12.22835,-14.32037 7.89057,-0.71019 14.84666,5.48711 15.54578,13.28118 0.76812,8.56338 -5.95846,16.11178 -14.41772,16.868 -9.28916,0.83042 -17.47646,-6.46719 -18.29409,-15.64406 -0.89736,-10.07176 7.01605,-18.94788 16.96674,-19.83152 10.91525,-0.96928 20.53373,7.60791 21.48828,18.3927 1.04653,11.82397 -8.24588,22.24216 -19.92933,23.27287 -12.80258,1.12944 -24.08188,-8.93326 -25.19436,-21.58453 -1.21841,-13.856 9.67357,-26.06216 23.36672,-27.26238 14.98947,-1.31385 28.19283,10.47053 29.48719,25.2848 1.41618,16.2086 -11.32815,30.48442 -27.34834,31.87972 -17.51931,1.52586 -32.94807,-12.25064 -34.45156,-29.56742 -1.64337,-18.92794 13.24253,-35.59565 31.95284,-37.21507 4.88559,-0.42286 9.84457,0.1632 14.5023,1.69454"/> </g> <g id="g94364" style="stroke-width:1.01667"> <path id="path86497" style="opacity:1;fill:#003300;fill-opacity:1;stroke:#003700;stroke-width:0.101667;stroke-linecap:round;stroke-linejoin:round;stroke-opacity:1;stop-color:#000000" d="m 24.562694,115.51244 c -1.64997,16.10674 -2.02589,30.35053 -11.82643,32.37087 -9.800531,2.02034 -26.25759,-17.23829 -29.52657,-33.09589 C -20.059286,98.929821 -8.7662664,93.051993 0.89824305,90.457865 13.570594,87.056378 26.440704,97.179484 24.562694,115.51244 Z"/> <path id="path92743" style="opacity:1;fill:#2b0000;fill-opacity:1;stroke:#003700;stroke-width:0.101667;stroke-linecap:round;stroke-linejoin:round;stroke-miterlimit:4;stroke-dasharray:none;stroke-opacity:1;stop-color:#000000" d="m 8.7450546,96.648536 a 10.926992,14.717324 40.434949 0 0 -17.84976,3.938564 10.926992,14.717324 40.434949 0 0 -1.4010396,18.3277 10.926992,14.717324 40.434949 0 0 0.8768496,0.65689 10.926992,14.717324 40.434949 0 1 2.169,-17.54561 10.926992,14.717324 40.434949 0 1 16.99791,-4.579009 10.926992,14.717324 40.434949 0 0 -0.79301,-0.798553 z"/> <path style="fill:#2b0000;fill-rule:evenodd;stroke:#000000;stroke-width:1.26563" id="path93979" transform="matrix(0.14985633,0,0,0.30144229,50.230203,0.63218156)" d="m -327.87222,383.901 c 0,0 0,0 0,0 0,0 0,0 0,0 0,0 0,0 0,0 0,0 0,0 0,0 0,0 0,0 0,0 0,0 0,0 0,0 0,0 0,0 0,0 0,0 0,0 0,0 0,0 0,0 0,0 0,0 0,0 0,0 0,0 0,0 0,0 0,0 0,0 0,0 0,0 0,0 0,0 0,0 0,0 0,0 0,0 0,0 0,0 0,0 0,0 0,0 0,0 0,0 0,0 0,0 0,0 0,0 0,0 0,0 0,0 0,0 0,0 0,0 0,0 0,0 0,0 0,0 0,0 0,0 0,0 0,0 0,0 0,0 0,0 0,0 0,0 0,0 0,0 0,0 0,0 0,0 0,0 0,0 0,0 0,0 0,0 0,0 0,0 0,0 0,0 0,0 0,0 0,0 0,0 0,0 0,0 0,0 0,0 0,0 0,0 0,0 0,0 0,0 0,0 0,0 0,0 0,0 0,0 0,0 0,0 0,0 0,0 0,0 0,0 0,0 0,0 0,0 0,0 0,0 0,0 0,0 0,0 0,0 0,0 -10e-6,0 -10e-6,0 0,0 0,0 10e-6,0 0,0 0,0 0,0 0,0 0,10e-6 0,10e-6 -10e-6,0 -10e-6,0 -10e-6,-10e-6 0,0 0,-1e-5 10e-6,-1e-5 0,0 1e-5,0 1e-5,1e-5 0,10e-6 0,2e-5 -1e-5,2e-5 -10e-6,0 -2e-5,-1e-5 -2e-5,-2e-5 -1e-5,-1e-5 0,-2e-5 2e-5,-3e-5 1e-5,0 3e-5,1e-5 3e-5,3e-5 0,2e-5 -1e-5,4e-5 -3e-5,4e-5 -3e-5,0 -5e-5,-1e-5 -5e-5,-4e-5 -10e-6,-3e-5 2e-5,-5e-5 4e-5,-6e-5 4e-5,0 7e-5,2e-5 8e-5,6e-5 10e-6,4e-5 -3e-5,8e-5 -7e-5,9e-5 -5e-5,10e-6 -10e-5,-3e-5 -1.1e-4,-9e-5 -1e-5,-6e-5 4e-5,-1.2e-4 10e-5,-1.3e-4 8e-5,-10e-6 1.5e-4,5e-5 1.6e-4,1.3e-4 1e-5,9e-5 -6e-5,1.7e-4 -1.5e-4,1.9e-4 -1.1e-4,1e-5 -2.1e-4,-7e-5 -2.2e-4,-1.8e-4 -2e-5,-1.3e-4 8e-5,-2.5e-4 2.1e-4,-2.7e-4 1.6e-4,-3e-5 3e-4,9e-5 3.2e-4,2.5e-4 3e-5,1.9e-4 -1.1e-4,3.6e-4 -3e-4,3.9e-4 -2.2e-4,3e-5 -4.3e-4,-1.4e-4 -4.6e-4,-3.6e-4 -4e-5,-2.7e-4 1.7e-4,-5.1e-4 4.3e-4,-5.5e-4 3.1e-4,-4e-5 6e-4,2e-4 6.4e-4,5.1e-4 6e-5,3.7e-4 -2.3e-4,7.1e-4 -6e-4,7.6e-4 -4.4e-4,6e-5 -8.3e-4,-2.8e-4 -8.9e-4,-7.1e-4 -8e-5,-5.2e-4 3.2e-4,-9.8e-4 8.3e-4,-0.001 6.1e-4,-9e-5 0.001,3.8e-4 0.001,9.8e-4 10e-5,7.1e-4 -4.5e-4,0.001 -0.001,0.001 -8.4e-4,1.2e-4 -0.002,-5.3e-4 -0.002,-0.001 -1.3e-4,-9.8e-4 6.3e-4,-0.002 0.002,-0.002 0.001,-1.6e-4 0.002,7.3e-4 0.002,0.002 1.8e-4,0.001 -8.5e-4,0.003 -0.002,0.003 -0.002,2.1e-4 -0.003,-9.9e-4 -0.003,-0.003 -2.4e-4,-0.002 0.001,-0.003 0.003,-0.004 0.002,-2.7e-4 0.004,0.001 0.004,0.003 3.2e-4,0.002 -0.002,0.005 -0.004,0.005 -0.003,3.7e-4 -0.005,-0.002 -0.006,-0.005 -4.2e-4,-0.003 0.002,-0.006 0.005,-0.007 0.004,-4.7e-4 0.007,0.002 0.008,0.006 5.5e-4,0.004 -0.003,0.008 -0.007,0.009 -0.005,6.2e-4 -0.009,-0.003 -0.01,-0.008 -7.1e-4,-0.006 0.004,-0.0107 0.009,-0.0114 0.006,-8.1e-4 0.0123,0.004 0.013,0.0106 9.2e-4,0.007 -0.005,0.014 -0.0121,0.0149 -0.008,0.001 -0.016,-0.006 -0.0171,-0.0138 -0.001,-0.01 0.006,-0.0183 0.0158,-0.0195 0.011,-0.001 0.0209,0.007 0.0222,0.018 0.002,0.0126 -0.008,0.0238 -0.0206,0.0253 -0.0143,0.002 -0.0271,-0.009 -0.0287,-0.0234 -0.002,-0.0163 0.0107,-0.0308 0.0266,-0.0326 0.0185,-0.002 0.0349,0.0122 0.037,0.0303 0.002,0.0209 -0.0138,0.0396 -0.0343,0.042 -0.0237,0.003 -0.0448,-0.0156 -0.0475,-0.0389 -0.003,-0.0268 0.0177,-0.0507 0.044,-0.0537 0.0303,-0.004 0.0573,0.0201 0.0607,0.0498 0.004,0.0342 -0.0227,0.0647 -0.0563,0.0685 -0.0386,0.004 -0.0729,-0.0256 -0.0772,-0.0635 -0.005,-0.0435 0.0289,-0.0821 0.0716,-0.0869 0.0489,-0.006 0.0924,0.0325 0.0978,0.0806 0.006,0.055 -0.0366,0.10389 -0.0907,0.10993 -0.0618,0.007 -0.11668,-0.0412 -0.12343,-0.10192 -0.008,-0.0693 0.0463,-0.13093 0.11443,-0.13846 0.0777,-0.009 0.14678,0.0519 0.15518,0.12837 0.01,0.0871 -0.0583,0.1644 -0.14387,0.17376 -0.0974,0.0107 -0.18396,-0.0653 -0.19439,-0.1611 -0.0119,-0.10896 0.0731,-0.20567 0.18023,-0.21727 0.12172,-0.0132 0.22974,0.0817 0.24263,0.20145 0.0146,0.13586 -0.0913,0.2564 -0.22496,0.27072 -0.15152,0.0162 -0.28592,-0.10195 -0.30182,-0.25101 -0.018,-0.16883 0.11372,-0.31857 0.27985,-0.3362 0.18797,-0.0199 0.35465,0.12674 0.37418,0.31173 0.0221,0.20911 -0.14114,0.39451 -0.34695,0.41613 -0.23245,0.0244 -0.43849,-0.15704 -0.46241,-0.38585 -0.027,-0.25818 0.1746,-0.48699 0.42876,-0.51344 0.28655,-0.0298 0.54044,0.19396 0.56966,0.47608 0.0329,0.31778 -0.21531,0.5993 -0.52821,0.63155 -0.35215,0.0363 -0.66406,-0.23882 -0.69964,-0.58561 -0.04,-0.38994 0.26469,-0.73527 0.64875,-0.7745 0.43148,-0.0441 0.81353,0.29316 0.85674,0.71817 0.0485,0.47711 -0.32444,0.89948 -0.79444,0.94705 -0.52717,0.0533 -0.99379,-0.35881 -1.04612,-0.87818 -0.0587,-0.58208 0.39652,-1.09722 0.97006,-1.15476 0.64227,-0.0644 1.21059,0.4379 1.2738,1.0708 0.0707,0.70821 -0.48326,1.33476 -1.1812,1.40417 -0.78037,0.0776 -1.47067,-0.53295 -1.54683,-1.30209 -0.0851,-0.85933 0.58735,-1.61935 1.4344,-1.70287 0.94565,-0.0932 1.78189,0.64687 1.87342,1.5791 0.10211,1.03998 -0.71196,1.95949 -1.73727,2.05974 -1.14298,0.11176 -2.15341,-0.78309 -2.26315,-1.91006 -0.12225,-1.2554 0.86077,-2.36504 2.0987,-2.4851 1.37801,-0.13363 2.59587,0.94557 2.72712,2.30454 0.14601,1.51168 -1.03807,2.84747 -2.52899,2.9909 -1.65731,0.15943 -3.12159,-1.13892 -3.27822,-2.77362 -0.17399,-1.81589 1.24881,-3.42006 3.04008,-3.59101 1.98848,-0.18978 3.74486,1.36849 3.93135,3.33017 0.20689,2.17619 -1.49875,4.09812 -3.6458,4.30144 -2.38026,0.22541 -4.48214,-1.64044 -4.7037,-3.98904 -0.24547,-2.60199 1.79451,-4.89938 4.3621,-5.14067 2.84279,-0.26716 5.35246,1.96192 5.61512,4.76737 0.29062,3.10416 -2.14376,5.84421 -5.20739,6.12997 -3.3877,0.31599 -6.37768,-2.34114 -6.68841,-5.68488 -0.34339,-3.69517 2.5553,-6.9561 6.20281,-7.29382 4.02838,-0.37298 7.58293,2.78755 7.94979,6.76429 0.40493,4.38933 -3.03927,8.26192 -7.37267,8.66024 -4.78015,0.43939 -8.99705,-3.31199 -9.42932,-8.03158 -0.47655,-5.20309 3.6073,-9.79255 8.74487,-10.26144 5.66057,-0.51661 10.653,3.92691 11.16135,9.51663 0.55979,6.1552 -4.27266,11.58325 -10.35127,12.13414 -6.68974,0.60628 -12.58852,-4.64652 -13.18522,-11.25351 -0.65633,-7.26714 5.05059,-13.67434 12.22835,-14.32037 7.89057,-0.71019 14.84666,5.48711 15.54578,13.28118 0.76812,8.56338 -5.95846,16.11178 -14.41772,16.868 -9.28916,0.83042 -17.47646,-6.46719 -18.29409,-15.64406 -0.89736,-10.07176 7.01605,-18.94788 16.96674,-19.83152 10.91525,-0.96928 20.53373,7.60791 21.48828,18.3927 1.04653,11.82397 -8.24588,22.24216 -19.92933,23.27287 -12.80258,1.12944 -24.08188,-8.93326 -25.19436,-21.58453 -1.21841,-13.856 9.67357,-26.06216 23.36672,-27.26238 14.98947,-1.31385 28.19283,10.47053 29.48719,25.2848 1.41618,16.2086 -11.32815,30.48442 -27.34834,31.87972 -17.51931,1.52586 -32.94807,-12.25064 -34.45156,-29.56742 -1.64337,-18.92794 13.24253,-35.59565 31.95284,-37.21507 4.88559,-0.42286 9.84457,0.1632 14.5023,1.69454"/> </g> </g> <path id="rect894" style="fill:url(#linearGradient1087);stroke:#003d00;stroke-width:0.269416;stroke-linecap:round;stop-color:#000000" d="M 45.697322,33.149165 H 168.56305 c 17.42483,0 31.45277,12.001044 31.45277,26.908191 0,0 -2.0985,21.712152 0,37.604636 2.0985,15.892488 1.54378,27.539808 0,37.604638 -1.54378,10.06483 2.14248,25.25421 0,37.60463 -2.27543,13.11682 -13.45167,37.60465 -13.45167,37.60465 -5.0209,14.03613 -9.28868,26.90818 -18.0011,26.90818 -10.7914,0 -20.50298,-0.72018 -30.71643,0 -10.40771,0.73388 -20.5574,4.40545 -30.99095,4.39238 -10.252381,-0.0128 -20.215832,-3.65843 -30.441916,-4.39238 -10.212541,-0.73297 -20.025706,0 -30.716432,0 -8.712418,0 -12.250735,-12.9379 -17.45206,-26.90818 0,0 -11.629713,-24.44099 -14.000714,-37.60463 -2.221995,-12.33637 1.807702,-20.73128 0,-37.60465 -1.807702,-16.87337 -1.852504,-29.51579 0,-37.604664 1.852504,-8.08887 0,-37.60461 0,-37.60461 0,-14.907147 14.027939,-26.908191 31.452774,-26.908191 z"/> <path id="rect13141" style="fill:#2b0000;stroke:#000000;stroke-width:0.269416;stroke-linecap:round;filter:url(#filter15679);stop-color:#000000" d="m 69.440943,32.728328 c 3.396199,-0.07694 24.232711,-10.02012 24.232711,-10.02012 0,0 -10.012011,10.613924 -5.415858,10.02012 4.596153,-0.593804 24.369974,-8.922023 24.369974,-8.922023 0,0 -10.06243,8.74602 -5.55312,8.922023 4.50931,0.176003 22.8601,-7.96119 22.8601,-7.96119 0,0 -7.37946,7.984248 -4.04324,7.96119 3.33622,-0.02306 20.38937,-8.922024 20.38937,-8.922024 0,0 -5.8647,9.751499 -1.57252,8.922024 7.78307,-3.779652 45.86716,0.998577 54.88,4.030274 3.45823,1.163262 5.61872,-2.648802 5.76426,-0.796676 0.23376,2.974891 -3.42968,12.755854 -5.48974,22.595491 0.0422,3.35348 0.31579,24.883679 0.31579,24.883679 -2.85605,1.867551 -16.77467,-14.290388 -17.83656,-12.776294 -1.23857,2.884154 -3.6115,9.564629 -3.6115,9.564629 0,0 -3.1014,0.304056 -5.79694,-9.564629 -1.09651,5.376688 -3.92899,8.839077 -3.92899,8.839077 0,0 -3.34929,-2.430329 -5.47945,-8.839077 -1.06292,6.283209 -3.92782,9.65699 -3.92782,9.65699 0,0 -3.38249,-3.064212 -5.48059,-9.65699 -1.56806,5.776272 -4.70422,8.31367 -4.70422,8.31367 0,0 -3.13614,-3.005048 -4.70421,-8.31367 -1.24707,2.809682 -3.61398,9.542746 -3.61398,9.542746 0,0 -3.09373,0.371234 -5.79443,-9.542746 -1.06247,3.726806 -3.56733,8.379923 -3.56733,8.379923 0,0 -3.2628,-0.933498 -5.84111,-8.379923 -1.3112,2.573893 -3.96526,7.404374 -3.96526,7.404374 0,0 -3.1467,-0.105767 -5.44317,-7.404374 -1.28807,3.869767 -3.95921,10.296285 -3.95921,10.296285 0,0 -3.16781,-0.437672 -5.44921,-10.296285 -1.14567,4.524362 -3.93302,8.260239 -3.93302,8.260239 0,0 -3.30147,-1.770948 -5.4754,-8.260239 -1.56807,6.739549 -4.704216,8.812611 -4.704216,8.812611 0,0 -3.136145,-3.802011 -4.704215,-8.812611 -1.154426,2.343896 -2.923797,10.088591 -2.923797,10.088591 0,0 -2.956313,1.018969 -6.484622,-10.088591 -1.398851,0.974463 -3.658698,6.020693 -3.658698,6.020693 0,0 -2.95686,1.032435 -5.749734,-6.020693 -1.56807,3.185975 -4.704215,8.025287 -4.704215,8.025287 0,0 -3.136146,-0.510879 -4.704217,-8.025287 -0.678375,5.225828 -3.157459,9.085206 -3.157459,9.085206 0,0 -3.510252,-2.197426 -6.250962,-9.085206 -0.69553,5.185385 -2.803625,11.294914 -2.803625,11.294914 0,0 -3.375156,-1.420412 -6.604806,-11.294914 -0.90042,3.045022 -2.850031,8.456532 -2.850031,8.456532 0,0 -3.185734,-0.226178 -6.558399,-8.456532 -4.098099,5.24372 -10.947131,7.910657 -17.441864,10.560593 -1.085324,0 -0.551833,-21.187199 -0.07897,-22.667978 0.239443,-0.74982 -4.8970455,-14.466254 -4.839457,-20.677173 0.02975,-3.208539 1.848176,-0.590105 5.663028,-1.192407 11.199441,-1.768206 26.372521,-6.64511 54.330929,-3.959509 z"/> <path id="path15550" style="fill:#2b0000;stroke:#000000;stroke-width:0.269416;stroke-linecap:round;stop-color:#000000" d="m 69.440943,31.630233 c 3.396199,-0.07694 24.232711,-10.02012 24.232711,-10.02012 0,0 -10.012011,10.613924 -5.415858,10.02012 4.596153,-0.593804 24.369974,-8.922023 24.369974,-8.922023 0,0 -10.06243,8.74602 -5.55312,8.922023 4.50931,0.176003 22.8601,-7.96119 22.8601,-7.96119 0,0 -7.37946,7.984248 -4.04324,7.96119 3.33622,-0.02306 20.38937,-8.922024 20.38937,-8.922024 0,0 -5.8647,9.751499 -1.57252,8.922024 7.78307,-3.779652 45.86716,0.998577 54.88,4.030274 3.45823,1.163262 5.61872,-2.648802 5.76426,-0.796676 0.23376,2.974891 -3.42968,12.755854 -5.48974,22.595491 0.0422,3.353479 0.31579,24.883679 0.31579,24.883679 -2.85605,1.867551 -16.77467,-14.290389 -17.83656,-12.776295 -1.23857,2.884154 -3.6115,9.564629 -3.6115,9.564629 0,0 -3.1014,0.304056 -5.79694,-9.564629 -1.09651,5.376688 -3.92899,8.839077 -3.92899,8.839077 0,0 -3.34929,-2.430329 -5.47945,-8.839077 -1.06292,6.283209 -3.92782,9.65699 -3.92782,9.65699 0,0 -3.38249,-3.064212 -5.48059,-9.65699 -1.56806,5.776272 -4.70422,8.31367 -4.70422,8.31367 0,0 -3.13614,-3.005048 -4.70421,-8.31367 -1.24707,2.809682 -3.61398,9.542746 -3.61398,9.542746 0,0 -3.09373,0.371234 -5.79443,-9.542746 -1.06247,3.726806 -3.56733,8.379923 -3.56733,8.379923 0,0 -3.2628,-0.933498 -5.84111,-8.379923 -1.3112,2.573893 -3.96526,7.404374 -3.96526,7.404374 0,0 -3.1467,-0.105767 -5.44317,-7.404374 -1.28807,3.869767 -3.95921,10.296286 -3.95921,10.296286 0,0 -3.16781,-0.437673 -5.44921,-10.296286 -1.14567,4.524362 -3.93302,8.260239 -3.93302,8.260239 0,0 -3.30147,-1.770948 -5.4754,-8.260239 -1.56807,6.739549 -4.704216,8.812611 -4.704216,8.812611 0,0 -3.136145,-3.802011 -4.704215,-8.812611 -1.154426,2.343896 -2.923797,10.088591 -2.923797,10.088591 0,0 -2.956313,1.01897 -6.484622,-10.088591 -1.398851,0.974463 -3.658698,6.020693 -3.658698,6.020693 0,0 -2.95686,1.032435 -5.749734,-6.020693 -1.56807,3.185975 -4.704215,8.025287 -4.704215,8.025287 0,0 -3.136146,-0.510879 -4.704217,-8.025287 -0.678375,5.225828 -3.157459,9.085206 -3.157459,9.085206 0,0 -3.510252,-2.197426 -6.250962,-9.085206 -0.69553,5.185385 -2.803625,11.294915 -2.803625,11.294915 0,0 -3.375156,-1.420413 -6.604806,-11.294915 -0.90042,3.045022 -2.850031,8.456532 -2.850031,8.456532 0,0 -3.185734,-0.226178 -6.558399,-8.456532 -4.098099,5.24372 -10.947131,7.910657 -17.441864,10.560594 -1.085324,0 -0.551833,-21.187199 -0.07897,-22.667978 0.239443,-0.74982 -4.8970455,-14.466254 -4.839457,-20.677173 0.02975,-3.208539 1.848176,-0.590105 5.663028,-1.192407 11.199441,-1.768206 26.372521,-6.64511 54.330929,-3.959509 z"/> <g id="g27171" style="stroke-width:1.01667"> <g id="g29474" style="stroke-width:1.01667"> <path id="rect3726" style="fill:#2b0000;stroke:#000000;stroke-width:0.101667;stroke-linecap:round;stroke-linejoin:round;stroke-miterlimit:4;stroke-dasharray:none;filter:url(#filter15957);stop-color:#000000" d="m 26.40297,98.102303 c 0,0 26.809945,-6.807603 40.374993,-6.807603 13.565054,0 26.809944,6.807603 40.374987,6.807603 13.56506,0 26.80995,-6.55547 40.375,-6.55547 13.56505,0 40.37499,6.55547 40.37499,6.55547 v 0.50427 0.50426 0.50427 0.504267 c 0,0 -26.83014,-6.303336 -40.37499,-6.303336 -13.54484,0 -26.83121,6.135889 -40.375,6.303336 -13.509665,0.16703 -26.736788,-6.55547 -40.374987,-6.555469 -13.6382,0 -40.374993,6.555469 -40.374993,6.555469 v -0.504267 -0.50427 -0.50426 z"/> <g id="g16519" style="stroke-width:1.01667"> <g id="g5145" style="stroke-width:1.01667"> <g id="g5123" transform="matrix(1,0,0,0.67898206,0,28.992905)" style="stroke-width:1.23382"> <path id="path5618" style="fill:url(#linearGradient7715);fill-opacity:1;stroke:#003d00;stroke-width:0.326959;stroke-linecap:round;stop-color:#000000" d="m 171.60156,105.30291 c 0.62974,10.71532 -17.99919,22.05608 -34.49328,24.36213 -16.49408,2.30608 -23.6375,-5.32878 -23.28065,-13.38009 0.35679,-8.0513 5.23222,-17.85848 21.72631,-20.164536 16.49407,-2.30608 35.42439,-1.422019 36.04762,9.182496 z"/> <g id="g9194" transform="matrix(0.64734981,-0.09365043,0.07126291,0.49259815,-58.977015,86.303707)" style="stroke-width:2.16241"> <path d="m 251.17185,130.21373 a 11.856221,11.856221 0 0 1 -11.85621,11.85623 11.856221,11.856221 0 0 1 -11.85623,-11.85623 11.856221,11.856221 0 0 1 11.85623,-11.85621 11.856221,11.856221 0 0 1 11.85621,11.85621 z" style="fill:#ffffff;fill-opacity:1;fill-rule:evenodd;stroke:#ed5200;stroke-width:0.342224;stroke-opacity:1;filter:url(#filter4498-6)" id="path1047" transform="matrix(2.643851,0,0,2.6690128,-340.18857,-238.48879)"/> <g transform="matrix(2.643851,0,0,2.6690128,-330.76906,-344.55268)" id="g1055" style="stroke-width:1.16718;filter:url(#filter4514-0)"> <path id="path1049" style="fill:#554400;fill-opacity:1;fill-rule:evenodd;stroke-width:0.309303" d="m 246.46845,169.95273 a 10.715625,10.715625 0 0 1 -10.71562,10.71563 10.715625,10.715625 0 0 1 -10.71562,-10.71563 10.715625,10.715625 0 0 1 10.71562,-10.71562 10.715625,10.715625 0 0 1 10.71562,10.71562 z"/> <path d="m 246.46845,169.95273 a 10.715625,10.715625 0 0 1 -10.71562,10.71563 10.715625,10.715625 0 0 1 -10.71562,-10.71563 10.715625,10.715625 0 0 1 10.71562,-10.71562 10.715625,10.715625 0 0 1 10.71562,10.71562 z" style="fill:url(#radialGradient1061);fill-opacity:1;fill-rule:evenodd;stroke-width:0.309303" id="path1051"/> <path id="path1053" style="fill:#552200;fill-opacity:1;fill-rule:evenodd;stroke-width:0.168948" d="m 241.60589,169.95273 a 5.8530627,5.8530627 0 0 1 -5.85306,5.85307 5.8530627,5.8530627 0 0 1 -5.85306,-5.85307 5.8530627,5.8530627 0 0 1 5.85306,-5.85306 5.8530627,5.8530627 0 0 1 5.85306,5.85306 z"/> </g> <path d="m 241.99751,132.79686 a 1.3219686,1.3219686 0 0 1 -1.32197,1.32197 1.3219686,1.3219686 0 0 1 -1.32196,-1.32197 1.3219686,1.3219686 0 0 1 1.32196,-1.32197 1.3219686,1.3219686 0 0 1 1.32197,1.32197 z" style="fill:#ffe6d5;fill-opacity:1;fill-rule:evenodd;stroke-width:0.0534842;filter:url(#filter4530-3)" id="path1057" transform="matrix(1.886247,0,0,1.9041986,-153.98473,-151.62172)"/> <path d="m 241.99751,132.79686 a 1.3219686,1.3219686 0 0 1 -1.32197,1.32197 1.3219686,1.3219686 0 0 1 -1.32196,-1.32197 1.3219686,1.3219686 0 0 1 1.32196,-1.32197 1.3219686,1.3219686 0 0 1 1.32197,1.32197 z" style="fill:#ffe6d5;fill-opacity:1;fill-rule:evenodd;stroke-width:0.0166633;filter:url(#filter4530-3)" id="path9105" transform="matrix(6.0543502,0,0,6.1119701,-1167.5101,-699.02978)"/> </g> </g> <g id="g9667" transform="matrix(-1.1885541,-0.13784124,-0.15461198,0.61460987,421.7277,66.240225)" style="stroke-width:1.17254"> <path id="path9649" style="fill:url(#linearGradient9669);fill-opacity:1;stroke:#003d00;stroke-width:0.310719;stroke-linecap:round;stop-color:#000000" d="m 302.62204,122.72743 c -0.75548,11.64658 -17.3928,20.96452 -31.20502,20.87818 -13.81222,-0.0863 -18.76897,-9.42851 -17.52003,-18.05014 1.2489,-8.62163 6.4152,-18.43113 20.22743,-18.3448 13.81221,0.0863 29.24529,3.99061 28.49762,15.51676 z"/> <g id="g9665" transform="matrix(0.54246692,0,0,0.5420068,115.61853,66.300496)" style="stroke-width:2.16241"> <path d="m 251.17185,130.21373 a 11.856221,11.856221 0 0 1 -11.85621,11.85623 11.856221,11.856221 0 0 1 -11.85623,-11.85623 11.856221,11.856221 0 0 1 11.85623,-11.85621 11.856221,11.856221 0 0 1 11.85621,11.85621 z" style="fill:#ffffff;fill-opacity:1;fill-rule:evenodd;stroke:#ed5200;stroke-width:0.342224;stroke-opacity:1;filter:url(#filter4498-6)" id="path9651" transform="matrix(2.643851,0,0,2.6690128,-340.18857,-238.48879)"/> <g transform="matrix(2.643851,0,0,2.6690128,-330.76906,-344.55268)" id="g9659" style="stroke-width:1.16718;filter:url(#filter4514-0)"> <path id="path9653" style="fill:#554400;fill-opacity:1;fill-rule:evenodd;stroke-width:0.309303" d="m 246.46845,169.95273 a 10.715625,10.715625 0 0 1 -10.71562,10.71563 10.715625,10.715625 0 0 1 -10.71562,-10.71563 10.715625,10.715625 0 0 1 10.71562,-10.71562 10.715625,10.715625 0 0 1 10.71562,10.71562 z"/> <path d="m 246.46845,169.95273 a 10.715625,10.715625 0 0 1 -10.71562,10.71563 10.715625,10.715625 0 0 1 -10.71562,-10.71563 10.715625,10.715625 0 0 1 10.71562,-10.71562 10.715625,10.715625 0 0 1 10.71562,10.71562 z" style="fill:url(#radialGradient9671);fill-opacity:1;fill-rule:evenodd;stroke-width:0.309303" id="path9655"/> <path id="path9657" style="fill:#552200;fill-opacity:1;fill-rule:evenodd;stroke-width:0.168948" d="m 241.60589,169.95273 a 5.8530627,5.8530627 0 0 1 -5.85306,5.85307 5.8530627,5.8530627 0 0 1 -5.85306,-5.85307 5.8530627,5.8530627 0 0 1 5.85306,-5.85306 5.8530627,5.8530627 0 0 1 5.85306,5.85306 z"/> </g> <path d="m 241.99751,132.79686 a 1.3219686,1.3219686 0 0 1 -1.32197,1.32197 1.3219686,1.3219686 0 0 1 -1.32196,-1.32197 1.3219686,1.3219686 0 0 1 1.32196,-1.32197 1.3219686,1.3219686 0 0 1 1.32197,1.32197 z" style="fill:#ffe6d5;fill-opacity:1;fill-rule:evenodd;stroke-width:0.0534842;filter:url(#filter4530-3)" id="path9661" transform="matrix(1.886247,0,0,1.9041986,-153.98473,-151.62172)"/> <path d="m 241.99751,132.79686 a 1.3219686,1.3219686 0 0 1 -1.32197,1.32197 1.3219686,1.3219686 0 0 1 -1.32196,-1.32197 1.3219686,1.3219686 0 0 1 1.32196,-1.32197 1.3219686,1.3219686 0 0 1 1.32197,1.32197 z" style="fill:#ffe6d5;fill-opacity:1;fill-rule:evenodd;stroke-width:0.0166633;filter:url(#filter4530-3)" id="path9663" transform="matrix(6.0543502,0,0,6.1119701,-1167.5101,-699.02978)"/> </g> </g> </g> <path id="path15927" style="fill:#2b0000;stroke:#000000;stroke-width:0.101667;stroke-linecap:round;stroke-linejoin:round;stroke-miterlimit:4;stroke-dasharray:none;stop-color:#000000" d="m 26.40297,98.514088 c 0,0 26.809945,-6.807602 40.374993,-6.807602 13.565054,0 26.809944,6.807602 40.374987,6.807602 13.56506,0 26.80995,-6.555469 40.375,-6.555469 13.56505,0 40.37499,6.555469 40.37499,6.555469 v 0.50427 0.50426 0.504272 0.50427 c 0,0 -26.83014,-6.30334 -40.37499,-6.30334 -13.54484,0 -26.83121,6.13589 -40.375,6.30334 -13.509665,0.16703 -26.736788,-6.555474 -40.374987,-6.555473 -13.6382,0 -40.374993,6.555473 -40.374993,6.555473 v -0.50427 -0.504272 -0.50426 z"/> </g> <g id="g26939" transform="matrix(0.54835867,0.33417086,0.36413444,-0.47348285,-85.498328,174.18944)" style="stroke-width:1.64639"> <path id="path26935" style="opacity:1;fill:#2b0000;stroke:#2b0000;stroke-width:0.164639;stroke-linecap:round;stroke-linejoin:round;filter:url(#filter26253);stop-color:#000000" d="m 107.70621,193.34094 a 21.906368,8.3193601 0 0 0 -21.905954,8.31934 21.906368,8.3193601 0 0 0 0.167447,0.99839 21.906368,8.3193601 0 0 1 21.738507,-7.32095 21.906368,8.3193601 0 0 1 21.74261,7.30707 21.906368,8.3193601 0 0 0 0.16381,-0.98451 21.906368,8.3193601 0 0 0 -21.90642,-8.31934 z"/> <path id="path26937" style="opacity:1;fill:#2b0000;stroke:#2b0000;stroke-width:0.164639;stroke-linecap:round;stroke-linejoin:round;stop-color:#000000" d="m 107.70621,192.75858 a 21.906368,8.3193601 0 0 0 -21.905954,8.31934 21.906368,8.3193601 0 0 0 0.167447,0.99839 21.906368,8.3193601 0 0 1 21.738507,-7.32095 21.906368,8.3193601 0 0 1 21.74261,7.30707 21.906368,8.3193601 0 0 0 0.16381,-0.98451 21.906368,8.3193601 0 0 0 -21.90642,-8.31934 z"/> </g> <g id="g27115" transform="matrix(-0.54835867,0.33417086,-0.36413444,-0.47348285,297.97153,174.18944)" style="stroke-width:1.64639"> <path id="path27111" style="opacity:1;fill:#2b0000;stroke:#2b0000;stroke-width:0.164639;stroke-linecap:round;stroke-linejoin:round;filter:url(#filter26253);stop-color:#000000" d="m 107.70621,193.34094 a 21.906368,8.3193601 0 0 0 -21.905954,8.31934 21.906368,8.3193601 0 0 0 0.167447,0.99839 21.906368,8.3193601 0 0 1 21.738507,-7.32095 21.906368,8.3193601 0 0 1 21.74261,7.30707 21.906368,8.3193601 0 0 0 0.16381,-0.98451 21.906368,8.3193601 0 0 0 -21.90642,-8.31934 z"/> <path id="path27113" style="opacity:1;fill:#2b0000;stroke:#2b0000;stroke-width:0.164639;stroke-linecap:round;stroke-linejoin:round;stop-color:#000000" d="m 107.70621,192.75858 a 21.906368,8.3193601 0 0 0 -21.905954,8.31934 21.906368,8.3193601 0 0 0 0.167447,0.99839 21.906368,8.3193601 0 0 1 21.738507,-7.32095 21.906368,8.3193601 0 0 1 21.74261,7.30707 21.906368,8.3193601 0 0 0 0.16381,-0.98451 21.906368,8.3193601 0 0 0 -21.90642,-8.31934 z"/> </g> </g> </g> <g id="g26949" transform="translate(0,5.4352941)" style="stroke-width:1.01667"> <path id="rect16543" style="fill:#2b0000;stroke:#2b0000;stroke-width:0.101667;stroke-linecap:round;stroke-linejoin:round;filter:url(#filter22442);stop-color:#000000" d="m 82.91123,137.69738 c 0,0 15.54651,-16.08336 24.56484,-16.08336 9.01834,0 24.56484,16.08336 24.56484,16.08336 2.07379,1.35778 4.12277,0.38173 4.12277,0.85589 v 1.21249 c 0,0.47415 -1.83875,0.85588 -4.12277,0.85588 0,0 -15.57035,-15.83969 -24.56484,-15.83969 -8.99449,0 -24.56484,15.83969 -24.56484,15.83969 -2.139293,1.37943 -4.122769,-0.38173 -4.122769,-0.85588 v -1.21249 c 0,-0.47416 1.838754,-0.85589 4.122769,-0.85589 z"/> <path id="path22412" style="fill:#2b0000;stroke:#2b0000;stroke-width:0.101667;stroke-linecap:round;stroke-linejoin:round;stop-color:#000000" d="m 82.91123,137.14833 c 0,0 15.54651,-16.08336 24.56484,-16.08336 9.01834,0 24.56484,16.08336 24.56484,16.08336 2.07379,1.35778 4.12277,0.38173 4.12277,0.85589 v 1.21249 c 0,0.47415 -1.83875,0.85588 -4.12277,0.85588 0,0 -15.57035,-15.83969 -24.56484,-15.83969 -8.99449,0 -24.56484,15.83969 -24.56484,15.83969 -2.139293,1.37943 -4.122769,-0.38173 -4.122769,-0.85588 v -1.21249 c 0,-0.47416 1.838754,-0.85589 4.122769,-0.85589 z"/> </g> <g id="g22729" style="stroke-width:1.01667"> <g id="g22583" style="stroke-width:1.01667;filter:url(#filter22701)"> <path id="rect18305" style="opacity:1;fill:#2b0000;stroke:#2b0000;stroke-width:0.101666;stroke-linecap:round;stroke-linejoin:round;stop-color:#000000" d="m 37.884301,156.99509 c 0,0 20.285735,24.66551 34.795887,27.36609 11.930137,2.22039 22.660626,-10.69953 34.795892,-10.69953 12.13526,0 22.86576,12.91992 34.79589,10.69953 14.51015,-2.70058 34.79589,-27.36609 34.79589,-27.36609 v 2.05759 c 0,0 -20.15982,25.25865 -34.79589,27.98337 -11.97041,2.22847 -22.61955,-11.11104 -34.79589,-11.11104 -12.176344,0 -22.829493,13.36092 -34.795892,11.11104 -14.673547,-2.75887 -34.795887,-28.18913 -34.795887,-28.18913 z"/> <path id="path22231" style="opacity:1;fill:#2b0000;stroke:#2b0000;stroke-width:0.101667;stroke-linecap:round;stroke-linejoin:round;stop-color:#000000" d="m 171.70937,145.14651 c 0,0 1.4501,10.63543 4.93866,13.19534 3.48855,2.55991 14.06611,0.75041 14.06611,0.75041 1.18749,0.0633 1.70313,1.02259 1.83766,0.83914 l 0.34405,-0.4691 c 0.13456,-0.18345 -0.46839,-0.85308 -1.35193,-1.50141 0,0 -10.51765,1.70846 -13.99698,-0.84468 -3.47932,-2.55314 -5.00779,-13.10107 -5.00779,-13.10107 -0.43612,-1.14093 -1.70313,-1.02258 -1.83767,-0.83913 l -0.34405,0.46909 c -0.13455,0.18346 0.4684,0.85309 1.35194,1.50141 z"/> <path id="path21658" style="opacity:1;fill:#2b0000;stroke:#2b0000;stroke-width:0.101667;stroke-linecap:round;stroke-linejoin:round;stop-color:#000000" d="m 39.94442,144.16907 c 0,0 1.351957,10.64835 -1.355173,14.02394 -2.707129,3.37559 -13.3926,4.36542 -13.3926,4.36542 -1.130642,0.36848 -1.380434,1.42855 -1.557862,1.28617 l -0.45374,-0.36407 c -0.17745,-0.14238 0.231638,-0.94524 0.917278,-1.80016 0,0 10.60145,-1.07192 13.301424,-4.43858 2.699966,-3.36666 1.446349,-13.95078 1.446349,-13.95078 0.125963,-1.21493 1.38043,-1.42853 1.557867,-1.28616 l 0.453735,0.36406 c 0.177448,0.14239 -0.23164,0.94525 -0.917278,1.80016 z"/> </g> <g id="g22671" transform="translate(0,0.58235294)" style="stroke-width:1.01667"> <path id="path22665" style="opacity:1;fill:#2b0000;stroke:#2b0000;stroke-width:0.101666;stroke-linecap:round;stroke-linejoin:round;stop-color:#000000" d="m 37.884301,156.99509 c 0,0 20.285735,24.66551 34.795887,27.36609 11.930137,2.22039 22.660626,-10.69953 34.795892,-10.69953 12.13526,0 22.86576,12.91992 34.79589,10.69953 14.51015,-2.70058 34.79589,-27.36609 34.79589,-27.36609 v 2.05759 c 0,0 -20.15982,25.25865 -34.79589,27.98337 -11.97041,2.22847 -22.61955,-11.11104 -34.79589,-11.11104 -12.176344,0 -22.829493,13.36092 -34.795892,11.11104 -14.673547,-2.75887 -34.795887,-28.18913 -34.795887,-28.18913 z"/> <path id="path22667" style="opacity:1;fill:#2b0000;stroke:#2b0000;stroke-width:0.101667;stroke-linecap:round;stroke-linejoin:round;stop-color:#000000" d="m 171.70937,145.14651 c 0,0 1.4501,10.63543 4.93866,13.19534 3.48855,2.55991 14.06611,0.75041 14.06611,0.75041 1.18749,0.0633 1.70313,1.02259 1.83766,0.83914 l 0.34405,-0.4691 c 0.13456,-0.18345 -0.46839,-0.85308 -1.35193,-1.50141 0,0 -10.51765,1.70846 -13.99698,-0.84468 -3.47932,-2.55314 -5.00779,-13.10107 -5.00779,-13.10107 -0.43612,-1.14093 -1.70313,-1.02258 -1.83767,-0.83913 l -0.34405,0.46909 c -0.13455,0.18346 0.4684,0.85309 1.35194,1.50141 z"/> <path id="path22669" style="opacity:1;fill:#2b0000;stroke:#2b0000;stroke-width:0.101667;stroke-linecap:round;stroke-linejoin:round;stop-color:#000000" d="m 39.94442,144.16907 c 0,0 1.351957,10.64835 -1.355173,14.02394 -2.707129,3.37559 -13.3926,4.36542 -13.3926,4.36542 -1.130642,0.36848 -1.380434,1.42855 -1.557862,1.28617 l -0.45374,-0.36407 c -0.17745,-0.14238 0.231638,-0.94524 0.917278,-1.80016 0,0 10.60145,-1.07192 13.301424,-4.43858 2.699966,-3.36666 1.446349,-13.95078 1.446349,-13.95078 0.125963,-1.21493 1.38043,-1.42853 1.557867,-1.28616 l 0.453735,0.36406 c 0.177448,0.14239 -0.23164,0.94525 -0.917278,1.80016 z"/> </g> </g> <g id="g25170" transform="matrix(0.87427689,0,0,0.8482465,17.311277,29.980763)" style="stroke-width:1.18057"> <g id="g25096" transform="matrix(0.74048192,-0.11896678,0.10162252,0.86686248,-70.635295,98.376958)" style="stroke-width:1.45986;filter:url(#filter25138)"> <path id="rect23940" style="opacity:1;fill:#2b0000;stroke:#2b0000;stroke-width:0.145986;stroke-linecap:round;stroke-linejoin:round;stop-color:#000000" d="m 270.54728,183.21399 47.49003,-17.48397 4.28952,-0.77085 -3.76432,2.19426 -48.3232,17.79069 -3.73408,0.56637 z"/> <path id="path24885" style="opacity:1;fill:#2b0000;stroke:#2b0000;stroke-width:0.145986;stroke-linecap:round;stroke-linejoin:round;stop-color:#000000" d="m 282.08263,167.66244 34.10394,12.54545 3.08043,0.55312 -2.70327,-1.57448 -34.70226,-12.76554 -2.68155,-0.40638 z"/> <path id="path24986" style="opacity:1;fill:#2b0000;stroke:#2b0000;stroke-width:0.145986;stroke-linecap:round;stroke-linejoin:round;stop-color:#000000" d="m 293.44214,163.82097 31.06166,11.42307 2.80563,0.50363 -2.46212,-1.43361 -31.6066,-11.62347 -2.44234,-0.37002 z"/> <path id="path24988" style="opacity:1;fill:#2b0000;stroke:#2b0000;stroke-width:0.145986;stroke-linecap:round;stroke-linejoin:round;stop-color:#000000" d="m 273.52926,172.35294 32.88703,12.0965 2.97051,0.53333 -2.60681,-1.51813 -33.46399,-12.30871 -2.58587,-0.39185 z"/> <path id="path25089" style="opacity:1;fill:#2b0000;stroke:#2b0000;stroke-width:0.145986;stroke-linecap:round;stroke-linejoin:round;stop-color:#000000" d="m 261.75543,176.7501 31.06166,11.42307 2.80563,0.50363 -2.46212,-1.43361 -31.6066,-11.62347 -2.44234,-0.37002 z"/> </g> <g id="g25108" transform="matrix(0.74048192,-0.11896678,0.10162252,0.86686248,-70.829412,98.085782)" style="stroke-width:1.45986"> <path id="path25098" style="opacity:1;fill:#2b0000;stroke:#2b0000;stroke-width:0.145986;stroke-linecap:round;stroke-linejoin:round;stop-color:#000000" d="m 270.54728,183.21399 47.49003,-17.48397 4.28952,-0.77085 -3.76432,2.19426 -48.3232,17.79069 -3.73408,0.56637 z"/> <path id="path25100" style="opacity:1;fill:#2b0000;stroke:#2b0000;stroke-width:0.145986;stroke-linecap:round;stroke-linejoin:round;stop-color:#000000" d="m 282.08263,167.66244 34.10394,12.54545 3.08043,0.55312 -2.70327,-1.57448 -34.70226,-12.76554 -2.68155,-0.40638 z"/> <path id="path25102" style="opacity:1;fill:#2b0000;stroke:#2b0000;stroke-width:0.145986;stroke-linecap:round;stroke-linejoin:round;stop-color:#000000" d="m 293.44214,163.82097 31.06166,11.42307 2.80563,0.50363 -2.46212,-1.43361 -31.6066,-11.62347 -2.44234,-0.37002 z"/> <path id="path25104" style="opacity:1;fill:#2b0000;stroke:#2b0000;stroke-width:0.145986;stroke-linecap:round;stroke-linejoin:round;stop-color:#000000" d="m 273.52926,172.35294 32.88703,12.0965 2.97051,0.53333 -2.60681,-1.51813 -33.46399,-12.30871 -2.58587,-0.39185 z"/> <path id="path25106" style="opacity:1;fill:#2b0000;stroke:#2b0000;stroke-width:0.145986;stroke-linecap:round;stroke-linejoin:round;stop-color:#000000" d="m 261.75543,176.7501 31.06166,11.42307 2.80563,0.50363 -2.46212,-1.43361 -31.6066,-11.62347 -2.44234,-0.37002 z"/> </g> </g> <g id="g29202" transform="translate(-164.71429,-16.745952)" style="stroke-width:1.01667"> <path id="path28349" style="fill:#2b0000;stroke:#2b0000;stroke-width:0.101667;stroke-linecap:round;stroke-linejoin:round;filter:url(#filter28400);stop-color:#000000" d="m 270.3768,208.90497 c -12.09837,1.3e-4 -22.05151,6.42527 -21.90595,10.81195 0.003,0.50904 0.0589,1.01751 0.16744,1.52266 1.32949,-6.36997 10.6604,-11.16249 21.73851,-11.16528 11.06733,2.9e-4 20.39594,4.78164 21.74261,11.14411 0.10583,-0.49818 0.16053,-0.99956 0.16381,-1.50149 -3e-5,-4.33825 -9.80787,-10.81197 -21.90642,-10.81195 z"/> <path id="path28351" style="fill:#2b0000;stroke:#2b0000;stroke-width:0.101667;stroke-linecap:round;stroke-linejoin:round;stop-color:#000000" d="m 270.3768,208.78538 c -12.09837,1.3e-4 -22.05151,6.25369 -21.90595,10.64037 0.003,0.50904 0.0589,1.01751 0.16744,1.52266 1.32949,-6.36997 10.6604,-11.16249 21.73851,-11.16528 11.06733,2.9e-4 20.39594,4.78164 21.74261,11.14411 0.10583,-0.49818 0.16053,-0.99956 0.16381,-1.50149 -3e-5,-4.33825 -9.80787,-10.64039 -21.90642,-10.64037 z"/> </g> </g> </g> </svg>