<?xml version='1.0' encoding='utf-8'?>
<svg xmlns:xlink="http://www.w3.org/1999/xlink" xmlns="http://www.w3.org/2000/svg" width="210mm" height="297mm" viewBox="0 0 210 297" version="1.1" id="svg24157"> <defs id="defs24154"> <linearGradient xlink:href="#linearGradient7807" id="linearGradient7809" x1="0.96898812" y1="17.835688" x2="148.02094" y2="17.835688" gradientUnits="userSpaceOnUse" gradientTransform="matrix(1.3719125,0.13464619,-0.14719006,1.2549951,35.043685,115.29283)"/> <linearGradient id="linearGradient7807"> <stop style="stop-color:#22002b;stop-opacity:1" offset="0" id="stop7803"/> <stop style="stop-color:#440055;stop-opacity:1" offset="0.58641291" id="stop8661"/> <stop style="stop-color:#660080;stop-opacity:1" offset="1" id="stop7805"/> </linearGradient> <filter style="color-interpolation-filters:sRGB" id="filter18244" x="-0.01528369" y="-0.015136737" width="1.0305674" height="1.0302735"> <feGaussianBlur stdDeviation="0.6507019" id="feGaussianBlur18246"/> </filter> <filter style="color-interpolation-filters:sRGB" id="filter18240" x="-0.18760084" y="-0.098243062" width="1.3752017" height="1.1964861"> <feGaussianBlur stdDeviation="3.6090027" id="feGaussianBlur18242"/> </filter> <filter style="color-interpolation-filters:sRGB" id="filter20554" x="-0.18208375" y="-0.22050035" width="1.3644411" height="1.441029"> <feGaussianBlur stdDeviation="1.3331864" id="feGaussianBlur20556"/> </filter> <linearGradient xlink:href="#linearGradient10952" id="linearGradient10954" x1="185.18187" y1="96.858383" x2="273.1174" y2="96.858383" gradientUnits="userSpaceOnUse" gradientTransform="matrix(1.2812404,0.14365945,-0.16786552,1.2528215,-144.60189,-4.7929878)"/> <linearGradient id="linearGradient10952"> <stop style="stop-color:#000000;stop-opacity:1" offset="0" id="stop10948"/> <stop style="stop-color:#171717;stop-opacity:1;" offset="1" id="stop10950"/> </linearGradient> <linearGradient xlink:href="#linearGradient13613" id="linearGradient13615" x1="95.597824" y1="139.08037" x2="127.32599" y2="139.08037" gradientUnits="userSpaceOnUse" gradientTransform="matrix(1.3719125,0.13464619,-0.14719006,1.2549951,-0.56338909,-18.210081)"/> <linearGradient id="linearGradient13613"> <stop style="stop-color:#d15400;stop-opacity:1;" offset="0" id="stop13609"/> <stop style="stop-color:#ff6904;stop-opacity:1;" offset="1" id="stop13611"/> </linearGradient> <filter style="color-interpolation-filters:sRGB" id="filter19363" x="-0.0094629524" y="-0.0072708553" width="1.0189259" height="1.0145417"> <feGaussianBlur stdDeviation="0.20924352" id="feGaussianBlur19365"/> </filter> <filter style="color-interpolation-filters:sRGB" id="filter19374" x="-0.0059958667" y="-0.013084021" width="1.0119917" height="1.026168"> <feGaussianBlur stdDeviation="0.24455337" id="feGaussianBlur19376"/> </filter> <filter style="color-interpolation-filters:sRGB" id="filter19383" x="-0.14576831" y="-0.078316146" width="1.2915366" height="1.1566323"> <feGaussianBlur stdDeviation="2.1822801" id="feGaussianBlur19385"/> </filter> <filter style="color-interpolation-filters:sRGB" id="filter19391" x="-0.30840239" y="-0.16569367" width="1.6168048" height="1.3313873"> <feGaussianBlur stdDeviation="4.6170554" id="feGaussianBlur19389"/> </filter> <linearGradient xlink:href="#linearGradient13613" id="linearGradient25275" gradientUnits="userSpaceOnUse" gradientTransform="matrix(1.3719125,0.13464619,-0.14719006,1.2549951,-0.56338909,-18.210081)" x1="95.597824" y1="139.08037" x2="127.32599" y2="139.08037"/> <filter style="color-interpolation-filters:sRGB" id="filter25644" x="-0.06127062" y="-0.064189865" width="1.1225412" height="1.0947272"> <feGaussianBlur stdDeviation="3.1688055" id="feGaussianBlur25646"/> </filter> </defs> <g id="layer1"> <g id="g23158" transform="translate(213.99343,12.313338)"> <g id="g27401" transform="translate(-1.8288177,9.1440887)"> <g id="g25253" style="opacity:0.409556;fill:#000000;stroke-width:0.948773;filter:url(#filter25644)" transform="matrix(1.0539926,0,0,1.0539926,5.7677464,-6.9976017)"> <g id="g25227" style="fill:#000000;stroke-width:0.840171" transform="matrix(1.1292625,0,0,1.1292625,-2.8806651,44.092651)"> <g id="g25173" style="fill:#000000;stroke-width:0.840171"> <path id="path25127" style="fill:#000000;stroke-width:0.252051;paint-order:markers stroke fill;stop-color:#000000" d="m -48.021167,84.869584 c 0,9.748488 13.493789,31.610786 10.499401,52.633096 -2.994395,21.0223 1.929524,37.36938 -8.575862,47.0691 -12.231958,11.29389 -33.791219,-3.16092 -45.94833,-3.16092 -12.157112,0 -33.636822,15.41173 -45.948332,4.20886 -10.78494,-9.81379 -5.58146,-27.09475 -8.57585,-48.11704 -2.99439,-21.02231 10.49939,-42.884608 10.49939,-52.633096 0,-38.993958 19.71057,-70.604811 44.024792,-70.604813 24.314224,0 44.024791,31.610853 44.024791,70.604813 z"/> <g id="g25171" style="fill:#000000;stroke-width:0.991354" transform="matrix(0.83356921,0,0,0.86167109,-24.465958,1.9732302)"> <path id="path25129" style="fill:#000000;stroke-width:0.297404;paint-order:markers stroke fill;stop-color:#000000" d="m -112.63303,142.24475 a 4.5015413,52.319418 0 0 0 -4.50151,52.3194 4.5015413,52.319418 0 0 0 0.45244,22.81577 c 2.68979,-0.41447 5.43077,-1.06154 8.17166,-1.83467 a 4.5015413,52.319418 0 0 0 0.37856,-20.9811 4.5015413,52.319418 0 0 0 -4.50115,-52.3194 z"/> <path id="path25131" style="fill:#000000;stroke-width:0.297404;paint-order:markers stroke fill;stop-color:#000000" d="m -112.63303,144.39471 a 4.2509471,49.406873 0 0 0 -4.25108,49.40696 4.2509471,49.406873 0 0 0 0.51432,23.53271 c 2.48797,-0.39981 5.01845,-0.99801 7.54996,-1.70365 a 4.2509471,49.406873 0 0 0 0.43752,-21.82906 4.2509471,49.406873 0 0 0 -4.25072,-49.40696 z"/> <path id="path25133" style="fill:#000000;stroke-width:0.297404;paint-order:markers stroke fill;stop-color:#000000" d="m -48.740112,142.20824 a 4.5826643,53.262274 0 0 0 -4.582685,53.26228 4.5826643,53.262274 0 0 0 0.324322,19.65505 c 2.844688,0.701 5.684902,1.26182 8.461032,1.55802 a 4.5826643,53.262274 0 0 0 0.380016,-21.21307 4.5826643,53.262274 0 0 0 -4.582685,-53.26228 z"/> <path id="path25135" style="fill:#000000;stroke-width:0.297404;paint-order:markers stroke fill;stop-color:#000000" d="m -48.740112,145.00297 a 4.2509471,49.406873 0 0 0 -4.251084,49.40696 4.2509471,49.406873 0 0 0 0.396389,20.81314 c 2.571331,0.62171 5.135777,1.12141 7.651145,1.41242 a 4.2509471,49.406873 0 0 0 0.454626,-22.22556 4.2509471,49.406873 0 0 0 -4.251076,-49.40696 z"/> <path id="path25137" style="fill:#000000;stroke-width:0.297404;paint-order:markers stroke fill;stop-color:#000000" d="m -37.533112,173.48767 a 2.4159248,31.184155 0 0 0 -2.415831,31.18407 2.4159248,31.184155 0 0 0 0.195107,12.22577 c 1.521226,-0.0341 3.012643,-0.16824 4.456741,-0.44717 a 2.4159248,31.184155 0 0 0 0.180174,-11.7786 2.4159248,31.184155 0 0 0 -2.416191,-31.18407 z"/> <path id="path25139" style="fill:#000000;stroke-width:0.297404;paint-order:markers stroke fill;stop-color:#000000" d="m -37.533112,176.92761 a 2.061064,26.6037 0 0 0 -2.06093,26.60364 2.061064,26.6037 0 0 0 0.279547,13.35424 c 1.21739,-0.0447 2.412282,-0.1632 3.579875,-0.36599 a 2.061064,26.6037 0 0 0 0.262806,-12.98825 2.061064,26.6037 0 0 0 -2.061298,-26.60364 z"/> <path id="path25141" style="fill:#000000;stroke-width:0.297404;paint-order:markers stroke fill;stop-color:#000000" d="m -124.61316,171.81882 a 2.5756722,33.246135 0 0 0 -2.57562,33.24597 2.5756722,33.246135 0 0 0 0.1871,12.41306 c 1.54246,0.27617 3.13676,0.38627 4.76577,0.37458 a 2.5756722,33.246135 0 0 0 0.19874,-12.78764 2.5756722,33.246135 0 0 0 -2.57599,-33.24597 z"/> <path id="path25143" style="fill:#000000;stroke-width:0.297404;paint-order:markers stroke fill;stop-color:#000000" d="m -124.61316,176.92761 a 2.061064,26.6037 0 0 0 -2.06093,26.60364 2.061064,26.6037 0 0 0 0.31085,14.04283 c 1.13862,0.17066 2.30214,0.26047 3.48706,0.27706 a 2.061064,26.6037 0 0 0 0.32432,-14.31989 2.061064,26.6037 0 0 0 -2.0613,-26.60364 z"/> <path id="path25145" style="fill:#000000;stroke-width:0.297403;paint-order:markers stroke fill;stop-color:#000000" d="m -134.92437,184.82339 a 2.9594917,38.200381 0 0 0 -2.82241,26.78321 c 0.48739,0.52099 0.99544,1.03215 1.55134,1.52151 1.31068,1.15375 2.70951,2.06029 4.17792,2.76165 a 2.9594917,38.200381 0 0 0 -2.90685,-31.06637 z"/> <path id="path25147" style="fill:#000000;stroke-width:0.297404;paint-order:markers stroke fill;stop-color:#000000" d="m -134.91855,190.30547 a 2.061064,26.6037 0 0 0 -2.03036,22.11128 c 0.24756,0.23882 0.49028,0.47968 0.75347,0.71136 1.05737,0.93077 2.17258,1.69874 3.33455,2.3308 a 2.061064,26.6037 0 0 0 -2.05766,-25.15344 z"/> <path id="path25149" style="fill:#000000;stroke-width:0.297404;paint-order:markers stroke fill;stop-color:#000000" d="m -26.7032,185.51326 a 2.8951895,37.370386 0 0 0 -2.818411,28.91041 c 1.249342,-0.6754 2.443359,-1.50465 3.57078,-2.51165 0.713965,-0.63772 1.36095,-1.30336 1.961205,-1.99016 a 2.8951895,37.370386 0 0 0 -2.713574,-24.4086 z"/> <path id="path25151" style="fill:#000000;stroke-width:0.297404;paint-order:markers stroke fill;stop-color:#000000" d="m -26.712303,190.30547 a 2.061064,26.6037 0 0 0 -2.047828,23.68305 c 0.974604,-0.58821 1.913068,-1.27599 2.8093,-2.0765 0.437526,-0.3908 0.847875,-0.79306 1.241949,-1.20235 a 2.061064,26.6037 0 0 0 -2.003421,-20.4042 z"/> <path id="path25153" style="fill:#000000;stroke-width:0.297404;paint-order:markers stroke fill;stop-color:#000000" d="m -95.464537,176.28241 a 2.4159248,31.184155 0 0 0 -2.415827,31.18406 2.4159248,31.184155 0 0 0 0.02803,4.69684 c 1.631954,-0.541 3.228983,-1.05546 4.790886,-1.53654 a 2.4159248,31.184155 0 0 0 0.0131,-3.1603 2.4159248,31.184155 0 0 0 -2.41619,-31.18406 z"/> <path id="path25155" style="fill:#000000;stroke-width:0.297404;paint-order:markers stroke fill;stop-color:#000000" d="m -95.464537,179.72234 a 2.061064,26.6037 0 0 0 -2.060932,26.60365 2.061064,26.6037 0 0 0 0.04877,5.71275 c 1.373241,-0.45433 2.720927,-0.88982 4.044335,-1.30157 a 2.061064,26.6037 0 0 0 0.02912,-4.41118 2.061064,26.6037 0 0 0 -2.061296,-26.60365 z"/> <path id="path25157" style="fill:#000000;stroke-width:0.297404;paint-order:markers stroke fill;stop-color:#000000" d="m -65.952289,176.28241 a 2.4159248,31.184155 0 0 0 -2.415831,31.18406 2.4159248,31.184155 0 0 0 0.01349,3.19853 c 1.559321,0.4535 3.166713,0.94423 4.790886,1.44117 a 2.4159248,31.184155 0 0 0 0.02772,-4.6397 2.4159248,31.184155 0 0 0 -2.416191,-31.18406 z"/> <path id="path25159" style="fill:#000000;stroke-width:0.297404;paint-order:markers stroke fill;stop-color:#000000" d="m -65.952289,179.72234 a 2.061064,26.6037 0 0 0 -2.06093,26.60365 2.061064,26.6037 0 0 0 0.02985,4.45026 c 1.323019,0.3878 2.675006,0.79644 4.044331,1.21523 a 2.061064,26.6037 0 0 0 0.04801,-5.66549 2.061064,26.6037 0 0 0 -2.06129,-26.60365 z"/> <g id="g25165" style="fill:#000000;stroke-width:0.991354"> <path style="fill:#000000;stroke:none;stroke-width:0.661394px;stroke-linecap:butt;stroke-linejoin:miter;stroke-opacity:1" d="m 128.02777,111.18332 c 0.7787,-0.92663 4.96348,0.0668 10.07512,5.43274 4.88493,5.12794 10.80575,14.99985 10.494,28.38195 -0.28278,10.26676 -4.40512,21.77442 -13.57394,30.68389 -2.92221,2.8214 -6.26072,5.27502 -9.936,7.26063 -6.80529,3.67661 -14.21813,5.45969 -21.41987,5.48402 -12.891566,0.003 -23.895506,-5.62853 -30.856783,-12.51494 -7.320794,-7.27998 -10.148356,-15.47365 -10.909518,-20.86714 -0.788107,-5.58441 0.367854,-8.62859 1.464063,-8.7637 1.210561,-0.14921 2.52609,2.54085 4.976201,6.59115 2.45011,4.0503 6.247086,9.59913 12.348555,13.92247 5.747477,4.10352 13.911036,7.19945 22.637462,6.70685 4.81057,-0.24894 9.84943,-1.6294 14.45091,-4.10664 2.49459,-1.34298 4.77118,-2.95989 6.75661,-4.78665 6.25537,-5.70005 9.83085,-13.5339 10.88495,-20.62764 1.42853,-9.18507 -1.29753,-17.62261 -3.6575,-22.98788 -2.43179,-5.52857 -4.63712,-8.73473 -3.73426,-9.80911 z" id="path25161" class="UnoptimicedTransforms" transform="matrix(0.15548009,-0.07181667,-0.03305921,-0.99626488,-59.298895,318.2875)"/> <path style="fill:#000000;stroke:none;stroke-width:0.661394px;stroke-linecap:butt;stroke-linejoin:miter;stroke-opacity:1" d="m 128.02777,111.18332 c 0.7787,-0.92663 4.96348,0.0668 10.07512,5.43274 4.88493,5.12794 10.80575,14.99985 10.494,28.38195 -0.28278,10.26676 -4.40512,21.77442 -13.57394,30.68389 -2.92221,2.8214 -6.26072,5.27502 -9.936,7.26063 -6.80529,3.67661 -14.21813,5.45969 -21.41987,5.48402 -12.891566,0.003 -23.895506,-5.62853 -30.856783,-12.51494 -7.320794,-7.27998 -10.148356,-15.47365 -10.909518,-20.86714 -0.788107,-5.58441 0.367854,-8.62859 1.464063,-8.7637 1.210561,-0.14921 2.52609,2.54085 4.976201,6.59115 2.45011,4.0503 6.247086,9.59913 12.348555,13.92247 5.747477,4.10352 13.911036,7.19945 22.637462,6.70685 4.81057,-0.24894 9.84943,-1.6294 14.45091,-4.10664 2.49459,-1.34298 4.77118,-2.95989 6.75661,-4.78665 6.25537,-5.70005 9.83085,-13.5339 10.88495,-20.62764 1.42853,-9.18507 -1.29753,-17.62261 -3.6575,-22.98788 -2.43179,-5.52857 -4.63712,-8.73473 -3.73426,-9.80911 z" id="path25163" class="UnoptimicedTransforms" transform="matrix(-0.15548009,-0.07181667,0.03305921,-0.99626488,-101.79042,318.2875)"/> </g> <path id="path25167" style="fill:#000000;stroke:none;stroke-width:0.615364px;stroke-linecap:butt;stroke-linejoin:miter;stroke-opacity:1" d="m 85.798678,55.786568 c 2.409906,-0.07329 9.962289,4.704559 15.245302,17.476882 2.33879,5.724884 3.74066,11.87886 4.78519,18.848551 0.88719,5.752259 1.57673,11.898039 1.99809,18.339659 0.7951,12.15534 0.47064,23.33904 -0.45591,32.61531 -4.02246,0.57758 -8.138683,1.1108 -12.33264,1.607 -0.685595,-9.38775 -1.4083,-21.81998 -2.155599,-33.24504 C 92.459114,104.94666 92.088102,99.577615 91.684672,93.69582 91.1738,86.698376 90.871024,81.873846 89.88228,76.699867 87.710851,64.975144 83.402194,57.462725 85.223774,55.961772 c 0.130972,-0.107919 0.325603,-0.167622 0.574904,-0.175204 z" transform="matrix(-0.18174899,0.06852407,0.00531821,0.99762298,-112.31161,66.230024)"/> <path id="path25169" style="fill:#000000;stroke:none;stroke-width:0.615364px;stroke-linecap:butt;stroke-linejoin:miter;stroke-opacity:1" d="m 85.796828,55.786695 c -0.2493,0.0076 -0.443932,0.06728 -0.574903,0.175204 -1.821581,1.500953 2.489914,9.013177 4.661343,20.7379 0.988744,5.17398 1.288682,9.998704 1.799554,16.996148 0.403431,5.881795 0.774442,11.250843 1.198439,17.733103 0.718933,10.99139 1.416498,23.01509 2.078786,32.27183 4.251746,-0.50044 8.418963,-1.0399 12.497213,-1.61882 0.85374,-9.08349 1.1387,-19.89384 0.37099,-31.63047 -0.42136,-6.44161 -1.1109,-12.587398 -1.9981,-18.339656 -1.04452,-6.969691 -2.44639,-13.123668 -4.78518,-18.848552 C 95.761955,60.491059 88.206735,55.713402 85.796828,55.786695 Z" transform="matrix(0.18174899,0.06852407,-0.00531821,0.99762298,-50.255908,66.230024)"/> </g> </g> <g id="g25225" style="fill:#000000;stroke-width:0.840171"> <g id="g25221" style="fill:#000000;stroke-width:1.27685" transform="matrix(0.65800126,0,0,0.65800126,-148.97147,12.126554)"> <g id="g25219" transform="translate(-6.1770949,6.1145765)" style="fill:#000000;stroke-width:1.27685"> <g id="g25195" transform="matrix(0.8731417,0,0,0.8731417,-157.82349,35.297719)" style="fill:#000000;stroke-width:1.46236"> <g id="g25191" style="fill:#000000;stroke-width:1.46236"> <path id="path25175" style="fill:#000000;stroke:none;stroke-width:0.43871;paint-order:markers stroke fill;stop-color:#000000" d="M 277.05343,59.036771 A 15.122277,23.147823 0 0 1 261.93116,82.184596 15.122277,23.147823 0 0 1 246.80888,59.036771 15.122277,23.147823 0 0 1 261.93116,35.888948 15.122277,23.147823 0 0 1 277.05343,59.036771 Z"/> <path id="path25177" style="fill:#000000;stroke-width:0.43871;paint-order:markers stroke fill;stop-color:#000000" d="M 277.05343,55.786562 A 15.122277,19.897615 0 0 1 261.93116,75.684178 15.122277,19.897615 0 0 1 246.80888,55.786562 15.122277,19.897615 0 0 1 261.93116,35.888948 15.122277,19.897615 0 0 1 277.05343,55.786562 Z"/> <path id="path25179" style="fill:#000000;stroke-width:0.43871;paint-order:markers stroke fill;stop-color:#000000" d="M 275.80943,53.408363 A 11.748382,15.458306 0 0 1 264.06105,68.866669 11.748382,15.458306 0 0 1 252.31267,53.408363 11.748382,15.458306 0 0 1 264.06105,37.950056 11.748382,15.458306 0 0 1 275.80943,53.408363 Z"/> <path id="path25181" style="fill:#000000;stroke-width:0.43871;paint-order:markers stroke fill;stop-color:#000000" d="m 273.00664,48.255589 a 7.3481483,7.9273366 0 0 1 -7.34814,7.927336 7.3481483,7.9273366 0 0 1 -7.34815,-7.927336 7.3481483,7.9273366 0 0 1 7.34815,-7.927337 7.3481483,7.9273366 0 0 1 7.34814,7.927337 z"/> <path id="path25183" style="fill:#000000;stroke-width:0.43871;paint-order:markers stroke fill;stop-color:#000000" d="m 270.66374,64.18954 a 2.0234028,1.5061936 0 0 1 -2.0234,1.506192 2.0234028,1.5061936 0 0 1 -2.0234,-1.506192 2.0234028,1.5061936 0 0 1 2.0234,-1.506197 2.0234028,1.5061936 0 0 1 2.0234,1.506197 z"/> <path id="path25185" style="fill:#000000;stroke-width:0.43871;paint-order:markers stroke fill;stop-color:#000000" d="m 266.19096,65.854282 a 1.4909288,1.1098272 0 0 1 -1.49093,1.109823 1.4909288,1.1098272 0 0 1 -1.49093,-1.109823 1.4909288,1.1098272 0 0 1 1.49093,-1.109831 1.4909288,1.1098272 0 0 1 1.49093,1.109831 z"/> <path id="path25187" style="fill:#000000;stroke-width:0.43871;paint-order:markers stroke fill;stop-color:#000000" d="m 262.14415,65.61646 a 0.95845423,0.71346037 0 0 1 -0.95845,0.71346 0.95845423,0.71346037 0 0 1 -0.95846,-0.71346 0.95845423,0.71346037 0 0 1 0.95846,-0.713462 0.95845423,0.71346037 0 0 1 0.95845,0.713462 z"/> <path id="path25189" style="fill:#000000;stroke-width:0.43871;paint-order:markers stroke fill;stop-color:#000000" d="m 259.37528,64.030993 a 0.95845423,0.71346037 0 0 1 -0.95845,0.713459 0.95845423,0.71346037 0 0 1 -0.95846,-0.713459 0.95845423,0.71346037 0 0 1 0.95846,-0.713462 0.95845423,0.71346037 0 0 1 0.95845,0.713462 z"/> </g> <path id="path25193" style="fill:#000000;stroke:none;stroke-width:0.386917px;stroke-linecap:butt;stroke-linejoin:miter;stroke-opacity:1" d="m 262.44719,24.519697 c 1.14163,0.306051 2.8268,1.184507 4.21578,2.686325 1.3075,1.230404 2.16068,2.711293 2.63339,4.19141 0.35327,1.106176 0.4729,2.130246 0.48144,3.01638 -0.27439,-0.163924 -0.56891,-0.321119 -0.88794,-0.468734 -0.53579,-0.247165 -1.13024,-0.463795 -1.77531,-0.641264 l 0.15837,-0.05295 c -0.4179,-1.26333 -1.36687,-3.013702 -3.24422,-4.566414 -1.39913,-1.15719 -3.17193,-2.07791 -5.20579,-2.541965 -2.40367,-0.409237 -4.32466,-0.106599 -5.57207,0.04217 1.21957,-0.145449 3.21024,0.0166 5.19904,0.836688 1.79015,0.610164 3.26146,1.606648 4.37156,2.741159 1.0647,1.08812 1.7035,2.19642 2.10983,3.127267 -0.57159,-0.06385 -1.16883,-0.09916 -1.79131,-0.09966 -0.97194,1.11e-4 -1.98214,0.08456 -3.00261,0.257598 -0.73233,-0.952011 -1.75248,-1.961575 -3.13998,-2.854846 -1.71594,-1.104721 -3.81777,-1.909033 -6.1486,-2.180068 -2.67201,-0.173441 -4.73663,0.35092 -6.08038,0.652017 1.31474,-0.294598 3.51183,-0.37009 5.82425,0.252451 2.10462,0.441002 3.91246,1.351715 5.33439,2.463873 0.8994,0.703465 1.59189,1.44131 2.12964,2.143507 -0.43318,0.126022 -0.8649,0.26811 -1.29309,0.428313 -0.7241,0.279863 -1.41253,0.591723 -2.06582,0.929128 -0.25805,0.133268 -0.5059,0.270228 -0.74897,0.408682 -0.75621,-0.703191 -1.68441,-1.400711 -2.81228,-2.022477 -1.95372,-1.077029 -4.30508,-1.806389 -6.86469,-1.94412 -2.90946,-0.02069 -5.12243,0.670428 -6.55732,1.08793 1.40677,-0.409316 3.78724,-0.66358 6.37165,-0.174512 2.34535,0.320743 4.40952,1.174014 6.06822,2.276469 0.86954,0.577944 1.58426,1.19267 2.17456,1.798247 -0.41996,0.293131 -0.81182,0.589146 -1.17628,0.882945 -0.81061,0.64046 -1.51906,1.25809 -2.16955,1.840232 -0.85083,-0.908255 -1.97835,-1.841928 -3.44094,-2.648206 -1.95372,-1.07703 -4.30508,-1.80639 -6.86469,-1.94412 -2.90946,-0.02069 -5.12216,0.670384 -6.55706,1.087886 1.40677,-0.409315 3.78698,-0.663536 6.3714,-0.174468 2.34535,0.320743 4.40954,1.17425 6.06823,2.276704 1.30787,0.869272 2.26521,1.8207 2.97446,2.700484 -0.0912,0.08067 -0.1864,0.167698 -0.27639,0.245885 -1.14411,0.977094 -2.11693,1.73807 -3.08515,2.375097 -0.89469,-1.1044 -2.19674,-2.306211 -4.01867,-3.31059 -1.95372,-1.077028 -4.30512,-1.806628 -6.86474,-1.944355 -2.90944,-0.0207 -5.12214,0.670382 -6.55705,1.087885 1.40676,-0.409314 3.78698,-0.663535 6.37139,-0.174467 2.34535,0.320743 4.40955,1.17425 6.06824,2.276704 1.49731,0.995181 2.53632,2.098269 3.2678,3.077766 -2.46503,1.287991 -4.53831,1.763053 -4.57734,2.250776 -0.0284,0.355838 2.18679,1.113319 6.36148,-0.158643 2.18797,-0.67983 4.42359,-1.795388 6.58572,-3.340292 1.46724,-1.033061 2.81051,-2.157616 4.17784,-3.149062 0.85713,-0.606418 1.73413,-1.198841 2.61256,-1.663136 0.4145,-0.219094 0.82493,-0.407448 1.23703,-0.560699 1.16945,-0.460699 2.44715,-0.727354 3.62799,-0.800604 1.32431,-0.08424 2.58667,0.06955 3.62826,0.365477 1.28412,0.362576 2.65653,1.175196 3.36525,1.768491 1.5617,1.303268 2.33096,2.228325 3.016,2.180515 0.44449,-0.03102 1.10107,-1.348832 -0.12769,-3.829479 -0.16192,-0.325811 -0.37518,-0.659835 -0.6443,-0.990933 0.14772,-1.339276 0.0387,-3.216954 -0.85862,-5.225775 -0.71772,-1.60685 -1.87105,-3.125263 -3.45899,-4.305821 -1.93892,-1.263208 -3.77023,-1.675751 -4.93793,-1.988793 z"/> </g> <g id="g25217" transform="matrix(0.8731417,0,0,0.8731417,-157.82349,35.297719)" style="fill:#000000;stroke-width:1.46236"> <g id="g25213" style="fill:#000000;stroke-width:1.46236"> <path id="path25197" style="fill:#000000;fill-opacity:1;stroke:none;stroke-width:0.43871;paint-order:markers stroke fill;stop-color:#000000" d="M 296.7672,59.036771 A 15.122277,23.147823 0 0 0 311.88947,82.184596 15.122277,23.147823 0 0 0 327.01175,59.036771 15.122277,23.147823 0 0 0 311.88947,35.888948 15.122277,23.147823 0 0 0 296.7672,59.036771 Z"/> <path id="path25199" style="fill:#000000;stroke-width:0.43871;paint-order:markers stroke fill;stop-color:#000000" d="M 296.7672,55.786562 A 15.122277,19.897615 0 0 0 311.88947,75.684178 15.122277,19.897615 0 0 0 327.01175,55.786562 15.122277,19.897615 0 0 0 311.88947,35.888948 15.122277,19.897615 0 0 0 296.7672,55.786562 Z"/> <path id="path25201" style="fill:#000000;stroke-width:0.43871;paint-order:markers stroke fill;stop-color:#000000" d="M 298.0112,53.408363 A 11.748382,15.458306 0 0 0 309.75958,68.866669 11.748382,15.458306 0 0 0 321.50796,53.408363 11.748382,15.458306 0 0 0 309.75958,37.950056 11.748382,15.458306 0 0 0 298.0112,53.408363 Z"/> <path id="path25203" style="fill:#000000;stroke-width:0.43871;paint-order:markers stroke fill;stop-color:#000000" d="m 300.81399,48.255589 a 7.3481483,7.9273366 0 0 0 7.34815,7.927336 7.3481483,7.9273366 0 0 0 7.34814,-7.927336 7.3481483,7.9273366 0 0 0 -7.34814,-7.927337 7.3481483,7.9273366 0 0 0 -7.34815,7.927337 z"/> <path id="path25205" style="fill:#000000;stroke-width:0.43871;paint-order:markers stroke fill;stop-color:#000000" d="m 303.15689,64.18954 a 2.0234028,1.5061936 0 0 0 2.0234,1.506192 2.0234028,1.5061936 0 0 0 2.0234,-1.506192 2.0234028,1.5061936 0 0 0 -2.0234,-1.506197 2.0234028,1.5061936 0 0 0 -2.0234,1.506197 z"/> <path id="path25207" style="fill:#000000;stroke-width:0.43871;paint-order:markers stroke fill;stop-color:#000000" d="m 307.62967,65.854282 a 1.4909288,1.1098272 0 0 0 1.49093,1.109823 1.4909288,1.1098272 0 0 0 1.49093,-1.109823 1.4909288,1.1098272 0 0 0 -1.49093,-1.109831 1.4909288,1.1098272 0 0 0 -1.49093,1.109831 z"/> <path id="path25209" style="fill:#000000;stroke-width:0.43871;paint-order:markers stroke fill;stop-color:#000000" d="m 311.67648,65.61646 a 0.95845423,0.71346037 0 0 0 0.95845,0.71346 0.95845423,0.71346037 0 0 0 0.95846,-0.71346 0.95845423,0.71346037 0 0 0 -0.95846,-0.713462 0.95845423,0.71346037 0 0 0 -0.95845,0.713462 z"/> <path id="path25211" style="fill:#000000;stroke-width:0.43871;paint-order:markers stroke fill;stop-color:#000000" d="m 314.44535,64.030993 a 0.95845423,0.71346037 0 0 0 0.95845,0.713459 0.95845423,0.71346037 0 0 0 0.95846,-0.713459 0.95845423,0.71346037 0 0 0 -0.95846,-0.713462 0.95845423,0.71346037 0 0 0 -0.95845,0.713462 z"/> </g> <path id="path25215" style="fill:#000000;stroke:none;stroke-width:0.386917px;stroke-linecap:butt;stroke-linejoin:miter;stroke-opacity:1" d="m 311.37344,24.519697 c -1.14163,0.306051 -2.8268,1.184507 -4.21578,2.686325 -1.3075,1.230404 -2.16068,2.711293 -2.63339,4.19141 -0.35327,1.106176 -0.4729,2.130246 -0.48144,3.01638 0.27439,-0.163924 0.56891,-0.321119 0.88794,-0.468734 0.53579,-0.247165 1.13024,-0.463795 1.77531,-0.641264 l -0.15837,-0.05295 c 0.4179,-1.26333 1.36687,-3.013702 3.24422,-4.566414 1.39913,-1.15719 3.17193,-2.07791 5.20579,-2.541965 2.40367,-0.409237 4.32466,-0.106599 5.57207,0.04217 -1.21957,-0.145449 -3.21024,0.0166 -5.19904,0.836688 -1.79015,0.610164 -3.26146,1.606648 -4.37156,2.741159 -1.0647,1.08812 -1.7035,2.19642 -2.10983,3.127267 0.57159,-0.06385 1.16883,-0.09916 1.79131,-0.09966 0.97194,1.11e-4 1.98214,0.08456 3.00261,0.257598 0.73233,-0.952011 1.75248,-1.961575 3.13998,-2.854846 1.71594,-1.104721 3.81777,-1.909033 6.1486,-2.180068 2.67201,-0.173441 4.73663,0.35092 6.08038,0.652017 -1.31474,-0.294598 -3.51183,-0.37009 -5.82425,0.252451 -2.10462,0.441002 -3.91246,1.351715 -5.33439,2.463873 -0.8994,0.703465 -1.59189,1.44131 -2.12964,2.143507 0.43318,0.126022 0.8649,0.26811 1.29309,0.428313 0.7241,0.279863 1.41253,0.591723 2.06582,0.929128 0.25805,0.133268 0.5059,0.270228 0.74897,0.408682 0.75621,-0.703191 1.68441,-1.400711 2.81228,-2.022477 1.95372,-1.077029 4.30508,-1.806389 6.86469,-1.94412 2.90946,-0.02069 5.12243,0.670428 6.55732,1.08793 -1.40677,-0.409316 -3.78724,-0.66358 -6.37165,-0.174512 -2.34535,0.320743 -4.40952,1.174014 -6.06822,2.276469 -0.86954,0.577944 -1.58426,1.19267 -2.17456,1.798247 0.41996,0.293131 0.81182,0.589146 1.17628,0.882945 0.81061,0.64046 1.51906,1.25809 2.16955,1.840232 0.85083,-0.908255 1.97835,-1.841928 3.44094,-2.648206 1.95372,-1.07703 4.30508,-1.80639 6.86469,-1.94412 2.90946,-0.02069 5.12216,0.670384 6.55706,1.087886 -1.40677,-0.409315 -3.78698,-0.663536 -6.3714,-0.174468 -2.34535,0.320743 -4.40954,1.17425 -6.06823,2.276704 -1.30787,0.869272 -2.26521,1.8207 -2.97446,2.700484 0.0912,0.08067 0.1864,0.167698 0.27639,0.245885 1.14411,0.977094 2.11693,1.73807 3.08515,2.375097 0.89469,-1.1044 2.19674,-2.306211 4.01867,-3.31059 1.95372,-1.077028 4.30512,-1.806628 6.86474,-1.944355 2.90944,-0.0207 5.12214,0.670382 6.55705,1.087885 -1.40676,-0.409314 -3.78698,-0.663535 -6.37139,-0.174467 -2.34535,0.320743 -4.40955,1.17425 -6.06824,2.276704 -1.49731,0.995181 -2.53632,2.098269 -3.2678,3.077766 2.46503,1.287991 4.53831,1.763053 4.57734,2.250776 0.0284,0.355838 -2.18679,1.113319 -6.36148,-0.158643 -2.18797,-0.67983 -4.42359,-1.795388 -6.58572,-3.340292 -1.46724,-1.033061 -2.81051,-2.157616 -4.17784,-3.149062 -0.85713,-0.606418 -1.73413,-1.198841 -2.61256,-1.663136 -0.4145,-0.219094 -0.82493,-0.407448 -1.23703,-0.560699 -1.16945,-0.460699 -2.44715,-0.727354 -3.62799,-0.800604 -1.32431,-0.08424 -2.58667,0.06955 -3.62826,0.365477 -1.28412,0.362576 -2.65653,1.175196 -3.36525,1.768491 -1.5617,1.303268 -2.33096,2.228325 -3.016,2.180515 -0.44449,-0.03102 -1.10107,-1.348832 0.12769,-3.829479 0.16192,-0.325811 0.37518,-0.659835 0.6443,-0.990933 -0.14772,-1.339276 -0.0387,-3.216954 0.85862,-5.225775 0.71772,-1.60685 1.87105,-3.125263 3.45899,-4.305821 1.93892,-1.263208 3.77023,-1.675751 4.93793,-1.988793 z"/> </g> </g> </g> <path id="path25223" style="fill:#000000;stroke:none;stroke-width:4.75251px;stroke-linecap:butt;stroke-linejoin:miter;stroke-opacity:1" class="UnoptimicedTransforms" transform="matrix(-0.03468274,0.03138368,0.03138368,0.03468274,-65.688833,91.205411)" d="m 85.917491,-61.94843 c 1.060306,-2.021286 8.138106,-1.605345 18.857029,3.966605 10.53666,5.477207 24.75018,16.298309 35.97564,34.276706 10.74741,17.3338065 17.94151,39.622709 18.14238,64.672622 0.003,0.291247 0.005,0.582701 0.006,0.874355 0.0927,25.050601 -6.57703,47.446684 -16.10078,65.133272 -9.82807,18.29284 -22.44931,30.67425 -32.27658,37.52556 -9.89603,6.89925 -16.826071,8.42449 -18.190888,6.54787 -1.457824,-2.00451 2.530868,-7.40117 8.697268,-16.23081 6.22968,-8.92025 14.36007,-21.23917 20.82493,-37.677233 6.18615,-15.765333 10.53396,-34.592524 10.45503,-55.198692 -9.2e-4,-0.240657 -0.002,-0.481123 -0.005,-0.721397 C 132.06991,20.649535 127.54716,2.413247 120.5167,-12.578566 113.3816,-27.981985 103.73369,-39.372307 96.637997,-47.177583 89.487547,-55.043095 84.770145,-59.761218 85.917491,-61.94843 Z M 745.86561,-659.12156 c 2.29063,-0.92374 6.51533,4.24022 13.62936,12.13868 7.05956,7.83798 17.43207,18.57263 32.04804,27.20676 14.21684,8.48901 31.91184,14.80601 52.35718,17.08721 0.23887,0.0261 0.47799,0.0515 0.71736,0.0764 20.49579,2.13137 39.66246,-0.31919 55.96565,-4.90398 17.00033,-4.79511 30.06794,-11.65781 39.56443,-16.96783 9.40003,-5.2561 15.16721,-8.68732 17.01651,-7.03705 1.73132,1.54498 -0.47672,8.2886 -8.32751,17.44808 -7.79625,9.09583 -21.37342,20.42082 -40.55437,28.37761 -18.54738,7.7144 -41.4965,12.1198 -66.41325,9.53194 -0.29009,-0.0301 -0.5799,-0.0612 -0.86941,-0.0931 -24.90528,-2.69541 -46.36661,-12.0742 -62.5435,-24.49498 -16.77065,-12.96067 -26.12193,-28.18151 -30.5222,-39.21141 -4.47639,-11.22069 -4.18515,-18.30471 -2.06829,-19.15838 z m 66.66933,58.69866 c 1.44354,0.10728 2.35862,8.85991 1.84878,25.04647 -0.4802,15.24538 -2.50178,40.77369 -9.45298,69.14315 -4.74961,19.44549 -12.57307,42.77828 -26.37864,65.00514 -10e-6,0 -10e-6,10e-6 -10e-6,2e-5 -9.46095,15.17032 -22.07275,29.89893 -38.11831,42.29792 -13.50562,10.37557 -28.76248,18.76638 -45.29533,25.63081 -15.64714,6.51232 -31.47328,11.52566 -48.0376,16.54589 -15.60083,4.74968 -32.13145,9.6011 -47.56598,15.31121 -15.34063,5.68834 -30.58325,12.48493 -44.52066,21.22192 -14.65168,9.14515 -28.23326,20.62044 -39.87646,34.10806 -4.74679,5.45205 -9.11695,11.35006 -13.2112,17.60586 -5.94104,9.07761 -11.21682,18.78088 -16.1096,28.64275 -8.48682,17.20459 -16.14894,36.11935 -23.84116,53.84266 -7.97611,18.47724 -16.292,36.40151 -27.00773,53.4495 -10.77904,17.22922 -24.10305,32.55107 -40.28003,44.273239 -12.11695,8.686955 -24.54768,16.256728 -37.25994,22.617784 -11.26326,5.627443 -22.62766,10.220021 -33.8249,13.942515 0,0 -3e-5,8e-6 -3e-5,8e-6 -19.60878,6.489395 -43.39845,11.46621 -59.48999,15.639557 -22.17524,5.790521 -40.35836,13.046634 -55.85025,22.265096 -1e-5,4e-6 -2e-5,8e-6 -2e-5,1.3e-5 -12.01481,7.1109132 -22.46656,15.1427372 -30.83523,22.1659667 -23.88438,20.0474433 -35.68265,33.8274693 -37.3109,32.5364473 -1.62825,-1.291022 6.89847,-17.425042 29.36608,-40.98190588 7.90464,-8.28792882 18.1026,-17.72224812 30.52894,-26.45249112 0,2e-6 2e-5,-1.3e-5 2e-5,-1.3e-5 16.1641,-11.293606 35.57986,-20.619302 58.80979,-27.905149 18.39951,-5.813883 38.19204,-10.543054 57.52893,-17.829836 0,-10e-7 3e-5,-1e-5 3e-5,-1e-5 10.1849,-3.819269 20.43961,-8.375292 30.48793,-13.799923 11.37472,-6.130411 22.54579,-13.383023 33.54514,-21.674108 12.88766,-9.62477 23.68625,-22.86133 33.0642,-38.14081 9.3613,-15.33197 16.79905,-32.14842 24.51621,-50.37303 7.35843,-17.47598 15.02847,-36.7554 24.03037,-55.24705 5.13333,-10.60227 10.93875,-21.27179 17.71951,-31.56177 4.67093,-7.08827 9.75504,-13.92133 15.34671,-20.40526 13.51205,-15.55473 29.20691,-28.66617 46.16107,-39.04531 16.10466,-9.82124 33.02583,-17.18777 49.62209,-23.00955 16.68446,-5.86534 33.70925,-10.54631 49.31804,-14.92362 16.55749,-4.66605 31.6767,-9.00695 46.22399,-14.61768 15.26626,-5.90324 29.02149,-12.80719 40.98002,-21.38682 14.19095,-10.10914 25.8019,-22.54807 34.80694,-35.49906 10e-6,-1e-5 10e-6,-2e-5 2e-5,-3e-5 13.30748,-19.0639 21.90903,-40.43092 27.83269,-58.49649 8.44963,-25.84231 13.35689,-51.70531 16.13151,-65.82456 3.07771,-15.66162 4.9544,-24.22479 6.39794,-24.11751 z"/> </g> </g> <g id="g25251" transform="matrix(0.516596,0.08467021,-0.08467663,0.51678685,-150.56643,-35.158254)" style="fill:#000000;stroke-width:1.81207"> <path id="path25229" style="fill:#000000;fill-opacity:1;stroke:none;stroke-width:0.543621;paint-order:markers stroke fill;stop-color:#000000" d="m 101.1785,111.28868 c -9.646571,15.47947 -13.517306,31.86615 -13.062283,52.10169 -21.677141,3.01032 -32.242198,5.48655 -43.941786,16.65825 -11.423176,10.90777 -13.153345,22.3034 -8.31682,32.32202 13.586465,28.14368 52.335166,35.20101 85.627809,38.18124 17.53323,1.5695 16.18843,-18.45398 34.33177,-16.88827 9.61483,0.82973 39.58395,11.773 50.2517,3.24732 10.34465,-8.26746 20.79155,-31.74997 11.88137,-47.7208 -8.91018,-15.97082 -42.06142,-16.857 -42.06142,-16.857 0,0 -8.75006,-38.3505 -2.55659,-56.2362 3.16766,-9.14766 8.69481,-23.292949 19.17206,-22.827584 13.51883,0.600453 14.91822,40.684434 21.50202,31.508344 9.61078,-13.39486 1.22054,-49.635898 -17.37189,-63.092907 -9.88704,-7.156145 -26.07636,-4.706752 -37.81856,-0.507653 -24.68634,8.828011 -44.51038,29.047254 -57.63738,50.11155 z"/> <path id="path25231" style="opacity:0.811258;fill:#000000;fill-opacity:1;stroke:none;stroke-width:0.479445px;stroke-linecap:butt;stroke-linejoin:miter;stroke-opacity:1;filter:url(#filter18244)" d="m 180.93883,57.15 c -7.50601,-0.143412 -15.51822,1.665154 -22.1232,4.027144 -24.68632,8.828003 -44.51032,29.047395 -57.63731,50.111666 -9.074889,14.56212 -13.035754,29.92898 -13.094808,48.54588 4.626958,0.93058 8.37116,0.77409 9.209774,-2.9223 9.483134,-41.79924 30.119294,-61.907087 55.961794,-83.028105 10.33861,-8.449725 30.14497,-10.881699 37.00824,-15.328169 -2.90935,-0.910843 -6.06854,-1.343907 -9.32449,-1.406116 z"/> <path id="path25233" style="opacity:0.456954;fill:#000000;fill-opacity:1;stroke:none;stroke-width:0.479445px;stroke-linecap:butt;stroke-linejoin:miter;stroke-opacity:1;filter:url(#filter18240)" d="m 191.69042,83.975046 c -4.61469,0.264071 -9.91123,1.017019 -13.19188,4.273148 -14.17392,14.067986 -19.08867,36.580796 -18.88905,56.854886 6.35603,21.3311 6.48659,23.13628 8.72472,27.02258 4.40371,-1.30933 6.7487,-0.44391 5.47718,-3.38127 -14.37844,-33.21601 -8.48298,-52.2287 5.70089,-71.459049 5.59399,-7.58427 22.84983,-4.458355 26.2618,-10.471026 -2.94338,0.595758 -9.30248,-3.112867 -14.08366,-2.839269 z"/> <g id="g25241" style="fill:#000000;stroke-width:1.81207"> <path id="path25235" style="opacity:0.450331;fill:#000000;fill-opacity:1;stroke:#000000;stroke-width:9.0604;stroke-opacity:0.992565;paint-order:markers stroke fill;filter:url(#filter20554);stop-color:#000000" d="m 121.92722,153.30101 23.87733,2.35014 c 4.71306,0.46387 8.29173,5.42952 7.8242,9.42721 l -2.15884,18.45978 c -0.46751,3.99771 -4.89711,6.30791 -9.61016,5.84401 l -23.87733,-2.35014 c -4.71307,-0.46387 -8.50763,-3.58353 -8.0401,-7.58124 l 2.15885,-18.45979 c 0.46752,-3.99768 5.113,-8.15386 9.82605,-7.68997 z"/> <path id="path25237" style="fill:#000000;stroke-width:0.543621;paint-order:markers stroke fill;stop-color:#000000" d="m 89.655963,141.29266 c -1.178336,6.6317 -1.66993,13.64603 -1.548313,21.19304 12.09827,7.91357 30.09799,18.28967 42.95796,19.52456 12.4073,1.19144 32.0037,-5.64862 44.58895,-10.76237 -0.48701,-2.24788 -1.91867,-9.20809 -3.08135,-18.12993 -12.25539,4.63048 -28.15433,9.49863 -38.77211,8.479 -13.28594,-1.27582 -32.06336,-12.31064 -44.145137,-20.3043 z"/> <path id="path25239" style="fill:#000000;fill-opacity:1;stroke:url(#linearGradient25275);stroke-width:9.06038;paint-order:markers stroke fill;stop-color:#000000" d="m 123.08121,155.45866 21.0836,2.06925 c 4.16161,0.40843 7.32157,4.78058 6.90874,8.30046 l -1.90625,16.25346 c -0.41281,3.5199 -4.32413,5.55398 -8.48574,5.14553 l -21.0836,-2.06925 c -4.16162,-0.40843 -7.5122,-3.15523 -7.09938,-6.67513 l 1.90626,-16.25346 c 0.41282,-3.51988 4.51476,-7.17931 8.67637,-6.77086 z"/> </g> <path id="path25243" style="opacity:0.890728;fill:#000000;fill-opacity:1;stroke:none;stroke-width:0.479445px;stroke-linecap:butt;stroke-linejoin:miter;stroke-opacity:1;filter:url(#filter19363)" d="m 86.393176,163.63549 c -20.501996,2.90629 -30.839007,5.5468 -42.218611,16.41295 -11.423165,10.90776 -13.153326,22.30345 -8.316805,32.32206 4.141742,8.57941 10.630307,15.19095 18.581294,20.33313 -2.765507,-14.20749 -11.29464,-28.94246 -5.061189,-41.40936 5.410839,-10.82168 32.596815,-15.35003 37.015311,-27.65878 z"/> <path id="path25245" style="opacity:0.887417;fill:#000000;fill-opacity:1;stroke:none;stroke-width:0.479445px;stroke-linecap:butt;stroke-linejoin:miter;stroke-opacity:1;filter:url(#filter19374)" d="m 45.818008,205.78087 c -0.998913,5.17801 -12.256598,1.83286 -9.960248,6.58963 13.586451,28.14365 52.335238,35.2009 85.62785,38.18113 5.40426,0.48377 9.01204,-1.08704 11.95276,-3.44165 C 97.467075,235.91804 52.99892,234.82274 45.818008,205.78087 Z"/> <path id="path25247" style="opacity:0.198675;fill:#000000;fill-opacity:1;stroke:none;stroke-width:0.479445px;stroke-linecap:butt;stroke-linejoin:miter;stroke-opacity:1;filter:url(#filter19383)" d="m 183.19307,173.24627 c 37.27078,24.83736 19.9274,51.17609 9.32191,66.87602 4.60925,-0.12364 8.62209,-1.02342 11.35952,-3.21117 10.34464,-8.26745 20.7911,-31.7503 11.88092,-47.72112 -5.8401,-10.46794 -22.05469,-14.43862 -32.56235,-15.94373 z"/> <path id="path25249" style="opacity:0.42053;fill:#000000;fill-opacity:1;stroke:none;stroke-width:0.658423px;stroke-linecap:butt;stroke-linejoin:miter;stroke-opacity:1;filter:url(#filter19391)" d="m 180.26696,173.24627 c 37.27078,24.83736 19.9274,51.17609 9.32191,66.87602 4.60925,-0.12364 8.62209,-1.02342 11.35952,-3.21117 10.34464,-8.26745 20.7911,-31.7503 11.88092,-47.72112 -5.8401,-10.46794 -22.05469,-14.43862 -32.56235,-15.94373 z" transform="matrix(0.72817115,0,0,0.72817115,57.177054,56.548516)"/> </g> </g> <g id="g25125"> <g id="g23042" style="stroke-width:0.885534" transform="matrix(1.1292625,0,0,1.1292625,-2.8806651,44.092651)"> <g id="g22990"> <path id="path288" style="fill:#ffffff;stroke-width:0.26566;paint-order:markers stroke fill;stop-color:#000000" d="m -48.021167,84.869584 c 0,9.748488 13.493789,31.610786 10.499401,52.633096 -2.994395,21.0223 1.929524,37.36938 -8.575862,47.0691 -12.231958,11.29389 -33.791219,-3.16092 -45.94833,-3.16092 -12.157112,0 -33.636822,15.41173 -45.948332,4.20886 -10.78494,-9.81379 -5.58146,-27.09475 -8.57585,-48.11704 -2.99439,-21.02231 10.49939,-42.884608 10.49939,-52.633096 0,-38.993958 19.71057,-70.604811 44.024792,-70.604813 24.314224,0 44.024791,31.610853 44.024791,70.604813 z"/> <g id="g7499" style="stroke-width:1.04488" transform="matrix(0.83356921,0,0,0.86167109,-24.465958,1.9732302)"> <path id="path688" style="fill:#cccccc;stroke-width:0.313462;paint-order:markers stroke fill;stop-color:#000000" d="m -112.63303,142.24475 a 4.5015413,52.319418 0 0 0 -4.50151,52.3194 4.5015413,52.319418 0 0 0 0.45244,22.81577 c 2.68979,-0.41447 5.43077,-1.06154 8.17166,-1.83467 a 4.5015413,52.319418 0 0 0 0.37856,-20.9811 4.5015413,52.319418 0 0 0 -4.50115,-52.3194 z"/> <path id="path547" style="fill:#e6e6e6;stroke-width:0.313462;paint-order:markers stroke fill;stop-color:#000000" d="m -112.63303,144.39471 a 4.2509471,49.406873 0 0 0 -4.25108,49.40696 4.2509471,49.406873 0 0 0 0.51432,23.53271 c 2.48797,-0.39981 5.01845,-0.99801 7.54996,-1.70365 a 4.2509471,49.406873 0 0 0 0.43752,-21.82906 4.2509471,49.406873 0 0 0 -4.25072,-49.40696 z"/> <path id="path693" style="fill:#cccccc;stroke-width:0.313462;paint-order:markers stroke fill;stop-color:#000000" d="m -48.740112,142.20824 a 4.5826643,53.262274 0 0 0 -4.582685,53.26228 4.5826643,53.262274 0 0 0 0.324322,19.65505 c 2.844688,0.701 5.684902,1.26182 8.461032,1.55802 a 4.5826643,53.262274 0 0 0 0.380016,-21.21307 4.5826643,53.262274 0 0 0 -4.582685,-53.26228 z"/> <path id="path656" style="fill:#e6e6e6;stroke-width:0.313462;paint-order:markers stroke fill;stop-color:#000000" d="m -48.740112,145.00297 a 4.2509471,49.406873 0 0 0 -4.251084,49.40696 4.2509471,49.406873 0 0 0 0.396389,20.81314 c 2.571331,0.62171 5.135777,1.12141 7.651145,1.41242 a 4.2509471,49.406873 0 0 0 0.454626,-22.22556 4.2509471,49.406873 0 0 0 -4.251076,-49.40696 z"/> <path id="path708" style="fill:#cccccc;stroke-width:0.313462;paint-order:markers stroke fill;stop-color:#000000" d="m -37.533112,173.48767 a 2.4159248,31.184155 0 0 0 -2.415831,31.18407 2.4159248,31.184155 0 0 0 0.195107,12.22577 c 1.521226,-0.0341 3.012643,-0.16824 4.456741,-0.44717 a 2.4159248,31.184155 0 0 0 0.180174,-11.7786 2.4159248,31.184155 0 0 0 -2.416191,-31.18407 z"/> <path id="path661" style="fill:#e6e6e6;stroke-width:0.313462;paint-order:markers stroke fill;stop-color:#000000" d="m -37.533112,176.92761 a 2.061064,26.6037 0 0 0 -2.06093,26.60364 2.061064,26.6037 0 0 0 0.279547,13.35424 c 1.21739,-0.0447 2.412282,-0.1632 3.579875,-0.36599 a 2.061064,26.6037 0 0 0 0.262806,-12.98825 2.061064,26.6037 0 0 0 -2.061298,-26.60364 z"/> <path id="path698" style="fill:#cccccc;stroke-width:0.313462;paint-order:markers stroke fill;stop-color:#000000" d="m -124.61316,171.81882 a 2.5756722,33.246135 0 0 0 -2.57562,33.24597 2.5756722,33.246135 0 0 0 0.1871,12.41306 c 1.54246,0.27617 3.13676,0.38627 4.76577,0.37458 a 2.5756722,33.246135 0 0 0 0.19874,-12.78764 2.5756722,33.246135 0 0 0 -2.57599,-33.24597 z"/> <path id="path668" style="fill:#e6e6e6;stroke-width:0.313462;paint-order:markers stroke fill;stop-color:#000000" d="m -124.61316,176.92761 a 2.061064,26.6037 0 0 0 -2.06093,26.60364 2.061064,26.6037 0 0 0 0.31085,14.04283 c 1.13862,0.17066 2.30214,0.26047 3.48706,0.27706 a 2.061064,26.6037 0 0 0 0.32432,-14.31989 2.061064,26.6037 0 0 0 -2.0613,-26.60364 z"/> <path id="path703" style="fill:#cccccc;stroke-width:0.313461;paint-order:markers stroke fill;stop-color:#000000" d="m -134.92437,184.82339 a 2.9594917,38.200381 0 0 0 -2.82241,26.78321 c 0.48739,0.52099 0.99544,1.03215 1.55134,1.52151 1.31068,1.15375 2.70951,2.06029 4.17792,2.76165 a 2.9594917,38.200381 0 0 0 -2.90685,-31.06637 z"/> <path id="path670" style="fill:#e6e6e6;stroke-width:0.313462;paint-order:markers stroke fill;stop-color:#000000" d="m -134.91855,190.30547 a 2.061064,26.6037 0 0 0 -2.03036,22.11128 c 0.24756,0.23882 0.49028,0.47968 0.75347,0.71136 1.05737,0.93077 2.17258,1.69874 3.33455,2.3308 a 2.061064,26.6037 0 0 0 -2.05766,-25.15344 z"/> <path id="path713" style="fill:#cccccc;stroke-width:0.313462;paint-order:markers stroke fill;stop-color:#000000" d="m -26.7032,185.51326 a 2.8951895,37.370386 0 0 0 -2.818411,28.91041 c 1.249342,-0.6754 2.443359,-1.50465 3.57078,-2.51165 0.713965,-0.63772 1.36095,-1.30336 1.961205,-1.99016 a 2.8951895,37.370386 0 0 0 -2.713574,-24.4086 z"/> <path id="path672" style="fill:#e6e6e6;stroke-width:0.313462;paint-order:markers stroke fill;stop-color:#000000" d="m -26.712303,190.30547 a 2.061064,26.6037 0 0 0 -2.047828,23.68305 c 0.974604,-0.58821 1.913068,-1.27599 2.8093,-2.0765 0.437526,-0.3908 0.847875,-0.79306 1.241949,-1.20235 a 2.061064,26.6037 0 0 0 -2.003421,-20.4042 z"/> <path id="path721" style="fill:#cccccc;stroke-width:0.313462;paint-order:markers stroke fill;stop-color:#000000" d="m -95.464537,176.28241 a 2.4159248,31.184155 0 0 0 -2.415827,31.18406 2.4159248,31.184155 0 0 0 0.02803,4.69684 c 1.631954,-0.541 3.228983,-1.05546 4.790886,-1.53654 a 2.4159248,31.184155 0 0 0 0.0131,-3.1603 2.4159248,31.184155 0 0 0 -2.41619,-31.18406 z"/> <path id="path723" style="fill:#e6e6e6;stroke-width:0.313462;paint-order:markers stroke fill;stop-color:#000000" d="m -95.464537,179.72234 a 2.061064,26.6037 0 0 0 -2.060932,26.60365 2.061064,26.6037 0 0 0 0.04877,5.71275 c 1.373241,-0.45433 2.720927,-0.88982 4.044335,-1.30157 a 2.061064,26.6037 0 0 0 0.02912,-4.41118 2.061064,26.6037 0 0 0 -2.061296,-26.60365 z"/> <path id="path725" style="fill:#cccccc;stroke-width:0.313462;paint-order:markers stroke fill;stop-color:#000000" d="m -65.952289,176.28241 a 2.4159248,31.184155 0 0 0 -2.415831,31.18406 2.4159248,31.184155 0 0 0 0.01349,3.19853 c 1.559321,0.4535 3.166713,0.94423 4.790886,1.44117 a 2.4159248,31.184155 0 0 0 0.02772,-4.6397 2.4159248,31.184155 0 0 0 -2.416191,-31.18406 z"/> <path id="path727" style="fill:#e6e6e6;stroke-width:0.313462;paint-order:markers stroke fill;stop-color:#000000" d="m -65.952289,179.72234 a 2.061064,26.6037 0 0 0 -2.06093,26.60365 2.061064,26.6037 0 0 0 0.02985,4.45026 c 1.323019,0.3878 2.675006,0.79644 4.044331,1.21523 a 2.061064,26.6037 0 0 0 0.04801,-5.66549 2.061064,26.6037 0 0 0 -2.06129,-26.60365 z"/> <g id="g5940" style="stroke-width:1.04488"> <path style="fill:#666666;stroke:none;stroke-width:0.697104px;stroke-linecap:butt;stroke-linejoin:miter;stroke-opacity:1" d="m 128.02777,111.18332 c 0.7787,-0.92663 4.96348,0.0668 10.07512,5.43274 4.88493,5.12794 10.80575,14.99985 10.494,28.38195 -0.28278,10.26676 -4.40512,21.77442 -13.57394,30.68389 -2.92221,2.8214 -6.26072,5.27502 -9.936,7.26063 -6.80529,3.67661 -14.21813,5.45969 -21.41987,5.48402 -12.891566,0.003 -23.895506,-5.62853 -30.856783,-12.51494 -7.320794,-7.27998 -10.148356,-15.47365 -10.909518,-20.86714 -0.788107,-5.58441 0.367854,-8.62859 1.464063,-8.7637 1.210561,-0.14921 2.52609,2.54085 4.976201,6.59115 2.45011,4.0503 6.247086,9.59913 12.348555,13.92247 5.747477,4.10352 13.911036,7.19945 22.637462,6.70685 4.81057,-0.24894 9.84943,-1.6294 14.45091,-4.10664 2.49459,-1.34298 4.77118,-2.95989 6.75661,-4.78665 6.25537,-5.70005 9.83085,-13.5339 10.88495,-20.62764 1.42853,-9.18507 -1.29753,-17.62261 -3.6575,-22.98788 -2.43179,-5.52857 -4.63712,-8.73473 -3.73426,-9.80911 z" id="path4403-3" class="UnoptimicedTransforms" transform="matrix(0.15548009,-0.07181667,-0.03305921,-0.99626488,-59.298895,318.2875)"/> <path style="fill:#666666;stroke:none;stroke-width:0.697104px;stroke-linecap:butt;stroke-linejoin:miter;stroke-opacity:1" d="m 128.02777,111.18332 c 0.7787,-0.92663 4.96348,0.0668 10.07512,5.43274 4.88493,5.12794 10.80575,14.99985 10.494,28.38195 -0.28278,10.26676 -4.40512,21.77442 -13.57394,30.68389 -2.92221,2.8214 -6.26072,5.27502 -9.936,7.26063 -6.80529,3.67661 -14.21813,5.45969 -21.41987,5.48402 -12.891566,0.003 -23.895506,-5.62853 -30.856783,-12.51494 -7.320794,-7.27998 -10.148356,-15.47365 -10.909518,-20.86714 -0.788107,-5.58441 0.367854,-8.62859 1.464063,-8.7637 1.210561,-0.14921 2.52609,2.54085 4.976201,6.59115 2.45011,4.0503 6.247086,9.59913 12.348555,13.92247 5.747477,4.10352 13.911036,7.19945 22.637462,6.70685 4.81057,-0.24894 9.84943,-1.6294 14.45091,-4.10664 2.49459,-1.34298 4.77118,-2.95989 6.75661,-4.78665 6.25537,-5.70005 9.83085,-13.5339 10.88495,-20.62764 1.42853,-9.18507 -1.29753,-17.62261 -3.6575,-22.98788 -2.43179,-5.52857 -4.63712,-8.73473 -3.73426,-9.80911 z" id="path5928" class="UnoptimicedTransforms" transform="matrix(-0.15548009,-0.07181667,0.03305921,-0.99626488,-101.79042,318.2875)"/> </g> <path id="path5942" style="fill:#666666;stroke:none;stroke-width:0.648589px;stroke-linecap:butt;stroke-linejoin:miter;stroke-opacity:1" d="m 85.798678,55.786568 c 2.409906,-0.07329 9.962289,4.704559 15.245302,17.476882 2.33879,5.724884 3.74066,11.87886 4.78519,18.848551 0.88719,5.752259 1.57673,11.898039 1.99809,18.339659 0.7951,12.15534 0.47064,23.33904 -0.45591,32.61531 -4.02246,0.57758 -8.138683,1.1108 -12.33264,1.607 -0.685595,-9.38775 -1.4083,-21.81998 -2.155599,-33.24504 C 92.459114,104.94666 92.088102,99.577615 91.684672,93.69582 91.1738,86.698376 90.871024,81.873846 89.88228,76.699867 87.710851,64.975144 83.402194,57.462725 85.223774,55.961772 c 0.130972,-0.107919 0.325603,-0.167622 0.574904,-0.175204 z" transform="matrix(-0.18174899,0.06852407,0.00531821,0.99762298,-112.31161,66.230024)"/> <path id="path6678" style="fill:#666666;stroke:none;stroke-width:0.648589px;stroke-linecap:butt;stroke-linejoin:miter;stroke-opacity:1" d="m 85.796828,55.786695 c -0.2493,0.0076 -0.443932,0.06728 -0.574903,0.175204 -1.821581,1.500953 2.489914,9.013177 4.661343,20.7379 0.988744,5.17398 1.288682,9.998704 1.799554,16.996148 0.403431,5.881795 0.774442,11.250843 1.198439,17.733103 0.718933,10.99139 1.416498,23.01509 2.078786,32.27183 4.251746,-0.50044 8.418963,-1.0399 12.497213,-1.61882 0.85374,-9.08349 1.1387,-19.89384 0.37099,-31.63047 -0.42136,-6.44161 -1.1109,-12.587398 -1.9981,-18.339656 -1.04452,-6.969691 -2.44639,-13.123668 -4.78518,-18.848552 C 95.761955,60.491059 88.206735,55.713402 85.796828,55.786695 Z" transform="matrix(0.18174899,0.06852407,-0.00531821,0.99762298,-50.255908,66.230024)"/> </g> </g> <g id="g22965"> <g id="g2882" style="stroke-width:1.34579" transform="matrix(0.65800126,0,0,0.65800126,-148.97147,12.126554)"> <g id="g7548" transform="translate(-6.1770949,6.1145765)" style="stroke-width:1.34579"> <g id="g2858" transform="matrix(0.8731417,0,0,0.8731417,-157.82349,35.297719)" style="stroke-width:1.54132"> <g id="g2846" style="stroke-width:1.54132"> <path id="path751" style="fill:#ececec;stroke:none;stroke-width:0.462397;paint-order:markers stroke fill;stop-color:#000000" d="M 277.05343,59.036771 A 15.122277,23.147823 0 0 1 261.93116,82.184596 15.122277,23.147823 0 0 1 246.80888,59.036771 15.122277,23.147823 0 0 1 261.93116,35.888948 15.122277,23.147823 0 0 1 277.05343,59.036771 Z"/> <path id="ellipse1359" style="fill:#00ffff;stroke-width:0.462397;paint-order:markers stroke fill;stop-color:#000000" d="M 277.05343,55.786562 A 15.122277,19.897615 0 0 1 261.93116,75.684178 15.122277,19.897615 0 0 1 246.80888,55.786562 15.122277,19.897615 0 0 1 261.93116,35.888948 15.122277,19.897615 0 0 1 277.05343,55.786562 Z"/> <path id="ellipse1361" style="stroke-width:0.462397;paint-order:markers stroke fill;stop-color:#000000" d="M 275.80943,53.408363 A 11.748382,15.458306 0 0 1 264.06105,68.866669 11.748382,15.458306 0 0 1 252.31267,53.408363 11.748382,15.458306 0 0 1 264.06105,37.950056 11.748382,15.458306 0 0 1 275.80943,53.408363 Z"/> <path id="path1415" style="fill:#ffffff;stroke-width:0.462397;paint-order:markers stroke fill;stop-color:#000000" d="m 273.00664,48.255589 a 7.3481483,7.9273366 0 0 1 -7.34814,7.927336 7.3481483,7.9273366 0 0 1 -7.34815,-7.927336 7.3481483,7.9273366 0 0 1 7.34815,-7.927337 7.3481483,7.9273366 0 0 1 7.34814,7.927337 z"/> <path id="path1421" style="fill:#ffffff;stroke-width:0.462397;paint-order:markers stroke fill;stop-color:#000000" d="m 270.66374,64.18954 a 2.0234028,1.5061936 0 0 1 -2.0234,1.506192 2.0234028,1.5061936 0 0 1 -2.0234,-1.506192 2.0234028,1.5061936 0 0 1 2.0234,-1.506197 2.0234028,1.5061936 0 0 1 2.0234,1.506197 z"/> <path id="path1424" style="fill:#ffffff;stroke-width:0.462397;paint-order:markers stroke fill;stop-color:#000000" d="m 266.19096,65.854282 a 1.4909288,1.1098272 0 0 1 -1.49093,1.109823 1.4909288,1.1098272 0 0 1 -1.49093,-1.109823 1.4909288,1.1098272 0 0 1 1.49093,-1.109831 1.4909288,1.1098272 0 0 1 1.49093,1.109831 z"/> <path id="path1426" style="fill:#ffffff;stroke-width:0.462397;paint-order:markers stroke fill;stop-color:#000000" d="m 262.14415,65.61646 a 0.95845423,0.71346037 0 0 1 -0.95845,0.71346 0.95845423,0.71346037 0 0 1 -0.95846,-0.71346 0.95845423,0.71346037 0 0 1 0.95846,-0.713462 0.95845423,0.71346037 0 0 1 0.95845,0.713462 z"/> <path id="path1428" style="fill:#ffffff;stroke-width:0.462397;paint-order:markers stroke fill;stop-color:#000000" d="m 259.37528,64.030993 a 0.95845423,0.71346037 0 0 1 -0.95845,0.713459 0.95845423,0.71346037 0 0 1 -0.95846,-0.713459 0.95845423,0.71346037 0 0 1 0.95846,-0.713462 0.95845423,0.71346037 0 0 1 0.95845,0.713462 z"/> </g> <path id="path1531" style="fill:#000000;stroke:none;stroke-width:0.407808px;stroke-linecap:butt;stroke-linejoin:miter;stroke-opacity:1" d="m 262.44719,24.519697 c 1.14163,0.306051 2.8268,1.184507 4.21578,2.686325 1.3075,1.230404 2.16068,2.711293 2.63339,4.19141 0.35327,1.106176 0.4729,2.130246 0.48144,3.01638 -0.27439,-0.163924 -0.56891,-0.321119 -0.88794,-0.468734 -0.53579,-0.247165 -1.13024,-0.463795 -1.77531,-0.641264 l 0.15837,-0.05295 c -0.4179,-1.26333 -1.36687,-3.013702 -3.24422,-4.566414 -1.39913,-1.15719 -3.17193,-2.07791 -5.20579,-2.541965 -2.40367,-0.409237 -4.32466,-0.106599 -5.57207,0.04217 1.21957,-0.145449 3.21024,0.0166 5.19904,0.836688 1.79015,0.610164 3.26146,1.606648 4.37156,2.741159 1.0647,1.08812 1.7035,2.19642 2.10983,3.127267 -0.57159,-0.06385 -1.16883,-0.09916 -1.79131,-0.09966 -0.97194,1.11e-4 -1.98214,0.08456 -3.00261,0.257598 -0.73233,-0.952011 -1.75248,-1.961575 -3.13998,-2.854846 -1.71594,-1.104721 -3.81777,-1.909033 -6.1486,-2.180068 -2.67201,-0.173441 -4.73663,0.35092 -6.08038,0.652017 1.31474,-0.294598 3.51183,-0.37009 5.82425,0.252451 2.10462,0.441002 3.91246,1.351715 5.33439,2.463873 0.8994,0.703465 1.59189,1.44131 2.12964,2.143507 -0.43318,0.126022 -0.8649,0.26811 -1.29309,0.428313 -0.7241,0.279863 -1.41253,0.591723 -2.06582,0.929128 -0.25805,0.133268 -0.5059,0.270228 -0.74897,0.408682 -0.75621,-0.703191 -1.68441,-1.400711 -2.81228,-2.022477 -1.95372,-1.077029 -4.30508,-1.806389 -6.86469,-1.94412 -2.90946,-0.02069 -5.12243,0.670428 -6.55732,1.08793 1.40677,-0.409316 3.78724,-0.66358 6.37165,-0.174512 2.34535,0.320743 4.40952,1.174014 6.06822,2.276469 0.86954,0.577944 1.58426,1.19267 2.17456,1.798247 -0.41996,0.293131 -0.81182,0.589146 -1.17628,0.882945 -0.81061,0.64046 -1.51906,1.25809 -2.16955,1.840232 -0.85083,-0.908255 -1.97835,-1.841928 -3.44094,-2.648206 -1.95372,-1.07703 -4.30508,-1.80639 -6.86469,-1.94412 -2.90946,-0.02069 -5.12216,0.670384 -6.55706,1.087886 1.40677,-0.409315 3.78698,-0.663536 6.3714,-0.174468 2.34535,0.320743 4.40954,1.17425 6.06823,2.276704 1.30787,0.869272 2.26521,1.8207 2.97446,2.700484 -0.0912,0.08067 -0.1864,0.167698 -0.27639,0.245885 -1.14411,0.977094 -2.11693,1.73807 -3.08515,2.375097 -0.89469,-1.1044 -2.19674,-2.306211 -4.01867,-3.31059 -1.95372,-1.077028 -4.30512,-1.806628 -6.86474,-1.944355 -2.90944,-0.0207 -5.12214,0.670382 -6.55705,1.087885 1.40676,-0.409314 3.78698,-0.663535 6.37139,-0.174467 2.34535,0.320743 4.40955,1.17425 6.06824,2.276704 1.49731,0.995181 2.53632,2.098269 3.2678,3.077766 -2.46503,1.287991 -4.53831,1.763053 -4.57734,2.250776 -0.0284,0.355838 2.18679,1.113319 6.36148,-0.158643 2.18797,-0.67983 4.42359,-1.795388 6.58572,-3.340292 1.46724,-1.033061 2.81051,-2.157616 4.17784,-3.149062 0.85713,-0.606418 1.73413,-1.198841 2.61256,-1.663136 0.4145,-0.219094 0.82493,-0.407448 1.23703,-0.560699 1.16945,-0.460699 2.44715,-0.727354 3.62799,-0.800604 1.32431,-0.08424 2.58667,0.06955 3.62826,0.365477 1.28412,0.362576 2.65653,1.175196 3.36525,1.768491 1.5617,1.303268 2.33096,2.228325 3.016,2.180515 0.44449,-0.03102 1.10107,-1.348832 -0.12769,-3.829479 -0.16192,-0.325811 -0.37518,-0.659835 -0.6443,-0.990933 0.14772,-1.339276 0.0387,-3.216954 -0.85862,-5.225775 -0.71772,-1.60685 -1.87105,-3.125263 -3.45899,-4.305821 -1.93892,-1.263208 -3.77023,-1.675751 -4.93793,-1.988793 z"/> </g> <g id="g2836" transform="matrix(0.8731417,0,0,0.8731417,-157.82349,35.297719)" style="stroke-width:1.54132"> <g id="g2824" style="stroke-width:1.54132"> <path id="path1641" style="fill:#ececec;fill-opacity:1;stroke:none;stroke-width:0.462397;paint-order:markers stroke fill;stop-color:#000000" d="M 296.7672,59.036771 A 15.122277,23.147823 0 0 0 311.88947,82.184596 15.122277,23.147823 0 0 0 327.01175,59.036771 15.122277,23.147823 0 0 0 311.88947,35.888948 15.122277,23.147823 0 0 0 296.7672,59.036771 Z"/> <path id="path1643" style="fill:#00ffff;stroke-width:0.462397;paint-order:markers stroke fill;stop-color:#000000" d="M 296.7672,55.786562 A 15.122277,19.897615 0 0 0 311.88947,75.684178 15.122277,19.897615 0 0 0 327.01175,55.786562 15.122277,19.897615 0 0 0 311.88947,35.888948 15.122277,19.897615 0 0 0 296.7672,55.786562 Z"/> <path id="path1645" style="stroke-width:0.462397;paint-order:markers stroke fill;stop-color:#000000" d="M 298.0112,53.408363 A 11.748382,15.458306 0 0 0 309.75958,68.866669 11.748382,15.458306 0 0 0 321.50796,53.408363 11.748382,15.458306 0 0 0 309.75958,37.950056 11.748382,15.458306 0 0 0 298.0112,53.408363 Z"/> <path id="path1647" style="fill:#ffffff;stroke-width:0.462397;paint-order:markers stroke fill;stop-color:#000000" d="m 300.81399,48.255589 a 7.3481483,7.9273366 0 0 0 7.34815,7.927336 7.3481483,7.9273366 0 0 0 7.34814,-7.927336 7.3481483,7.9273366 0 0 0 -7.34814,-7.927337 7.3481483,7.9273366 0 0 0 -7.34815,7.927337 z"/> <path id="path1649" style="fill:#ffffff;stroke-width:0.462397;paint-order:markers stroke fill;stop-color:#000000" d="m 303.15689,64.18954 a 2.0234028,1.5061936 0 0 0 2.0234,1.506192 2.0234028,1.5061936 0 0 0 2.0234,-1.506192 2.0234028,1.5061936 0 0 0 -2.0234,-1.506197 2.0234028,1.5061936 0 0 0 -2.0234,1.506197 z"/> <path id="path1651" style="fill:#ffffff;stroke-width:0.462397;paint-order:markers stroke fill;stop-color:#000000" d="m 307.62967,65.854282 a 1.4909288,1.1098272 0 0 0 1.49093,1.109823 1.4909288,1.1098272 0 0 0 1.49093,-1.109823 1.4909288,1.1098272 0 0 0 -1.49093,-1.109831 1.4909288,1.1098272 0 0 0 -1.49093,1.109831 z"/> <path id="path1653" style="fill:#ffffff;stroke-width:0.462397;paint-order:markers stroke fill;stop-color:#000000" d="m 311.67648,65.61646 a 0.95845423,0.71346037 0 0 0 0.95845,0.71346 0.95845423,0.71346037 0 0 0 0.95846,-0.71346 0.95845423,0.71346037 0 0 0 -0.95846,-0.713462 0.95845423,0.71346037 0 0 0 -0.95845,0.713462 z"/> <path id="path1655" style="fill:#ffffff;stroke-width:0.462397;paint-order:markers stroke fill;stop-color:#000000" d="m 314.44535,64.030993 a 0.95845423,0.71346037 0 0 0 0.95845,0.713459 0.95845423,0.71346037 0 0 0 0.95846,-0.713459 0.95845423,0.71346037 0 0 0 -0.95846,-0.713462 0.95845423,0.71346037 0 0 0 -0.95845,0.713462 z"/> </g> <path id="path1659" style="fill:#000000;stroke:none;stroke-width:0.407808px;stroke-linecap:butt;stroke-linejoin:miter;stroke-opacity:1" d="m 311.37344,24.519697 c -1.14163,0.306051 -2.8268,1.184507 -4.21578,2.686325 -1.3075,1.230404 -2.16068,2.711293 -2.63339,4.19141 -0.35327,1.106176 -0.4729,2.130246 -0.48144,3.01638 0.27439,-0.163924 0.56891,-0.321119 0.88794,-0.468734 0.53579,-0.247165 1.13024,-0.463795 1.77531,-0.641264 l -0.15837,-0.05295 c 0.4179,-1.26333 1.36687,-3.013702 3.24422,-4.566414 1.39913,-1.15719 3.17193,-2.07791 5.20579,-2.541965 2.40367,-0.409237 4.32466,-0.106599 5.57207,0.04217 -1.21957,-0.145449 -3.21024,0.0166 -5.19904,0.836688 -1.79015,0.610164 -3.26146,1.606648 -4.37156,2.741159 -1.0647,1.08812 -1.7035,2.19642 -2.10983,3.127267 0.57159,-0.06385 1.16883,-0.09916 1.79131,-0.09966 0.97194,1.11e-4 1.98214,0.08456 3.00261,0.257598 0.73233,-0.952011 1.75248,-1.961575 3.13998,-2.854846 1.71594,-1.104721 3.81777,-1.909033 6.1486,-2.180068 2.67201,-0.173441 4.73663,0.35092 6.08038,0.652017 -1.31474,-0.294598 -3.51183,-0.37009 -5.82425,0.252451 -2.10462,0.441002 -3.91246,1.351715 -5.33439,2.463873 -0.8994,0.703465 -1.59189,1.44131 -2.12964,2.143507 0.43318,0.126022 0.8649,0.26811 1.29309,0.428313 0.7241,0.279863 1.41253,0.591723 2.06582,0.929128 0.25805,0.133268 0.5059,0.270228 0.74897,0.408682 0.75621,-0.703191 1.68441,-1.400711 2.81228,-2.022477 1.95372,-1.077029 4.30508,-1.806389 6.86469,-1.94412 2.90946,-0.02069 5.12243,0.670428 6.55732,1.08793 -1.40677,-0.409316 -3.78724,-0.66358 -6.37165,-0.174512 -2.34535,0.320743 -4.40952,1.174014 -6.06822,2.276469 -0.86954,0.577944 -1.58426,1.19267 -2.17456,1.798247 0.41996,0.293131 0.81182,0.589146 1.17628,0.882945 0.81061,0.64046 1.51906,1.25809 2.16955,1.840232 0.85083,-0.908255 1.97835,-1.841928 3.44094,-2.648206 1.95372,-1.07703 4.30508,-1.80639 6.86469,-1.94412 2.90946,-0.02069 5.12216,0.670384 6.55706,1.087886 -1.40677,-0.409315 -3.78698,-0.663536 -6.3714,-0.174468 -2.34535,0.320743 -4.40954,1.17425 -6.06823,2.276704 -1.30787,0.869272 -2.26521,1.8207 -2.97446,2.700484 0.0912,0.08067 0.1864,0.167698 0.27639,0.245885 1.14411,0.977094 2.11693,1.73807 3.08515,2.375097 0.89469,-1.1044 2.19674,-2.306211 4.01867,-3.31059 1.95372,-1.077028 4.30512,-1.806628 6.86474,-1.944355 2.90944,-0.0207 5.12214,0.670382 6.55705,1.087885 -1.40676,-0.409314 -3.78698,-0.663535 -6.37139,-0.174467 -2.34535,0.320743 -4.40955,1.17425 -6.06824,2.276704 -1.49731,0.995181 -2.53632,2.098269 -3.2678,3.077766 2.46503,1.287991 4.53831,1.763053 4.57734,2.250776 0.0284,0.355838 -2.18679,1.113319 -6.36148,-0.158643 -2.18797,-0.67983 -4.42359,-1.795388 -6.58572,-3.340292 -1.46724,-1.033061 -2.81051,-2.157616 -4.17784,-3.149062 -0.85713,-0.606418 -1.73413,-1.198841 -2.61256,-1.663136 -0.4145,-0.219094 -0.82493,-0.407448 -1.23703,-0.560699 -1.16945,-0.460699 -2.44715,-0.727354 -3.62799,-0.800604 -1.32431,-0.08424 -2.58667,0.06955 -3.62826,0.365477 -1.28412,0.362576 -2.65653,1.175196 -3.36525,1.768491 -1.5617,1.303268 -2.33096,2.228325 -3.016,2.180515 -0.44449,-0.03102 -1.10107,-1.348832 0.12769,-3.829479 0.16192,-0.325811 0.37518,-0.659835 0.6443,-0.990933 -0.14772,-1.339276 -0.0387,-3.216954 0.85862,-5.225775 0.71772,-1.60685 1.87105,-3.125263 3.45899,-4.305821 1.93892,-1.263208 3.77023,-1.675751 4.93793,-1.988793 z"/> </g> </g> </g> <path id="path22908" style="fill:#000000;stroke:none;stroke-width:5.00911px;stroke-linecap:butt;stroke-linejoin:miter;stroke-opacity:1" class="UnoptimicedTransforms" transform="matrix(-0.03468274,0.03138368,0.03138368,0.03468274,-65.688833,91.205411)" d="m 85.917491,-61.94843 c 1.060306,-2.021286 8.138106,-1.605345 18.857029,3.966605 10.53666,5.477207 24.75018,16.298309 35.97564,34.276706 10.74741,17.3338065 17.94151,39.622709 18.14238,64.672622 0.003,0.291247 0.005,0.582701 0.006,0.874355 0.0927,25.050601 -6.57703,47.446684 -16.10078,65.133272 -9.82807,18.29284 -22.44931,30.67425 -32.27658,37.52556 -9.89603,6.89925 -16.826071,8.42449 -18.190888,6.54787 -1.457824,-2.00451 2.530868,-7.40117 8.697268,-16.23081 6.22968,-8.92025 14.36007,-21.23917 20.82493,-37.677233 6.18615,-15.765333 10.53396,-34.592524 10.45503,-55.198692 -9.2e-4,-0.240657 -0.002,-0.481123 -0.005,-0.721397 C 132.06991,20.649535 127.54716,2.413247 120.5167,-12.578566 113.3816,-27.981985 103.73369,-39.372307 96.637997,-47.177583 89.487547,-55.043095 84.770145,-59.761218 85.917491,-61.94843 Z M 745.86561,-659.12156 c 2.29063,-0.92374 6.51533,4.24022 13.62936,12.13868 7.05956,7.83798 17.43207,18.57263 32.04804,27.20676 14.21684,8.48901 31.91184,14.80601 52.35718,17.08721 0.23887,0.0261 0.47799,0.0515 0.71736,0.0764 20.49579,2.13137 39.66246,-0.31919 55.96565,-4.90398 17.00033,-4.79511 30.06794,-11.65781 39.56443,-16.96783 9.40003,-5.2561 15.16721,-8.68732 17.01651,-7.03705 1.73132,1.54498 -0.47672,8.2886 -8.32751,17.44808 -7.79625,9.09583 -21.37342,20.42082 -40.55437,28.37761 -18.54738,7.7144 -41.4965,12.1198 -66.41325,9.53194 -0.29009,-0.0301 -0.5799,-0.0612 -0.86941,-0.0931 -24.90528,-2.69541 -46.36661,-12.0742 -62.5435,-24.49498 -16.77065,-12.96067 -26.12193,-28.18151 -30.5222,-39.21141 -4.47639,-11.22069 -4.18515,-18.30471 -2.06829,-19.15838 z m 66.66933,58.69866 c 1.44354,0.10728 2.35862,8.85991 1.84878,25.04647 -0.4802,15.24538 -2.50178,40.77369 -9.45298,69.14315 -4.74961,19.44549 -12.57307,42.77828 -26.37864,65.00514 -10e-6,0 -10e-6,10e-6 -10e-6,2e-5 -9.46095,15.17032 -22.07275,29.89893 -38.11831,42.29792 -13.50562,10.37557 -28.76248,18.76638 -45.29533,25.63081 -15.64714,6.51232 -31.47328,11.52566 -48.0376,16.54589 -15.60083,4.74968 -32.13145,9.6011 -47.56598,15.31121 -15.34063,5.68834 -30.58325,12.48493 -44.52066,21.22192 -14.65168,9.14515 -28.23326,20.62044 -39.87646,34.10806 -4.74679,5.45205 -9.11695,11.35006 -13.2112,17.60586 -5.94104,9.07761 -11.21682,18.78088 -16.1096,28.64275 -8.48682,17.20459 -16.14894,36.11935 -23.84116,53.84266 -7.97611,18.47724 -16.292,36.40151 -27.00773,53.4495 -10.77904,17.22922 -24.10305,32.55107 -40.28003,44.273239 -12.11695,8.686955 -24.54768,16.256728 -37.25994,22.617784 -11.26326,5.627443 -22.62766,10.220021 -33.8249,13.942515 0,0 -3e-5,8e-6 -3e-5,8e-6 -19.60878,6.489395 -43.39845,11.46621 -59.48999,15.639557 -22.17524,5.790521 -40.35836,13.046634 -55.85025,22.265096 -1e-5,4e-6 -2e-5,8e-6 -2e-5,1.3e-5 -12.01481,7.1109132 -22.46656,15.1427372 -30.83523,22.1659667 -23.88438,20.0474433 -35.68265,33.8274693 -37.3109,32.5364473 -1.62825,-1.291022 6.89847,-17.425042 29.36608,-40.98190588 7.90464,-8.28792882 18.1026,-17.72224812 30.52894,-26.45249112 0,2e-6 2e-5,-1.3e-5 2e-5,-1.3e-5 16.1641,-11.293606 35.57986,-20.619302 58.80979,-27.905149 18.39951,-5.813883 38.19204,-10.543054 57.52893,-17.829836 0,-10e-7 3e-5,-1e-5 3e-5,-1e-5 10.1849,-3.819269 20.43961,-8.375292 30.48793,-13.799923 11.37472,-6.130411 22.54579,-13.383023 33.54514,-21.674108 12.88766,-9.62477 23.68625,-22.86133 33.0642,-38.14081 9.3613,-15.33197 16.79905,-32.14842 24.51621,-50.37303 7.35843,-17.47598 15.02847,-36.7554 24.03037,-55.24705 5.13333,-10.60227 10.93875,-21.27179 17.71951,-31.56177 4.67093,-7.08827 9.75504,-13.92133 15.34671,-20.40526 13.51205,-15.55473 29.20691,-28.66617 46.16107,-39.04531 16.10466,-9.82124 33.02583,-17.18777 49.62209,-23.00955 16.68446,-5.86534 33.70925,-10.54631 49.31804,-14.92362 16.55749,-4.66605 31.6767,-9.00695 46.22399,-14.61768 15.26626,-5.90324 29.02149,-12.80719 40.98002,-21.38682 14.19095,-10.10914 25.8019,-22.54807 34.80694,-35.49906 10e-6,-1e-5 10e-6,-2e-5 2e-5,-3e-5 13.30748,-19.0639 21.90903,-40.43092 27.83269,-58.49649 8.44963,-25.84231 13.35689,-51.70531 16.13151,-65.82456 3.07771,-15.66162 4.9544,-24.22479 6.39794,-24.11751 z"/> </g> </g> <g id="g20574" transform="matrix(0.516596,0.08467021,-0.08467663,0.51678685,-150.56643,-35.158254)" style="stroke-width:1.90991"> <path id="path7717" style="fill:url(#linearGradient7809);fill-opacity:1;stroke:none;stroke-width:0.572973;paint-order:markers stroke fill;stop-color:#000000" d="m 101.1785,111.28868 c -9.646571,15.47947 -13.517306,31.86615 -13.062283,52.10169 -21.677141,3.01032 -32.242198,5.48655 -43.941786,16.65825 -11.423176,10.90777 -13.153345,22.3034 -8.31682,32.32202 13.586465,28.14368 52.335166,35.20101 85.627809,38.18124 17.53323,1.5695 16.18843,-18.45398 34.33177,-16.88827 9.61483,0.82973 39.58395,11.773 50.2517,3.24732 10.34465,-8.26746 20.79155,-31.74997 11.88137,-47.7208 -8.91018,-15.97082 -42.06142,-16.857 -42.06142,-16.857 0,0 -8.75006,-38.3505 -2.55659,-56.2362 3.16766,-9.14766 8.69481,-23.292949 19.17206,-22.827584 13.51883,0.600453 14.91822,40.684434 21.50202,31.508344 9.61078,-13.39486 1.22054,-49.635898 -17.37189,-63.092907 -9.88704,-7.156145 -26.07636,-4.706752 -37.81856,-0.507653 -24.68634,8.828011 -44.51038,29.047254 -57.63738,50.11155 z"/> <path id="path18026" style="opacity:0.811258;fill:#270031;fill-opacity:1;stroke:none;stroke-width:0.505332px;stroke-linecap:butt;stroke-linejoin:miter;stroke-opacity:1;filter:url(#filter18244)" d="m 180.93883,57.15 c -7.50601,-0.143412 -15.51822,1.665154 -22.1232,4.027144 -24.68632,8.828003 -44.51032,29.047395 -57.63731,50.111666 -9.074889,14.56212 -13.035754,29.92898 -13.094808,48.54588 4.626958,0.93058 8.37116,0.77409 9.209774,-2.9223 9.483134,-41.79924 30.119294,-61.907087 55.961794,-83.028105 10.33861,-8.449725 30.14497,-10.881699 37.00824,-15.328169 -2.90935,-0.910843 -6.06854,-1.343907 -9.32449,-1.406116 z"/> <path id="path18238" style="opacity:0.456954;fill:#ffffff;fill-opacity:1;stroke:none;stroke-width:0.505332px;stroke-linecap:butt;stroke-linejoin:miter;stroke-opacity:1;filter:url(#filter18240)" d="m 191.69042,83.975046 c -4.61469,0.264071 -9.91123,1.017019 -13.19188,4.273148 -14.17392,14.067986 -19.08867,36.580796 -18.88905,56.854886 6.35603,21.3311 6.48659,23.13628 8.72472,27.02258 4.40371,-1.30933 6.7487,-0.44391 5.47718,-3.38127 -14.37844,-33.21601 -8.48298,-52.2287 5.70089,-71.459049 5.59399,-7.58427 22.84983,-4.458355 26.2618,-10.471026 -2.94338,0.595758 -9.30248,-3.112867 -14.08366,-2.839269 z"/> <g id="g20561" style="stroke-width:1.90991"> <path id="path20546" style="opacity:0.450331;fill:none;fill-opacity:1;stroke:#000000;stroke-width:9.5496;stroke-opacity:0.992565;paint-order:markers stroke fill;filter:url(#filter20554);stop-color:#000000" d="m 121.92722,153.30101 23.87733,2.35014 c 4.71306,0.46387 8.29173,5.42952 7.8242,9.42721 l -2.15884,18.45978 c -0.46751,3.99771 -4.89711,6.30791 -9.61016,5.84401 l -23.87733,-2.35014 c -4.71307,-0.46387 -8.50763,-3.58353 -8.0401,-7.58124 l 2.15885,-18.45979 c 0.46752,-3.99768 5.113,-8.15386 9.82605,-7.68997 z"/> <path id="rect10167" style="fill:url(#linearGradient10954);stroke-width:0.572973;paint-order:markers stroke fill;stop-color:#000000" d="m 89.655963,141.29266 c -1.178336,6.6317 -1.66993,13.64603 -1.548313,21.19304 12.09827,7.91357 30.09799,18.28967 42.95796,19.52456 12.4073,1.19144 32.0037,-5.64862 44.58895,-10.76237 -0.48701,-2.24788 -1.91867,-9.20809 -3.08135,-18.12993 -12.25539,4.63048 -28.15433,9.49863 -38.77211,8.479 -13.28594,-1.27582 -32.06336,-12.31064 -44.145137,-20.3043 z"/> <path id="rect12038" style="fill:none;fill-opacity:1;stroke:url(#linearGradient13615);stroke-width:9.54957;paint-order:markers stroke fill;stop-color:#000000" d="m 123.08121,155.45866 21.0836,2.06925 c 4.16161,0.40843 7.32157,4.78058 6.90874,8.30046 l -1.90625,16.25346 c -0.41281,3.5199 -4.32413,5.55398 -8.48574,5.14553 l -21.0836,-2.06925 c -4.16162,-0.40843 -7.5122,-3.15523 -7.09938,-6.67513 l 1.90626,-16.25346 c 0.41282,-3.51988 4.51476,-7.17931 8.67637,-6.77086 z"/> </g> <path id="path18254" style="opacity:0.890728;fill:#1e0026;fill-opacity:1;stroke:none;stroke-width:0.505332px;stroke-linecap:butt;stroke-linejoin:miter;stroke-opacity:1;filter:url(#filter19363)" d="m 86.393176,163.63549 c -20.501996,2.90629 -30.839007,5.5468 -42.218611,16.41295 -11.423165,10.90776 -13.153326,22.30345 -8.316805,32.32206 4.141742,8.57941 10.630307,15.19095 18.581294,20.33313 -2.765507,-14.20749 -11.29464,-28.94246 -5.061189,-41.40936 5.410839,-10.82168 32.596815,-15.35003 37.015311,-27.65878 z"/> <path id="path19369" style="opacity:0.887417;fill:#1e0026;fill-opacity:1;stroke:none;stroke-width:0.505332px;stroke-linecap:butt;stroke-linejoin:miter;stroke-opacity:1;filter:url(#filter19374)" d="m 45.818008,205.78087 c -0.998913,5.17801 -12.256598,1.83286 -9.960248,6.58963 13.586451,28.14365 52.335238,35.2009 85.62785,38.18113 5.40426,0.48377 9.01204,-1.08704 11.95276,-3.44165 C 97.467075,235.91804 52.99892,234.82274 45.818008,205.78087 Z"/> <path id="path19378" style="opacity:0.198675;fill:#ffffff;fill-opacity:1;stroke:none;stroke-width:0.505332px;stroke-linecap:butt;stroke-linejoin:miter;stroke-opacity:1;filter:url(#filter19383)" d="m 183.19307,173.24627 c 37.27078,24.83736 19.9274,51.17609 9.32191,66.87602 4.60925,-0.12364 8.62209,-1.02342 11.35952,-3.21117 10.34464,-8.26745 20.7911,-31.7503 11.88092,-47.72112 -5.8401,-10.46794 -22.05469,-14.43862 -32.56235,-15.94373 z"/> <path id="path19387" style="opacity:0.42053;fill:#9501ba;fill-opacity:1;stroke:none;stroke-width:0.693973px;stroke-linecap:butt;stroke-linejoin:miter;stroke-opacity:1;filter:url(#filter19391)" d="m 180.26696,173.24627 c 37.27078,24.83736 19.9274,51.17609 9.32191,66.87602 4.60925,-0.12364 8.62209,-1.02342 11.35952,-3.21117 10.34464,-8.26745 20.7911,-31.7503 11.88092,-47.72112 -5.8401,-10.46794 -22.05469,-14.43862 -32.56235,-15.94373 z" transform="matrix(0.72817115,0,0,0.72817115,57.177054,56.548516)"/> </g> </g> </g> </g> </g> </svg>