<?xml version='1.0' encoding='utf-8'?>
<svg xmlns:xlink="http://www.w3.org/1999/xlink" xmlns="http://www.w3.org/2000/svg" width="210mm" height="297mm" viewBox="0 0 210 297" version="1.1" id="svg5"> <defs id="defs2"> <linearGradient id="linearGradient12530"> <stop style="stop-color:#7e430d;stop-opacity:1;" offset="0" id="stop12526"/> <stop style="stop-color:#4c2907;stop-opacity:1;" offset="1" id="stop12528"/> </linearGradient> <linearGradient id="linearGradient11382"> <stop style="stop-color:#7e430d;stop-opacity:1;" offset="0" id="stop11378"/> <stop style="stop-color:#4b2807;stop-opacity:1;" offset="1" id="stop11380"/> </linearGradient> <linearGradient id="linearGradient11374"> <stop style="stop-color:#e56d1c;stop-opacity:1;" offset="0" id="stop11370"/> </linearGradient> <linearGradient id="linearGradient9060"> <stop style="stop-color:#aa0000;stop-opacity:1" offset="0" id="stop9056"/> <stop style="stop-color:#ff0000;stop-opacity:1" offset="1" id="stop9058"/> </linearGradient> <linearGradient id="linearGradient7884"> <stop style="stop-color:#00c500;stop-opacity:1;" offset="0" id="stop7880"/> <stop style="stop-color:#008000;stop-opacity:1" offset="1" id="stop7882"/> </linearGradient> <linearGradient id="linearGradient6567"> <stop style="stop-color:#00e700;stop-opacity:1;" offset="0" id="stop6563"/> <stop style="stop-color:#008000;stop-opacity:1" offset="1" id="stop6565"/> </linearGradient> <linearGradient id="linearGradient6470"> <stop style="stop-color:#008000;stop-opacity:1" offset="0" id="stop6466"/> <stop style="stop-color:#00bf00;stop-opacity:1" offset="1" id="stop6468"/> </linearGradient> <linearGradient id="linearGradient11485"> <stop style="stop-color:#2a7fff;stop-opacity:1" offset="0" id="stop11481"/> </linearGradient> <linearGradient id="linearGradient15104"> <stop style="stop-color:#a51d2d;stop-opacity:1" offset="0" id="stop15100"/> <stop style="stop-color:#e01b24;stop-opacity:0.30463576" offset="1" id="stop15102"/> </linearGradient> <linearGradient xlink:href="#linearGradient15104" id="linearGradient15106" x1="163.49631" y1="200.43843" x2="163.86208" y2="165.32512" gradientUnits="userSpaceOnUse"/> <filter style="color-interpolation-filters:sRGB;" id="filter3642" x="-0.082817525" y="-0.071153479" width="1.1656351" height="1.142307"> <feGaussianBlur stdDeviation="4.3459721" result="result3" id="feGaussianBlur3628"/> <feColorMatrix values="1 0 0 0 0 0 1 0 0 0 0 0 1 0 0 0 0 0 50 0 " result="result7" id="feColorMatrix3630"/> <feComposite operator="in" in2="SourceGraphic" result="result9" id="feComposite3632"/> <feComposite in2="result7" operator="arithmetic" in="result9" k1="0.5" k3="0.5" result="result1" id="feComposite3634"/> <feBlend in2="result1" result="result5" mode="screen" in="SourceGraphic" id="feBlend3636"/> <feBlend in2="result5" mode="darken" in="result5" result="result6" id="feBlend3638"/> <feComposite in2="SourceGraphic" operator="in" result="result8" id="feComposite3640"/> </filter> <linearGradient xlink:href="#linearGradient11485" id="linearGradient10971" gradientUnits="userSpaceOnUse" x1="-41.715935" y1="156.85406" x2="-38.512024" y2="125.97655" gradientTransform="matrix(0.96433398,0,0,0.9644911,-12.348838,27.3117)"/> <linearGradient xlink:href="#linearGradient11485" id="linearGradient13012" gradientUnits="userSpaceOnUse" gradientTransform="matrix(0.96433398,0,0,0.9644911,-12.348838,27.3117)" x1="-41.715935" y1="156.85406" x2="-38.512024" y2="125.97655"/> <filter style="color-interpolation-filters:sRGB" id="filter16208" x="-0.012612071" y="-0.011266106" width="1.0252241" height="1.0225322"> <feGaussianBlur stdDeviation="0.48432807" id="feGaussianBlur16210"/> </filter> <filter style="color-interpolation-filters:sRGB" id="filter46851" x="-0.0029501701" y="-0.0030515422" width="1.0059003" height="1.0061031"> <feGaussianBlur stdDeviation="0.026344117" id="feGaussianBlur46853"/> </filter> <filter style="color-interpolation-filters:sRGB" id="filter47066" x="-0.0030700055" y="-0.0029331162" width="1.00614" height="1.0058662"> <feGaussianBlur stdDeviation="0.027330547" id="feGaussianBlur47068"/> </filter> <filter style="color-interpolation-filters:sRGB" id="filter7968" x="-0.0069206225" y="-0.0079377642" width="1.0138412" height="1.0158755"> <feGaussianBlur stdDeviation="0.077836771" id="feGaussianBlur7970"/> </filter> <filter style="color-interpolation-filters:sRGB" id="filter7972" x="-0.0067653669" y="-0.0067653669" width="1.0135307" height="1.0135307"> <feGaussianBlur stdDeviation="0.012394084" id="feGaussianBlur7974"/> </filter> <filter style="color-interpolation-filters:sRGB" id="filter7976" x="-0.0061643117" y="-0.0061643117" width="1.0123286" height="1.0123286"> <feGaussianBlur stdDeviation="0.01262154" id="feGaussianBlur7978"/> </filter> <filter style="color-interpolation-filters:sRGB" id="filter7980" x="-0.0067653669" y="-0.0067653669" width="1.0135307" height="1.0135307"> <feGaussianBlur stdDeviation="0.012394084" id="feGaussianBlur7982"/> </filter> <filter style="color-interpolation-filters:sRGB" id="filter1229" x="-0.042670775" y="-0.0085745426" width="1.0853415" height="1.0171491"> <feGaussianBlur stdDeviation="0.12289574" id="feGaussianBlur1231"/> </filter> <linearGradient xlink:href="#linearGradient6470" id="linearGradient6472" x1="-188.1837" y1="110.2014" x2="-70.292037" y2="110.2014" gradientUnits="userSpaceOnUse"/> <linearGradient xlink:href="#linearGradient6567" id="linearGradient6561" x1="-165.32512" y1="99.487686" x2="-146.67119" y2="177.02956" gradientUnits="userSpaceOnUse"/> <linearGradient xlink:href="#linearGradient7884" id="linearGradient7886" x1="-111.87415" y1="143.5922" x2="-81.294633" y2="143.5922" gradientUnits="userSpaceOnUse"/> <linearGradient xlink:href="#linearGradient9060" id="linearGradient9062" x1="-166.60599" y1="13.961709" x2="-82.597044" y2="13.961709" gradientUnits="userSpaceOnUse"/> <linearGradient xlink:href="#linearGradient11374" id="linearGradient11376" x1="105.66052" y1="77.203415" x2="124.07729" y2="12.803711" gradientUnits="userSpaceOnUse"/> <linearGradient xlink:href="#linearGradient11382" id="linearGradient11384" x1="120.25175" y1="27.82756" x2="108.187" y2="81.033394" gradientUnits="userSpaceOnUse"/> <linearGradient xlink:href="#linearGradient12530" id="linearGradient12532" x1="25.104523" y1="54.344288" x2="66.004227" y2="96.103668" gradientUnits="userSpaceOnUse"/> </defs> <g id="layer1"> <g id="g2044" style="stroke-width:1.64565" transform="matrix(0.61336479,0.04785963,-0.04866919,0.59821001,-56.190556,-37.328889)"/> <g id="g17795"> <g id="g8894" transform="translate(228.63235,53.795847)"> <g id="g17702"> <g id="g8877" style="stroke-width:1.20091" transform="matrix(1.2926764,1.1347306e-8,0,1.2923091,-224.21342,-15.680787)"> <g id="g8017" transform="translate(6.4569281,-30.589166)" style="stroke-width:1.20091"> <g id="g6958" transform="matrix(-1,0,0,1,142.36647,1.6459359)" style="stroke-width:1.20091"> <path id="path6954" style="fill:#e56d1c;stroke:#000000;stroke-width:0.193425;stroke-linecap:round;stroke-linejoin:round;paint-order:markers stroke fill;stop-color:#000000" d="m 60.577955,192.81282 c 5.356196,14.68396 3.508225,17.00783 -1.30629,17.27281 -4.814506,0.26499 -19.185588,-9.40274 -21.914643,-16.31469 -4.057264,-10.2759 -2.131202,-29.35935 12.157267,-27.4706 12.309328,1.62712 5.707448,11.82853 11.063666,26.51248 z"/> <path id="path6956" style="fill:#e56d1c;stroke:#000000;stroke-width:0.193425;stroke-linecap:round;stroke-linejoin:round;paint-order:markers stroke fill;stop-color:#000000" d="m 63.380843,212.67865 c -3.444786,8.40113 -14.713409,8.83498 -21.829456,5.91712 -7.116054,-2.91785 -15.457207,-11.39247 -12.012426,-19.79359 3.444778,-8.40113 13.793288,-12.29467 23.61001,-8.26943 9.816735,4.02523 13.676657,13.74477 10.231872,22.1459 z"/> </g> <g id="g7998" transform="matrix(-1,0,0,1,144.82663,-0.25863387)" style="stroke-width:1.20091"> <path id="path7990" style="fill:#f6ae54;fill-opacity:1;stroke:none;stroke-width:0.193425;stroke-linecap:round;stroke-linejoin:round;paint-order:markers stroke fill;filter:url(#filter7968);stop-color:#000000" d="m 63.812454,214.90397 c -2.591544,6.31815 -11.069035,6.64443 -16.422504,4.45003 -5.353474,-2.1944 -11.628601,-8.56782 -9.03706,-14.88596 2.591538,-6.31815 10.376819,-9.24633 17.762031,-6.21911 7.385222,3.02722 10.289077,10.33689 7.697533,16.65504 z"/> <circle style="fill:#f6ae54;fill-opacity:1;stroke:none;stroke-width:0.193425;stroke-linecap:round;stroke-linejoin:round;stroke-dasharray:none;stroke-opacity:1;paint-order:markers stroke fill;filter:url(#filter7976);stop-color:#000000" id="circle7992" cx="37.898788" cy="197.79597" r="2.4570217"/> <circle style="fill:#f6ae54;fill-opacity:1;stroke:none;stroke-width:0.193425;stroke-linecap:round;stroke-linejoin:round;stroke-dasharray:none;stroke-opacity:1;paint-order:markers stroke fill;filter:url(#filter7972);stop-color:#000000" id="circle7994" cx="45.140518" cy="194.17509" r="2.1983879"/> <circle style="fill:#f6ae54;fill-opacity:1;stroke:none;stroke-width:0.193425;stroke-linecap:round;stroke-linejoin:round;stroke-dasharray:none;stroke-opacity:1;paint-order:markers stroke fill;filter:url(#filter7980);stop-color:#000000" id="circle7996" cx="34.53653" cy="205.29637" r="2.1983879"/> </g> </g> <g id="g8007" transform="translate(6.4569281,-30.589166)" style="stroke-width:1.20091"> <path id="path6167" style="fill:#e56d1c;stroke:#000000;stroke-width:0.193425;stroke-linecap:round;stroke-linejoin:round;paint-order:markers stroke fill;stop-color:#000000" d="m 62.772536,194.45876 c 5.356196,14.68396 3.508225,17.00783 -1.30629,17.27281 -4.814506,0.26499 -19.185588,-9.40274 -21.914643,-16.31469 -4.057264,-10.2759 -2.131202,-29.35935 12.157267,-27.4706 12.309328,1.62712 5.707448,11.82853 11.063666,26.51248 z"/> <path id="path6947" style="fill:#e56d1c;stroke:#000000;stroke-width:0.193425;stroke-linecap:round;stroke-linejoin:round;paint-order:markers stroke fill;stop-color:#000000" d="m 65.575424,214.32459 c -3.444786,8.40113 -14.713409,8.83498 -21.829456,5.91712 -7.116054,-2.91785 -15.457207,-11.39247 -12.012426,-19.79359 3.444778,-8.40113 13.793288,-12.29467 23.61001,-8.26943 9.816735,4.02523 13.676657,13.74477 10.231872,22.1459 z"/> <g id="g7988" style="stroke-width:1.20091"> <path id="path7831" style="fill:#f6ae54;fill-opacity:1;stroke:none;stroke-width:0.193425;stroke-linecap:round;stroke-linejoin:round;paint-order:markers stroke fill;filter:url(#filter7968);stop-color:#000000" d="m 63.812454,214.90397 c -2.591544,6.31815 -11.069035,6.64443 -16.422504,4.45003 -5.353474,-2.1944 -11.628601,-8.56782 -9.03706,-14.88596 2.591538,-6.31815 10.376819,-9.24633 17.762031,-6.21911 7.385222,3.02722 10.289077,10.33689 7.697533,16.65504 z"/> <circle style="fill:#f6ae54;fill-opacity:1;stroke:none;stroke-width:0.193425;stroke-linecap:round;stroke-linejoin:round;stroke-dasharray:none;stroke-opacity:1;paint-order:markers stroke fill;filter:url(#filter7976);stop-color:#000000" id="path7956" cx="37.898788" cy="197.79597" r="2.4570217"/> <circle style="fill:#f6ae54;fill-opacity:1;stroke:none;stroke-width:0.193425;stroke-linecap:round;stroke-linejoin:round;stroke-dasharray:none;stroke-opacity:1;paint-order:markers stroke fill;filter:url(#filter7972);stop-color:#000000" id="path7958" cx="45.140518" cy="194.17509" r="2.1983879"/> <circle style="fill:#f6ae54;fill-opacity:1;stroke:none;stroke-width:0.193425;stroke-linecap:round;stroke-linejoin:round;stroke-dasharray:none;stroke-opacity:1;paint-order:markers stroke fill;filter:url(#filter7980);stop-color:#000000" id="circle7962" cx="34.53653" cy="205.29637" r="2.1983879"/> </g> </g> </g> <g id="g8528" style="stroke-width:1.20091" transform="matrix(1.2926764,1.1347306e-8,0,1.2923091,-224.21342,-15.680787)"> <g id="g7809" transform="translate(6.4569281,-30.589166)" style="stroke-width:1.20091"> <g id="g17632"> <g id="g8858" style="stroke-width:1.20091" transform="translate(-6.456928,30.589166)"> <path id="rect14005" style="fill:#e56d1c;fill-opacity:1;stroke:#000000;stroke-width:0.193425;stroke-linecap:round;stroke-linejoin:round;stroke-dasharray:none;stop-color:#000000" d="m 66.11079,79.949604 c 8.291501,-3.69277 19.149816,-4.13486 27.229941,0 8.916889,4.56306 11.356879,11.64324 17.577619,24.372516 6.22073,12.72928 1.32713,31.94991 1.05973,33.80768 -1.19444,8.29856 -13.509702,21.68628 -32.252319,21.58005 -21.828303,-0.12372 -45.149803,-22.15327 -32.252318,-21.58005 0,0 -4.103422,-25.16008 -2.2361,-34.98707 C 47.104659,93.315734 56.60952,84.181164 66.11079,79.949604 Z"/> <path id="path15273" style="fill:#f6ae54;fill-opacity:1;stroke:none;stroke-width:0.300227;stroke-linecap:round;stroke-linejoin:round;stroke-dasharray:none;filter:url(#filter16208);stop-color:#000000" d="m 89.229527,183.2588 h 35.214033 c 0,0 19.51305,11.15218 23.13339,36.66821 3.62033,25.51603 0.96862,38.41775 0.96862,38.41775 0.35658,1.52993 0.50584,2.96936 0.47228,4.32363 -0.0336,1.35426 -0.24993,2.62336 -0.6246,3.81264 -0.37467,1.18927 0.15789,3.43307 -0.50888,4.46804 -0.66676,1.03497 -2.53284,0.86112 -3.44267,1.75247 -0.90983,0.89135 -1.21859,2.7061 -2.32246,3.4645 -1.10387,0.75841 -3.00286,0.46048 -4.25175,1.09663 -1.2489,0.63615 -1.56355,2.56086 -2.90844,3.08544 -1.34489,0.52457 -3.72001,-0.35099 -5.11187,0.0727 -1.39186,0.42368 -2.22667,2.00481 -3.61647,2.33829 -1.38981,0.33347 -3.33462,-0.58073 -4.67335,-0.32678 -1.33873,0.25394 -1.85828,1.81781 -3.09691,2.00291 -1.23863,0.1851 -3.19634,-1.00858 -4.28585,-0.88164 -1.08951,0.12693 -1.02667,2.28345 -1.91803,2.3629 -0.89136,0.0795 -2.73691,-1.91815 -3.3811,-1.87549 -2.61356,2.36648 -4.1338,3.96053 -4.04811,-0.0906 -1.96333,0 -2.03636,1.29396 -3.81678,1.21446 -1.780408,-0.0795 -3.259025,-1.33188 -4.867585,-1.48615 -1.60856,-0.15426 -3.347063,0.93138 -4.794824,0.70704 -1.447762,-0.22435 -2.604782,-1.7587 -3.9028,-2.04842 -1.298019,-0.28973 -2.808071,0.45247 -3.967403,0.10206 -1.159332,-0.3504 -1.967944,-1.79341 -2.999645,-2.19979 -1.031701,-0.40638 -2.570633,0.43655 -3.48576,-0.0211 -0.915127,-0.45766 -1.206448,-2.21591 -2.016056,-2.72013 -0.809608,-0.50423 -2.63475,-0.32161 -3.349896,-0.86771 -0.715145,-0.5461 -0.320294,-1.82092 -0.952033,-2.40418 -0.631739,-0.58327 -2.574209,-0.3332 -3.133598,-0.94894 -0.559388,-0.61573 0.264305,-2.09727 -0.233789,-2.74078 -0.498094,-0.6435 -1.820728,-0.51984 -2.268583,-1.18641 -0.447856,-0.66656 -0.02093,-2.12335 -0.429606,-2.80827 -0.408673,-0.68493 -0.800519,-1.37786 -1.181066,-2.07645 -0.380546,-0.69859 -0.749794,-1.40283 -1.11327,-2.11038 -7.501339,-14.60219 -5.745246,-32.30916 -0.07889,-49.16397 5.666352,-16.85481 26.993755,-29.93248 26.993755,-29.93248 z" transform="matrix(0.64363031,0,0,0.6448942,9.4323498,-33.291915)"/> <path style="fill:#e56d1c;fill-opacity:1;stroke:none;stroke-width:0.204708px;stroke-linecap:butt;stroke-linejoin:miter;stroke-opacity:1;filter:url(#filter1229)" d="m 77.018136,108.84847 c 0,0 3.669848,7.81409 3.955379,17.30802 0.285532,9.49393 -2.920845,17.09029 -2.920845,17.09029 0,0 -3.669848,-7.55737 -3.955379,-17.05131 -0.285532,-9.49394 2.920845,-17.347 2.920845,-17.347 z" id="path8124"/> <g id="g8520" transform="translate(-65.43437,1.5518033)" style="stroke-width:1.20091"> <path style="fill:#e56d1c;fill-opacity:1;stroke:none;stroke-width:0.608483;stroke-linecap:round;stroke-linejoin:round;stroke-dasharray:none;stroke-opacity:1;paint-order:markers stroke fill;stop-color:#000000" id="path8251" d="M 588.30692,175.63969 C 790.34407,23.08103 346.77854,282.03487 591.8182,218.40532 836.85785,154.77576 323.34182,144.3477 574.07892,179.33428 824.81602,214.32085 328.05981,83.780685 546.32191,212.057 764.584,340.33331 408.84708,-30.151112 561.40574,171.88603 713.9644,373.92318 455.01055,-69.642338 518.64011,175.39732 582.26966,420.43697 592.69772,-93.079059 557.71115,157.65804 522.72457,408.39514 653.26474,-88.36107 524.98843,129.90102 396.71212,348.16311 767.19654,-7.5738012 565.15939,144.98485 363.12224,297.54351 806.68776,38.589669 561.64811,102.21923 316.60846,165.84878 830.12448,176.27684 579.38739,141.29026 328.65029,106.30369 825.4065,236.84386 607.1444,108.56755 388.88231,-19.708764 744.61923,350.77565 592.06057,148.73851 439.50191,-53.29864 698.45576,390.26688 634.8262,145.22723 571.19664,-99.812428 560.76858,413.7036 595.75516,162.9665 630.74174,-87.770594 500.20157,408.98561 628.47788,190.72352 756.75419,-27.538571 386.26977,328.19834 588.30692,175.63969 Z" transform="matrix(0.08410582,0,0,0.08410582,108.22551,94.625764)"/> <circle style="fill:#f6ae54;fill-opacity:1;stroke:none;stroke-width:0.193425;stroke-linecap:round;stroke-linejoin:round;stroke-dasharray:none;stroke-opacity:1;paint-order:markers stroke fill;stop-color:#000000" id="path8253" cx="156.73213" cy="108.10896" r="3.1036065"/> </g> </g> <g id="g17613"> <path id="path2221" style="fill:#e56d1c;stroke:#000000;stroke-width:0.193425;stroke-linecap:round;stroke-linejoin:round;paint-order:markers stroke fill;stop-color:#000000" d="m 41.980743,147.82223 c 0,17.11999 6.495174,24.38795 -2.10315,26.42642 -11.437176,2.7115 -19.266583,-18.44169 -18.2801,-30.15442 1.008614,-11.97549 12.552032,-32.03834 23.58367,-27.27046 9.53527,4.12115 -3.20042,13.87847 -3.20042,30.99846 z"/> <path id="path6973" style="fill:#e56d1c;stroke:#000000;stroke-width:0.193425;stroke-linecap:round;stroke-linejoin:round;paint-order:markers stroke fill;stop-color:#000000" d="m 98.439722,147.33035 c 2.105178,16.99007 -3.447,25.00156 5.336758,25.96726 11.68379,1.28453 16.85265,-20.67088 14.43339,-32.17342 -2.47354,-11.76057 -16.39643,-30.25172 -26.758048,-24.1635 -8.95614,5.2624 4.88273,13.3796 6.9879,30.36966 z"/> </g> </g> </g> </g> <g id="g8672"> <path id="path2011" style="fill:url(#linearGradient6561);fill-opacity:1;stroke:#000000;stroke-width:0.25;stroke-linecap:round;stroke-linejoin:round;stroke-opacity:1;paint-order:markers stroke fill;stop-color:#000000" d="m -146.71663,176.8392 c -5.25463,2.9583 -8.89591,9.28939 -16.80493,-19.25357 -4.65624,-16.80395 -7.13803,-32.32095 -7.40144,-43.02064 -0.1758,-7.14093 0.63651,-12.13614 2.44999,-13.93616 4.6311,-4.596748 15.9909,17.74575 23.98014,46.24382 7.98923,28.49806 3.03086,27.00824 -2.22376,29.96655 z"/> <path id="path11874-5" style="fill:#f7fffe;fill-opacity:1;stroke:#000000;stroke-width:0.25;stroke-linecap:round;stroke-linejoin:round;stroke-opacity:1;paint-order:markers stroke fill;stop-color:#000000" d="m -137.17607,171.20619 c 0.0457,0.30449 -0.36108,0.62238 -0.34965,0.92341 0.0114,0.30103 0.38836,0.66611 0.36694,0.96198 -0.0214,0.29587 -0.44119,0.52251 -0.49404,0.81152 -0.0529,0.289 0.30596,0.72283 0.22308,1.00327 -0.0829,0.28045 -0.60748,0.40751 -0.719,0.6777 -0.11152,0.27019 0.11719,0.73764 -0.0216,0.99587 -0.13876,0.25824 -0.64499,0.30725 -0.80958,0.55183 -0.16459,0.24458 -0.0171,0.70349 -0.20614,0.93272 -0.18903,0.22923 -0.71455,0.22877 -0.92661,0.44096 -0.21207,0.21218 -0.18565,0.67667 -0.41934,0.8701 -0.2337,0.19344 -0.7275,0.11581 -0.98143,0.2888 -0.25393,0.17299 -0.37689,0.62611 -0.64966,0.77696 -0.27275,0.15085 -0.69532,-5.8e-4 -0.98552,0.1264 -0.2902,0.12702 -0.50282,0.5989 -0.80905,0.70037 -0.30623,0.10147 -0.70607,-0.16749 -1.02693,-0.0932 -0.32087,0.0742 -0.60602,0.52702 -0.94012,0.57232 -0.3341,0.0453 -0.70923,-0.31797 -1.03912,-0.30397 -0.3299,0.014 -0.72632,0.52371 -1.05016,0.50766 -0.32385,-0.016 -0.57513,-0.55783 -0.89109,-0.60266 -0.31596,-0.0448 -0.66703,0.38856 -0.97326,0.31622 -0.30623,-0.0724 -0.5676,-0.65042 -0.86226,-0.74904 -0.29465,-0.0986 -0.87792,0.19882 -1.15915,0.0752 -0.28123,-0.12361 -0.26042,-0.66829 -0.52639,-0.81565 -0.26597,-0.14738 -1.08698,0.25697 -1.33584,0.0871 -0.24887,-0.16986 0.0744,-0.91393 -0.15549,-1.10502 -0.22992,-0.19109 -1.17466,-0.0434 -1.38377,-0.25445 -0.20913,-0.21107 0.31738,-0.78092 0.13089,-1.0107 -0.18648,-0.22978 -0.9605,-0.25456 -1.1225,-0.50181 -0.16201,-0.24724 0.288,-0.71694 0.15231,-0.98039 -0.13568,-0.26345 -0.85636,-0.424 -0.96387,-0.70239 -0.10752,-0.27838 0.39813,-0.67459 0.32062,-0.96666 -0.0775,-0.29207 -0.7627,-0.53569 -0.80835,-0.84018 -0.0457,-0.3045 0.54931,-0.66266 0.53788,-0.96369 -0.0114,-0.30103 -0.61414,-0.7683 -0.59272,-1.06416 0.0214,-0.29587 0.66697,-0.42033 0.71983,-0.70934 0.0529,-0.28901 -0.58152,-0.83302 -0.49864,-1.11347 0.0829,-0.28044 0.88304,-0.29731 0.99457,-0.5675 0.11151,-0.2702 -0.28386,-0.87736 -0.1451,-1.13559 0.13876,-0.25823 0.81164,-0.16753 0.97623,-0.41212 0.16459,-0.24458 -0.28949,-0.91275 -0.10001,-1.14202 0.18903,-0.22923 1.02116,-0.0195 1.23323,-0.23169 0.21205,-0.21218 0.0464,-0.84961 0.28008,-1.04304 0.23369,-0.19344 0.86675,0.0571 1.12068,-0.11586 0.25393,-0.17299 0.30761,-0.76427 0.58037,-0.91512 0.27276,-0.15084 0.76461,0.13875 1.0548,0.0117 0.2902,-0.127 0.49268,-0.77458 0.79891,-0.87605 0.30623,-0.10146 0.71622,0.34318 1.03708,0.26895 0.32087,-0.0742 0.65076,-0.44456 0.98486,-0.48986 0.33409,-0.0453 0.66449,0.23551 0.99438,0.22151 0.32989,-0.014 0.77471,-0.30894 1.09855,-0.2929 0.32385,0.016 0.52674,0.34306 0.8427,0.38789 0.31596,0.0448 0.83802,-0.21992 1.14424,-0.14758 0.30624,0.0724 0.39663,0.48179 0.69128,0.5804 0.29465,0.0986 0.7979,-0.0847 1.07913,0.0389 0.28123,0.12363 0.34044,0.55416 0.60641,0.70153 0.26596,0.14737 0.72499,0.0282 0.97386,0.19805 0.24886,0.16986 0.28756,0.62876 0.51747,0.81986 0.22991,0.19109 0.84795,0.13194 1.05707,0.34301 0.20913,0.21107 0.009,0.69235 0.19581,0.92214 0.18648,0.22978 0.85662,0.20962 1.01863,0.45686 0.162,0.24724 -0.18413,0.76189 -0.0484,1.02533 0.13567,0.26344 0.69768,0.44552 0.80519,0.7239 0.10752,0.27839 -0.23945,0.65309 -0.16195,0.94516 0.0775,0.29207 0.57447,0.57596 0.62013,0.88045 z"/> <path id="path5648" style="fill:url(#linearGradient7886);fill-opacity:1;stroke:#000000;stroke-width:0.25;stroke-linecap:round;stroke-linejoin:round;stroke-opacity:1;paint-order:markers stroke fill;stop-color:#000000" d="m -105.39728,180.24593 c 5.19994,2.92751 8.803317,9.1927 16.630016,-19.05315 4.607772,-16.62904 7.063733,-31.98452 7.324401,-42.57284 0.173966,-7.0666 -0.629888,-12.00981 -2.424488,-13.7911 -4.582901,-4.54889 -15.824452,17.56104 -23.730529,45.76247 -7.90607,28.20143 -2.99931,26.72711 2.2006,29.65462 z"/> <path id="path2016" style="fill:url(#linearGradient6472);fill-opacity:1;stroke:#000000;stroke-width:0.25;stroke-linecap:round;stroke-linejoin:round;stroke-opacity:1;paint-order:markers stroke fill;stop-color:#000000" d="m -178.90292,102.78704 c -4.3991,9.44058 -30.0176,14.94207 30.25912,22.99636 23.48106,3.13758 44.83035,0.0257 59.408225,-1.19988 9.72923,-0.81795 16.611441,-16.48361 18.818544,-18.98945 -6.712352,-5.01284 -10.282616,-8.975812 -13.176904,-10.954077 -5.399215,-3.690399 -8.446043,-0.474041 -25.150035,15.717907 -62.06036,8.46606 -58.53969,-32.50608 -70.15895,-7.57086 z"/> <path id="path6404" style="fill:#f7fffe;fill-opacity:1;stroke:#000000;stroke-width:0.25;stroke-linecap:round;stroke-linejoin:round;stroke-opacity:1;paint-order:markers stroke fill;stop-color:#000000" d="m -93.650208,174.86383 c 0.0457,0.30449 -0.36108,0.62238 -0.34965,0.92341 0.0114,0.30103 0.38836,0.66611 0.36694,0.96198 -0.0214,0.29587 -0.44119,0.52251 -0.49404,0.81152 -0.0529,0.289 0.30596,0.72283 0.22308,1.00327 -0.0829,0.28045 -0.60748,0.40751 -0.719,0.6777 -0.11152,0.27019 0.11719,0.73764 -0.0216,0.99587 -0.13876,0.25824 -0.64499,0.30725 -0.80958,0.55183 -0.16459,0.24458 -0.0171,0.70349 -0.20614,0.93272 -0.18903,0.22923 -0.71455,0.22877 -0.92661,0.44096 -0.21207,0.21218 -0.18565,0.67667 -0.41934,0.8701 -0.2337,0.19344 -0.7275,0.11581 -0.98143,0.2888 -0.25393,0.17299 -0.37689,0.62611 -0.64966,0.77696 -0.27275,0.15085 -0.69532,-5.8e-4 -0.98552,0.1264 -0.2902,0.12702 -0.502822,0.5989 -0.809052,0.70037 -0.30623,0.10147 -0.70607,-0.16749 -1.02693,-0.0932 -0.32087,0.0742 -0.60602,0.52702 -0.94012,0.57232 -0.3341,0.0453 -0.70923,-0.31797 -1.03912,-0.30397 -0.3299,0.014 -0.72632,0.52371 -1.05016,0.50766 -0.32385,-0.016 -0.57513,-0.55783 -0.89109,-0.60266 -0.31596,-0.0448 -0.66703,0.38856 -0.97326,0.31622 -0.30623,-0.0724 -0.5676,-0.65042 -0.86226,-0.74904 -0.29465,-0.0986 -0.87792,0.19882 -1.15915,0.0752 -0.28123,-0.12361 -0.26042,-0.66829 -0.52639,-0.81565 -0.26597,-0.14738 -1.08698,0.25697 -1.33584,0.0871 -0.24887,-0.16986 0.0744,-0.91393 -0.15549,-1.10502 -0.22992,-0.19109 -1.17466,-0.0434 -1.38377,-0.25445 -0.20913,-0.21107 0.31738,-0.78092 0.13089,-1.0107 -0.18648,-0.22978 -0.9605,-0.25456 -1.1225,-0.50181 -0.16201,-0.24724 0.288,-0.71694 0.15231,-0.98039 -0.13568,-0.26345 -0.85636,-0.424 -0.96387,-0.70239 -0.10752,-0.27838 0.39813,-0.67459 0.32062,-0.96666 -0.0775,-0.29207 -0.7627,-0.53569 -0.80835,-0.84018 -0.0457,-0.3045 0.54931,-0.66266 0.53788,-0.96369 -0.0114,-0.30103 -0.61414,-0.7683 -0.59272,-1.06416 0.0214,-0.29587 0.66697,-0.42033 0.71983,-0.70934 0.0529,-0.28901 -0.58152,-0.83302 -0.49864,-1.11347 0.0829,-0.28044 0.88304,-0.29731 0.99457,-0.5675 0.11151,-0.2702 -0.28386,-0.87736 -0.1451,-1.13559 0.13876,-0.25823 0.81164,-0.16753 0.97623,-0.41212 0.16459,-0.24458 -0.28949,-0.91275 -0.10001,-1.14202 0.18903,-0.22923 1.02116,-0.0195 1.23323,-0.23169 0.21205,-0.21218 0.0464,-0.84961 0.28008,-1.04304 0.23369,-0.19344 0.86675,0.0571 1.12068,-0.11586 0.25393,-0.17299 0.30761,-0.76427 0.58037,-0.91512 0.27276,-0.15084 0.76461,0.13875 1.0548,0.0117 0.2902,-0.127 0.49268,-0.77458 0.79891,-0.87605 0.30623,-0.10146 0.71622,0.34318 1.03708,0.26895 0.32087,-0.0742 0.65076,-0.44456 0.98486,-0.48986 0.33409,-0.0453 0.66449,0.23551 0.99438,0.22151 0.32989,-0.014 0.77471,-0.30894 1.09855,-0.2929 0.32385,0.016 0.52674,0.34306 0.8427,0.38789 0.31596,0.0448 0.83802,-0.21992 1.14424,-0.14758 0.30624,0.0724 0.39663,0.48179 0.69128,0.5804 0.29465,0.0986 0.797902,-0.0847 1.079132,0.0389 0.28123,0.12363 0.34044,0.55416 0.60641,0.70153 0.26596,0.14737 0.72499,0.0282 0.97386,0.19805 0.24886,0.16986 0.28756,0.62876 0.51747,0.81986 0.22991,0.19109 0.84795,0.13194 1.05707,0.34301 0.20913,0.21107 0.009,0.69235 0.19581,0.92214 0.18648,0.22978 0.85662,0.20962 1.01863,0.45686 0.162,0.24724 -0.18413,0.76189 -0.0484,1.02533 0.13567,0.26344 0.69768,0.44552 0.80519,0.7239 0.10752,0.27839 -0.23945,0.65309 -0.16195,0.94516 0.0775,0.29207 0.57447,0.57596 0.62013,0.88045 z"/> </g> </g> <g id="g9260" transform="matrix(0.77187299,0.04532364,-0.04548698,0.77421464,-198.41067,-38.24734)" style="stroke-width:1.29136"> <g id="g2022" style="stroke-width:1.27324" transform="matrix(1.0283784,0.01968393,-0.02258597,0.99984662,-0.7836224,-2.104881)"> <g id="g2010" style="stroke-width:1.27324"> <path id="path46778" style="opacity:1;fill:#e56d1c;stroke:#000000;stroke-width:0.318311;stroke-linecap:round;stroke-linejoin:round;stop-color:#000000" d="m 39.523996,97.491091 c 0.07307,0.454141 -0.546895,1.374198 -0.430829,1.809265 0.11655,0.434928 0.968209,0.385138 1.124722,0.799274 0.156464,0.41414 -0.3737,1.79482 -0.179317,2.18619 0.194402,0.39136 1.113421,-0.20657 1.343136,0.16016 0.229719,0.36675 -0.148415,1.75706 0.114079,2.09732 0.262514,0.34025 1.165571,-0.36951 1.458254,-0.0575 0.292693,0.31194 -0.283049,1.83109 0.03728,2.11286 0.320343,0.28176 1.536757,-0.67381 1.882163,-0.42411 0.345416,0.24974 1.030205,2.51791 1.398089,2.73382 0.367947,0.21588 0.419075,-1.62056 0.806994,-1.44041 0.38793,0.18015 1.056153,2.02605 1.461522,2.1686 0.405345,0.14256 0.54775,-1.41817 0.96794,-1.31502 0.420175,0.10317 1.118155,1.87017 1.550622,1.93205 0.432492,0.0618 0.599487,-1.58141 1.041714,-1.56264 0.442217,0.0188 1.170949,1.76971 1.62034,1.74348 0.449416,-0.0262 0.619476,-1.82961 1.073495,-1.90267 7.264313,-1.16871 12.205309,-8.00659 11.03608,-15.272844 -0.07308,-0.454143 1.024248,-1.091066 0.908181,-1.526136 -0.116551,-0.434925 -1.445572,-0.668265 -1.602065,-1.082414 -0.156578,-0.414121 1.421134,-1.099505 1.226729,-1.490869 -0.194399,-0.391355 -2.16084,-0.48873 -2.390568,-0.855471 -0.229717,-0.36674 0.786249,-0.923854 0.523774,-1.264128 -0.262511,-0.340249 -1.803403,-0.463686 -2.096105,-0.77562 -0.292673,-0.311951 1.013625,-0.868845 0.693291,-1.150611 -0.320335,-0.28177 -2.26731,-0.288406 -2.612741,-0.53815 -0.34543,-0.249742 0.770429,-0.720028 0.402461,-0.935892 -0.367959,-0.21587 -2.219692,-0.177332 -2.607622,-0.357476 -0.387918,-0.180149 0.898431,-0.612839 0.493087,-0.755407 -0.405321,-0.142577 -2.502337,0.005 -2.922537,-0.09818 -0.42018,-0.10315 0.411476,-1.756352 -0.02102,-1.818223 -0.432469,-0.06188 -2.129109,1.467574 -2.571322,1.448819 -0.442203,-0.01875 -0.92657,-1.593087 -1.375997,-1.566846 -0.449421,0.02622 -0.863818,1.652978 -1.317828,1.72602 -0.45403,0.07304 -1.464249,-1.108551 -1.899199,-0.992493 -0.434953,0.11601 -0.294606,1.529762 -0.708618,1.68627 -0.414011,0.156509 -1.547675,-0.629653 -1.938921,-0.435253 -0.391235,0.194447 -0.04009,1.369361 -0.406697,1.599092 -0.366621,0.229728 -1.602639,-0.53335 -1.942772,-0.270848 -0.340177,0.262509 0.215473,1.55063 -0.0963,1.843346 -0.311837,0.292727 -1.830652,-0.283333 -2.112325,0.03706 -0.281651,0.320379 0.673927,1.537161 0.424258,1.882672 -0.249648,0.34548 -1.356095,0.195497 -1.571866,0.563522 -0.215784,0.36802 0.459161,1.254031 0.27907,1.642039 -0.180059,0.387999 -1.464221,0.965932 -1.606697,1.371349 -0.142495,0.405422 0.856685,0.63833 0.753591,1.058617 -0.103078,0.420281 -1.530123,0.991623 -1.591934,1.424208 -0.0618,0.432584 1.241617,0.726416 1.222919,1.168748 -0.01865,0.442321 -0.90473,1.175945 -0.87847,1.625458 0.02624,0.449525 0.964841,0.614929 1.037923,1.069067 z"/> <path id="path46995" style="opacity:1;fill:#f6ae54;fill-opacity:1;stroke:none;stroke-width:0.318311;stroke-linecap:round;stroke-linejoin:round;filter:url(#filter47066);stop-color:#000000" d="m 42.794388,96.977789 c 0.05457,0.339179 -0.408454,1.026332 -0.321769,1.351266 0.08705,0.32483 0.723116,0.287644 0.840009,0.596946 0.116857,0.309304 -0.279101,1.340479 -0.133924,1.632779 0.145191,0.29229 0.831569,-0.15428 1.003133,0.11961 0.171568,0.27391 -0.110845,1.31228 0.0852,1.56641 0.196061,0.25412 0.870518,-0.27597 1.089111,-0.043 0.218601,0.23298 -0.211398,1.36757 0.02784,1.57801 0.239251,0.21044 1.147741,-0.50324 1.405711,-0.31675 0.257977,0.18652 0.769418,1.88053 1.044176,2.04178 0.274805,0.16123 0.31299,-1.21033 0.602711,-1.07578 0.289729,0.13454 0.788798,1.51317 1.091551,1.61964 0.302736,0.10647 0.409093,-1.05918 0.722915,-0.98214 0.313812,0.077 0.835105,1.39676 1.158097,1.44297 0.323011,0.0462 0.447732,-1.18109 0.778014,-1.16707 0.330274,0.014 0.874534,1.32172 1.210166,1.30213 0.33565,-0.0196 0.462661,-1.36646 0.80175,-1.42102 5.42542,-0.87287 9.115649,-5.979801 8.242399,-11.406671 -0.05458,-0.339181 0.76497,-0.814873 0.678284,-1.139809 -0.08705,-0.324828 -1.079639,-0.4991 -1.196517,-0.808411 -0.116942,-0.30929 1.061387,-0.821175 0.916194,-1.113469 -0.145189,-0.292287 -1.613844,-0.365013 -1.785418,-0.638917 -0.171567,-0.273903 0.587217,-0.689989 0.391185,-0.944126 -0.196059,-0.254118 -1.346888,-0.346308 -1.565496,-0.579279 -0.218585,-0.232983 0.757036,-0.648905 0.517791,-0.859344 -0.239245,-0.210443 -1.693361,-0.215399 -1.95135,-0.401923 -0.257987,-0.186522 0.575402,-0.537759 0.300582,-0.698979 -0.274814,-0.161225 -1.657798,-0.132442 -1.947527,-0.266985 -0.28972,-0.134546 0.671002,-0.457704 0.368267,-0.564182 -0.302718,-0.106485 -1.868894,0.0037 -2.182724,-0.07333 -0.313816,-0.07704 0.307314,-1.311748 -0.0157,-1.357957 -0.322994,-0.04622 -1.590145,1.096071 -1.920416,1.082064 -0.330264,-0.014 -0.692018,-1.189812 -1.027677,-1.170214 -0.335654,0.01958 -0.64515,1.234543 -0.984232,1.289095 -0.339096,0.05455 -1.093588,-0.827932 -1.418434,-0.741253 -0.324849,0.08664 -0.22003,1.142517 -0.529238,1.259406 -0.309208,0.116891 -1.155896,-0.470262 -1.448102,-0.325072 -0.292197,0.145224 -0.02994,1.02272 -0.303745,1.194297 -0.273814,0.171574 -1.196946,-0.398338 -1.450978,-0.202286 -0.254064,0.196057 0.160928,1.158103 -0.07192,1.37672 -0.232899,0.218626 -1.36724,-0.211609 -1.57761,0.02768 -0.210354,0.239278 0.503329,1.148043 0.316861,1.406091 -0.186452,0.258025 -1.012812,0.146009 -1.173963,0.420872 -0.16116,0.274859 0.342929,0.936585 0.208426,1.226372 -0.134478,0.289781 -1.093567,0.721416 -1.199976,1.024205 -0.106424,0.302793 0.639823,0.476743 0.562826,0.790638 -0.07699,0.313891 -1.142786,0.740603 -1.188951,1.063683 -0.04616,0.32308 0.927314,0.542531 0.913349,0.872891 -0.01393,0.330351 -0.675706,0.878265 -0.656094,1.213988 0.0196,0.335732 0.720601,0.459266 0.775183,0.798443 z"/> </g> <g id="g2014" style="stroke-width:1.27324"> <path id="path46435" style="opacity:1;fill:#e56d1c;stroke:#000000;stroke-width:0.318311;stroke-linecap:round;stroke-linejoin:round;stop-color:#000000" d="m 128.85665,74.824619 c 0.14003,0.438797 1.10986,0.98057 1.20285,1.421763 0.0925,0.441282 -0.69091,0.781812 -0.64352,1.222591 0.0474,0.440754 1.14527,1.434685 1.14854,1.872238 0.003,0.437553 -1.08815,0.318778 -1.12759,0.750295 -0.0394,0.431527 0.92692,1.502788 0.84623,1.925469 -0.0807,0.422687 -1.2084,0.196781 -1.32886,0.607811 -0.12048,0.41103 1.08068,1.508074 0.92187,1.904637 -0.15883,0.396567 -1.67759,0.09266 -1.8733,0.471953 -0.19571,0.379294 0.21788,2.715421 -0.0132,3.074639 -0.23114,0.359216 -1.10703,-1.258478 -1.37217,-0.922148 -0.26514,0.336325 -0.0277,2.287672 -0.32538,2.598301 -0.29769,0.310628 -1.1305,-1.019466 -1.45927,-0.73735 -0.32877,0.282112 -0.15352,2.176446 -0.51193,2.427243 -0.35842,0.250802 -1.25051,-1.141932 -1.63713,-0.925258 -0.38661,0.216678 -0.24611,2.110544 -0.65946,2.290279 -0.41337,0.179747 -1.38059,-1.354668 -1.81924,-1.214676 -7.01847,2.239805 -14.52414,-1.63595 -16.76445,-8.656741 -0.14002,-0.438798 -1.40833,-0.5118 -1.50132,-0.952994 -0.0925,-0.441283 0.9894,-1.250585 0.94199,-1.691363 -0.0473,-0.440791 -1.76674,-0.339918 -1.76999,-0.777476 -0.003,-0.437549 1.70961,-1.413531 1.74906,-1.845059 0.0394,-0.431522 -1.12011,-0.469993 -1.03944,-0.892678 0.0807,-0.422678 1.40158,-1.229566 1.52207,-1.640595 0.12045,-0.41103 -1.29839,-0.318053 -1.13957,-0.71462 0.15881,-0.396569 1.89529,-1.282678 2.091,-1.661978 0.19571,-0.379299 -1.01383,-0.295034 -0.78267,-0.654252 0.23116,-0.359219 1.90296,-1.161909 2.16811,-1.498238 0.26513,-0.336326 -1.07973,-0.141395 -0.78204,-0.452023 0.29767,-0.310624 2.2379,-1.126807 2.56668,-1.408925 0.32877,-0.282118 -1.16163,-1.383235 -0.80319,-1.634039 0.3584,-0.250796 2.56566,0.34872 2.95226,0.132049 0.3866,-0.216669 0.10762,-1.842261 0.52101,-2.021989 0.41338,-0.17974 1.51904,1.086379 1.95768,0.946393 0.43867,-0.13999 0.80704,-1.652412 1.24811,-1.745348 0.44104,-0.09298 0.95478,1.233617 1.39542,1.186288 0.44064,-0.04733 1.09808,-1.262245 1.53551,-1.265426 0.43745,-0.0031 0.65488,1.205364 1.08627,1.244888 0.43141,0.03952 1.19072,-1.201048 1.61328,-1.120276 0.4226,0.08076 0.5085,1.482856 0.91937,1.603446 0.41094,0.12057 1.50746,-1.080744 1.90396,-0.921825 0.39647,0.158922 0.0928,1.678077 0.47207,1.873912 0.37923,0.195818 1.29995,-0.438385 1.6591,-0.20711 0.35916,0.231266 0.1567,1.328019 0.493,1.593278 0.33628,0.265266 1.74485,0.201096 2.05542,0.498914 0.3106,0.297816 -0.4768,0.957618 -0.19469,1.286527 0.28209,0.328912 1.81534,0.194256 2.06613,0.552816 0.25077,0.358564 -0.7809,1.210338 -0.56422,1.597097 0.21662,0.386774 1.33992,0.641668 1.51968,1.055168 0.17977,0.413502 -0.58402,0.985604 -0.444,1.424402 z"/> <path id="path46780" style="opacity:1;fill:#f6ae54;fill-opacity:1;stroke:none;stroke-width:0.318311;stroke-linecap:round;stroke-linejoin:round;filter:url(#filter46851);stop-color:#000000" d="m 125.31066,75.848459 c 0.10189,0.319244 0.80757,0.713409 0.87523,1.034397 0.0673,0.321053 -0.50273,0.568805 -0.46824,0.889492 0.0345,0.320668 0.83332,1.043799 0.8357,1.362139 0.002,0.31834 -0.79176,0.231925 -0.82046,0.545874 -0.0287,0.313956 0.67445,1.093347 0.61574,1.400867 -0.0587,0.307524 -0.87926,0.143167 -0.96691,0.44221 -0.0877,0.299044 0.78633,1.097194 0.67077,1.385711 -0.11557,0.288521 -1.22065,0.06741 -1.36306,0.343368 -0.1424,0.275954 0.15854,1.975593 -0.01,2.236941 -0.16818,0.261346 -0.8055,-0.915601 -0.99843,-0.670905 -0.19292,0.244692 -0.0202,1.664386 -0.23675,1.890383 -0.21661,0.225996 -0.82258,-0.741708 -1.0618,-0.536456 -0.23922,0.20525 -0.11171,1.583465 -0.37249,1.765931 -0.2608,0.18247 -0.9099,-0.830808 -1.19122,-0.673168 -0.28131,0.157644 -0.17907,1.535518 -0.47984,1.666284 -0.30078,0.130774 -1.00455,-0.985584 -1.32372,-0.883733 -5.10681,1.629561 -10.56812,-1.190229 -12.19822,-6.298177 -0.10189,-0.319246 -1.02474,-0.372358 -1.0924,-0.693347 -0.0673,-0.321053 0.71991,-0.909858 0.68541,-1.230544 -0.0344,-0.320696 -1.28552,-0.247306 -1.28788,-0.56565 -0.002,-0.318337 1.24395,-1.028408 1.27265,-1.342365 0.0287,-0.313952 -0.81502,-0.341941 -0.75632,-0.649464 0.0587,-0.307518 1.01983,-0.894566 1.1075,-1.193608 0.0876,-0.299043 -0.94474,-0.231398 -0.82918,-0.519919 0.11555,-0.288522 1.37906,-0.933207 1.52146,-1.209166 0.1424,-0.275957 -0.73769,-0.21465 -0.56949,-0.475998 0.1682,-0.261348 1.38464,-0.845342 1.57757,-1.090037 0.19292,-0.244693 -0.78564,-0.102871 -0.56903,-0.328867 0.21659,-0.225994 1.62835,-0.819804 1.86758,-1.025058 0.23922,-0.205254 -0.84523,-1.006367 -0.58442,-1.188839 0.26078,-0.182465 1.86684,0.25371 2.14813,0.09607 0.2813,-0.157636 0.0783,-1.340329 0.3791,-1.47109 0.30079,-0.130769 1.10529,0.790391 1.42446,0.688545 0.31919,-0.101849 0.58722,-1.202206 0.90816,-1.269821 0.32091,-0.06765 0.69472,0.897513 1.01534,0.863079 0.32062,-0.03444 0.79899,-0.918341 1.11727,-0.920656 0.3183,-0.0023 0.47651,0.876958 0.7904,0.905713 0.3139,0.02875 0.86639,-0.873817 1.17386,-0.815052 0.30749,0.05876 0.37,1.078846 0.66896,1.166581 0.29901,0.08772 1.09686,-0.786291 1.38536,-0.67067 0.28848,0.115623 0.0675,1.220878 0.34349,1.363357 0.27594,0.142466 0.94588,-0.318945 1.2072,-0.150682 0.26134,0.168256 0.11402,0.966195 0.35872,1.159183 0.24469,0.192993 1.2696,0.146306 1.49558,0.362983 0.226,0.216674 -0.34693,0.696711 -0.14166,0.936007 0.20525,0.239299 1.32088,0.14133 1.50336,0.402199 0.18247,0.260872 -0.5682,0.880577 -0.41054,1.161962 0.15762,0.281396 0.97496,0.466843 1.10576,0.767683 0.1308,0.300842 -0.42495,0.717072 -0.32307,1.036318 z"/> </g> </g> <g id="g2167" style="stroke-width:1.27324" transform="matrix(1.0283784,0.01968393,-0.02258597,0.99984662,-0.7836226,-2.1048811)"> <g id="g14439" transform="translate(-3.1115396,-3.2734913)" style="stroke-width:1.27324"> <g id="g13538"> <path style="fill:url(#linearGradient12532);fill-opacity:1;stroke:#000000;stroke-width:0.318311;stroke-dasharray:none;stroke-opacity:1;stop-color:#000000" d="m 15.318161,45.346151 c 2.79632,13.467877 16.930883,19.835237 24.790376,25.732943 9.001602,6.754717 -6.247638,11.430893 -11.606084,18.615025 -1.948349,2.612192 4.615562,2.065242 7.762856,1.559607 7.643105,-1.227922 7.246915,-10.869526 14.857697,-12.450635 12.836238,-2.666685 -4.935304,-1.2695 15.547763,21.040446 2.370343,2.581753 11.043717,-8.907518 7.717696,-6.933347 -1.956866,1.161515 -8.149194,0.229276 -9.901405,-4.76769 -3.757427,-10.715442 3.313339,-24.150949 4.66147,-31.398325 0.478516,-2.572403 0.761087,-7.331521 -1.86594,-6.949279 -7.551367,1.098669 -5.003357,25.244316 -11.586337,22.254755 -15.18301,-6.8949 -20.045398,-8.703073 -17.057314,-15.958273 2.912675,-7.072131 8.643653,-15.485498 8.753396,-18.536412 0.09565,-2.65929 -4.955632,-1.771591 -6.078499,-1.232658 -0.907129,0.435382 -4.75049,10.132852 -7.82186,14.870373 C 24.402168,65.213537 21.161788,38.193079 18.485999,35.73787 c -1.393405,-1.278512 -3.559613,7.721363 -3.167838,9.608281 z" id="path32987"/> <path style="fill:url(#linearGradient11384);fill-opacity:1;stroke:#000000;stroke-width:0.318311;stroke-dasharray:none;stroke-opacity:1;stop-color:#000000" d="m 127.56803,15.268889 c 4.31225,13.061686 -4.74496,25.643261 -8.60263,34.680571 -4.41825,10.350557 11.12606,6.775626 19.35868,10.318043 2.99341,1.28805 -2.96458,4.096333 -5.94303,5.232086 -7.23308,2.758142 -11.71077,-5.789828 -19.09246,-3.353717 -12.44985,4.108703 3.63935,-3.56707 -2.94454,25.995443 -0.76189,3.421036 -14.017888,-2.192279 -10.15039,-2.145608 2.27545,0.02747 7.17205,-3.876036 6.19102,-9.079641 C 104.28099,65.757507 91.439773,57.6574 86.648568,52.055054 84.947965,50.066544 82.32369,46.086313 84.789551,45.10392 c 7.089403,-2.824315 16.955579,19.360436 21.161839,13.479909 9.70142,-13.562663 13.00829,-17.559782 6.79292,-22.348927 -6.05851,-4.668308 -15.228362,-9.08901 -16.848869,-11.676305 -1.412473,-2.255189 3.405915,-4.012061 4.647809,-4.106763 1.00329,-0.07651 9.18048,6.40006 14.20912,8.96719 14.88243,7.597513 4.17845,-17.42308 5.26815,-20.8872478 0.56747,-1.8039268 6.9434,4.9070908 7.54757,6.7370958 z" id="path32989"/> </g> </g> <g id="g17287" style="stroke-width:1.27324"> <g id="g2078" style="stroke-width:1.27324"> <g id="g15185" style="stroke-width:1.27324"> <path id="path22131" style="fill:url(#linearGradient11376);fill-opacity:1;stroke:#000000;stroke-width:0.318311;stroke-dasharray:none;stroke-opacity:1;stop-color:#000000" d="m 83.140051,86.980924 c -3.271158,0.974859 -0.782904,-7.315918 -2.520435,-8.578648 -1.518456,-1.10352 -4.326958,7.449642 -4.594322,9.088935 -0.124938,0.766035 -0.847472,-0.266753 -1.376989,-1.530407 -0.637621,-1.521635 -1.209244,-3.695916 -1.77454,-3.819791 -1.371127,-0.300458 -2.505173,1.976884 -3.109678,4.316648 -0.494369,1.913482 -0.634575,3.868713 -0.260651,4.489879 -0.645104,0.283359 -1.726927,-1.795758 -2.331557,-1.483236 -0.604631,0.312522 -0.732068,3.016682 -1.297218,3.356745 -0.56515,0.340062 -1.293691,-1.683974 -1.820355,-1.317993 -0.526664,0.36598 -0.851451,3.121977 -1.340622,3.512254 -0.489172,0.390276 -1.599932,-1.127963 -2.052604,-0.715013 -0.452673,0.41295 -0.247258,2.75709 -0.664426,3.191092 -0.417168,0.434001 -1.274036,-0.859254 -1.656692,-0.405823 -0.382657,0.453431 -0.291101,2.653547 -0.64024,3.124784 -0.349139,0.47124 -1.687617,-0.786403 -2.004233,-0.298981 -0.316615,0.487421 0.388633,2.719911 0.103548,3.221891 -0.285085,0.50199 -2.017708,-0.90941 -2.272257,-0.39449 -0.254549,0.51493 0.968976,2.95617 0.74397,3.48242 -0.225007,0.52624 -2.630072,-0.86252 -2.82653,-0.32659 -0.196457,0.53594 1.815692,2.99658 1.646789,3.54059 -0.168903,0.54401 -2.976062,-0.46284 -3.118404,0.0876 -0.142341,0.55046 2.380135,2.65824 2.263361,3.21353 -0.685798,0.0906 -3.626094,2.03025 -2.391942,2.24713 2.164413,0.38036 2.392868,1.42834 1.823474,1.22011 -0.148605,-0.0543 -3.30751,1.35106 -2.111383,2.25677 0.219527,0.16623 3.262125,1.21727 1.838787,1.21894 -0.515152,6e-4 -2.924475,2.14239 -2.038027,2.24481 0.607462,0.0702 3.259047,1.27662 2.034827,1.1962 -1.05971,-0.0696 -2.873937,1.84505 -1.977899,1.82332 1.208377,-0.0293 3.056494,2.08551 2.217701,1.53982 -0.383621,-0.24957 -2.882471,1.8778 -1.86632,1.89751 0.752938,0.0146 3.756698,1.34907 2.322647,1.34457 -0.74325,-0.002 -3.024182,3.24415 -2.479218,2.33806 0.01512,-0.0251 4.040205,0.0921 3.125623,0.73979 -0.816392,0.57819 -3.151174,3.40474 -2.264781,3.08031 0.201839,-0.0739 2.208852,-1.19956 3.074813,-0.20986 0.384212,0.86732 0.608814,1.78458 0.947212,2.61986 6.384079,15.72383 -1.269798,12.00837 -2.810612,23.46382 -1.881012,13.98468 12.99174,25.91969 34.107732,28.24378 8.145348,0.89651 18.501,5.14529 27.89631,2.72965 10.59706,-2.72464 18.93148,-12.32735 26.10873,-18.09872 15.07225,-12.1199 21.72959,-32.67642 9.77504,-41.39378 -10.01578,-7.30359 -10.41886,-10.36228 -11.5343,-17.16484 -0.22996,-1.40245 0.38973,-3.71329 1.12329,-4.11289 0.86388,-0.47059 -1.23193,-1.23775 -3.14033,-1.12581 -1.60554,-0.51705 1.80402,-1.88317 1.85746,-2.18692 0.14246,-0.80974 -3.14011,-0.0883 -3.39646,-0.36359 -0.79071,-0.84917 1.92088,-1.86057 2.35868,-1.99914 0.71247,-0.22552 -2.5021,-0.70556 -3.44928,-0.56403 -1.47372,0.2202 2.27999,-1.91523 2.56648,-2.23419 0.58556,-0.65191 -3.66876,-0.60781 -4.01936,-0.40518 -0.7027,0.40613 0.71315,-1.55529 2.31291,-2.56178 0.94376,-0.593764 -3.98074,-0.41572 -4.00859,-0.26056 0.82097,-1.738537 1.82685,-2.073489 2.46244,-2.28894 0.97279,-0.329754 -3.50254,0.330893 -4.10608,0.222827 -2.63344,-0.471527 2.1012,-2.114934 2.9754,-2.763334 -0.42833,-0.810069 -5.09591,0.568157 -5.68826,-0.797774 -0.37516,-0.419347 1.82587,-1.867997 1.43006,-2.275894 -0.39582,-0.407896 -3.38847,0.224961 -3.80562,-0.169512 -0.41715,-0.394472 2.38778,-1.686959 1.9486,-2.066035 -0.43917,-0.379077 -4.12244,0.155258 -4.58432,-0.206449 -0.46188,-0.361707 1.78039,-2.395356 1.29512,-2.73772 -0.48526,-0.342365 -3.69804,1.006555 -4.20737,0.685506 -0.50933,-0.321049 1.94343,-2.441384 1.40935,-2.739145 -0.53407,-0.297761 -4.05499,1.227052 -4.61449,0.954552 -0.55951,-0.2725 1.71306,-2.212996 1.12744,-2.458262 -0.58562,-0.245266 -4.02944,1.204698 -4.64185,0.988639 -0.61242,-0.216059 0.3134,-2.744726 -0.3265,-2.929605 -0.63989,-0.184879 -2.8455,1.974029 -3.51355,1.822303 -0.66805,-0.151727 -0.1865,-3.131356 -0.8834,-3.247957 -0.69689,-0.116601 -2.57223,2.629827 -3.29865,2.550325 -0.72641,-0.0795 -1.20913,-2.726302 -1.96576,-2.766733 -0.75662,-0.04043 -1.787147,2.525509 -2.574657,2.526119 -3.725757,0.739972 -4.111453,-4.320815 -5.029132,-6.383543 -1.075782,-2.418108 -2.974227,7.460785 -2.462022,8.365381 -3.117764,1.48817 -3.082648,-5.413511 -3.600101,-6.261987 -1.394955,-2.287329 -3.924313,8.543248 -4.445805,8.698661 z"/> <path id="path22131-9" style="opacity:0.74744;fill:#e79347;fill-opacity:1;stroke:none;stroke-width:1.85585;stroke-dasharray:none;stroke-opacity:1;filter:url(#filter3642);stop-color:#000000" d="m 82.616801,137.07416 c -9.007902,-9.65337 -32.146157,37.18135 -27.336698,56.56684 2.905847,11.71261 -5.123151,14.58119 -10.386405,28.38065 -6.425323,16.8462 6.903135,36.7407 30.298873,46.71561 9.024732,3.84776 19.547466,12.62487 31.012379,12.75209 12.9314,0.14352 25.38366,-9.06578 35.34288,-13.87476 20.91441,-10.09887 34.80285,-33.55817 23.82179,-48.4548 -9.20016,-12.48072 -7.28313,-16.53037 -7.9174,-25.31228 5.9742,-25.02037 -23.35292,-70.07038 -31.5319,-56.426 0,0 -11.96418,20.87224 -19.89525,20.87227 -7.962171,4e-5 -23.408269,-21.21962 -23.408269,-21.21962 z" transform="matrix(0.6933341,-0.18577831,0.16972097,0.63340727,-9.8575387,27.091377)"/> </g> </g> <g id="g13865" style="stroke-width:1.49224" transform="matrix(0.82416067,-0.22083319,0.22083319,0.82416067,-19.526643,6.6961909)"> <g id="g2073" style="stroke-width:1.49224"> <g id="g15294" transform="matrix(0.51130996,0,0,0.59780582,10.952055,99.886508)" style="stroke-width:2.69914"> <g id="g11382" style="stroke-width:2.69914"> <path id="path4063" style="fill:#e01b24;stroke:#000106;stroke-width:0.215928;stop-color:#000000" d="m 165.57489,201.56377 c -24.52602,0.53633 -38.26807,-11.09844 -49.29571,-29.72835 -9.74857,-16.46908 19.99284,-24.37029 44.76622,-24.24437 24.66783,0.12538 58.19828,6.15967 51.92359,23.00321 -17.99534,26.9025 -25.44167,30.48945 -47.3941,30.96951 z"/> <path id="path15098" style="fill:url(#linearGradient15106);fill-opacity:1;stroke:#000106;stroke-width:0.215928;stop-color:#000000" d="m 165.57489,201.56377 c -24.52602,0.53633 -38.26807,-11.09844 -49.29571,-29.72835 -9.74857,-16.46908 19.99284,-24.37029 44.76622,-24.24437 24.66783,0.12538 58.19828,6.15967 51.92359,23.00321 -17.99534,26.9025 -25.44167,30.48945 -47.3941,30.96951 z"/> <path id="path15108" style="opacity:0.403974;fill:#ffffff;stroke:#000106;stroke-width:0.215928;stop-color:#000000" d="m 155.56026,154.9313 a 7.1606955,20.155191 74.861951 0 1 -18.04457,12.11394 7.1606955,20.155191 74.861951 0 1 -20.93817,-1.88652 7.1606955,20.155191 74.861951 0 1 17.90476,-12.12653 7.1606955,20.155191 74.861951 0 1 21.05772,1.80554"/> </g> </g> <path id="path11436" style="fill:#1a1a1a;stroke-width:11.6396;stroke-linecap:round;stop-color:#000000" d="m 128.42105,212.7828 a 34.816452,26.22239 0 0 1 -33.596603,19.4119 34.816452,26.22239 0 0 1 -33.57178,-19.34213 33.623365,22.143351 0 0 0 33.57178,21.23589 33.623365,22.143351 0 0 0 33.596603,-21.30566 z"/> <g id="g13056" transform="translate(0.2518637)" style="stroke-width:1.49224"> <g id="g13034" style="stroke-width:1.49224"> <path id="path11639" style="fill:#000000;stroke-width:3.10947;stroke-linecap:round;stop-color:#000000" d="m 69.388515,156.67763 c 5.28124,-14.15828 15.04263,-9.55232 18.81407,-6.70939 -3.6466,-5.13434 -7.73804,-7.32677 -11.30276,-6.05682 -3.56429,1.27172 -6.28311,5.89374 -7.51131,12.76624 z"/> <path id="path11644" style="fill:#000000;stroke-width:3.10947;stroke-linecap:round;stop-color:#000000" d="m 119.84114,156.67763 c -5.28124,-14.15828 -15.04263,-9.55232 -18.81407,-6.70939 3.6466,-5.13434 7.73804,-7.32677 11.30276,-6.05682 3.56429,1.27172 6.2831,5.89374 7.51131,12.76624 z"/> </g> <g id="g13030" style="stroke-width:1.49224"> <g id="g12994" transform="matrix(0.91533793,0,0,0.9155724,161.45918,32.659546)" style="stroke-width:1.63008"> <ellipse style="fill:#ffffff;stroke:#000000;stroke-width:0.244512;stroke-linecap:round;stroke-linejoin:round;stop-color:#000000" id="path2367-3" cx="-50.618763" cy="164.36505" rx="10.405188" ry="19.226274" transform="matrix(0.96593502,0.25878474,-0.25885335,0.96591663,0,0)"/> <ellipse style="fill:#000000;stroke:#000000;stroke-width:0.244512;stroke-linecap:round;stroke-linejoin:round;stop-color:#000000" id="ellipse2369-6" cx="-50.618763" cy="164.36505" rx="8.4899149" ry="15.698518" transform="matrix(0.96593502,0.25878474,-0.25885335,0.96591663,0,0)"/> <ellipse style="fill:url(#linearGradient10971);stroke:#000000;stroke-width:0.244512;stroke-linecap:round;stroke-linejoin:round;stop-color:#000000" id="ellipse3331-1" cx="-50.618763" cy="164.36505" rx="8.4899149" ry="15.698518" transform="matrix(0.96593502,0.25878474,-0.25885335,0.96591663,0,0)"/> <g id="g11093" style="stroke-width:1.63008"> <path id="path4634-4-2" style="opacity:0.741722;fill:#ffffff;stroke:none;stroke-width:0.130403;stop-color:#000000" d="m -87.956837,133.35422 a 2.2065496,3.8422072 51.99909 0 1 -2.474359,4.14143 2.2065496,3.8422072 51.99909 0 1 -3.986763,-0.15698 2.2065496,3.8422072 51.99909 0 1 2.447743,-4.14248 2.2065496,3.8422072 51.99909 0 1 4.003103,0.12933"/> <path id="path4637-8-8" style="opacity:0.741722;fill:#ffffff;stroke:none;stroke-width:0.130403;stop-color:#000000" d="m -94.607692,140.99438 a 1.5075111,1.3765781 0 0 1 -1.502475,1.37657 1.5075111,1.3765781 0 0 1 -1.51251,-1.36738 1.5075111,1.3765781 0 0 1 1.492381,-1.3857 1.5075111,1.3765781 0 0 1 1.522468,1.35813"/> <ellipse style="opacity:0.901;fill:#000000;fill-opacity:1;stroke:none;stroke-width:12.7146;stroke-linecap:round;stop-color:#000000" id="path9019-2-5" cx="-3.2088377" cy="178.11166" rx="4.11484" ry="7.5895934" transform="rotate(30)"/> </g> </g> <g id="g13010" transform="matrix(-0.91533793,0,0,0.9155724,27.710814,32.659546)" style="stroke-width:1.63008"> <ellipse style="fill:#ffffff;stroke:#000000;stroke-width:0.244512;stroke-linecap:round;stroke-linejoin:round;stop-color:#000000" id="ellipse12996" cx="-50.618763" cy="164.36505" rx="10.405188" ry="19.226274" transform="matrix(0.96593502,0.25878474,-0.25885335,0.96591663,0,0)"/> <ellipse style="fill:#000000;stroke:#000000;stroke-width:0.244512;stroke-linecap:round;stroke-linejoin:round;stop-color:#000000" id="ellipse12998" cx="-50.618763" cy="164.36505" rx="8.4899149" ry="15.698518" transform="matrix(0.96593502,0.25878474,-0.25885335,0.96591663,0,0)"/> <ellipse style="fill:url(#linearGradient13012);stroke:#000000;stroke-width:0.244512;stroke-linecap:round;stroke-linejoin:round;stop-color:#000000" id="ellipse13000" cx="-50.618763" cy="164.36505" rx="8.4899149" ry="15.698518" transform="matrix(0.96593502,0.25878474,-0.25885335,0.96591663,0,0)"/> <g id="g13008" style="stroke-width:1.63008"> <path id="path13002" style="opacity:0.741722;fill:#ffffff;stroke:none;stroke-width:0.130403;stop-color:#000000" d="m -87.956837,133.35422 a 2.2065496,3.8422072 51.99909 0 1 -2.474359,4.14143 2.2065496,3.8422072 51.99909 0 1 -3.986763,-0.15698 2.2065496,3.8422072 51.99909 0 1 2.447743,-4.14248 2.2065496,3.8422072 51.99909 0 1 4.003103,0.12933"/> <path id="path13004" style="opacity:0.741722;fill:#ffffff;stroke:none;stroke-width:0.130403;stop-color:#000000" d="m -94.607692,140.99438 a 1.5075111,1.3765781 0 0 1 -1.502475,1.37657 1.5075111,1.3765781 0 0 1 -1.51251,-1.36738 1.5075111,1.3765781 0 0 1 1.492381,-1.3857 1.5075111,1.3765781 0 0 1 1.522468,1.35813"/> <ellipse style="opacity:0.901;fill:#000000;fill-opacity:1;stroke:none;stroke-width:12.7146;stroke-linecap:round;stop-color:#000000" id="ellipse13006" cx="-3.2088377" cy="178.11166" rx="4.11484" ry="7.5895934" transform="rotate(30)"/> </g> </g> </g> </g> </g> </g> </g> </g> </g> <g id="g9793" transform="translate(-185.44212)"> <g id="g13596" transform="translate(186.53941)"> <path id="path9399" style="fill:url(#linearGradient9062);fill-opacity:1;stroke:#000000;stroke-width:0.25;stroke-linecap:round;stroke-linejoin:round;stroke-dasharray:none;stroke-opacity:1;paint-order:markers stroke fill;stop-color:#000000" d="m -114.15809,34.154466 c -4.3469,-1.144875 -9.35488,1.340866 -9.72158,1.209837 l -32.08158,4.241402 c -5.60838,0.741466 -12.14638,-14.668597 -10.15343,-27.586761 0.5256,-11.39439803 9.8476,-18.4856699 28.04321,-22.369802 26.42152,-5.640077 39.962403,7.1972386 55.349453,21.729378 -15.019667,-2.8002624 -23.614663,-9.9856869 -27.516283,-2.3765099 -8.71177,16.8389459 -3.69634,25.2113069 -3.91979,25.1524559 z"/> <path id="path11874" style="fill:#f7fffe;fill-opacity:1;stroke:#000000;stroke-width:0.25;stroke-linecap:round;stroke-linejoin:round;stroke-opacity:1;paint-order:markers stroke fill;stop-color:#000000" d="m -79.582286,4.7374996 c 0.04566,0.3044969 -0.361077,0.6223845 -0.349653,0.92341 0.01141,0.3010313 0.388365,0.6661137 0.366942,0.9619789 -0.02142,0.2958696 -0.441192,0.5225159 -0.494045,0.81152 -0.05285,0.2890037 0.305969,0.7228319 0.223081,1.003271 -0.08289,0.2804494 -0.607474,0.4075133 -0.719001,0.6777031 -0.111517,0.270189 0.117192,0.7376362 -0.02156,0.9958714 -0.138756,0.258235 -0.644984,0.307249 -0.809574,0.551831 -0.16459,0.244582 -0.01711,0.70349 -0.206137,0.932714 -0.189034,0.229234 -0.714558,0.228778 -0.926619,0.440965 -0.212062,0.212176 -0.18565,0.676665 -0.419339,0.870099 -0.2337,0.193435 -0.7275,0.11581 -0.981426,0.288803 -0.253932,0.172988 -0.376894,0.626109 -0.649657,0.776956 -0.272758,0.150847 -0.695323,-5.84e-4 -0.985525,0.126404 -0.290199,0.127012 -0.502819,0.598898 -0.80905,0.700365 -0.30623,0.101472 -0.706067,-0.167485 -1.026933,-0.09325 -0.320862,0.07422 -0.606014,0.527024 -0.940116,0.572319 -0.334095,0.04531 -0.709231,-0.317972 -1.039119,-0.303971 -0.329899,0.014 -0.726316,0.523709 -1.050162,0.507664 -0.323846,-0.01604 -0.575127,-0.557831 -0.891092,-0.602657 -0.31596,-0.04482 -0.667027,0.388559 -0.973255,0.316213 -0.306227,-0.07235 -0.567606,-0.650421 -0.862258,-0.749032 -0.294652,-0.09862 -0.877926,0.198815 -1.159157,0.0752 -0.281231,-0.123613 -0.26042,-0.66829 -0.526386,-0.815658 -0.265971,-0.147372 -1.086979,0.256975 -1.335845,0.08712 -0.248861,-0.169858 0.07443,-0.913923 -0.155489,-1.105019 -0.229912,-0.191092 -1.174657,-0.04338 -1.38377,-0.25445 -0.209124,-0.211071 0.31738,-0.780916 0.13089,-1.010694 -0.18648,-0.229788 -0.960493,-0.254564 -1.122501,-0.50181 -0.162002,-0.247241 0.288003,-0.716947 0.152318,-0.9803929 -0.13568,-0.2634463 -0.85636,-0.4240009 -0.963873,-0.7023894 -0.107517,-0.278383 0.398128,-0.6745946 0.320623,-0.9666616 -0.07749,-0.2920737 -0.762707,-0.5356897 -0.808356,-0.8401826 -0.04566,-0.304497 0.549314,-0.6626604 0.537885,-0.9636904 -0.01136,-0.3010307 -0.614145,-0.7682919 -0.592725,-1.0641616 0.0214,-0.2958647 0.666976,-0.4203282 0.719828,-0.7093323 0.05285,-0.2890091 -0.58152,-0.8330223 -0.498633,-1.1134712 0.08289,-0.2804441 0.883037,-0.297314 0.994564,-0.5675038 0.111517,-0.2701939 -0.283857,-0.8773549 -0.145095,-1.1355857 0.138756,-0.2582353 0.811638,-0.1675346 0.976233,-0.4121216 0.164585,-0.2445763 -0.289494,-0.91275256 -0.100011,-1.1420245 0.189023,-0.22922817 1.02116,-0.0195033 1.233222,-0.23168479 0.212056,-0.21218107 0.04639,-0.84961114 0.280083,-1.04304514 0.233694,-0.19343397 0.866755,0.0571313 1.120682,-0.11585277 0.253932,-0.1729917 0.307609,-0.7642705 0.580367,-0.9151192 0.272763,-0.1508449 0.764613,0.1387447 1.054807,0.011734 0.290194,-0.1270062 0.492671,-0.7745822 0.798902,-0.8760494 0.306231,-0.1014671 0.716221,0.3431736 1.037082,0.268944 0.320867,-0.074228 0.65076,-0.4445611 0.984862,-0.4898567 0.334094,-0.045319 0.664485,0.2355103 0.994379,0.2215106 0.329893,-0.014006 0.774708,-0.3089438 1.098548,-0.2929012 0.323852,0.016044 0.526746,0.3430627 0.8427,0.3878851 0.315959,0.044826 0.838025,-0.219919 1.144247,-0.1475725 0.306234,0.072346 0.396624,0.4817837 0.691271,0.5804007 0.294652,0.098607 0.797903,-0.084705 1.07913,0.038932 0.281237,0.1236237 0.340447,0.5541572 0.606413,0.7015254 0.265966,0.1473678 0.724992,0.028191 0.973859,0.1980475 0.248861,0.1698617 0.287563,0.62876202 0.517475,0.819858 0.229912,0.19109255 0.847946,0.13194894 1.05707,0.34301488 0.209123,0.21106594 0.0093,0.69234676 0.195811,0.92213475 0.18648,0.2297831 0.856617,0.20962504 1.018624,0.45686587 0.162007,0.2472409 -0.184126,0.7618914 -0.04844,1.025332 0.135674,0.2634419 0.697682,0.4455137 0.805194,0.7238972 0.107518,0.278388 -0.23945,0.6530868 -0.161949,0.9451591 0.07748,0.2920688 0.574469,0.5759655 0.620123,0.8804531 z"/> <path id="rect10234" style="fill:#f7fffe;fill-opacity:1;stroke:#000000;stroke-width:0.250001;stroke-linecap:round;stroke-linejoin:round;stroke-opacity:1;paint-order:markers stroke fill;stop-color:#000000" d="m -139.9439,26.866874 c -0.78626,0.08568 -0.73167,1.336175 -1.50848,1.478304 -0.65632,0.120079 -1.06273,-0.789914 -1.72481,-0.700132 -0.66209,0.08974 -0.78349,1.100402 -1.44994,1.130566 -0.6627,0.03001 -0.77416,-1.030851 -1.43682,-0.994092 -0.81967,0.04545 -0.91965,1.35456 -1.73833,1.424574 -0.65914,0.05609 -0.87278,-0.95069 -1.53203,-0.8963 -0.76778,0.06299 -0.88197,1.204519 -1.64231,1.326679 -0.63832,0.10257 -1.0714,-0.704091 -1.71239,-0.61719 -0.641,0.08689 -0.82067,0.965565 -1.46236,1.047629 -0.56155,0.07188 -0.91906,-0.612659 -1.48291,-0.563165 -0.68748,0.06041 -1.00502,0.993621 -1.69224,0.993653 -0.58263,10e-6 -0.71903,-0.859748 -1.30259,-0.842526 -0.80667,0.02381 -1.06507,1.221598 -1.87175,1.272899 -0.58271,0.03705 -0.81661,-0.778307 -1.39937,-0.74425 -0.63813,0.03705 -1.66882,0.81591 -2.19626,1.097672 -1.24,5.102617 -1.43296,8.403874 2.15818,9.421894 0.51353,0.149307 0.92434,0.75278 1.49303,0.660987 0.6308,-0.101817 0.70575,-1.051297 1.34185,-1.115906 0.78679,-0.08037 1.10313,1.145163 1.88324,1.018443 0.72983,-0.118545 0.57982,-1.263606 1.29111,-1.448817 0.63289,-0.164807 1.15856,0.62274 1.80836,0.519035 0.5884,-0.09389 0.77757,-0.859877 1.36678,-0.949522 0.70006,-0.106521 1.23357,0.716812 1.92887,0.587318 0.5772,-0.107489 0.6697,-0.906089 1.24588,-1.017762 0.64509,-0.125 1.15857,0.622744 1.80835,0.51904 0.58845,-0.09389 0.77428,-0.875988 1.366,-0.949409 0.69244,-0.0859 1.14492,0.796526 1.8333,0.685423 0.63081,-0.101818 0.70831,-1.030048 1.34185,-1.115906 0.63354,-0.08589 0.98034,0.784844 1.61593,0.714884 0.69359,-0.07625 0.86804,-1.047945 1.55882,-1.145329 0.6405,-0.09003 1.07091,0.703635 1.7119,0.61674 0.64098,-0.08694 0.82612,-0.934904 1.46245,-1.047114 0.67897,-0.119743 1.23899,0.629157 1.91683,0.504329 0.55593,-0.102369 0.70166,-0.835593 1.2583,-0.934815 0.80769,-0.144009 1.48097,0.841252 2.26724,0.626585 0.51082,-0.139471 0.39746,-0.915559 0.90752,-1.057025 0.58172,-0.16134 1.08383,0.532139 1.68695,0.450352 0.60312,-0.08184 0.88153,-0.827941 1.4878,-0.880786 0.74566,-0.0651 1.2199,0.892563 1.95425,0.753907 0.62386,-0.117808 0.5973,-1.063742 1.2205,-1.184341 0.68365,-0.132304 1.14493,0.796537 1.8333,0.685435 0.63081,-0.101818 0.71342,-0.999135 1.34104,-1.115813 0.61545,-0.114432 1.07858,0.617979 1.69986,0.53375 0.62128,-0.0843 0.85622,-0.866833 1.47528,-0.964232 0.68154,-0.107258 1.23903,0.629147 1.91684,0.504327 0.55593,-0.102368 0.70323,-0.827296 1.25791,-0.934766 0.30877,-0.05986 0.59915,0.05497 0.88713,0.189841 1.77203,-3.553547 0.287,-7.092723 -1.51704,-10.118124 -0.21076,0.281384 -0.41201,0.575623 -0.76752,0.607886 -0.6333,0.05754 -0.88631,-0.865607 -1.51996,-0.813044 -0.74586,0.0622 -0.90838,1.19267 -1.65479,1.243478 -0.71117,0.04845 -0.94465,-1.041886 -1.65379,-0.96467 -0.76157,0.08291 -0.75727,1.333264 -1.52055,1.395048 -0.7133,0.05774 -0.84453,-1.121249 -1.55779,-1.062573 -0.81461,0.06678 -0.81532,1.341794 -1.61736,1.493067 -0.63461,0.119691 -1.07139,-0.704096 -1.71239,-0.617196 -0.64099,0.08689 -0.81959,0.974347 -1.46236,1.047624 -0.71476,0.08152 -1.13618,-0.883802 -1.84581,-0.768865 -0.65397,0.105916 -0.67175,1.112365 -1.32893,1.199298 -0.75944,0.100302 -1.11475,-1.058039 -1.87037,-0.935306 -0.7036,0.114297 -0.59915,1.260322 -1.30439,1.365746 -0.73087,0.109208 -1.02979,-1.049254 -1.76227,-0.949972 -0.73247,0.09935 -0.67789,1.300799 -1.41287,1.38046 -0.73566,0.07967 -0.93025,-1.127923 -1.66587,-1.047925 z"/> </g> </g> </g> </g> </g> </svg>